#N canvas 465 42 523 490 10;
#X declare -path lib;
#X declare -path flute;
#X obj 50 18 adc~;
#X obj 281 444 dac~;
#X obj 208 34 declare -path lib;
#X obj 207 58 declare -path flute;
#N canvas 58 95 1137 436 samples 0;
#X obj 690 335 soundfiler;
#X obj 759 84 loadbang;
#X obj 589 273 table hann;
#X obj -38 82 table fl_t60;
#X obj -39 105 table fl_t61;
#X obj -38 126 table fl_t62;
#X obj -39 149 table fl_t63;
#X obj -39 171 table fl_t64;
#X obj -40 194 table fl_t65;
#X obj -39 216 table fl_t66;
#X obj -40 239 table fl_t67;
#X obj -41 263 table fl_t68;
#X obj -42 286 table fl_t69;
#X obj -43 309 table fl_t70;
#X obj -44 332 table fl_t71;
#X obj -44 354 table fl_t72;
#X obj 48 85 table fl_t73;
#X obj 47 108 table fl_t74;
#X obj 48 129 table fl_t75;
#X obj 47 152 table fl_t76;
#X obj 47 174 table fl_t77;
#X obj 46 197 table fl_t78;
#X obj 47 219 table fl_t79;
#X obj 46 242 table fl_t80;
#X obj 45 266 table fl_t81;
#X obj 44 289 table fl_t82;
#X obj 43 312 table fl_t83;
#X obj 42 334 table fl_t84;
#X obj 42 357 table fl_t85;
#X obj 138 84 table fl_t86;
#X obj 137 107 table fl_t87;
#X obj 138 128 table fl_t88;
#X obj 137 151 table fl_t89;
#X obj 137 173 table fl_t90;
#X obj 136 196 table fl_t91;
#X obj 137 218 table fl_t92;
#X obj 136 241 table fl_t93;
#X obj 135 260 table fl_t94;
#X obj 231 85 table fl_n60;
#X obj 231 109 table fl_n61;
#X obj 232 131 table fl_n62;
#X obj 232 155 table fl_n63;
#X obj 233 181 table fl_n64;
#X obj 233 205 table fl_n65;
#X obj 234 227 table fl_n66;
#X obj 234 252 table fl_n67;
#X obj 236 275 table fl_n68;
#X obj 236 299 table fl_n69;
#X obj 237 321 table fl_n70;
#X obj 237 345 table fl_n71;
#X obj 238 371 table fl_n72;
#X obj 315 86 table fl_n73;
#X obj 315 110 table fl_n74;
#X obj 316 132 table fl_n75;
#X obj 316 156 table fl_n76;
#X obj 317 182 table fl_n77;
#X obj 317 206 table fl_n78;
#X obj 318 228 table fl_n79;
#X obj 318 252 table fl_n80;
#X obj 320 276 table fl_n81;
#X obj 320 300 table fl_n82;
#X obj 321 322 table fl_n83;
#X obj 321 346 table fl_n84;
#X obj 322 372 table fl_n85;
#X obj 401 80 table fl_n86;
#X obj 399 103 table fl_n87;
#X obj 401 124 table fl_n88;
#X obj 400 147 table fl_n89;
#X obj 400 169 table fl_n90;
#X obj 399 192 table fl_n91;
#X obj 400 214 table fl_n92;
#X obj 399 237 table fl_n93;
#X obj 398 256 table fl_n94;
#X obj 488 83 table fl_a60;
#X obj 488 107 table fl_a61;
#X obj 489 129 table fl_a62;
#X obj 489 153 table fl_a63;
#X obj 491 179 table fl_a64;
#X obj 489 203 table fl_a65;
#X obj 491 225 table fl_a66;
#X obj 491 249 table fl_a67;
#X obj 493 272 table fl_a68;
#X obj 493 297 table fl_a69;
#X obj 494 319 table fl_a70;
#X obj 494 343 table fl_a71;
#X obj 495 369 table fl_a72;
#X obj 576 83 table fl_a73;
#X obj 576 107 table fl_a74;
#X obj 577 129 table fl_a75;
#X obj 577 153 table fl_a76;
#X obj 579 180 table fl_a77;
#X obj 578 203 table fl_a78;
#X obj 579 225 table fl_a79;
#X msg 761 230 read -resize flute/air_flutter/\$1.wav fl_a\$1;
#X msg 690 280 read -resize flute/tougue_ram/\$1.wav fl_t\$1 \, read
-resize flute/normal_mf/\$1.wav fl_n\$1 \, read -resize lib/hann.wav
hann;
#X msg 792 136 20;
#X obj 792 167 until;
#X obj 792 198 counter 60;
#X obj 686 164 until;
#X msg 686 133 35;
#X obj 686 195 counter 60;
#X connect 1 0 95 0;
#X connect 1 0 99 0;
#X connect 93 0 0 0;
#X connect 94 0 0 0;
#X connect 95 0 96 0;
#X connect 96 0 97 0;
#X connect 97 0 93 0;
#X connect 98 0 100 0;
#X connect 99 0 98 0;
#X connect 100 0 94 0;
#X restore 207 82 pd samples;
#X obj 273 179 loadmeter;
#X floatatom 273 199 5 0 0 0 - - -, f 5;
#X obj 50 57 envfol;
#N canvas 538 135 617 438 fingering 0;
#X obj 25 153 << 8;
#X obj 83 153 << 7;
#X obj 140 153 << 6;
#X obj 198 153 << 5;
#X obj 261 153 << 4;
#X obj 351 153 << 3;
#X obj 414 153 << 2;
#X obj 478 153 << 1;
#X obj 25 90 > 10;
#X obj 25 123 change;
#X obj 83 91 > 10;
#X obj 83 123 change;
#X obj 140 90 > 10;
#X obj 140 123 change;
#X obj 198 90 > 10;
#X obj 198 123 change;
#X obj 261 90 > 10;
#X obj 261 123 change;
#X obj 351 90 > 10;
#X obj 351 123 change;
#X obj 414 90 > 10;
#X obj 414 123 change;
#X obj 478 90 > 10;
#X obj 478 123 change;
#X obj 532 90 > 10;
#X obj 532 123 change;
#X obj 478 191 +, f 10;
#X obj 353 191 +, f 10;
#X obj 201 197 +, f 10;
#X obj 101 196 +, f 10;
#X obj 407 235 +, f 10;
#X obj 101 225 +, f 10;
#X obj 101 253 +, f 10;
#X obj 26 284 +, f 10;
#X obj 27 310 outlet;
#X obj 219 -12 tgl 15 0 empty empty empty 17 7 0 10 -262144 -1 -1 0
1;
#X obj 225 12 metro 50;
#X obj 25 57 r fl_lt;
#X obj 83 57 r fl_lh1;
#X obj 140 57 r fl_lh2;
#X obj 198 57 r fl_lh3;
#X obj 261 57 r fl_lgis;
#X obj 351 57 r fl_rh1;
#X obj 414 57 r fl_rh2;
#X obj 478 57 r fl_rh3;
#X obj 532 57 r fl_es;
#X connect 0 0 33 0;
#X connect 1 0 29 0;
#X connect 2 0 29 1;
#X connect 3 0 28 0;
#X connect 4 0 28 1;
#X connect 5 0 27 0;
#X connect 6 0 27 1;
#X connect 7 0 26 0;
#X connect 8 0 9 0;
#X connect 9 0 0 0;
#X connect 10 0 11 0;
#X connect 11 0 1 0;
#X connect 12 0 13 0;
#X connect 13 0 2 0;
#X connect 14 0 15 0;
#X connect 15 0 3 0;
#X connect 16 0 17 0;
#X connect 17 0 4 0;
#X connect 18 0 19 0;
#X connect 19 0 5 0;
#X connect 20 0 21 0;
#X connect 21 0 6 0;
#X connect 22 0 23 0;
#X connect 23 0 7 0;
#X connect 24 0 25 0;
#X connect 25 0 26 1;
#X connect 26 0 30 1;
#X connect 27 0 30 0;
#X connect 28 0 31 1;
#X connect 29 0 31 0;
#X connect 30 0 32 1;
#X connect 31 0 32 0;
#X connect 32 0 33 1;
#X connect 33 0 34 0;
#X connect 35 0 36 0;
#X connect 36 0 0 0;
#X connect 36 0 1 0;
#X connect 36 0 2 0;
#X connect 36 0 3 0;
#X connect 36 0 4 0;
#X connect 36 0 5 0;
#X connect 36 0 6 0;
#X connect 36 0 7 0;
#X connect 37 0 8 0;
#X connect 38 0 10 0;
#X connect 39 0 12 0;
#X connect 40 0 14 0;
#X connect 41 0 16 0;
#X connect 42 0 18 0;
#X connect 43 0 20 0;
#X connect 44 0 22 0;
#X connect 45 0 24 0;
#X restore 366 149 pd fingering;
#N canvas 0 22 529 317 tongue_ram_bomber 0;
#X obj 95 67 bng 15 250 50 0 empty empty empty 17 7 0 10 -262144 -1
-1;
#X obj 139 190 throw~ fmix;
#X obj 382 99 tabplay~ fl_t72;
#X obj 289 101 tabplay~ fl_t69;
#X obj 194 97 tabplay~ fl_t62;
#X obj 101 99 tabplay~ fl_a60;
#X connect 0 0 5 0;
#X connect 2 0 1 0;
#X connect 3 0 1 0;
#X connect 4 0 1 0;
#X connect 5 0 1 0;
#X restore 348 46 pd tongue_ram_bomber;
#N canvas 0 22 566 300 sweeper 0;
#N canvas 322 64 590 697 phase 0;
#X obj 51 477 *~;
#X obj 18 477 *~;
#X obj 18 499 -~;
#X obj 167 475 *~;
#X obj 136 475 *~;
#X obj 136 497 +~;
#X obj 109 193 *~;
#X obj 78 193 *~;
#X obj 50 193 *~;
#X obj 19 193 *~;
#X obj 19 218 +~;
#X obj 127 379 *~;
#X obj 20 622 *~;
#X obj 238 430 rfft~;
#X obj 108 161 rfft~;
#X obj 19 564 rifft~;
#X obj 21 646 outlet~;
#X obj 97 379 *~;
#X obj 97 401 +~;
#X obj 124 218 -~;
#X obj 18 431 *~;
#X obj 51 432 *~;
#X obj 127 622 r window-size;
#X obj 19 349 +~ 1e-15;
#X obj 19 598 *~;
#X obj 127 643 expr 2/(3*$f1);
#X obj 293 539 loadbang;
#X obj 97 425 q8_rsqrt~;
#N canvas 207 49 1006 799 read-windows 0;
#X obj 111 -11 *~;
#X obj 192 -622 f;
#X obj 283 -12 *~;
#X obj 192 -755 bang~;
#X obj 62 -434 line~;
#X obj 234 -620 +;
#X obj 74 -362 / 4;
#X floatatom 436 -547 7 0 0 0 - - -, f 7;
#X obj 436 -657 * 0.01;
#X obj 436 -636 + 69;
#X obj 436 -615 mtof;
#X obj 436 -594 / 440;
#X obj 111 15 outlet~;
#X obj 283 13 outlet~;
#X obj 269 -616 s see-loc;
#X obj 232 -560 / 2;
#X obj 195 -560 -;
#X obj 60 -340 -~;
#X obj 61 -516 f;
#X obj 60 -545 b;
#X msg 62 -462 0 \, \$1 \$2;
#X obj 362 -34 tabreceive~ hann;
#X obj 62 -489 pack 0 11.61, f 13;
#X obj 436 -571 * 2048;
#X obj 195 -586 * 44.1;
#X floatatom 714 -588 5 0 0 0 - - -, f 5;
#X obj 697 -548 + 12;
#X obj 209 -656 +;
#X floatatom 852 -329 5 0 0 0 - - -, f 5;
#X obj 75 -219 *~;
#X obj 354 -242 *~;
#X obj 158 -210 *~;
#X obj 463 -237 *~;
#X obj 100 -173 +~, f 5;
#X obj 172 -173 +~, f 5;
#X obj 283 -49 +~, f 5;
#X obj 92 -99 *~;
#X obj 172 -93 *~;
#X obj 347 -88 *~;
#X obj 111 -61 +~, f 4;
#X obj 851 -308 xfade;
#X obj 915 -231 xfade;
#X obj 285 -81 *~;
#X obj 242 -727 inlet;
#X obj 433 -695 inlet;
#X obj 713 -615 inlet;
#X msg 633 -536 set fl_n\$1;
#X msg 697 -522 set fl_n\$1;
#X msg 769 -540 set fl_a\$1;
#X obj 844 -371 inlet;
#X obj 907 -264 inlet;
#X obj 60 -303 tabread4~ fl_n62;
#X obj 229 -305 tabread4~ fl_n62;
#X obj 348 -312 tabread4~ fl_n62;
#X obj 464 -313 tabread4~ fl_n62;
#X obj 579 -311 tabread4~ fl_a62;
#X obj 721 -323 tabread4~ fl_a62;
#X connect 0 0 12 0;
#X connect 1 0 5 0;
#X connect 1 0 24 0;
#X connect 2 0 13 0;
#X connect 3 0 1 0;
#X connect 3 0 27 0;
#X connect 4 0 17 0;
#X connect 4 0 52 0;
#X connect 4 0 54 0;
#X connect 4 0 56 0;
#X connect 5 0 1 1;
#X connect 5 0 14 0;
#X connect 6 0 17 1;
#X connect 7 0 6 0;
#X connect 7 0 15 0;
#X connect 7 0 18 1;
#X connect 8 0 9 0;
#X connect 9 0 10 0;
#X connect 10 0 11 0;
#X connect 11 0 23 0;
#X connect 15 0 16 1;
#X connect 16 0 19 0;
#X connect 16 0 51 1;
#X connect 16 0 52 1;
#X connect 16 0 53 1;
#X connect 16 0 54 1;
#X connect 16 0 55 1;
#X connect 16 0 56 1;
#X connect 17 0 51 0;
#X connect 17 0 53 0;
#X connect 17 0 55 0;
#X connect 18 0 22 0;
#X connect 19 0 18 0;
#X connect 20 0 4 0;
#X connect 21 0 2 1;
#X connect 21 0 0 1;
#X connect 22 0 20 0;
#X connect 23 0 7 0;
#X connect 24 0 16 0;
#X connect 25 0 46 0;
#X connect 25 0 26 0;
#X connect 25 0 48 0;
#X connect 26 0 47 0;
#X connect 27 0 1 1;
#X connect 28 0 40 0;
#X connect 29 0 33 0;
#X connect 30 0 33 1;
#X connect 31 0 34 0;
#X connect 32 0 34 1;
#X connect 33 0 36 0;
#X connect 34 0 42 0;
#X connect 35 0 2 0;
#X connect 36 0 39 0;
#X connect 37 0 39 1;
#X connect 38 0 35 1;
#X connect 39 0 0 0;
#X connect 40 0 29 1;
#X connect 40 0 31 1;
#X connect 40 1 32 1;
#X connect 40 1 30 1;
#X connect 41 0 42 1;
#X connect 41 0 36 1;
#X connect 41 1 38 1;
#X connect 41 1 37 1;
#X connect 42 0 35 0;
#X connect 43 0 27 1;
#X connect 44 0 8 0;
#X connect 45 0 25 0;
#X connect 46 0 51 0;
#X connect 46 0 52 0;
#X connect 47 0 53 0;
#X connect 47 0 54 0;
#X connect 48 0 55 0;
#X connect 48 0 56 0;
#X connect 49 0 28 0;
#X connect 50 0 41 0;
#X connect 51 0 29 0;
#X connect 52 0 31 0;
#X connect 53 0 30 0;
#X connect 54 0 32 0;
#X connect 55 0 37 0;
#X connect 56 0 38 0;
#X restore 266 235 pd read-windows, f 29;
#X obj 121 69 *~;
#X obj 89 69 *~;
#X obj 89 91 +~;
#X obj 159 94 q8_rsqrt~;
#X obj 159 71 +~ 1e-20;
#X obj 73 119 *~;
#X obj 19 118 *~;
#X obj 19 325 +~;
#X obj 125 331 +~;
#X obj 300 616 block~ 2048 4;
#X obj 52 598 tabreceive~ hann;
#X msg 293 565 \; window-size 2048 \; transpo 0 \;;
#X obj 29 245 lrshift~ 1;
#X obj 24 269 lrshift~ -1;
#X obj 141 245 lrshift~ 1;
#X obj 133 269 lrshift~ -1;
#X obj 137 543 tabsend~ prev-imag-fl;
#X obj 136 567 tabsend~ prev-real-fl;
#X obj 20 8 tabreceive~ prev-real-fl;
#X obj 73 29 tabreceive~ prev-imag-fl;
#X obj 260 92 inlet;
#X text 246 59 location;
#X obj 322 115 inlet;
#X obj 384 83 inlet;
#X obj 417 144 inlet;
#X obj 477 95 inlet;
#X text 307 83 pitch bend;
#X text 384 51 pitch;
#X text 412 117 octave;
#X text 475 67 air;
#X connect 0 0 2 1;
#X connect 1 0 2 0;
#X connect 2 0 15 0;
#X connect 2 0 46 0;
#X connect 3 0 5 1;
#X connect 4 0 5 0;
#X connect 5 0 15 1;
#X connect 5 0 45 0;
#X connect 6 0 19 1;
#X connect 7 0 19 0;
#X connect 8 0 10 1;
#X connect 9 0 10 0;
#X connect 10 0 36 0;
#X connect 10 0 42 0;
#X connect 10 0 41 0;
#X connect 11 0 18 1;
#X connect 12 0 16 0;
#X connect 13 0 1 1;
#X connect 13 0 3 1;
#X connect 13 1 0 1;
#X connect 13 1 4 1;
#X connect 14 0 9 1;
#X connect 14 0 7 1;
#X connect 14 1 6 1;
#X connect 14 1 8 1;
#X connect 15 0 24 0;
#X connect 17 0 18 0;
#X connect 18 0 27 0;
#X connect 19 0 37 0;
#X connect 19 0 43 0;
#X connect 19 0 44 0;
#X connect 20 0 1 0;
#X connect 20 0 4 0;
#X connect 21 0 0 0;
#X connect 21 0 3 0;
#X connect 22 0 25 0;
#X connect 23 0 17 1;
#X connect 23 0 17 0;
#X connect 23 0 20 0;
#X connect 24 0 12 0;
#X connect 25 0 12 1;
#X connect 26 0 40 0;
#X connect 27 0 20 1;
#X connect 27 0 21 1;
#X connect 28 0 14 0;
#X connect 28 1 13 0;
#X connect 29 0 31 1;
#X connect 30 0 31 0;
#X connect 31 0 33 0;
#X connect 32 0 34 1;
#X connect 32 0 35 1;
#X connect 33 0 32 0;
#X connect 34 0 8 0;
#X connect 34 0 7 0;
#X connect 35 0 9 0;
#X connect 35 0 6 0;
#X connect 36 0 23 0;
#X connect 37 0 11 0;
#X connect 37 0 11 1;
#X connect 37 0 21 0;
#X connect 39 0 24 1;
#X connect 41 0 36 1;
#X connect 42 0 36 1;
#X connect 43 0 37 1;
#X connect 44 0 37 1;
#X connect 47 0 30 1;
#X connect 47 0 30 0;
#X connect 47 0 35 0;
#X connect 48 0 29 1;
#X connect 48 0 29 0;
#X connect 48 0 34 0;
#X connect 49 0 28 0;
#X connect 51 0 28 1;
#X connect 52 0 28 2;
#X connect 53 0 28 3;
#X connect 54 0 28 4;
#X restore 75 109 pd phase vocoder, f 32;
#N canvas 569 480 482 368 freqshift 0;
#X obj 130 191 hilbert~;
#X obj 135 239 *~;
#X obj 182 239 *~;
#X obj 199 196 cos~;
#X obj 243 195 cos~;
#X obj 109 143 inlet~;
#X obj 235 163 +~ 0.25;
#X obj 193 126 phasor~;
#X obj 193 103 line~;
#X obj 192 77 pack 0 20;
#X obj 145 271 +~;
#X obj 100 341 outlet~;
#X floatatom 278 55 5 0 0 0 - - -, f 5;
#X obj 281 79 / 5;
#X obj 280 27 inlet;
#X connect 0 0 1 0;
#X connect 0 1 2 0;
#X connect 1 0 10 0;
#X connect 2 0 10 1;
#X connect 3 0 1 1;
#X connect 4 0 2 1;
#X connect 5 0 0 0;
#X connect 5 0 11 0;
#X connect 6 0 4 0;
#X connect 7 0 6 0;
#X connect 7 0 3 0;
#X connect 8 0 7 0;
#X connect 9 0 8 0;
#X connect 10 0 11 0;
#X connect 12 0 13 0;
#X connect 13 0 9 0;
#X connect 14 0 12 0;
#X restore 75 181 pd freqshift;
#N canvas 24 316 508 329 chorus 0;
#X obj 98 103 inlet~;
#X obj 237 274 outlet~;
#X obj 265 132 osc~;
#X floatatom 336 50 5 0 0 0 - - -, f 5;
#X obj 259 197 +~ 10;
#X obj 327 114 line~;
#X obj 330 80 pack 0 50;
#X obj 263 159 *~;
#X obj 320 147 /~ 10;
#X obj 29 279 delwrite~ chorus-fl 1000;
#X obj 260 229 vd~ chorus-fl;
#X obj 334 18 inlet;
#X connect 0 0 1 0;
#X connect 0 0 9 0;
#X connect 2 0 7 0;
#X connect 3 0 6 0;
#X connect 4 0 10 0;
#X connect 5 0 2 0;
#X connect 5 0 8 0;
#X connect 6 0 5 0;
#X connect 7 0 4 0;
#X connect 8 0 7 1;
#X connect 10 0 1 0;
#X connect 11 0 3 0;
#X restore 75 145 pd chorus;
#X obj 76 241 table prev-imag-fl;
#X obj 76 263 table prev-real-fl;
#X obj 75 217 throw~ fmix;
#X floatatom 74 39 5 0 0 0 location - -, f 5;
#X floatatom 211 65 5 0 0 0 - - -, f 5;
#X floatatom 266 59 5 0 0 0 - - -, f 5;
#X floatatom 479 163 5 0 0 0 pepe - -, f 5;
#X floatatom 438 134 5 0 0 0 chorus - -, f 5;
#X floatatom 121 63 5 0 0 0 - - -, f 5;
#X floatatom 168 65 5 0 0 0 - - -, f 5;
#X obj 90 11 r fl_lh1;
#X obj 121 37 r fl_lh2;
#X obj 173 11 r fl_lh3;
#X obj 223 26 r fl_rh1;
#X obj 291 29 r fl_rh2;
#X obj 436 103 r fl_rh3;
#X obj 480 132 r fl_es;
#X connect 0 0 2 0;
#X connect 1 0 5 0;
#X connect 2 0 1 0;
#X connect 6 0 0 0;
#X connect 7 0 0 3;
#X connect 8 0 0 4;
#X connect 9 0 1 1;
#X connect 10 0 2 1;
#X connect 11 0 0 1;
#X connect 12 0 0 2;
#X connect 13 0 6 0;
#X connect 14 0 11 0;
#X connect 15 0 12 0;
#X connect 16 0 7 0;
#X connect 17 0 8 0;
#X connect 18 0 10 0;
#X connect 19 0 9 0;
#X restore 348 21 pd sweeper;
#X floatatom 366 168 5 0 0 0 - - -, f 5;
#N canvas 0 22 1394 478 fingering_to_midi 0;
#X obj 46 37 inlet;
#X obj 550 293 outlet, f 10;
#X msg 411 173 62;
#X msg 441 173 63;
#X msg 471 173 64;
#X msg 503 173 65;
#X msg 532 173 66;
#X msg 561 173 67;
#X msg 590 173 68;
#X msg 619 173 69;
#X msg 649 173 70;
#X msg 679 173 71;
#X msg 708 173 72;
#X msg 739 173 73;
#X obj 467 51 sel 494 495 493 489 483 481 497 449 457 449 129 1 366
367;
#X msg 771 173 74;
#X msg 804 173 75;
#X connect 0 0 14 0;
#X connect 2 0 1 0;
#X connect 3 0 1 0;
#X connect 4 0 1 0;
#X connect 5 0 1 0;
#X connect 6 0 1 0;
#X connect 7 0 1 0;
#X connect 8 0 1 0;
#X connect 9 0 1 0;
#X connect 10 0 1 0;
#X connect 11 0 1 0;
#X connect 12 0 1 0;
#X connect 13 0 1 0;
#X connect 14 0 2 0;
#X connect 14 1 3 0;
#X connect 14 2 4 0;
#X connect 14 3 5 0;
#X connect 14 4 6 0;
#X connect 14 5 7 0;
#X connect 14 6 8 0;
#X connect 14 7 9 0;
#X connect 14 8 10 0;
#X connect 14 9 11 0;
#X connect 14 10 12 0;
#X connect 14 11 13 0;
#X connect 14 12 15 0;
#X connect 14 13 16 0;
#X connect 15 0 1 0;
#X connect 16 0 1 0;
#X restore 366 184 pd fingering_to_midi;
#X obj 108 90 s attack;
#X obj 366 220 s pitch;
#X floatatom 366 203 5 0 0 0 - - -, f 5;
#X obj 279 390 *~;
#X obj 333 393 rev2~ 80 80 3000 20, f 21;
#X obj 364 364 *~ 0.8;
#X obj 28 218 decode;
#X msg 67 134 devices;
#X msg 16 134 close;
#X msg 159 146 devicename /dev/ttyUSB0;
#X obj 159 119 loadbang, f 9;
#X obj 24 184 comport 4 57600;
#X obj 28 295 unpack 0 0 0 0 0;
#X obj 149 295 unpack 0 0 0 0 0;
#X obj 28 321 vsl 15 100 0 127 0 0 empty empty empty 0 -9 0 10 -204800
-1 -1 0 1;
#X obj 51 321 vsl 15 100 0 127 0 0 empty empty empty 0 -9 0 10 -262144
-1 -1 0 1;
#X obj 74 321 vsl 15 100 0 127 0 0 empty empty empty 0 -9 0 10 -262144
-1 -1 0 1;
#X obj 97 321 vsl 15 100 0 127 0 0 empty empty empty 0 -9 0 10 -262144
-1 -1 0 1;
#X obj 121 321 vsl 15 100 0 127 0 0 empty empty empty 0 -9 0 10 -262144
-1 -1 0 1;
#X obj 149 321 vsl 15 100 0 127 0 0 empty empty empty 0 -9 0 10 -204800
-1 -1 0 1;
#X obj 172 321 vsl 15 100 0 127 0 0 empty empty empty 0 -9 0 10 -262144
-1 -1 0 1;
#X obj 195 321 vsl 15 100 0 127 0 0 empty empty empty 0 -9 0 10 -262144
-1 -1 0 1;
#X obj 218 321 vsl 15 100 0 127 0 0 empty empty empty 0 -9 0 10 -262144
-1 -1 0 1;
#X obj 242 321 vsl 15 100 0 127 0 0 empty empty empty 0 -9 0 10 -262144
-1 -1 0 1;
#X obj 28 243 route 128 129 144 145 240, f 72;
#N canvas 298 454 457 266 data 0;
#X obj 50 26 inlet;
#X obj 123 25 inlet;
#X obj 185 24 inlet;
#X obj 252 24 inlet;
#X obj 319 27 inlet;
#X obj 69 121 centroid, f 22;
#X obj 217 120 sum, f 26;
#X obj 69 160 /;
#X obj 280 84 t f f;
#X obj 231 84 t f f;
#X obj 171 84 t f f;
#X obj 122 84 t f f;
#X obj 69 84 t f f;
#X obj 69 190 s fl_lh_centroid;
#X obj 216 192 s fl_lh_sum;
#X obj 328 49 s fl_lgis;
#X obj 127 48 s fl_lh1;
#X obj 191 48 s fl_lh2;
#X obj 258 48 s fl_lh3;
#X obj 25 57 s fl_lt;
#X connect 0 0 12 0;
#X connect 0 0 19 0;
#X connect 1 0 11 0;
#X connect 1 0 16 0;
#X connect 2 0 10 0;
#X connect 2 0 17 0;
#X connect 3 0 9 0;
#X connect 3 0 18 0;
#X connect 4 0 8 0;
#X connect 4 0 15 0;
#X connect 5 0 7 0;
#X connect 6 0 7 1;
#X connect 6 0 14 0;
#X connect 7 0 13 0;
#X connect 8 0 5 4;
#X connect 8 1 6 4;
#X connect 9 0 5 3;
#X connect 9 1 6 3;
#X connect 10 0 5 2;
#X connect 10 1 6 2;
#X connect 11 0 5 1;
#X connect 11 1 6 1;
#X connect 12 0 5 0;
#X connect 12 1 6 0;
#X restore 28 439 pd data;
#N canvas 719 266 556 266 data 0;
#X obj 18 38 inlet;
#X obj 101 37 inlet;
#X obj 176 37 inlet;
#X obj 243 36 inlet;
#X obj 78 162 centroid, f 22;
#X obj 248 157 sum, f 26;
#X obj 229 193 /;
#X obj 227 108 t f f;
#X obj 176 108 t f f;
#X obj 128 108 t f f;
#X obj 77 108 t f f, f 6;
#X obj 298 206 s fl_rh_sum;
#X obj 162 228 s fl_rh_centroid;
#X obj 253 59 s fl_es;
#X obj 185 60 s fl_rh3;
#X obj 38 64 s fl_rh1;
#X obj 110 60 s fl_rh2, f 16;
#X connect 0 0 10 0;
#X connect 0 0 15 0;
#X connect 1 0 9 0;
#X connect 1 0 16 0;
#X connect 2 0 8 0;
#X connect 2 0 14 0;
#X connect 3 0 7 0;
#X connect 3 0 13 0;
#X connect 4 0 6 0;
#X connect 5 0 6 1;
#X connect 5 0 11 0;
#X connect 6 0 12 0;
#X connect 7 0 4 3;
#X connect 7 1 5 3;
#X connect 8 0 4 2;
#X connect 8 1 5 2;
#X connect 9 0 4 1;
#X connect 9 1 5 1;
#X connect 10 0 4 0;
#X connect 10 1 5 0;
#X restore 149 438 pd data;
#X obj 363 343 catch~ fmix;
#X obj 26 90 s~ fl_envfol;
#X obj 281 364 r~ fl_envfol;
#X obj 92 157 r toAVR;
#X obj 362 275 shutdown;
#N canvas 0 22 450 300 ping 0;
#X obj 161 62 inlet;
#X obj 223 161 print;
#X msg 222 127 received a ping;
#X obj 161 159 s toAVR;
#X msg 161 122 162;
#X connect 0 0 2 0;
#X connect 0 0 4 0;
#X connect 2 0 1 0;
#X connect 4 0 3 0;
#X restore 309 276 pd ping;
#N canvas 0 22 450 300 fromMIDI 0;
#X floatatom 115 93 5 0 0 0 - - -, f 5;
#X floatatom 161 92 5 0 0 0 - - -, f 5;
#X floatatom 239 114 5 0 0 0 - - -, f 5;
#X obj 121 131 pack 0 0, f 10;
#X obj 304 213 route 64 66 67 69 71;
#X obj 82 205 route 47 49 51 53 57;
#X obj 11 280 outlet;
#X obj 60 282 outlet;
#X obj 112 284 outlet;
#X obj 161 286 outlet;
#X obj 208 287 outlet;
#X obj 265 288 outlet;
#X obj 314 290 outlet;
#X obj 366 292 outlet;
#X obj 415 294 outlet;
#X obj 462 295 outlet;
#X obj 243 152 s preset, f 25;
#X obj 131 57 notein 2;
#X obj 240 72 pgmin 2;
#X connect 0 0 3 0;
#X connect 1 0 3 1;
#X connect 2 0 16 0;
#X connect 3 0 4 0;
#X connect 3 0 5 0;
#X connect 4 0 11 0;
#X connect 4 1 12 0;
#X connect 4 2 13 0;
#X connect 4 3 14 0;
#X connect 4 4 15 0;
#X connect 5 0 6 0;
#X connect 5 1 7 0;
#X connect 5 2 8 0;
#X connect 5 3 9 0;
#X connect 5 4 10 0;
#X connect 17 0 0 0;
#X connect 17 1 1 0;
#X connect 18 0 2 0;
#X restore 52 268 pd fromMIDI, f 26;
#X obj 200 218 pc_confirm;
#X obj 303 219 s preset;
#X floatatom 269 220 5 0 0 0 - - -, f 5;
#X connect 0 0 7 0;
#X connect 5 0 6 0;
#X connect 7 0 41 0;
#X connect 7 1 13 0;
#X connect 8 0 11 0;
#X connect 11 0 12 0;
#X connect 12 0 15 0;
#X connect 15 0 14 0;
#X connect 16 0 1 0;
#X connect 16 0 1 1;
#X connect 16 0 17 0;
#X connect 17 0 1 0;
#X connect 17 0 1 1;
#X connect 18 0 16 1;
#X connect 19 0 37 0;
#X connect 23 0 22 0;
#X connect 25 0 27 0;
#X connect 25 1 28 0;
#X connect 25 2 29 0;
#X connect 25 3 30 0;
#X connect 25 4 31 0;
#X connect 26 0 32 0;
#X connect 26 1 33 0;
#X connect 26 2 34 0;
#X connect 26 3 35 0;
#X connect 26 4 36 0;
#X connect 27 0 38 0;
#X connect 28 0 38 1;
#X connect 29 0 38 2;
#X connect 30 0 38 3;
#X connect 31 0 38 4;
#X connect 32 0 39 0;
#X connect 33 0 39 1;
#X connect 34 0 39 2;
#X connect 35 0 39 3;
#X connect 37 0 25 0;
#X connect 37 1 26 0;
#X connect 37 2 47 0;
#X connect 37 3 45 0;
#X connect 37 4 44 0;
#X connect 40 0 18 0;
#X connect 42 0 16 0;
#X connect 46 0 27 0;
#X connect 46 1 28 0;
#X connect 46 2 29 0;
#X connect 46 3 30 0;
#X connect 46 4 31 0;
#X connect 46 5 32 0;
#X connect 46 6 33 0;
#X connect 46 7 34 0;
#X connect 46 8 35 0;
#X connect 46 9 36 0;
#X connect 47 0 49 0;
#X connect 49 0 48 0;
