#N canvas 465 42 632 536 10;
#X declare -path lib;
#X declare -path flute;
#X obj 24 5 adc~;
#X obj 281 444 dac~;
#X obj 208 34 declare -path lib;
#X obj 207 58 declare -path flute;
#N canvas 137 319 1137 436 samples 1;
#X obj 690 335 soundfiler;
#X obj 759 84 loadbang;
#X obj 589 273 table hann;
#X obj -38 82 table fl_t60;
#X obj -39 105 table fl_t61;
#X obj -38 126 table fl_t62;
#X obj -39 149 table fl_t63;
#X obj -39 171 table fl_t64;
#X obj -40 194 table fl_t65;
#X obj -39 216 table fl_t66;
#X obj -40 239 table fl_t67;
#X obj -41 263 table fl_t68;
#X obj -42 286 table fl_t69;
#X obj -43 309 table fl_t70;
#X obj -44 332 table fl_t71;
#X obj -44 354 table fl_t72;
#X obj 48 85 table fl_t73;
#X obj 47 108 table fl_t74;
#X obj 48 129 table fl_t75;
#X obj 47 152 table fl_t76;
#X obj 47 174 table fl_t77;
#X obj 46 197 table fl_t78;
#X obj 47 219 table fl_t79;
#X obj 46 242 table fl_t80;
#X obj 45 266 table fl_t81;
#X obj 44 289 table fl_t82;
#X obj 43 312 table fl_t83;
#X obj 42 334 table fl_t84;
#X obj 42 357 table fl_t85;
#X obj 138 84 table fl_t86;
#X obj 137 107 table fl_t87;
#X obj 138 128 table fl_t88;
#X obj 137 151 table fl_t89;
#X obj 137 173 table fl_t90;
#X obj 136 196 table fl_t91;
#X obj 137 218 table fl_t92;
#X obj 136 241 table fl_t93;
#X obj 135 260 table fl_t94;
#X obj 231 85 table fl_n60;
#X obj 231 109 table fl_n61;
#X obj 232 131 table fl_n62;
#X obj 232 155 table fl_n63;
#X obj 233 181 table fl_n64;
#X obj 233 205 table fl_n65;
#X obj 234 227 table fl_n66;
#X obj 234 252 table fl_n67;
#X obj 236 275 table fl_n68;
#X obj 236 299 table fl_n69;
#X obj 237 321 table fl_n70;
#X obj 237 345 table fl_n71;
#X obj 238 371 table fl_n72;
#X obj 315 86 table fl_n73;
#X obj 315 110 table fl_n74;
#X obj 316 132 table fl_n75;
#X obj 316 156 table fl_n76;
#X obj 317 182 table fl_n77;
#X obj 317 206 table fl_n78;
#X obj 318 228 table fl_n79;
#X obj 318 252 table fl_n80;
#X obj 320 276 table fl_n81;
#X obj 320 300 table fl_n82;
#X obj 321 322 table fl_n83;
#X obj 321 346 table fl_n84;
#X obj 322 372 table fl_n85;
#X obj 401 80 table fl_n86;
#X obj 399 103 table fl_n87;
#X obj 401 124 table fl_n88;
#X obj 400 147 table fl_n89;
#X obj 400 169 table fl_n90;
#X obj 399 192 table fl_n91;
#X obj 400 214 table fl_n92;
#X obj 399 237 table fl_n93;
#X obj 398 256 table fl_n94;
#X obj 488 83 table fl_a60;
#X obj 488 107 table fl_a61;
#X obj 489 129 table fl_a62;
#X obj 489 153 table fl_a63;
#X obj 491 179 table fl_a64;
#X obj 489 203 table fl_a65;
#X obj 491 225 table fl_a66;
#X obj 491 249 table fl_a67;
#X obj 493 272 table fl_a68;
#X obj 493 297 table fl_a69;
#X obj 494 319 table fl_a70;
#X obj 494 343 table fl_a71;
#X obj 495 369 table fl_a72;
#X obj 576 83 table fl_a73;
#X obj 576 107 table fl_a74;
#X obj 577 129 table fl_a75;
#X obj 577 153 table fl_a76;
#X obj 579 180 table fl_a77;
#X obj 578 203 table fl_a78;
#X obj 579 225 table fl_a79;
#X msg 761 230 read -resize flute/air_flutter/\$1.wav fl_a\$1;
#X msg 792 136 20;
#X obj 792 167 until;
#X obj 686 164 until;
#X msg 686 133 35;
#X obj 686 195 cnt 60;
#X obj 792 198 cnt 60;
#X obj 588 306 table phasor;
#X obj 912 149 tabwrite phasor;
#X msg 692 280 read -resize flute/tougue_ram/\$1.wav fl_t\$1 \, read
-resize flute/normal_mf/\$1.wav fl_n\$1 \, read -resize lib/hann_1024.wav
hann \, read -resize lib/phasor_1024.wav phasor;
#X connect 1 0 94 0;
#X connect 1 0 97 0;
#X connect 93 0 0 0;
#X connect 94 0 95 0;
#X connect 95 0 99 0;
#X connect 96 0 98 0;
#X connect 97 0 96 0;
#X connect 98 0 102 0;
#X connect 99 0 93 0;
#X connect 102 0 0 0;
#X restore 207 82 pd samples;
#X obj 273 179 loadmeter;
#X floatatom 273 199 5 0 0 0 - - -;
#X obj 24 41 envfol;
#N canvas 538 135 617 438 fingering 0;
#X obj 25 153 << 8;
#X obj 83 153 << 7;
#X obj 140 153 << 6;
#X obj 198 153 << 5;
#X obj 261 153 << 4;
#X obj 351 153 << 3;
#X obj 414 153 << 2;
#X obj 478 153 << 1;
#X obj 25 90 > 10;
#X obj 25 123 change;
#X obj 83 91 > 10;
#X obj 83 123 change;
#X obj 140 90 > 10;
#X obj 140 123 change;
#X obj 198 90 > 10;
#X obj 198 123 change;
#X obj 261 90 > 10;
#X obj 261 123 change;
#X obj 351 90 > 10;
#X obj 351 123 change;
#X obj 414 90 > 10;
#X obj 414 123 change;
#X obj 478 90 > 10;
#X obj 478 123 change;
#X obj 532 90 > 10;
#X obj 532 123 change;
#X obj 478 191 +;
#X obj 353 191 +;
#X obj 201 197 +;
#X obj 101 196 +;
#X obj 407 235 +;
#X obj 101 225 +;
#X obj 101 253 +;
#X obj 26 284 +;
#X obj 27 310 outlet;
#X obj 219 -12 tgl 15 0 empty empty empty 17 7 0 10 -262144 -1 -1 0
1;
#X obj 225 12 metro 50;
#X obj 25 57 r fl_lt;
#X obj 83 57 r fl_lh1;
#X obj 140 57 r fl_lh2;
#X obj 198 57 r fl_lh3;
#X obj 261 57 r fl_lgis;
#X obj 351 57 r fl_rh1;
#X obj 414 57 r fl_rh2;
#X obj 478 57 r fl_rh3;
#X obj 532 57 r fl_es;
#X connect 0 0 33 0;
#X connect 1 0 29 0;
#X connect 2 0 29 1;
#X connect 3 0 28 0;
#X connect 4 0 28 1;
#X connect 5 0 27 0;
#X connect 6 0 27 1;
#X connect 7 0 26 0;
#X connect 8 0 9 0;
#X connect 9 0 0 0;
#X connect 10 0 11 0;
#X connect 11 0 1 0;
#X connect 12 0 13 0;
#X connect 13 0 2 0;
#X connect 14 0 15 0;
#X connect 15 0 3 0;
#X connect 16 0 17 0;
#X connect 17 0 4 0;
#X connect 18 0 19 0;
#X connect 19 0 5 0;
#X connect 20 0 21 0;
#X connect 21 0 6 0;
#X connect 22 0 23 0;
#X connect 23 0 7 0;
#X connect 24 0 25 0;
#X connect 25 0 26 1;
#X connect 26 0 30 1;
#X connect 27 0 30 0;
#X connect 28 0 31 1;
#X connect 29 0 31 0;
#X connect 30 0 32 1;
#X connect 31 0 32 0;
#X connect 32 0 33 1;
#X connect 33 0 34 0;
#X connect 35 0 36 0;
#X connect 36 0 0 0;
#X connect 36 0 1 0;
#X connect 36 0 2 0;
#X connect 36 0 3 0;
#X connect 36 0 4 0;
#X connect 36 0 5 0;
#X connect 36 0 6 0;
#X connect 36 0 7 0;
#X connect 37 0 8 0;
#X connect 38 0 10 0;
#X connect 39 0 12 0;
#X connect 40 0 14 0;
#X connect 41 0 16 0;
#X connect 42 0 18 0;
#X connect 43 0 20 0;
#X connect 44 0 22 0;
#X connect 45 0 24 0;
#X restore 366 149 pd fingering;
#N canvas 552 103 682 336 sweeper 0;
#N canvas 188 84 707 769 phase 0;
#X obj 185 427 *~;
#X obj 152 427 *~;
#X obj 152 449 -~;
#X obj 301 425 *~;
#X obj 270 425 *~;
#X obj 270 447 +~;
#X obj 243 143 *~;
#X obj 212 143 *~;
#X obj 184 143 *~;
#X obj 153 143 *~;
#X obj 153 168 +~;
#X obj 261 329 *~;
#X obj 360 368 rfft~;
#X obj 242 111 rfft~;
#X obj 160 551 rifft~;
#X obj 150 651 outlet~;
#X obj 231 329 *~;
#X obj 231 351 +~;
#X obj 258 168 -~;
#X obj 152 381 *~;
#X obj 185 382 *~;
#X obj 153 299 +~ 1e-15;
#X obj 160 585 *~;
#X obj 231 375 q8_rsqrt~;
#N canvas 207 49 1006 799 read-windows 0;
#X obj 111 -11 *~;
#X obj 192 -622 f;
#X obj 283 -12 *~;
#X obj 192 -755 bang~;
#X obj 62 -434 line~;
#X obj 74 -362 / 4;
#X floatatom 436 -547 7 0 0 0 - - -;
#X obj 436 -657 * 0.01;
#X obj 436 -636 + 69;
#X obj 436 -615 mtof;
#X obj 436 -594 / 440;
#X obj 111 15 outlet~;
#X obj 283 13 outlet~;
#X obj 232 -560 / 2;
#X obj 195 -560 -;
#X obj 60 -340 -~;
#X obj 61 -516 f;
#X obj 60 -545 b;
#X msg 62 -462 0 \, \$1 \$2;
#X obj 362 -34 tabreceive~ hann;
#X obj 195 -586 * 44.1;
#X floatatom 714 -588 5 0 0 0 - - -;
#X obj 697 -548 + 12;
#X obj 209 -656 +;
#X floatatom 852 -329 5 0 0 0 - - -;
#X obj 75 -219 *~;
#X obj 354 -242 *~;
#X obj 158 -210 *~;
#X obj 463 -237 *~;
#X obj 100 -173 +~;
#X obj 172 -173 +~;
#X obj 283 -49 +~;
#X obj 92 -99 *~;
#X obj 172 -93 *~;
#X obj 347 -88 *~;
#X obj 111 -61 +~;
#X obj 851 -308 xfade;
#X obj 915 -231 xfade;
#X obj 285 -81 *~;
#X obj 242 -727 inlet;
#X obj 433 -695 inlet;
#X obj 717 -662 inlet;
#X msg 633 -536 set fl_n\$1;
#X msg 697 -522 set fl_n\$1;
#X msg 769 -540 set fl_a\$1;
#X obj 844 -371 inlet;
#X obj 907 -264 inlet;
#X obj 60 -303 tabread4~ fl_n62;
#X obj 229 -305 tabread4~ fl_n62;
#X obj 348 -312 tabread4~ fl_n62;
#X obj 464 -313 tabread4~ fl_n62;
#X obj 579 -311 tabread4~ fl_a62;
#X obj 721 -323 tabread4~ fl_a62;
#X obj 706 -618 i;
#X floatatom 953 -255 5 0 0 0 - - -;
#X obj 436 -571 * 1024;
#X obj 62 -489 pack 0 5.805;
#X connect 0 0 11 0;
#X connect 1 0 20 0;
#X connect 2 0 12 0;
#X connect 3 0 1 0;
#X connect 3 0 23 0;
#X connect 4 0 15 0;
#X connect 4 0 48 0;
#X connect 4 0 50 0;
#X connect 4 0 52 0;
#X connect 5 0 15 1;
#X connect 6 0 5 0;
#X connect 6 0 13 0;
#X connect 6 0 16 1;
#X connect 7 0 8 0;
#X connect 8 0 9 0;
#X connect 9 0 10 0;
#X connect 10 0 55 0;
#X connect 13 0 14 1;
#X connect 14 0 17 0;
#X connect 14 0 47 1;
#X connect 14 0 48 1;
#X connect 14 0 49 1;
#X connect 14 0 50 1;
#X connect 14 0 51 1;
#X connect 14 0 52 1;
#X connect 15 0 47 0;
#X connect 15 0 49 0;
#X connect 15 0 51 0;
#X connect 16 0 56 0;
#X connect 17 0 16 0;
#X connect 18 0 4 0;
#X connect 19 0 2 1;
#X connect 19 0 0 1;
#X connect 20 0 14 0;
#X connect 21 0 42 0;
#X connect 21 0 22 0;
#X connect 21 0 44 0;
#X connect 22 0 43 0;
#X connect 23 0 1 1;
#X connect 24 0 36 0;
#X connect 25 0 29 0;
#X connect 26 0 29 1;
#X connect 27 0 30 0;
#X connect 28 0 30 1;
#X connect 29 0 32 0;
#X connect 30 0 38 0;
#X connect 31 0 2 0;
#X connect 32 0 35 0;
#X connect 33 0 35 1;
#X connect 34 0 31 1;
#X connect 35 0 0 0;
#X connect 36 0 25 1;
#X connect 36 0 27 1;
#X connect 36 1 28 1;
#X connect 36 1 26 1;
#X connect 37 0 38 1;
#X connect 37 0 32 1;
#X connect 37 1 34 1;
#X connect 37 1 33 1;
#X connect 38 0 31 0;
#X connect 39 0 23 1;
#X connect 40 0 7 0;
#X connect 41 0 53 0;
#X connect 42 0 47 0;
#X connect 42 0 48 0;
#X connect 43 0 49 0;
#X connect 43 0 50 0;
#X connect 44 0 51 0;
#X connect 44 0 52 0;
#X connect 45 0 24 0;
#X connect 46 0 37 0;
#X connect 47 0 25 0;
#X connect 48 0 27 0;
#X connect 49 0 26 0;
#X connect 50 0 28 0;
#X connect 51 0 33 0;
#X connect 52 0 34 0;
#X connect 53 0 21 0;
#X connect 54 0 37 0;
#X connect 55 0 6 0;
#X connect 56 0 18 0;
#X restore 359 171 pd read-windows;
#X obj 255 19 *~;
#X obj 223 19 *~;
#X obj 223 41 +~;
#X obj 293 44 q8_rsqrt~;
#X obj 293 21 +~ 1e-20;
#X obj 207 69 *~;
#X obj 153 68 *~;
#X obj 153 275 +~;
#X obj 259 281 +~;
#X obj 256 553 tabreceive~ hann;
#X obj 163 195 lrshift~ 1;
#X obj 158 219 lrshift~ -1;
#X obj 275 195 lrshift~ 1;
#X obj 267 219 lrshift~ -1;
#X obj 271 493 tabsend~ prev-imag-fl;
#X obj 270 517 tabsend~ prev-real-fl;
#X obj 154 -42 tabreceive~ prev-real-fl;
#X obj 207 -21 tabreceive~ prev-imag-fl;
#X obj 335 62 inlet;
#X obj 580 82 inlet;
#X obj 467 64 inlet;
#X obj 645 98 inlet;
#X text 563 46 pitch bend;
#X text 507 56 pitch;
#X text 471 38 octave;
#X text 643 70 air;
#X obj 503 86 r pitch;
#X obj 377 66 inlet;
#X obj 49 687 outlet~;
#X obj 46 634 *~;
#X obj 44 609 rifft~;
#X obj 36 415 rfft~;
#X obj 8 281 inlet~;
#X obj 14 359 *~;
#X obj 434 566 block~ 1024 4;
#X obj 38 316 tabreceive~ hann;
#X obj 19 502 *~;
#X obj 51 502 *~;
#X obj 90 503 *~;
#X obj 122 503 *~;
#X obj 22 529 -~;
#X obj 111 532 +~;
#X obj 223 612 clip~ -100 100;
#X obj 1 571 clip~ -100 100;
#X obj 48 657 *~ 0.0004;
#X obj 152 618 *~ 0.0004;
#X obj 416 351 tabreceive~ phasor;
#X obj 538 401 *~ 1024;
#X floatatom 540 367 5 0 0 0 - - -;
#X obj 452 418 *~;
#X obj 404 456 tabread4~ prev-real-fl;
#X obj 477 485 tabread4~ prev-imag-fl;
#X obj 532 304 f 1;
#X obj 597 286 t b f;
#X obj 549 334 -;
#X obj 536 264 / 250;
#X connect 0 0 2 1;
#X connect 1 0 2 0;
#X connect 2 0 40 0;
#X connect 2 0 61 1;
#X connect 2 0 63 0;
#X connect 3 0 5 1;
#X connect 4 0 5 0;
#X connect 5 0 39 0;
#X connect 5 0 64 0;
#X connect 5 0 62 1;
#X connect 6 0 18 1;
#X connect 7 0 18 0;
#X connect 8 0 10 1;
#X connect 9 0 10 0;
#X connect 10 0 32 0;
#X connect 10 0 36 0;
#X connect 10 0 35 0;
#X connect 11 0 17 1;
#X connect 12 0 1 1;
#X connect 12 0 3 1;
#X connect 12 1 0 1;
#X connect 12 1 4 1;
#X connect 13 0 9 1;
#X connect 13 0 7 1;
#X connect 13 1 6 1;
#X connect 13 1 8 1;
#X connect 14 0 22 0;
#X connect 16 0 17 0;
#X connect 17 0 23 0;
#X connect 18 0 33 0;
#X connect 18 0 37 0;
#X connect 18 0 38 0;
#X connect 19 0 1 0;
#X connect 19 0 4 0;
#X connect 20 0 0 0;
#X connect 20 0 3 0;
#X connect 21 0 16 1;
#X connect 21 0 16 0;
#X connect 21 0 19 0;
#X connect 22 0 70 0;
#X connect 23 0 19 1;
#X connect 23 0 20 1;
#X connect 24 0 13 0;
#X connect 24 1 12 0;
#X connect 25 0 27 1;
#X connect 26 0 27 0;
#X connect 27 0 29 0;
#X connect 28 0 30 1;
#X connect 28 0 31 1;
#X connect 29 0 28 0;
#X connect 30 0 8 0;
#X connect 30 0 7 0;
#X connect 31 0 9 0;
#X connect 31 0 6 0;
#X connect 32 0 21 0;
#X connect 33 0 11 0;
#X connect 33 0 11 1;
#X connect 33 0 20 0;
#X connect 34 0 22 1;
#X connect 34 0 54 1;
#X connect 35 0 32 1;
#X connect 36 0 32 1;
#X connect 37 0 33 1;
#X connect 38 0 33 1;
#X connect 41 0 26 1;
#X connect 41 0 26 0;
#X connect 41 0 31 0;
#X connect 42 0 25 1;
#X connect 42 0 25 0;
#X connect 42 0 30 0;
#X connect 43 0 24 0;
#X connect 44 0 24 1;
#X connect 45 0 24 3;
#X connect 46 0 24 4;
#X connect 51 0 24 2;
#X connect 52 0 80 0;
#X connect 54 0 69 0;
#X connect 55 0 54 0;
#X connect 56 0 61 0;
#X connect 56 0 64 1;
#X connect 56 1 62 0;
#X connect 56 1 63 1;
#X connect 57 0 58 0;
#X connect 58 0 56 0;
#X connect 60 0 58 1;
#X connect 61 0 65 0;
#X connect 62 0 65 1;
#X connect 63 0 66 0;
#X connect 64 0 66 1;
#X connect 65 0 68 0;
#X connect 66 0 67 0;
#X connect 67 0 55 1;
#X connect 68 0 55 0;
#X connect 69 0 53 0;
#X connect 70 0 15 0;
#X connect 71 0 74 0;
#X connect 72 0 74 1;
#X connect 73 0 72 0;
#X connect 74 0 75 0;
#X connect 74 0 76 0;
#X connect 75 0 14 0;
#X connect 76 0 14 1;
#X connect 77 0 79 0;
#X connect 78 0 77 0;
#X connect 78 1 79 1;
#X connect 79 0 73 0;
#X connect 80 0 78 0;
#X restore 148 140 pd phase vocoder;
#N canvas 569 480 482 368 freqshift 0;
#X obj 130 191 hilbert~;
#X obj 135 239 *~;
#X obj 182 239 *~;
#X obj 199 196 cos~;
#X obj 243 195 cos~;
#X obj 109 143 inlet~;
#X obj 235 163 +~ 0.25;
#X obj 193 126 phasor~;
#X obj 193 103 line~;
#X obj 192 77 pack 0 20;
#X obj 145 271 +~;
#X obj 100 341 outlet~;
#X floatatom 278 55 5 0 0 0 - - -;
#X obj 281 79 / 5;
#X obj 280 27 inlet;
#X connect 0 0 1 0;
#X connect 0 1 2 0;
#X connect 1 0 10 0;
#X connect 2 0 10 1;
#X connect 3 0 1 1;
#X connect 4 0 2 1;
#X connect 5 0 0 0;
#X connect 5 0 11 0;
#X connect 6 0 4 0;
#X connect 7 0 6 0;
#X connect 7 0 3 0;
#X connect 8 0 7 0;
#X connect 9 0 8 0;
#X connect 10 0 11 0;
#X connect 12 0 13 0;
#X connect 13 0 9 0;
#X connect 14 0 12 0;
#X restore 167 284 pd freqshift;
#N canvas 24 316 508 329 chorus 0;
#X obj 98 103 inlet~;
#X obj 237 274 outlet~;
#X obj 265 132 osc~;
#X floatatom 336 50 5 0 0 0 - - -;
#X obj 259 197 +~ 10;
#X obj 327 114 line~;
#X obj 330 80 pack 0 50;
#X obj 263 159 *~;
#X obj 29 279 delwrite~ chorus-fl 1000;
#X obj 260 229 vd~ chorus-fl;
#X obj 334 18 inlet;
#X obj 320 147 /~ 50;
#X obj 265 103 /~ 10;
#X connect 0 0 1 0;
#X connect 0 0 8 0;
#X connect 2 0 7 0;
#X connect 3 0 6 0;
#X connect 4 0 9 0;
#X connect 5 0 11 0;
#X connect 5 0 12 0;
#X connect 6 0 5 0;
#X connect 7 0 4 0;
#X connect 9 0 1 0;
#X connect 10 0 3 0;
#X connect 11 0 7 1;
#X connect 12 0 2 0;
#X restore 168 262 pd chorus;
#X obj 503 213 table prev-imag-fl;
#X obj 503 235 table prev-real-fl;
#X obj 166 317 throw~ fmix;
#X floatatom 303 62 5 0 0 0 stretch - -;
#X floatatom 617 119 5 0 0 0 noise - -;
#X floatatom 553 120 5 0 0 0 pepe - -;
#X floatatom 487 113 5 0 0 0 chorus - -;
#X floatatom 103 84 5 0 0 0 bend - -;
#X floatatom 175 67 5 0 0 0 octave - -;
#X obj 553 81 r fl_rh3;
#X obj 34 88 r fl_vol;
#X obj 37 114 * 400;
#X obj 415 80 r fl_rh1;
#X obj 487 82 r fl_rh2;
#X floatatom 454 55 5 0 0 0 xsynth - -;
#X floatatom 392 117 5 0 0 0 am - -;
#N canvas 681 180 450 300 am 0;
#X obj 44 181 inlet~;
#X obj 55 266 outlet~;
#X obj 239 10 inlet;
#X floatatom 240 52 5 0 0 0 - - -;
#X obj 212 203 *~;
#X obj 254 133 / 127;
#X obj 251 161 pack 0 10;
#X obj 256 187 line~;
#X obj 181 100 pack 0 10;
#X obj 186 130 line~;
#X obj 197 162 osc~;
#X obj 162 214 *~;
#X obj 189 76 / 2;
#X obj 124 260 xfade;
#X floatatom 123 163 5 0 0 0 - - -;
#X obj 122 140 * 0.69;
#X obj 32 225 *~;
#X obj 77 232 *~;
#X connect 0 0 16 0;
#X connect 0 0 11 0;
#X connect 2 0 3 0;
#X connect 3 0 5 0;
#X connect 3 0 12 0;
#X connect 3 0 15 0;
#X connect 4 0 11 1;
#X connect 5 0 6 0;
#X connect 6 0 7 0;
#X connect 7 0 4 1;
#X connect 8 0 9 0;
#X connect 9 0 10 0;
#X connect 10 0 4 0;
#X connect 11 0 17 0;
#X connect 12 0 8 0;
#X connect 13 0 16 1;
#X connect 13 1 17 1;
#X connect 14 0 13 0;
#X connect 15 0 14 0;
#X connect 16 0 1 0;
#X connect 17 0 1 0;
#X restore 167 237 pd am;
#X obj 81 35 r fl_lh1;
#X obj 445 27 r fl_lh2;
#X obj 302 111 * 0.67;
#X obj 302 33 r fl_lgis;
#X obj 2 170 catch~ fl_input;
#X obj 277 147 xfade;
#X obj 172 35 r fl_lh2;
#X obj 148 197 *~;
#X obj 183 203 *~;
#X floatatom 250 81 5 0 0 0 bend - -;
#X obj 228 32 r fl_lh3;
#X obj 617 82 r fl_res;
#X connect 0 0 27 0;
#X connect 0 1 28 0;
#X connect 1 0 5 0;
#X connect 2 0 1 0;
#X connect 6 0 22 0;
#X connect 7 0 0 5;
#X connect 8 0 1 1;
#X connect 9 0 2 1;
#X connect 10 0 0 4;
#X connect 11 0 0 3;
#X connect 12 0 8 0;
#X connect 13 0 14 0;
#X connect 14 0 0 1;
#X connect 15 0 18 0;
#X connect 16 0 9 0;
#X connect 18 0 19 1;
#X connect 19 0 2 0;
#X connect 20 0 10 0;
#X connect 21 0 17 0;
#X connect 22 0 25 0;
#X connect 23 0 6 0;
#X connect 24 0 0 0;
#X connect 25 0 28 1;
#X connect 25 1 27 1;
#X connect 26 0 11 0;
#X connect 27 0 19 0;
#X connect 28 0 19 0;
#X connect 29 0 0 2;
#X connect 30 0 29 0;
#X connect 31 0 7 0;
#X restore 348 21 pd sweeper;
#X floatatom 366 168 5 0 0 0 - - -;
#N canvas 0 22 1392 478 fingering_to_midi 0;
#X obj 416 26 inlet;
#X obj 550 293 outlet;
#X msg 411 173 62;
#X msg 441 173 63;
#X msg 471 173 64;
#X msg 503 173 65;
#X msg 532 173 66;
#X msg 561 173 67;
#X msg 590 173 68;
#X msg 619 173 69;
#X msg 649 173 70;
#X msg 679 173 71;
#X msg 708 173 72;
#X msg 739 173 73;
#X obj 467 51 sel 494 495 493 489 483 481 497 449 457 449 129 1 366
367;
#X msg 771 173 74;
#X msg 804 173 75;
#X connect 0 0 14 0;
#X connect 2 0 1 0;
#X connect 3 0 1 0;
#X connect 4 0 1 0;
#X connect 5 0 1 0;
#X connect 6 0 1 0;
#X connect 7 0 1 0;
#X connect 8 0 1 0;
#X connect 9 0 1 0;
#X connect 10 0 1 0;
#X connect 11 0 1 0;
#X connect 12 0 1 0;
#X connect 13 0 1 0;
#X connect 14 0 2 0;
#X connect 14 1 3 0;
#X connect 14 2 4 0;
#X connect 14 3 5 0;
#X connect 14 4 6 0;
#X connect 14 5 7 0;
#X connect 14 6 8 0;
#X connect 14 7 9 0;
#X connect 14 8 10 0;
#X connect 14 9 11 0;
#X connect 14 10 12 0;
#X connect 14 11 13 0;
#X connect 14 12 15 0;
#X connect 14 13 16 0;
#X connect 15 0 1 0;
#X connect 16 0 1 0;
#X restore 366 184 pd fingering_to_midi;
#X obj 122 93 s attack;
#X obj 366 220 s pitch;
#X floatatom 366 203 5 0 0 0 - - -;
#X obj 279 390 *~;
#X msg 29 145 devices;
#X msg -30 144 close;
#X obj 162 110 loadbang;
#X obj 24 184 comport 4 57600;
#X obj 28 295 unpack 0 0 0 0 0;
#X obj 28 341 vsl 15 100 0 127 0 0 empty empty empty 0 -9 0 10 -204800
-1 -1 0 1;
#X obj 51 341 vsl 15 100 0 127 0 0 empty empty empty 0 -9 0 10 -262144
-1 -1 0 1;
#X obj 74 341 vsl 15 100 0 127 0 0 empty empty empty 0 -9 0 10 -262144
-1 -1 0 1;
#X obj 97 343 vsl 15 100 0 127 0 0 empty empty empty 0 -9 0 10 -262144
-1 -1 0 1;
#X obj 121 342 vsl 15 100 0 127 0 0 empty empty empty 0 -9 0 10 -262144
-1 -1 0 1;
#X obj 149 340 vsl 15 100 0 127 0 0 empty empty empty 0 -9 0 10 -204800
-1 -1 0 1;
#X obj 172 340 vsl 15 100 0 127 0 0 empty empty empty 0 -9 0 10 -262144
-1 -1 0 1;
#X obj 195 340 vsl 15 100 0 127 0 0 empty empty empty 0 -9 0 10 -262144
-1 -1 0 1;
#X obj 218 340 vsl 15 100 0 127 0 0 empty empty empty 0 -9 0 10 -262144
-1 -1 0 1;
#X obj 28 243 route 128 129 144 145 240;
#N canvas 566 374 457 266 data 0;
#X obj 50 26 inlet;
#X obj 123 25 inlet;
#X obj 185 24 inlet;
#X obj 252 24 inlet;
#X obj 319 27 inlet;
#X obj 69 160 /;
#X obj 280 84 t f f;
#X obj 231 84 t f f;
#X obj 171 84 t f f;
#X obj 122 84 t f f;
#X obj 69 84 t f f;
#X obj 69 190 s fl_lh_centroid;
#X obj 216 192 s fl_lh_sum;
#X obj 328 49 s fl_lgis;
#X obj 127 48 s fl_lh1;
#X obj 191 48 s fl_lh2;
#X obj 258 48 s fl_lh3;
#X obj 13 61 s fl_lt;
#X obj 217 120 total;
#X obj 69 121 center;
#X connect 0 0 10 0;
#X connect 0 0 17 0;
#X connect 1 0 9 0;
#X connect 1 0 14 0;
#X connect 2 0 8 0;
#X connect 2 0 15 0;
#X connect 3 0 7 0;
#X connect 3 0 16 0;
#X connect 4 0 6 0;
#X connect 4 0 13 0;
#X connect 5 0 11 0;
#X connect 6 0 19 4;
#X connect 6 1 18 4;
#X connect 7 0 19 3;
#X connect 7 1 18 3;
#X connect 8 0 19 2;
#X connect 8 1 18 2;
#X connect 9 0 19 1;
#X connect 9 1 18 1;
#X connect 10 0 19 0;
#X connect 10 1 18 0;
#X connect 18 0 5 1;
#X connect 18 0 12 0;
#X connect 19 0 5 0;
#X restore 28 459 pd data;
#N canvas 719 266 556 266 data 0;
#X obj 18 38 inlet;
#X obj 101 37 inlet;
#X obj 176 37 inlet;
#X obj 243 36 inlet;
#X obj 161 189 /;
#X obj 227 108 t f f;
#X obj 176 108 t f f;
#X obj 128 108 t f f;
#X obj 77 108 t f f;
#X obj 269 225 s fl_rh_sum;
#X obj 115 223 s fl_rh_centroid;
#X obj 185 60 s fl_rh3;
#X obj 38 64 s fl_rh1;
#X obj 110 60 s fl_rh2;
#X obj 78 162 center;
#X obj 248 157 total;
#X obj 253 59 s fl_res;
#X connect 0 0 8 0;
#X connect 0 0 12 0;
#X connect 1 0 7 0;
#X connect 1 0 13 0;
#X connect 2 0 6 0;
#X connect 2 0 11 0;
#X connect 3 0 5 0;
#X connect 3 0 16 0;
#X connect 4 0 10 0;
#X connect 5 0 14 3;
#X connect 5 1 15 3;
#X connect 6 0 14 2;
#X connect 6 1 15 2;
#X connect 7 0 14 1;
#X connect 7 1 15 1;
#X connect 8 0 14 0;
#X connect 8 1 15 0;
#X connect 14 0 4 0;
#X connect 15 0 4 1;
#X connect 15 0 9 0;
#X restore 149 457 pd data;
#X obj 409 306 catch~ fmix;
#X obj 86 155 r toAVR;
#X obj 312 271 shutdown;
#N canvas 0 22 450 300 ping 0;
#X obj 161 62 inlet;
#X obj 223 161 print;
#X msg 222 127 received a ping;
#X obj 161 159 s toAVR;
#X msg 161 122 162;
#X connect 0 0 2 0;
#X connect 0 0 4 0;
#X connect 2 0 1 0;
#X connect 4 0 3 0;
#X restore 259 272 pd ping;
#N canvas 0 22 450 300 fromMIDI 0;
#X floatatom 115 93 5 0 0 0 - - -;
#X floatatom 161 92 5 0 0 0 - - -;
#X floatatom 239 114 5 0 0 0 - - -;
#X obj 121 131 pack 0 0;
#X obj 304 213 route 64 66 67 69 71;
#X obj 82 205 route 47 49 51 53 57;
#X obj 11 280 outlet;
#X obj 60 282 outlet;
#X obj 112 284 outlet;
#X obj 161 286 outlet;
#X obj 208 287 outlet;
#X obj 265 288 outlet;
#X obj 314 290 outlet;
#X obj 366 292 outlet;
#X obj 415 294 outlet;
#X obj 462 295 outlet;
#X obj 243 152 s preset;
#X obj 131 57 notein 2;
#X obj 240 72 pgmin 2;
#X connect 0 0 3 0;
#X connect 1 0 3 1;
#X connect 2 0 16 0;
#X connect 3 0 4 0;
#X connect 3 0 5 0;
#X connect 4 0 11 0;
#X connect 4 1 12 0;
#X connect 4 2 13 0;
#X connect 4 3 14 0;
#X connect 4 4 15 0;
#X connect 5 0 6 0;
#X connect 5 1 7 0;
#X connect 5 2 8 0;
#X connect 5 3 9 0;
#X connect 5 4 10 0;
#X connect 17 0 0 0;
#X connect 17 1 1 0;
#X connect 18 0 2 0;
#X restore -54 323 pd fromMIDI;
#X obj 202 177 pc_confirm;
#X obj 203 226 s preset;
#X floatatom 202 201 5 0 0 0 - - -;
#X obj 28 218 uart_decode;
#X msg 144 184 open 2;
#X obj 376 428 jingle;
#X obj 149 293 unpack 0 0 0 0 0;
#X obj 52 318 * 1.6;
#X msg 159 142 devicename /dev/ttyUSB0 \; pd dsp 1;
#X obj 25 113 s fl_vol;
#X floatatom 25 90 5 0 0 0 - - -;
#X obj 278 296 r fl_vol;
#X obj 278 319 pack 0 10;
#X obj 271 353 line~;
#X obj 140 73 bng 15 250 50 0 empty empty empty 17 7 0 10 -262144 -1
-1;
#N canvas 223 203 450 300 attack 0;
#X obj 111 204 sel 1;
#X obj 110 178 change;
#X obj 113 97 -;
#X obj 108 68 t f f;
#X floatatom 111 123 5 0 0 0 - - -;
#X obj 110 245 outlet;
#X obj 108 22 inlet;
#X obj 110 156 > 0.35;
#X connect 0 0 5 0;
#X connect 1 0 0 0;
#X connect 2 0 4 0;
#X connect 3 0 2 1;
#X connect 3 1 2 0;
#X connect 4 0 7 0;
#X connect 6 0 3 0;
#X connect 7 0 1 0;
#X restore 137 55 pd attack;
#N canvas 23 182 1217 395 holes 1;
#X obj 179 159 bng 15 250 50 0 empty empty empty 17 7 0 10 -262144
-1 -1;
#X obj 331 245 throw~ fmix;
#X obj 384 154 bng 15 250 50 0 empty empty empty 17 7 0 10 -262144
-1 -1;
#X obj 286 156 bng 15 250 50 0 empty empty empty 17 7 0 10 -262144
-1 -1;
#X obj 745 152 bng 15 250 50 0 empty empty empty 17 7 0 10 -262144
-1 -1;
#X obj 798 257 throw~ fmix;
#X obj 962 152 bng 15 250 50 0 empty empty empty 17 7 0 10 -262144
-1 -1;
#X obj 849 152 bng 15 250 50 0 empty empty empty 17 7 0 10 -262144
-1 -1;
#X obj 636 152 bng 15 250 50 0 empty empty empty 17 7 0 10 -262144
-1 -1;
#X obj 491 156 bng 15 250 50 0 empty empty empty 17 7 0 10 -262144
-1 -1;
#X obj 492 182 tabplay~ fl_t69;
#X obj 962 177 tabplay~ fl_t62;
#X obj 849 174 tabplay~ fl_t65;
#X obj 179 183 tabplay~ fl_t79;
#X obj 745 175 tabplay~ fl_t66;
#X obj 286 182 tabplay~ fl_t76;
#X obj 385 181 tabplay~ fl_t75;
#X obj 635 177 tabplay~ fl_t68;
#X obj 179 16 r fl_lh1;
#X obj 178 50 difference;
#X obj 179 105 change;
#X obj 277 15 r fl_lh2;
#X obj 371 15 r fl_lh3;
#X obj 490 16 r fl_lgis;
#X obj 179 131 sel 1;
#X obj 285 50 difference;
#X obj 286 105 change;
#X obj 286 131 sel 1;
#X obj 380 49 difference;
#X obj 381 104 change;
#X obj 381 130 sel 1;
#X obj 490 49 difference;
#X obj 491 104 change;
#X obj 491 130 sel 1;
#X obj 636 46 difference;
#X obj 637 101 change;
#X obj 637 127 sel 1;
#X obj 743 46 difference;
#X obj 744 101 change;
#X obj 744 127 sel 1;
#X obj 849 46 difference;
#X obj 850 101 change;
#X obj 850 127 sel 1;
#X obj 958 43 difference;
#X obj 959 98 change;
#X obj 959 124 sel 1;
#X obj 635 18 r fl_rh1;
#X obj 739 15 r fl_rh2;
#X obj 849 18 r fl_rh3;
#X obj 956 16 r fl_res;
#X obj 179 79 > 60;
#X obj 286 79 > 60;
#X obj 381 78 > 60;
#X obj 491 78 > 60;
#X obj 637 75 > 60;
#X obj 744 75 > 60;
#X obj 850 75 > 60;
#X obj 959 72 > 60;
#X connect 0 0 13 0;
#X connect 2 0 16 0;
#X connect 3 0 15 0;
#X connect 4 0 14 0;
#X connect 6 0 11 0;
#X connect 7 0 12 0;
#X connect 8 0 17 0;
#X connect 9 0 10 0;
#X connect 10 0 1 0;
#X connect 11 0 5 0;
#X connect 12 0 5 0;
#X connect 13 0 1 0;
#X connect 14 0 5 0;
#X connect 15 0 1 0;
#X connect 16 0 1 0;
#X connect 17 0 5 0;
#X connect 18 0 19 0;
#X connect 19 0 50 0;
#X connect 20 0 24 0;
#X connect 21 0 25 0;
#X connect 22 0 28 0;
#X connect 23 0 31 0;
#X connect 24 0 0 0;
#X connect 25 0 51 0;
#X connect 26 0 27 0;
#X connect 27 0 3 0;
#X connect 28 0 52 0;
#X connect 29 0 30 0;
#X connect 30 0 2 0;
#X connect 31 0 53 0;
#X connect 32 0 33 0;
#X connect 33 0 9 0;
#X connect 34 0 54 0;
#X connect 35 0 36 0;
#X connect 36 0 8 0;
#X connect 37 0 55 0;
#X connect 38 0 39 0;
#X connect 39 0 4 0;
#X connect 40 0 56 0;
#X connect 41 0 42 0;
#X connect 42 0 7 0;
#X connect 43 0 57 0;
#X connect 44 0 45 0;
#X connect 45 0 6 0;
#X connect 46 0 34 0;
#X connect 47 0 37 0;
#X connect 48 0 40 0;
#X connect 49 0 43 0;
#X connect 50 0 20 0;
#X connect 51 0 26 0;
#X connect 52 0 29 0;
#X connect 53 0 32 0;
#X connect 54 0 35 0;
#X connect 55 0 38 0;
#X connect 56 0 41 0;
#X connect 57 0 44 0;
#X restore 352 74 pd holes;
#X obj 25 67 +;
#X text 28 490 T;
#X text 47 490 L1;
#X text 77 490 L2;
#X text 98 490 L3;
#X text 122 491 LGis;
#X obj -77 39 throw~ fl_input;
#X obj 386 338 *~ 0.8;
#X obj 333 402 rev2~ 90 85 3000 20;
#X obj 81 46 tgl 15 0 empty empty empty 17 7 0 10 -262144 -1 -1 1 1
;
#X obj 81 73 * 1;
#X connect 0 0 7 0;
#X connect 0 0 61 0;
#X connect 5 0 6 0;
#X connect 7 0 53 0;
#X connect 7 0 55 0;
#X connect 8 0 10 0;
#X connect 10 0 11 0;
#X connect 11 0 14 0;
#X connect 14 0 13 0;
#X connect 15 0 1 0;
#X connect 15 0 1 1;
#X connect 15 0 63 0;
#X connect 16 0 19 0;
#X connect 17 0 19 0;
#X connect 18 0 46 0;
#X connect 19 0 41 0;
#X connect 20 0 21 0;
#X connect 20 1 45 0;
#X connect 20 2 23 0;
#X connect 20 3 25 0;
#X connect 20 4 24 0;
#X connect 21 0 31 0;
#X connect 22 0 31 1;
#X connect 23 0 31 2;
#X connect 24 0 31 3;
#X connect 25 0 31 4;
#X connect 26 0 32 0;
#X connect 27 0 32 1;
#X connect 28 0 32 2;
#X connect 29 0 32 3;
#X connect 30 0 20 0;
#X connect 30 1 44 0;
#X connect 30 2 38 0;
#X connect 30 3 36 0;
#X connect 30 4 35 0;
#X connect 33 0 62 0;
#X connect 34 0 19 0;
#X connect 37 0 21 0;
#X connect 37 1 22 0;
#X connect 37 2 23 0;
#X connect 37 3 24 0;
#X connect 37 4 25 0;
#X connect 37 5 26 0;
#X connect 37 6 27 0;
#X connect 37 7 28 0;
#X connect 37 8 29 0;
#X connect 38 0 40 0;
#X connect 40 0 39 0;
#X connect 41 0 30 0;
#X connect 42 0 19 0;
#X connect 43 0 1 1;
#X connect 43 0 1 0;
#X connect 44 0 26 0;
#X connect 44 1 27 0;
#X connect 44 2 28 0;
#X connect 44 4 29 0;
#X connect 45 0 22 0;
#X connect 48 0 47 0;
#X connect 49 0 50 0;
#X connect 50 0 51 0;
#X connect 51 0 15 0;
#X connect 52 0 12 0;
#X connect 53 0 52 0;
#X connect 55 0 48 0;
#X connect 62 0 15 1;
#X connect 63 0 1 0;
#X connect 63 0 1 1;
#X connect 64 0 65 0;
#X connect 65 0 55 1;
