#N canvas 454 22 1021 733 10;
#X declare -path lib;
#X declare -path flute;
#X obj 128 31 adc~;
#X obj 133 560 dac~;
#X obj 564 52 declare -path lib;
#X obj 565 104 declare -path flute;
#N canvas 0 340 1352 631 samples 1;
#X obj -38 82 table t60;
#X obj -39 105 table t61;
#X obj -38 126 table t62;
#X obj -39 149 table t63;
#X obj -39 171 table t64;
#X obj -40 194 table t65;
#X obj -39 216 table t66;
#X obj -40 239 table t67;
#X obj -41 263 table t68;
#X obj -42 286 table t69;
#X obj -43 309 table t70;
#X obj -44 332 table t71;
#X obj -44 354 table t72;
#X obj 36 84 table t73;
#X obj 35 107 table t74;
#X obj 36 128 table t75;
#X obj 35 151 table t76;
#X obj 35 173 table t77;
#X obj 34 196 table t78;
#X obj 35 218 table t79;
#X obj 34 241 table t80;
#X obj 33 265 table t81;
#X obj 32 288 table t82;
#X obj 31 311 table t83;
#X obj 30 334 table t84;
#X obj 30 356 table t85;
#X obj 113 85 table t86;
#X obj 112 108 table t87;
#X obj 113 129 table t88;
#X obj 112 152 table t89;
#X obj 112 174 table t90;
#X obj 111 197 table t91;
#X obj 112 219 table t92;
#X obj 904 331 soundfiler;
#X obj 900 160 until;
#X obj 973 80 loadbang;
#X msg 900 129 35;
#X obj 110 261 table t94;
#X obj 111 242 table t93;
#X obj 231 85 table n60;
#X obj 231 109 table n61;
#X obj 232 131 table n62;
#X obj 232 155 table n63;
#X obj 233 181 table n64;
#X obj 233 205 table n65;
#X obj 234 227 table n66;
#X obj 234 251 table n67;
#X obj 236 275 table n68;
#X obj 236 299 table n69;
#X obj 237 321 table n70;
#X obj 237 345 table n71;
#X obj 238 371 table n72;
#X obj 300 85 table n73;
#X obj 300 109 table n74;
#X obj 301 131 table n75;
#X obj 301 155 table n76;
#X obj 302 181 table n77;
#X obj 302 205 table n78;
#X obj 303 227 table n79;
#X obj 303 251 table n80;
#X obj 305 275 table n81;
#X obj 305 299 table n82;
#X obj 306 321 table n83;
#X obj 306 345 table n84;
#X obj 307 371 table n85;
#X obj 372 82 table n86;
#X obj 370 105 table n87;
#X obj 372 126 table n88;
#X obj 371 149 table n89;
#X obj 371 171 table n90;
#X obj 370 194 table n91;
#X obj 371 216 table n92;
#X obj 370 239 table n93;
#X obj 369 258 table n94;
#X obj 900 191 counter 60;
#X obj 803 269 table hann;
#X msg 904 276 read -resize flute/tougue_ram/\$1.wav t\$1 \, read -resize
flute/normal_mf/\$1.wav n\$1 \, read -resize lib/hann.wav hann;
#X obj 497 87 table a60;
#X obj 497 111 table a61;
#X obj 498 133 table a62;
#X obj 498 157 table a63;
#X obj 499 183 table a64;
#X obj 498 207 table a65;
#X obj 500 229 table a66;
#X obj 500 253 table a67;
#X obj 502 277 table a68;
#X obj 502 301 table a69;
#X obj 503 323 table a70;
#X obj 503 347 table a71;
#X obj 504 373 table a72;
#X obj 566 87 table a73;
#X obj 566 111 table a74;
#X obj 567 133 table a75;
#X obj 567 157 table a76;
#X obj 569 184 table a77;
#X obj 568 207 table a78;
#X obj 569 229 table a79;
#X msg 1006 132 20;
#X msg 975 226 read -resize flute/air_flutter/\$1.wav a\$1;
#X obj 1006 163 until;
#X obj 1006 194 counter 60;
#X connect 34 0 74 0;
#X connect 35 0 36 0;
#X connect 35 0 97 0;
#X connect 36 0 34 0;
#X connect 74 0 76 0;
#X connect 76 0 33 0;
#X connect 97 0 99 0;
#X connect 98 0 33 0;
#X connect 99 0 100 0;
#X connect 100 0 98 0;
#X restore 559 128 pd samples;
#X obj 803 40 loadmeter;
#X floatatom 805 70 5 0 0 0 - - -, f 5;
#X obj 128 70 envfol;
#X obj 233 301 tabplay~ t62;
#X obj 328 305 tabplay~ t69;
#X obj 421 303 tabplay~ t72;
#N canvas 0 22 549 390 sensor 0;
#X obj 420 110 outlet;
#X obj 121 345 outlet;
#X obj 78 315 outlet;
#X restore 547 225 pd sensor;
#X floatatom 651 194 5 0 0 0 mode - -, f 5;
#X obj 550 280 vsl 15 128 0 127 0 0 empty empty empty 0 -9 0 10 -262144
-1 -1 0 1;
#X obj 589 280 vsl 15 128 0 127 0 0 empty empty empty 0 -9 0 10 -262144
-1 -1 0 1;
#X obj 634 280 vsl 15 128 0 127 0 0 empty empty empty 0 -9 0 10 -262144
-1 -1 0 1;
#X obj 670 280 vsl 15 128 0 127 0 0 empty empty empty 0 -9 0 10 -262144
-1 -1 0 1;
#X obj 714 280 vsl 15 128 0 127 0 0 empty empty empty 0 -9 0 10 -262144
-1 -1 0 1;
#X obj 779 280 vsl 15 128 0 127 0 0 empty empty empty 0 -9 0 10 -262144
-1 -1 0 1;
#X obj 819 280 vsl 15 128 0 127 0 0 empty empty empty 0 -9 0 10 -262144
-1 -1 0 1;
#X obj 855 280 vsl 15 128 0 127 0 0 empty empty empty 0 -9 0 10 -262144
-1 -1 0 1;
#X obj 891 280 vsl 15 128 0 127 0 0 empty empty empty 0 -9 0 10 -262144
-1 -1 0 1;
#N canvas 126 74 613 499 fingering 0;
#X obj 25 153 << 8;
#X obj 83 153 << 7;
#X obj 140 153 << 6;
#X obj 198 153 << 5;
#X obj 261 153 << 4;
#X obj 365 153 << 3;
#X obj 423 153 << 2;
#X obj 478 153 << 1;
#X obj 25 90 > 10;
#X obj 25 123 change;
#X obj 83 91 > 10;
#X obj 83 123 change;
#X obj 140 90 > 10;
#X obj 140 123 change;
#X obj 198 90 > 10;
#X obj 198 123 change;
#X obj 261 90 > 10;
#X obj 261 123 change;
#X obj 365 90 > 10;
#X obj 365 123 change;
#X obj 423 90 > 10;
#X obj 423 123 change;
#X obj 478 90 > 10;
#X obj 478 123 change;
#X obj 532 90 > 10;
#X obj 532 123 change;
#X obj 25 57 r lt;
#X obj 198 57 r l3;
#X obj 140 57 r l2;
#X obj 83 57 r l1;
#X obj 365 57 r r1;
#X obj 423 57 r r2;
#X obj 478 57 r r3;
#X obj 532 57 r es;
#X obj 261 57 r lgis;
#X obj 478 191 +, f 10;
#X obj 367 191 +, f 10;
#X obj 201 197 +, f 10;
#X obj 101 196 +, f 10;
#X obj 407 235 +, f 10;
#X obj 136 232 +, f 10;
#X obj 240 300 +, f 10;
#X obj 159 321 +, f 10;
#X obj 156 361 outlet;
#X obj 219 -12 tgl 15 0 empty empty empty 17 7 0 10 -262144 -1 -1 0
1;
#X text 277 -12 for testing;
#X obj 225 12 metro 50;
#X connect 0 0 42 0;
#X connect 1 0 38 0;
#X connect 2 0 38 1;
#X connect 3 0 37 0;
#X connect 4 0 37 1;
#X connect 5 0 36 0;
#X connect 6 0 36 1;
#X connect 7 0 35 0;
#X connect 8 0 9 0;
#X connect 9 0 0 0;
#X connect 10 0 11 0;
#X connect 11 0 1 0;
#X connect 12 0 13 0;
#X connect 13 0 2 0;
#X connect 14 0 15 0;
#X connect 15 0 3 0;
#X connect 16 0 17 0;
#X connect 17 0 4 0;
#X connect 18 0 19 0;
#X connect 19 0 5 0;
#X connect 20 0 21 0;
#X connect 21 0 6 0;
#X connect 22 0 23 0;
#X connect 23 0 7 0;
#X connect 24 0 25 0;
#X connect 25 0 35 1;
#X connect 26 0 8 0;
#X connect 27 0 14 0;
#X connect 28 0 12 0;
#X connect 29 0 10 0;
#X connect 30 0 18 0;
#X connect 31 0 20 0;
#X connect 32 0 22 0;
#X connect 33 0 24 0;
#X connect 34 0 16 0;
#X connect 35 0 39 1;
#X connect 36 0 39 0;
#X connect 37 0 40 1;
#X connect 38 0 40 0;
#X connect 39 0 41 1;
#X connect 40 0 41 0;
#X connect 41 0 42 1;
#X connect 42 0 43 0;
#X connect 44 0 46 0;
#X connect 46 0 0 0;
#X connect 46 0 1 0;
#X connect 46 0 2 0;
#X connect 46 0 3 0;
#X connect 46 0 4 0;
#X connect 46 0 5 0;
#X connect 46 0 6 0;
#X connect 46 0 7 0;
#X restore 552 478 pd fingering;
#X obj 550 429 s lt;
#X obj 589 429 s l1;
#X obj 634 429 s l2;
#X obj 670 429 s l3;
#N canvas 0 22 450 300 tongue_ram_bomber 0;
#X restore 127 180 pd tongue_ram_bomber;
#N canvas 0 22 450 300 sweeper 1;
#X obj 269 202 table prev-imag;
#X obj 269 222 table prev-real;
#X obj 75 217 throw~ mix;
#N canvas 322 64 821 693 phase 0;
#X obj 51 477 *~;
#X obj 18 477 *~;
#X obj 18 499 -~;
#X obj 167 475 *~;
#X obj 136 475 *~;
#X obj 136 497 +~;
#X obj 109 193 *~;
#X obj 78 193 *~;
#X obj 50 193 *~;
#X obj 19 193 *~;
#X obj 19 218 +~;
#X obj 127 379 *~;
#X obj 20 622 *~;
#X obj 238 430 rfft~;
#X obj 108 161 rfft~;
#X obj 19 564 rifft~;
#X obj 21 646 outlet~;
#X obj 97 379 *~;
#X obj 97 401 +~;
#X obj 124 218 -~;
#X obj 18 431 *~;
#X obj 51 432 *~;
#X obj 127 622 r window-size;
#X obj 19 349 +~ 1e-15;
#X obj 19 598 *~;
#X obj 127 643 expr 2/(3*$f1);
#X obj 293 539 loadbang;
#X obj 97 425 q8_rsqrt~;
#N canvas 286 653 1006 799 read-windows 1;
#X obj 114 -57 *~;
#X obj 193 -646 f;
#X obj 259 -60 *~;
#X obj 193 -779 bang~;
#X obj 47 -453 line~;
#X obj 243 -751 r location;
#X obj 235 -644 +;
#X obj 81 -407 / 4;
#X floatatom 370 -506 7 0 0 0 - - -, f 7;
#X obj 459 -651 r transpo;
#X obj 459 -629 * 0.01;
#X obj 461 -608 + 69;
#X obj 462 -587 mtof;
#X obj 462 -565 / 440;
#X obj 114 -31 outlet~;
#X obj 259 -35 outlet~;
#X obj 270 -640 s see-loc;
#X obj 233 -584 / 2;
#X obj 196 -584 -;
#X obj 61 -364 -~;
#X obj 46 -535 f;
#X obj 45 -564 b;
#X msg 47 -481 0 \, \$1 \$2;
#X obj 336 -60 tabreceive~ hann;
#X obj 47 -508 pack 0 11.61, f 13;
#X obj 370 -530 * 2048;
#X obj 230 -329 tabread4~ n62;
#X obj 53 -329 tabread4~ n62;
#X obj 196 -610 * 44.1;
#X msg 281 -405 set n\$1;
#X floatatom 281 -439 5 0 0 0 - - -, f 5;
#X obj 349 -336 tabread4~ n62;
#X obj 381 -427 + 12;
#X obj 465 -337 tabread4~ n62;
#X msg 372 -393 set n\$1;
#X obj 210 -680 +;
#X floatatom 283 -678 5 0 0 0 - - -, f 5;
#X floatatom 254 -296 5 0 0 0 - - -, f 5;
#X obj 102 -284 *~;
#X obj 355 -266 *~;
#X obj 185 -275 *~;
#X obj 464 -261 *~;
#X obj 251 -312 r octave;
#X obj 225 -160 r air;
#X obj 101 -197 +~, f 5;
#X obj 173 -197 +~, f 5;
#X obj 286 -95 +~, f 5;
#X obj 108 -145 *~;
#X obj 170 -143 *~;
#X obj 342 -129 *~;
#X obj 114 -107 +~, f 4;
#X obj 253 -275 xfade;
#X obj 226 -137 xfade;
#X obj 580 -335 tabread4~ a62;
#X obj 722 -347 tabread4~ a62;
#X obj 274 -471 r pitch;
#X obj 285 -121 *~;
#X obj 194 -548 s offset;
#X obj 143 -324 r offset;
#X obj 452 -393 r offset;
#X obj 654 -402 r offset;
#X msg 558 -396 set a\$1;
#X connect 0 0 14 0;
#X connect 1 0 6 0;
#X connect 1 0 28 0;
#X connect 2 0 15 0;
#X connect 3 0 1 0;
#X connect 3 0 35 0;
#X connect 4 0 19 0;
#X connect 4 0 26 0;
#X connect 4 0 33 0;
#X connect 4 0 54 0;
#X connect 5 0 35 1;
#X connect 6 0 1 1;
#X connect 6 0 16 0;
#X connect 7 0 19 1;
#X connect 8 0 7 0;
#X connect 8 0 17 0;
#X connect 8 0 20 1;
#X connect 9 0 10 0;
#X connect 10 0 11 0;
#X connect 11 0 12 0;
#X connect 12 0 13 0;
#X connect 13 0 25 0;
#X connect 17 0 18 1;
#X connect 18 0 21 0;
#X connect 18 0 57 0;
#X connect 19 0 27 0;
#X connect 19 0 31 0;
#X connect 19 0 53 0;
#X connect 20 0 24 0;
#X connect 21 0 20 0;
#X connect 22 0 4 0;
#X connect 23 0 2 1;
#X connect 23 0 0 1;
#X connect 24 0 22 0;
#X connect 25 0 8 0;
#X connect 26 0 40 0;
#X connect 27 0 38 0;
#X connect 28 0 18 0;
#X connect 29 0 26 0;
#X connect 29 0 27 0;
#X connect 30 0 29 0;
#X connect 30 0 32 0;
#X connect 30 0 61 0;
#X connect 31 0 39 0;
#X connect 32 0 34 0;
#X connect 33 0 41 0;
#X connect 34 0 31 0;
#X connect 34 0 33 0;
#X connect 35 0 1 1;
#X connect 36 0 35 1;
#X connect 37 0 51 0;
#X connect 38 0 44 0;
#X connect 39 0 44 1;
#X connect 40 0 45 0;
#X connect 41 0 45 1;
#X connect 42 0 37 0;
#X connect 43 0 52 0;
#X connect 44 0 47 0;
#X connect 45 0 56 0;
#X connect 46 0 2 0;
#X connect 47 0 50 0;
#X connect 48 0 50 1;
#X connect 49 0 46 1;
#X connect 50 0 0 0;
#X connect 51 0 38 1;
#X connect 51 0 40 1;
#X connect 51 1 41 1;
#X connect 51 1 39 1;
#X connect 52 0 56 1;
#X connect 52 0 47 1;
#X connect 52 1 49 1;
#X connect 52 1 48 1;
#X connect 53 0 48 0;
#X connect 54 0 49 0;
#X connect 55 0 30 0;
#X connect 56 0 46 0;
#X connect 58 0 27 1;
#X connect 58 0 26 1;
#X connect 59 0 31 1;
#X connect 59 0 33 1;
#X connect 60 0 53 1;
#X connect 60 0 54 1;
#X connect 61 0 53 0;
#X connect 61 0 54 0;
#X restore 109 133 pd read-windows;
#X obj 137 543 tabsend~ prev-imag;
#X obj 136 567 tabsend~ prev-real;
#X obj 20 8 tabreceive~ prev-real;
#X obj 73 29 tabreceive~ prev-imag;
#X obj 121 69 *~;
#X obj 89 69 *~;
#X obj 89 91 +~;
#X obj 159 94 q8_rsqrt~;
#X obj 159 71 +~ 1e-20;
#X obj 73 119 *~;
#X obj 19 118 *~;
#X obj 19 325 +~;
#X obj 125 331 +~;
#X obj 300 616 block~ 2048 4;
#X obj 52 598 tabreceive~ hann;
#X msg 293 565 \; window-size 2048 \; transpo 0 \;;
#X obj 29 245 lrshift~ 1;
#X obj 24 269 lrshift~ -1;
#X obj 141 245 lrshift~ 1;
#X obj 133 269 lrshift~ -1;
#X connect 0 0 2 1;
#X connect 1 0 2 0;
#X connect 2 0 30 0;
#X connect 2 0 15 0;
#X connect 3 0 5 1;
#X connect 4 0 5 0;
#X connect 5 0 29 0;
#X connect 5 0 15 1;
#X connect 6 0 19 1;
#X connect 7 0 19 0;
#X connect 8 0 10 1;
#X connect 9 0 10 0;
#X connect 10 0 40 0;
#X connect 10 0 46 0;
#X connect 10 0 45 0;
#X connect 11 0 18 1;
#X connect 12 0 16 0;
#X connect 13 0 1 1;
#X connect 13 0 3 1;
#X connect 13 1 0 1;
#X connect 13 1 4 1;
#X connect 14 0 9 1;
#X connect 14 0 7 1;
#X connect 14 1 6 1;
#X connect 14 1 8 1;
#X connect 15 0 24 0;
#X connect 17 0 18 0;
#X connect 18 0 27 0;
#X connect 19 0 41 0;
#X connect 19 0 47 0;
#X connect 19 0 48 0;
#X connect 20 0 1 0;
#X connect 20 0 4 0;
#X connect 21 0 0 0;
#X connect 21 0 3 0;
#X connect 22 0 25 0;
#X connect 23 0 17 1;
#X connect 23 0 17 0;
#X connect 23 0 20 0;
#X connect 24 0 12 0;
#X connect 25 0 12 1;
#X connect 26 0 44 0;
#X connect 27 0 20 1;
#X connect 27 0 21 1;
#X connect 28 0 14 0;
#X connect 28 1 13 0;
#X connect 31 0 34 1;
#X connect 31 0 34 0;
#X connect 31 0 39 0;
#X connect 32 0 33 1;
#X connect 32 0 33 0;
#X connect 32 0 38 0;
#X connect 33 0 35 1;
#X connect 34 0 35 0;
#X connect 35 0 37 0;
#X connect 36 0 38 1;
#X connect 36 0 39 1;
#X connect 37 0 36 0;
#X connect 38 0 8 0;
#X connect 38 0 7 0;
#X connect 39 0 9 0;
#X connect 39 0 6 0;
#X connect 40 0 23 0;
#X connect 41 0 11 0;
#X connect 41 0 11 1;
#X connect 41 0 21 0;
#X connect 43 0 24 1;
#X connect 45 0 40 1;
#X connect 46 0 40 1;
#X connect 47 0 41 1;
#X connect 48 0 41 1;
#X restore 75 109 pd phase vocoder;
#N canvas 569 480 482 368 freqshift 0;
#X obj 130 191 hilbert~;
#X obj 135 239 *~;
#X obj 182 239 *~;
#X obj 199 196 cos~;
#X obj 243 195 cos~;
#X obj 109 143 inlet~;
#X obj 235 163 +~ 0.25;
#X obj 193 126 phasor~;
#X obj 193 103 line~;
#X obj 192 77 pack 0 20;
#X obj 145 271 +~;
#X obj 100 341 outlet~;
#X floatatom 191 40 5 0 0 0 - - -, f 5;
#X floatatom 289 131 5 0 0 0 - - -, f 5;
#X obj 278 24 r pepe;
#X obj 281 79 / 5;
#X connect 0 0 1 0;
#X connect 0 1 2 0;
#X connect 1 0 10 0;
#X connect 2 0 10 1;
#X connect 3 0 1 1;
#X connect 4 0 2 1;
#X connect 5 0 0 0;
#X connect 5 0 11 0;
#X connect 6 0 4 0;
#X connect 7 0 6 0;
#X connect 7 0 3 0;
#X connect 8 0 7 0;
#X connect 9 0 8 0;
#X connect 10 0 11 0;
#X connect 12 0 15 0;
#X connect 13 0 6 1;
#X connect 14 0 12 0;
#X connect 15 0 9 0;
#X restore 75 181 pd freqshift;
#N canvas 24 316 508 329 chorus 0;
#X obj 77 41 inlet~;
#X obj 216 212 outlet~;
#X obj 8 217 delwrite~ chorus 1000;
#X obj 239 167 vd~ chorus;
#X obj 244 70 osc~;
#X floatatom 315 -12 5 0 0 0 - - -, f 5;
#X obj 238 135 +~ 10;
#X obj 306 52 line~;
#X obj 309 18 pack 0 50;
#X obj 242 97 *~;
#X obj 299 85 /~ 10;
#X obj 195 11 r mod;
#X connect 0 0 2 0;
#X connect 0 0 1 0;
#X connect 3 0 1 0;
#X connect 4 0 9 0;
#X connect 5 0 8 0;
#X connect 6 0 3 0;
#X connect 7 0 4 0;
#X connect 7 0 10 0;
#X connect 8 0 7 0;
#X connect 9 0 6 0;
#X connect 10 0 9 1;
#X connect 11 0 5 0;
#X restore 75 145 pd chorus;
#X connect 3 0 5 0;
#X connect 4 0 2 0;
#X connect 5 0 4 0;
#X restore 126 155 pd sweeper;
#N canvas 0 22 450 300 extream_flutter 0;
#X restore 126 206 pd extream_flutter;
#N canvas 0 22 450 300 modulated_flute 0;
#X restore 123 231 pd modulated_flute;
#X obj 779 429 s r1;
#X obj 819 429 s r2;
#X obj 855 429 s r3;
#X obj 891 429 s es;
#X obj 714 429 s lgis;
#X floatatom 552 502 5 0 0 0 - - -, f 5;
#N canvas 0 22 1394 478 fingering_to_midi 0;
#X obj 46 37 inlet;
#X obj 550 293 outlet, f 10;
#X msg 411 173 62;
#X msg 441 173 63;
#X msg 471 173 64;
#X msg 503 173 65;
#X msg 532 173 66;
#X msg 561 173 67;
#X msg 590 173 68;
#X msg 619 173 69;
#X msg 649 173 70;
#X msg 679 173 71;
#X msg 708 173 72;
#X msg 739 173 73;
#X obj 467 51 sel 494 495 493 489 483 481 497 449 457 449 129 1 366
367;
#X msg 771 173 74;
#X msg 804 173 75;
#X connect 0 0 14 0;
#X connect 2 0 1 0;
#X connect 3 0 1 0;
#X connect 4 0 1 0;
#X connect 5 0 1 0;
#X connect 6 0 1 0;
#X connect 7 0 1 0;
#X connect 8 0 1 0;
#X connect 9 0 1 0;
#X connect 10 0 1 0;
#X connect 11 0 1 0;
#X connect 12 0 1 0;
#X connect 13 0 1 0;
#X connect 14 0 2 0;
#X connect 14 1 3 0;
#X connect 14 2 4 0;
#X connect 14 3 5 0;
#X connect 14 4 6 0;
#X connect 14 5 7 0;
#X connect 14 6 8 0;
#X connect 14 7 9 0;
#X connect 14 8 10 0;
#X connect 14 9 11 0;
#X connect 14 10 12 0;
#X connect 14 11 13 0;
#X connect 14 12 15 0;
#X connect 14 13 16 0;
#X connect 15 0 1 0;
#X connect 16 0 1 0;
#X restore 552 523 pd fingering_to_midi;
#X obj 104 103 s~ envfol;
#X obj 186 103 s attack;
#X obj 134 271 bng 15 250 50 0 empty empty empty 17 7 0 10 -262144
-1 -1;
#X obj 178 394 throw~ mix;
#X obj 90 373 catch~ mix;
#X obj 371 163 s location;
#X floatatom 367 120 5 0 0 0 - - -, f 5;
#X obj 534 188 s transpo;
#X floatatom 534 171 5 0 0 0 - - -, f 5;
#X obj 355 238 s air;
#X floatatom 278 211 5 0 0 0 - - -, f 5;
#X floatatom 350 209 5 0 0 0 - - -, f 5;
#X obj 278 230 s octave;
#X obj 486 259 s pepe;
#X floatatom 489 229 5 0 0 0 - - -, f 5;
#X floatatom 419 224 5 0 0 0 - - -, f 5;
#X obj 416 254 s mod;
#X obj 559 580 s pitch;
#X floatatom 560 552 5 0 0 0 - - -, f 5;
#X obj 247 516 bng 15 250 50 0 empty empty empty 17 7 0 10 -262144
-1 -1;
#X obj 282 502 print~;
#X obj 140 303 tabplay~ a60;
#X obj 65 469 r~ envfol;
#X obj 76 520 *~;
#X obj 153 449 rev2~ 80 80 3000 20, f 42;
#X obj 81 400 *~ 0.8;
#X connect 0 0 7 0;
#X connect 5 0 6 0;
#X connect 7 0 38 0;
#X connect 7 1 39 0;
#X connect 8 0 41 0;
#X connect 9 0 41 0;
#X connect 10 0 41 0;
#X connect 11 2 12 0;
#X connect 13 0 23 0;
#X connect 14 0 24 0;
#X connect 15 0 25 0;
#X connect 16 0 26 0;
#X connect 17 0 35 0;
#X connect 18 0 31 0;
#X connect 19 0 32 0;
#X connect 20 0 33 0;
#X connect 21 0 34 0;
#X connect 22 0 36 0;
#X connect 36 0 37 0;
#X connect 37 0 56 0;
#X connect 40 0 59 0;
#X connect 42 0 58 0;
#X connect 42 0 63 0;
#X connect 44 0 43 0;
#X connect 46 0 45 0;
#X connect 48 0 50 0;
#X connect 49 0 47 0;
#X connect 52 0 51 0;
#X connect 53 0 54 0;
#X connect 56 0 55 0;
#X connect 57 0 58 0;
#X connect 59 0 41 0;
#X connect 60 0 61 0;
#X connect 61 0 1 0;
#X connect 61 0 1 1;
#X connect 61 0 62 0;
#X connect 62 0 1 0;
#X connect 62 0 1 1;
#X connect 63 0 61 1;
