#N canvas 474 94 737 357 10;
#X declare -path lib;
#X declare -path flute;
#X obj 35 25 adc~;
#X obj 358 304 dac~;
#X obj 546 24 declare -path lib;
#X obj 545 48 declare -path flute;
#N canvas 235 222 1257 739 samples 0;
#X obj 762 51 loadbang;
#X obj 64 576 table hann;
#X obj -38 82 table fl_t60;
#X obj -39 105 table fl_t61;
#X obj -38 126 table fl_t62;
#X obj -39 149 table fl_t63;
#X obj -39 171 table fl_t64;
#X obj -40 194 table fl_t65;
#X obj -39 216 table fl_t66;
#X obj -40 239 table fl_t67;
#X obj -41 263 table fl_t68;
#X obj -42 286 table fl_t69;
#X obj -43 309 table fl_t70;
#X obj -44 332 table fl_t71;
#X obj -44 354 table fl_t72;
#X obj 48 85 table fl_t73;
#X obj 47 108 table fl_t74;
#X obj 48 129 table fl_t75;
#X obj 47 152 table fl_t76;
#X obj 47 174 table fl_t77;
#X obj 46 197 table fl_t78;
#X obj 47 219 table fl_t79;
#X obj 46 242 table fl_t80;
#X obj 45 266 table fl_t81;
#X obj 44 289 table fl_t82;
#X obj 43 312 table fl_t83;
#X obj 42 334 table fl_t84;
#X obj 42 357 table fl_t85;
#X obj 138 84 table fl_t86;
#X obj 137 107 table fl_t87;
#X obj 138 128 table fl_t88;
#X obj 137 151 table fl_t89;
#X obj 137 173 table fl_t90;
#X obj 136 196 table fl_t91;
#X obj 137 218 table fl_t92;
#X obj 136 241 table fl_t93;
#X obj 135 260 table fl_t94;
#X obj 231 85 table fl_n60;
#X obj 231 109 table fl_n61;
#X obj 232 131 table fl_n62;
#X obj 232 155 table fl_n63;
#X obj 233 181 table fl_n64;
#X obj 233 205 table fl_n65;
#X obj 234 227 table fl_n66;
#X obj 234 252 table fl_n67;
#X obj 236 275 table fl_n68;
#X obj 236 299 table fl_n69;
#X obj 237 321 table fl_n70;
#X obj 237 345 table fl_n71;
#X obj 238 371 table fl_n72;
#X obj 315 86 table fl_n73;
#X obj 315 110 table fl_n74;
#X obj 316 132 table fl_n75;
#X obj 316 156 table fl_n76;
#X obj 317 182 table fl_n77;
#X obj 317 206 table fl_n78;
#X obj 318 228 table fl_n79;
#X obj 318 252 table fl_n80;
#X obj 320 276 table fl_n81;
#X obj 320 300 table fl_n82;
#X obj 321 322 table fl_n83;
#X obj 321 346 table fl_n84;
#X obj 322 372 table fl_n85;
#X obj 324 402 table fl_n86;
#X obj 322 425 table fl_n87;
#X obj 324 446 table fl_n88;
#X obj 323 469 table fl_n89;
#X obj 323 491 table fl_n90;
#X obj 322 514 table fl_n91;
#X obj 323 536 table fl_n92;
#X obj 322 559 table fl_n93;
#X obj -37 386 table fl_a60;
#X obj -37 410 table fl_a61;
#X obj -36 432 table fl_a62;
#X obj -36 456 table fl_a63;
#X obj -34 482 table fl_a64;
#X obj -36 506 table fl_a65;
#X obj -34 528 table fl_a66;
#X obj -34 552 table fl_a67;
#X obj -32 575 table fl_a68;
#X obj -32 600 table fl_a69;
#X obj -31 622 table fl_a70;
#X obj -31 646 table fl_a71;
#X obj -30 672 table fl_a72;
#X obj 51 386 table fl_a73;
#X obj 51 410 table fl_a74;
#X obj 52 432 table fl_a75;
#X obj 52 456 table fl_a76;
#X obj 54 483 table fl_a77;
#X obj 53 506 table fl_a78;
#X obj 54 528 table fl_a79;
#X obj 63 609 table phasor;
#X msg 873 101 read -resize lib/hann_1024.wav hann \, read -resize
lib/phasor_1024.wav phasor;
#X obj 876 144 soundfiler;
#X obj 407 86 table fl_nf60;
#X obj 407 110 table fl_nf61;
#X obj 408 133 table fl_nf62;
#X obj 408 156 table fl_nf63;
#X obj 409 206 table fl_nf65;
#X obj 410 228 table fl_nf66;
#X obj 410 253 table fl_nf67;
#X obj 412 276 table fl_nf68;
#X obj 412 300 table fl_nf69;
#X obj 413 322 table fl_nf70;
#X obj 413 346 table fl_nf71;
#X obj 414 372 table fl_nf72;
#X obj 491 87 table fl_nf73;
#X obj 491 111 table fl_nf74;
#X obj 492 133 table fl_nf75;
#X obj 492 157 table fl_nf76;
#X obj 493 183 table fl_nf77;
#X obj 493 207 table fl_nf78;
#X obj 494 229 table fl_nf79;
#X obj 494 253 table fl_nf80;
#X obj 496 277 table fl_nf81;
#X obj 496 301 table fl_nf82;
#X obj 497 323 table fl_nf83;
#X obj 497 347 table fl_nf84;
#X obj 498 373 table fl_nf85;
#X obj 500 403 table fl_nf86;
#X obj 498 426 table fl_nf87;
#X obj 500 447 table fl_nf88;
#X obj 499 470 table fl_nf89;
#X obj 499 492 table fl_nf90;
#X obj 498 515 table fl_nf91;
#X obj 499 537 table fl_nf92;
#X obj 498 560 table fl_nf93;
#X obj 829 475 soundfiler;
#X msg 874 334 read -resize flute/air_flutter/\$1.wav fl_a\$1;
#X msg 905 240 20;
#X obj 905 271 until;
#X obj 905 302 cnt 60;
#X msg 805 384 read -resize flute/tougue_ram/\$1.wav fl_t\$1 \, read
-resize flute/normal_pp/\$1.wav fl_n\$1 \, read -resize flute/normal_f/\$1.wav
fl_nf\$1;
#X obj 409 182 table fl_nf64;
#X obj 799 268 until;
#X obj 799 299 cnt 60;
#X msg 799 237 34;
#X connect 0 0 92 0;
#X connect 0 0 129 0;
#X connect 0 0 136 0;
#X connect 92 0 93 0;
#X connect 128 0 127 0;
#X connect 129 0 130 0;
#X connect 130 0 131 0;
#X connect 131 0 128 0;
#X connect 132 0 127 0;
#X connect 134 0 135 0;
#X connect 135 0 132 0;
#X connect 136 0 134 0;
#X restore 545 98 pd samples;
#X obj 542 270 loadmeter;
#X floatatom 542 290 5 0 0 0 - - -, f 5;
#N canvas 82 106 617 438 fingering 0;
#X obj 25 153 << 8;
#X obj 83 153 << 7;
#X obj 140 153 << 6;
#X obj 198 153 << 5;
#X obj 261 153 << 4;
#X obj 351 153 << 3;
#X obj 414 153 << 2;
#X obj 478 153 << 1;
#X obj 25 123 change;
#X obj 83 123 change;
#X obj 140 123 change;
#X obj 198 123 change;
#X obj 261 123 change;
#X obj 351 123 change;
#X obj 414 123 change;
#X obj 478 123 change;
#X obj 532 123 change;
#X obj 27 310 outlet;
#X obj 25 57 r fl_lt;
#X obj 83 57 r fl_lh1;
#X obj 140 57 r fl_lh2;
#X obj 198 57 r fl_lh3;
#X obj 261 57 r fl_lgis;
#X obj 351 57 r fl_rh1;
#X obj 414 57 r fl_rh2;
#X obj 478 57 r fl_rh3;
#X floatatom 16 336 5 0 0 0 - - -, f 5;
#X obj 534 151 f;
#X obj 532 57 r fl_res;
#X obj 111 340 s fl_fingering;
#X obj 478 191 ++;
#X obj 353 191 ++;
#X obj 407 235 ++;
#X obj 201 197 ++;
#X obj 101 196 ++;
#X obj 101 225 ++;
#X obj 101 253 ++;
#X obj 26 284 ++;
#X obj 25 90 > 3;
#X obj 83 91 > 3;
#X obj 140 90 > 3;
#X obj 198 90 > 3;
#X obj 261 90 > 3;
#X obj 351 90 > 3;
#X obj 414 90 > 3;
#X obj 478 90 > 3;
#X obj 532 90 > 3;
#X connect 0 0 37 0;
#X connect 1 0 34 0;
#X connect 2 0 34 1;
#X connect 3 0 33 0;
#X connect 4 0 33 1;
#X connect 5 0 31 0;
#X connect 6 0 31 1;
#X connect 7 0 30 0;
#X connect 8 0 0 0;
#X connect 9 0 1 0;
#X connect 10 0 2 0;
#X connect 11 0 3 0;
#X connect 12 0 4 0;
#X connect 13 0 5 0;
#X connect 14 0 6 0;
#X connect 15 0 7 0;
#X connect 16 0 27 0;
#X connect 18 0 38 0;
#X connect 19 0 39 0;
#X connect 20 0 40 0;
#X connect 21 0 41 0;
#X connect 22 0 42 0;
#X connect 23 0 43 0;
#X connect 24 0 44 0;
#X connect 25 0 45 0;
#X connect 27 0 30 1;
#X connect 28 0 46 0;
#X connect 30 0 32 1;
#X connect 31 0 32 0;
#X connect 32 0 36 1;
#X connect 33 0 35 1;
#X connect 34 0 35 0;
#X connect 35 0 36 0;
#X connect 36 0 37 1;
#X connect 37 0 17 0;
#X connect 37 0 26 0;
#X connect 37 0 29 0;
#X connect 38 0 8 0;
#X connect 39 0 9 0;
#X connect 40 0 10 0;
#X connect 41 0 11 0;
#X connect 42 0 12 0;
#X connect 43 0 13 0;
#X connect 44 0 14 0;
#X connect 45 0 15 0;
#X connect 46 0 16 0;
#X restore 544 169 pd fingering;
#X floatatom 544 188 5 0 0 0 - - -, f 5;
#N canvas 594 51 538 369 fingering_to_midi 0;
#X obj 98 27 inlet;
#X msg 39 181 62;
#X msg 69 181 63;
#X msg 99 181 64;
#X msg 131 181 65;
#X msg 159 181 66;
#X msg 189 181 67;
#X msg 218 181 68;
#X msg 247 181 69;
#X msg 277 181 70;
#X msg 309 184 71;
#X msg 336 181 72;
#X msg 367 181 73;
#X obj 178 301 + 0;
#X obj 333 245 r oct;
#X msg 303 314 12;
#X obj 177 326 outlet;
#X obj 310 289 sel 1 0;
#X msg 330 310 0;
#X obj 237 273 t b f;
#X floatatom 251 337 5 0 0 0 - - -, f 5;
#X obj 31 106 loadbang;
#X obj 95 59 sel 494 495 493 489 483 481 497 449 393 385 129 1 366
367;
#X connect 0 0 22 0;
#X connect 1 0 13 0;
#X connect 2 0 13 0;
#X connect 3 0 13 0;
#X connect 4 0 13 0;
#X connect 5 0 13 0;
#X connect 6 0 13 0;
#X connect 7 0 13 0;
#X connect 8 0 13 0;
#X connect 9 0 13 0;
#X connect 10 0 13 0;
#X connect 11 0 13 0;
#X connect 12 0 13 0;
#X connect 13 0 16 0;
#X connect 14 0 17 0;
#X connect 15 0 19 0;
#X connect 17 0 15 0;
#X connect 17 1 18 0;
#X connect 18 0 19 0;
#X connect 19 0 13 0;
#X connect 19 1 13 1;
#X connect 19 1 20 0;
#X connect 21 0 1 0;
#X connect 22 0 1 0;
#X connect 22 1 2 0;
#X connect 22 2 3 0;
#X connect 22 3 4 0;
#X connect 22 4 5 0;
#X connect 22 5 6 0;
#X connect 22 6 7 0;
#X connect 22 7 8 0;
#X connect 22 8 9 0;
#X connect 22 9 10 0;
#X connect 22 10 11 0;
#X connect 22 11 12 0;
#X connect 22 12 1 0;
#X connect 22 13 2 0;
#X restore 544 204 pd fingering_to_midi;
#X obj 544 244 s pitch;
#X floatatom 544 226 5 0 0 0 - - -, f 5;
#X msg 175 35 devices;
#X msg 123 36 close;
#X obj 361 18 loadbang;
#X obj 123 92 comport 4 57600;
#X obj 123 188 vsl 15 100 0 127 0 0 empty empty T 0 -9 0 10 -204800
-1 -1 0 1;
#X obj 146 188 vsl 15 100 0 127 0 0 empty empty 1 0 -9 0 10 -262144
-1 -1 0 1;
#X obj 169 188 vsl 15 100 0 127 0 0 empty empty 2 0 -9 0 10 -262144
-1 -1 0 1;
#X obj 192 188 vsl 15 100 0 127 0 0 empty empty 3 0 -9 0 10 -262144
-1 -1 0 1;
#X obj 216 188 vsl 15 100 0 127 0 0 empty empty Gis 0 -9 0 10 -262144
-1 -1 0 1;
#X obj 244 188 vsl 15 100 0 127 0 0 empty empty 1 0 -9 0 10 -262144
-1 -1 0 1;
#X obj 267 188 vsl 15 100 0 127 0 0 empty empty 2 0 -9 0 10 -262144
-1 -1 0 1;
#X obj 290 188 vsl 15 100 0 127 0 0 empty empty 3 0 -9 0 10 -262144
-1 -1 0 1;
#X obj 313 188 vsl 15 100 0 127 0 0 empty empty Es 0 -9 0 10 -204800
-1 -1 0 1;
#N canvas 563 371 460 165 data 0;
#X obj 66 25 inlet;
#X obj 123 25 inlet;
#X obj 185 24 inlet;
#X obj 252 24 inlet;
#X obj 319 27 inlet;
#X obj 327 51 s fl_lgis;
#X obj 127 48 s fl_lh1;
#X obj 191 48 s fl_lh2;
#X obj 258 48 s fl_lh3;
#X obj 56 52 s fl_lt;
#X obj 213 102 loadbang;
#X msg 205 131 0;
#X connect 0 0 9 0;
#X connect 1 0 6 0;
#X connect 2 0 7 0;
#X connect 3 0 8 0;
#X connect 4 0 5 0;
#X connect 10 0 11 0;
#X connect 11 0 9 0;
#X connect 11 0 6 0;
#X connect 11 0 7 0;
#X connect 11 0 8 0;
#X connect 11 0 5 0;
#X restore 144 306 pd data;
#N canvas 716 263 556 266 data 0;
#X obj 18 38 inlet;
#X obj 101 37 inlet;
#X obj 176 37 inlet;
#X obj 243 36 inlet;
#X obj 185 60 s fl_rh3;
#X obj 38 64 s fl_rh1;
#X obj 110 60 s fl_rh2;
#X obj 253 59 s fl_res;
#X obj 359 98 loadbang;
#X msg 375 153 0;
#X connect 0 0 5 0;
#X connect 1 0 6 0;
#X connect 2 0 4 0;
#X connect 3 0 7 0;
#X connect 8 0 9 0;
#X connect 9 0 7 0;
#X connect 9 0 4 0;
#X connect 9 0 6 0;
#X connect 9 0 5 0;
#X restore 256 305 pd data;
#X obj 359 243 catch~ fmix;
#X obj 235 35 r toAVR;
#X msg 292 38 open 2;
#X obj 34 95 s fl_vol;
#N canvas 652 144 686 649 super_tangram 0;
#N canvas 0 50 550 410 pitch_shift 0;
#X obj 249 220 *~;
#X obj 296 220 *~;
#X obj 313 177 cos~;
#X obj 357 176 cos~;
#X obj 223 124 inlet~;
#X obj 349 144 +~ 0.25;
#X obj 307 84 line~;
#X obj 306 58 pack 0 20;
#X obj 259 252 +~;
#X obj 214 322 outlet~;
#X floatatom 392 36 5 0 0 0 - - -, f 5;
#X obj 395 60 / 5;
#X obj 394 8 inlet;
#X obj 298 113 phasor~;
#X obj 244 172 hilbert~;
#X connect 0 0 8 0;
#X connect 1 0 8 1;
#X connect 2 0 0 1;
#X connect 3 0 1 1;
#X connect 4 0 14 0;
#X connect 5 0 3 0;
#X connect 6 0 13 0;
#X connect 7 0 6 0;
#X connect 8 0 9 0;
#X connect 10 0 11 0;
#X connect 11 0 7 0;
#X connect 12 0 10 0;
#X connect 13 0 2 0;
#X connect 13 0 5 0;
#X connect 14 0 0 0;
#X connect 14 1 1 0;
#X restore 305 499 pd pitch_shift;
#X floatatom 21 508 5 0 0 0 - - -, f 5;
#X obj 20 485 line;
#X obj -6 345 t b b;
#X obj -6 318 bng 15 250 50 0 empty empty empty 17 7 0 10 -262144 -1
-1;
#X obj -7 451 pack 0 6000;
#X obj 21 380 random 20;
#X obj 20 406 + 5;
#X obj 256 88 line~;
#X obj 479 228 *~ 1;
#X obj 333 232 *~ 1;
#X obj 508 206 / 100;
#X obj 362 210 / 100;
#X obj 427 28 bng 15 250 50 0 empty empty empty 17 7 0 10 -262144 -1
-1;
#X floatatom 374 286 5 0 0 0 - - -, f 5;
#X obj 235 365 tabread~;
#X obj 331 360 tabread~;
#X obj 422 358 tabread~;
#X obj 360 151 random 50;
#X obj 506 146 random 50;
#X obj 507 178 + 75;
#X obj 361 184 + 75;
#X floatatom 124 98 5 0 0 0 - - -, f 5;
#X obj 189 136 + 25;
#X obj 160 110 * 2;
#X obj 265 551 *~ 0.7;
#X obj 100 293 i 1;
#X msg 257 57 0 \, 22050 500;
#X msg 364 317 set fl_t\$1;
#X obj 121 55 r pitch;
#X obj 145 584 throw~ fl_tram;
#X obj 2 263 r fl_atk;
#X obj 309 392 *~ 0.4;
#X connect 0 0 25 0;
#X connect 1 0 0 1;
#X connect 2 0 1 0;
#X connect 3 0 5 0;
#X connect 3 1 6 0;
#X connect 4 0 3 0;
#X connect 4 0 13 0;
#X connect 4 0 26 0;
#X connect 5 0 2 0;
#X connect 6 0 7 0;
#X connect 7 0 2 0;
#X connect 8 0 9 0;
#X connect 8 0 10 0;
#X connect 8 0 15 0;
#X connect 9 0 17 0;
#X connect 10 0 16 0;
#X connect 11 0 9 1;
#X connect 12 0 10 1;
#X connect 13 0 27 0;
#X connect 13 0 18 0;
#X connect 13 0 19 0;
#X connect 14 0 28 0;
#X connect 15 0 32 0;
#X connect 16 0 32 0;
#X connect 17 0 32 0;
#X connect 18 0 21 0;
#X connect 19 0 20 0;
#X connect 20 0 11 0;
#X connect 21 0 12 0;
#X connect 22 0 24 0;
#X connect 22 0 26 1;
#X connect 23 0 20 1;
#X connect 23 0 21 1;
#X connect 24 0 23 0;
#X connect 25 0 30 0;
#X connect 26 0 14 0;
#X connect 27 0 8 0;
#X connect 28 0 15 0;
#X connect 28 0 16 0;
#X connect 28 0 17 0;
#X connect 29 0 22 0;
#X connect 31 0 4 0;
#X connect 32 0 30 0;
#X connect 32 0 0 0;
#X restore 544 144 pd super_tangram;
#N canvas 366 112 682 336 phase_vocoder 0;
#N canvas 1443 139 1549 954 phase 0;
#X obj 143 341 *~;
#X obj 110 341 *~;
#X obj 110 363 -~;
#X obj 259 339 *~;
#X obj 228 339 *~;
#X obj 225 365 +~;
#X obj 201 57 *~;
#X obj 170 57 *~;
#X obj 142 57 *~;
#X obj 111 57 *~;
#X obj 111 82 +~;
#X obj 219 243 *~;
#X obj 318 282 rfft~;
#X obj 200 25 rfft~;
#X obj 189 243 *~;
#X obj 189 265 +~;
#X obj 216 82 -~;
#X obj 110 295 *~;
#X obj 143 296 *~;
#X obj 111 213 +~ 1e-15;
#X obj 189 289 q8_rsqrt~;
#X obj 213 -67 *~;
#X obj 181 -67 *~;
#X obj 181 -45 +~;
#X obj 251 -42 q8_rsqrt~;
#X obj 251 -65 +~ 1e-20;
#X obj 165 -17 *~;
#X obj 111 -18 *~;
#X obj 111 189 +~;
#X obj 217 195 +~;
#X obj 137 581 tabreceive~ hann;
#X obj 459 441 tabsend~ prev-imag-fl;
#X obj 458 465 tabsend~ prev-real-fl;
#X obj 112 -128 tabreceive~ prev-real-fl;
#X obj 165 -107 tabreceive~ prev-imag-fl;
#X obj 74 574 outlet~;
#X obj 77 516 *~;
#X obj 95 487 rifft~;
#X obj 575 423 block~ 1024 4;
#X obj 539 361 *~;
#X obj 601 -146 f;
#X obj 696 350 *~;
#X obj 601 -279 bang~;
#X obj 471 42 line~;
#X obj 471 -68 b;
#X obj 769 267 tabreceive~ hann;
#X obj 604 -110 * 44.1;
#X floatatom 863 -51 5 0 0 0 - - -, f 5;
#X obj 618 -180 +;
#X floatatom 1009 27 5 0 0 0 - - -, f 5;
#X obj 467 204 *~;
#X obj 697 204 *~;
#X obj 583 204 *~;
#X obj 814 205 *~;
#X obj 534 237 +~;
#X obj 704 242 +~;
#X obj 1008 48 xfade;
#X msg 761 19 set fl_n\$1;
#X obj 469 173 tabread4~ fl_n62;
#X obj 583 173 tabread4~ fl_n62;
#X msg 858 19 set fl_nf\$1;
#X obj 863 -78 r pitch;
#X obj 812 171 tabread4~ fl_nf62;
#X obj 696 172 tabread4~ fl_nf62;
#X obj 653 -214 + 200;
#X obj 650 -240 * 500;
#X obj 648 -264 r fl_vol;
#X floatatom 655 -179 5 0 0 0 - - -, f 5;
#X obj 1006 -73 r fl_vol;
#X obj 1000 -5 clip 0 90;
#X obj 1248 97 r fl_thresh;
#X obj 1178 131 - 64;
#X floatatom 1179 180 5 0 0 0 - - -, f 5;
#X obj 1179 155 max 0;
#X obj 1157 86 r fl_lh2;
#X obj 1004 -38 * 35;
#X obj 1177 232 line~;
#X obj 1207 275 pack 0 100;
#X obj 78 545 *~ 0.0003;
#X obj 470 -40 f 1024;
#X obj 604 -84 - 512;
#X obj 1071 240 +~;
#X obj 1022 172 osc~ 5;
#X floatatom 1047 122 5 0 0 0 - - -, f 5;
#X obj 1068 208 *~;
#X obj 1187 20 r fl_thresh;
#X obj 1117 54 - 64;
#X obj 1050 87 max 0;
#X msg 468 -1 0 \, \$1 5.805;
#X obj 472 108 -~ 256;
#X obj 1096 9 r fl_lh1;
#X obj 1068 292 *~ -1;
#X obj 143 116 lrshift~ 1;
#X obj 138 140 lrshift~ -1;
#X obj 255 116 lrshift~ 1;
#X obj 247 140 lrshift~ -1;
#X obj 492 -221 r fl_thresh;
#X obj 422 -187 - 64;
#X floatatom 423 -138 5 0 0 0 - - -, f 5;
#X obj 421 -163 max 0;
#X obj 401 -232 r fl_lh3;
#X obj 544 -79 + 1024;
#X obj 1229 222 / 6;
#X obj 500 -108 * 5;
#X obj 412 -117 pack 0 150;
#X obj 412 -89 line 0 10;
#X connect 0 0 2 1;
#X connect 1 0 2 0;
#X connect 2 0 32 0;
#X connect 2 0 37 0;
#X connect 3 0 5 1;
#X connect 4 0 5 0;
#X connect 5 0 31 0;
#X connect 5 0 37 1;
#X connect 6 0 16 1;
#X connect 7 0 16 0;
#X connect 8 0 10 1;
#X connect 9 0 10 0;
#X connect 10 0 28 0;
#X connect 10 0 93 0;
#X connect 10 0 92 0;
#X connect 11 0 15 1;
#X connect 12 0 1 1;
#X connect 12 0 3 1;
#X connect 12 1 0 1;
#X connect 12 1 4 1;
#X connect 13 0 9 1;
#X connect 13 0 7 1;
#X connect 13 1 6 1;
#X connect 13 1 8 1;
#X connect 14 0 15 0;
#X connect 15 0 20 0;
#X connect 16 0 29 0;
#X connect 16 0 94 0;
#X connect 16 0 95 0;
#X connect 17 0 1 0;
#X connect 17 0 4 0;
#X connect 18 0 0 0;
#X connect 18 0 3 0;
#X connect 19 0 14 1;
#X connect 19 0 14 0;
#X connect 19 0 17 0;
#X connect 20 0 17 1;
#X connect 20 0 18 1;
#X connect 21 0 23 1;
#X connect 22 0 23 0;
#X connect 23 0 25 0;
#X connect 24 0 26 1;
#X connect 24 0 27 1;
#X connect 25 0 24 0;
#X connect 26 0 8 0;
#X connect 26 0 7 0;
#X connect 27 0 9 0;
#X connect 27 0 6 0;
#X connect 28 0 19 0;
#X connect 29 0 11 0;
#X connect 29 0 11 1;
#X connect 29 0 18 0;
#X connect 30 0 36 1;
#X connect 33 0 22 1;
#X connect 33 0 22 0;
#X connect 33 0 27 0;
#X connect 34 0 21 1;
#X connect 34 0 21 0;
#X connect 34 0 26 0;
#X connect 36 0 78 0;
#X connect 37 0 36 0;
#X connect 39 0 13 0;
#X connect 40 0 46 0;
#X connect 41 0 12 0;
#X connect 42 0 40 0;
#X connect 42 0 48 0;
#X connect 43 0 59 0;
#X connect 43 0 62 0;
#X connect 43 0 89 0;
#X connect 44 0 79 0;
#X connect 45 0 39 1;
#X connect 45 0 41 0;
#X connect 46 0 80 0;
#X connect 47 0 57 0;
#X connect 47 0 60 0;
#X connect 48 0 40 1;
#X connect 49 0 56 0;
#X connect 50 0 54 0;
#X connect 51 0 54 1;
#X connect 52 0 55 0;
#X connect 53 0 55 1;
#X connect 54 0 39 0;
#X connect 55 0 41 1;
#X connect 56 0 50 1;
#X connect 56 0 52 1;
#X connect 56 1 53 1;
#X connect 56 1 51 1;
#X connect 57 0 58 0;
#X connect 57 0 59 0;
#X connect 58 0 50 0;
#X connect 59 0 52 0;
#X connect 60 0 62 0;
#X connect 60 0 63 0;
#X connect 61 0 47 0;
#X connect 62 0 53 0;
#X connect 63 0 51 0;
#X connect 64 0 67 0;
#X connect 65 0 64 0;
#X connect 66 0 65 0;
#X connect 67 0 48 1;
#X connect 68 0 75 0;
#X connect 69 0 49 0;
#X connect 70 0 71 1;
#X connect 71 0 73 0;
#X connect 72 0 102 0;
#X connect 73 0 72 0;
#X connect 74 0 71 0;
#X connect 75 0 69 0;
#X connect 76 0 81 1;
#X connect 77 0 76 0;
#X connect 78 0 35 0;
#X connect 79 0 88 0;
#X connect 80 0 44 0;
#X connect 80 0 58 1;
#X connect 80 0 59 1;
#X connect 80 0 62 1;
#X connect 80 0 63 1;
#X connect 81 0 59 0;
#X connect 81 0 91 0;
#X connect 82 0 84 0;
#X connect 83 0 82 0;
#X connect 83 0 84 1;
#X connect 84 0 81 0;
#X connect 85 0 86 1;
#X connect 86 0 87 0;
#X connect 87 0 83 0;
#X connect 88 0 43 0;
#X connect 89 0 58 0;
#X connect 89 0 63 0;
#X connect 90 0 86 0;
#X connect 91 0 62 0;
#X connect 92 0 28 1;
#X connect 93 0 28 1;
#X connect 94 0 29 1;
#X connect 95 0 29 1;
#X connect 96 0 97 1;
#X connect 97 0 99 0;
#X connect 98 0 104 0;
#X connect 99 0 98 0;
#X connect 100 0 97 0;
#X connect 101 0 79 1;
#X connect 102 0 77 0;
#X connect 103 0 101 0;
#X connect 104 0 105 0;
#X connect 105 0 103 0;
#X restore 108 115 pd phase vocoder;
#N canvas 566 477 482 368 freqshift 0;
#X obj 130 191 hilbert~;
#X obj 135 239 *~;
#X obj 182 239 *~;
#X obj 199 196 cos~;
#X obj 243 195 cos~;
#X obj 109 143 inlet~;
#X obj 235 163 +~ 0.25;
#X obj 193 126 phasor~;
#X obj 193 103 line~;
#X obj 192 77 pack 0 20;
#X obj 145 271 +~;
#X obj 100 341 outlet~;
#X floatatom 278 55 5 0 0 0 - - -, f 5;
#X obj 281 79 / 5;
#X obj 280 27 inlet;
#X obj 345 249 line~;
#X obj 344 223 pack 0 10;
#X obj 339 176 / 127;
#X obj 147 314 *~;
#X connect 0 0 1 0;
#X connect 0 1 2 0;
#X connect 1 0 10 0;
#X connect 2 0 10 1;
#X connect 3 0 1 1;
#X connect 4 0 2 1;
#X connect 5 0 0 0;
#X connect 5 0 11 0;
#X connect 6 0 4 0;
#X connect 7 0 6 0;
#X connect 7 0 3 0;
#X connect 8 0 7 0;
#X connect 9 0 8 0;
#X connect 10 0 18 0;
#X connect 12 0 13 0;
#X connect 13 0 9 0;
#X connect 14 0 12 0;
#X connect 14 0 17 0;
#X connect 15 0 18 1;
#X connect 16 0 15 0;
#X connect 17 0 16 0;
#X connect 18 0 11 0;
#X restore 241 256 pd freqshift;
#X obj 103 253 table prev-imag-fl;
#X obj 103 276 table prev-real-fl;
#X obj 241 279 throw~ fmix;
#X floatatom 486 178 5 0 0 0 pepe - -, f 5;
#X obj 488 47 r fl_rh3;
#X floatatom 242 164 5 0 0 0 am - -, f 5;
#X obj 245 90 - 64;
#X obj 238 126 max 0;
#X obj 500 94 - 64;
#X obj 486 122 max 0;
#X obj 549 67 r fl_thresh;
#X obj 483 152 * 2;
#X obj 348 128 - 64;
#N canvas 841 183 450 300 am 0;
#X obj 32 76 inlet~;
#X obj 55 266 outlet~;
#X obj 239 10 inlet;
#X floatatom 240 52 5 0 0 0 - - -, f 5;
#X obj 66 209 *~;
#X obj 110 176 xfade;
#X obj 120 217 *~;
#X floatatom 113 150 5 0 0 0 - - -, f 5;
#X obj 149 78 / 64;
#X obj 152 114 * 90;
#X obj 214 171 osc~;
#X obj 193 223 *~;
#X obj 250 146 line~;
#X obj 287 112 pack 0 10;
#X connect 0 0 4 0;
#X connect 0 0 11 0;
#X connect 2 0 3 0;
#X connect 3 0 8 0;
#X connect 3 0 13 0;
#X connect 4 0 1 0;
#X connect 5 0 4 1;
#X connect 5 1 6 1;
#X connect 6 0 1 0;
#X connect 7 0 5 0;
#X connect 8 0 9 0;
#X connect 9 0 7 0;
#X connect 10 0 11 1;
#X connect 11 0 6 0;
#X connect 12 0 10 0;
#X connect 13 0 12 0;
#X restore 241 208 pd am;
#X obj 257 67 r fl_rh1;
#X obj 344 104 r fl_rh2;
#X floatatom 341 191 5 0 0 0 flang - -, f 5;
#X obj 337 161 max 0;
#N canvas 2004 462 527 446 flanger 0;
#X obj 74 64 inlet~;
#X obj 68 349 outlet~;
#X obj 227 53 inlet;
#X obj 112 210 delwrite~ fl_flange 22;
#X obj 135 250 vd~ fl_flange;
#X obj 111 273 *~ 0.95;
#X obj 287 172 line~;
#X obj 300 99 / 10;
#X obj 285 138 pack 0 200;
#X obj 212 80 / 127;
#X obj 216 296 line~;
#X obj 243 253 pack 0 10;
#X obj 146 319 *~;
#X connect 0 0 3 0;
#X connect 0 0 1 0;
#X connect 2 0 7 0;
#X connect 2 0 9 0;
#X connect 4 0 5 0;
#X connect 5 0 3 0;
#X connect 5 0 12 0;
#X connect 6 0 4 0;
#X connect 7 0 8 0;
#X connect 8 0 6 0;
#X connect 9 0 11 0;
#X connect 10 0 12 1;
#X connect 11 0 10 0;
#X connect 12 0 1 0;
#X restore 247 232 pd flanger;
#X connect 0 0 15 0;
#X connect 1 0 4 0;
#X connect 5 0 1 1;
#X connect 6 0 10 0;
#X connect 7 0 15 1;
#X connect 8 0 9 0;
#X connect 9 0 7 0;
#X connect 10 0 11 0;
#X connect 11 0 13 0;
#X connect 12 0 10 1;
#X connect 12 0 8 1;
#X connect 12 0 14 1;
#X connect 13 0 5 0;
#X connect 14 0 19 0;
#X connect 15 0 20 0;
#X connect 16 0 8 0;
#X connect 17 0 14 0;
#X connect 18 0 20 1;
#X connect 19 0 18 0;
#X connect 20 0 1 0;
#X restore 545 122 pd phase_vocoder;
#X obj 69 253 tgl 30 0 empty empty empty 17 7 0 10 -228856 -1 -1 0
1;
#X obj 69 294 s oct;
#N canvas 296 530 450 300 oct 0;
#X obj 98 243 outlet;
#X obj 70 49 r fl_res;
#X obj 138 52 r fl_lt;
#X obj 106 100 max;
#X obj 154 135 r fl_thresh;
#X obj 100 205 change;
#X obj 107 162 > 80;
#X connect 1 0 3 0;
#X connect 2 0 3 1;
#X connect 3 0 6 0;
#X connect 4 0 6 1;
#X connect 5 0 0 0;
#X connect 6 0 5 0;
#X restore 69 213 pd oct;
#X msg 361 43 devicename /dev/ttyUSB0;
#X obj 452 274 jingle 6100;
#N canvas 172 428 711 323 midi__________ 0;
#X obj 175 210 outlet;
#X obj 222 211 outlet;
#X obj 278 213 outlet;
#X obj 325 214 outlet;
#X obj 377 216 outlet;
#X obj 443 216 outlet;
#X obj 499 218 outlet;
#X obj 546 219 outlet;
#X obj 598 221 outlet;
#X obj 155 27 r fl;
#X obj 170 90 route 100 101 102 103 104 105 106 107 108 109;
#X obj 128 118 / 40;
#X obj 124 172 line 0 10;
#X obj 7 69 difference;
#X obj 7 134 change;
#X obj 7 170 sel 1;
#X obj 6 101 > 0.6;
#X obj 15 213 s fl_atk;
#X obj 122 146 pack 0 200;
#X obj 126 259 s midi_vol;
#X connect 9 0 10 0;
#X connect 10 0 11 0;
#X connect 10 1 0 0;
#X connect 10 2 1 0;
#X connect 10 3 2 0;
#X connect 10 4 3 0;
#X connect 10 5 4 0;
#X connect 10 6 5 0;
#X connect 10 7 6 0;
#X connect 10 8 7 0;
#X connect 10 9 8 0;
#X connect 11 0 13 0;
#X connect 11 0 18 0;
#X connect 12 0 19 0;
#X connect 13 0 16 0;
#X connect 14 0 15 0;
#X connect 15 0 17 0;
#X connect 16 0 14 0;
#X connect 18 0 12 0;
#X restore 378 169 pd midi__________;
#X obj 418 307 outlet~;
#N canvas 0 51 450 300 initializer 0;
#X obj 91 135 s fl_thresh;
#X obj 91 58 loadbang;
#X msg 91 98 50;
#X msg 184 123 \; pd dsp 1;
#X obj 184 84 del 6000;
#X connect 1 0 2 0;
#X connect 1 0 4 0;
#X connect 2 0 0 0;
#X connect 4 0 3 0;
#X restore 547 74 pd initializer;
#N canvas 0 51 802 471 amplitude 0;
#X obj 287 151 line~;
#X obj 202 173 *~;
#X obj 234 205 *~;
#X obj 378 227 line~;
#X obj 380 65 != 0;
#X obj 381 126 sel 1 0;
#X msg 378 151 1 10;
#X obj 380 97 change;
#X obj 379 42 r fl_fingering;
#X msg 426 152 0 1000;
#X obj 289 100 clip 0 1;
#X obj 289 51 r fl_vol;
#X obj 289 77 / 2;
#X obj 495 132 r fl_atk;
#X obj 288 126 pack 0 50;
#X obj 548 99 bng 15 250 50 0 empty empty empty 17 7 0 10 -262144 -1
-1;
#X msg 486 164 0;
#X msg 522 195 1 300;
#X obj 523 165 del 450;
#X obj 202 112 inlet~;
#X obj 235 252 outlet~;
#X obj 113 221 catch~ fl_tram;
#X connect 0 0 1 1;
#X connect 1 0 2 0;
#X connect 2 0 20 0;
#X connect 3 0 2 1;
#X connect 4 0 7 0;
#X connect 5 0 6 0;
#X connect 5 1 9 0;
#X connect 6 0 3 0;
#X connect 7 0 5 0;
#X connect 8 0 4 0;
#X connect 9 0 3 0;
#X connect 10 0 14 0;
#X connect 11 0 12 0;
#X connect 12 0 10 0;
#X connect 13 0 15 0;
#X connect 13 0 16 0;
#X connect 13 0 18 0;
#X connect 14 0 0 0;
#X connect 16 0 3 0;
#X connect 17 0 3 0;
#X connect 18 0 17 0;
#X connect 19 0 1 0;
#X connect 21 0 20 0;
#X restore 358 273 pd amplitude;
#N canvas 0 51 450 300 volume 0;
#X obj 146 59 tgl 15 0 empty empty empty 17 7 0 10 -262144 -1 -1 1
1;
#X obj 145 9 loadbang;
#X msg 146 34 1;
#N canvas 413 78 274 580 fl_env 0;
#X floatatom 89 75 5 0 0 0 - - -, f 5;
#X floatatom 89 188 5 0 0 0 - - -, f 5;
#X obj 79 281 -;
#X floatatom 32 318 5 0 0 0 - - -, f 5;
#X obj 30 346 moses 0;
#X floatatom 27 372 5 0 0 0 - - -, f 5;
#X obj 89 216 t b f;
#X obj 102 255 f 0;
#X obj 102 433 +;
#X floatatom 104 460 5 0 0 0 - - -, f 5;
#X obj 104 496 outlet;
#X obj 89 160 / 10;
#X obj 89 103 clip 50 85;
#X obj 89 130 - 50;
#X obj 89 46 env~ 256 128;
#X obj 89 18 inlet~;
#X obj 149 150 difference;
#X obj 149 215 change;
#X obj 149 251 sel 1;
#X obj 157 294 s fl_atk;
#X obj 148 182 > 2;
#X obj 25 400 / 30;
#X obj 69 399 / 20;
#X connect 0 0 12 0;
#X connect 1 0 6 0;
#X connect 2 0 3 0;
#X connect 3 0 4 0;
#X connect 4 0 5 0;
#X connect 4 1 22 0;
#X connect 5 0 21 0;
#X connect 6 0 7 0;
#X connect 6 1 2 0;
#X connect 7 0 2 1;
#X connect 7 0 8 1;
#X connect 8 0 7 1;
#X connect 8 0 9 0;
#X connect 9 0 10 0;
#X connect 11 0 1 0;
#X connect 11 0 16 0;
#X connect 12 0 13 0;
#X connect 13 0 11 0;
#X connect 14 0 0 0;
#X connect 15 0 14 0;
#X connect 16 0 20 0;
#X connect 17 0 18 0;
#X connect 18 0 19 0;
#X connect 20 0 17 0;
#X connect 21 0 8 0;
#X connect 22 0 8 0;
#X restore 66 49 pd fl_env;
#X obj 66 73 spigot;
#X obj 66 29 hip~ 1000;
#X obj 65 7 inlet~;
#X obj 72 102 outlet;
#X obj 252 93 r midi_vol;
#X connect 0 0 4 1;
#X connect 1 0 2 0;
#X connect 2 0 0 0;
#X connect 3 0 4 0;
#X connect 4 0 7 0;
#X connect 5 0 3 0;
#X connect 6 0 5 0;
#X connect 8 0 7 0;
#X restore 34 66 pd volume;
#X obj 30 156 vsl 30 150 0 3 0 0 empty fl_vol input 0 -9 0 10 -204800
-1 -1 0 1;
#N canvas 0 51 663 507 fingering______ 0;
#X obj 113 285 unpack 0 0 0 0 0;
#X obj 331 168 shutdown;
#N canvas 0 50 450 300 ping 0;
#X obj 161 62 inlet;
#X obj 223 161 print;
#X msg 222 127 received a ping;
#X obj 161 159 s toAVR;
#X msg 161 122 162;
#X connect 0 0 2 0;
#X connect 0 0 4 0;
#X connect 2 0 1 0;
#X connect 4 0 3 0;
#X restore 332 190 pd ping;
#X obj 388 238 pc_confirm;
#X obj 389 279 s preset;
#X floatatom 388 262 5 0 0 0 - - -, f 5;
#X obj 123 118 uart_decode;
#X obj 123 151 route 128 129 144 145 240;
#X obj 239 288 unpack 0 0 0 0;
#X msg 237 218 \$4 \$5 \$3 \$1;
#X msg 122 220 \$1 \$2 \$3 \$5 \$4;
#X obj 128 61 inlet;
#X obj 50 365 outlet;
#X obj 99 366 outlet;
#X obj 146 365 outlet;
#X obj 195 366 outlet;
#X obj 246 366 outlet;
#X obj 296 366 outlet;
#X obj 348 366 outlet;
#X obj 399 366 outlet;
#X obj 446 365 outlet;
#X connect 0 0 12 0;
#X connect 0 1 13 0;
#X connect 0 2 14 0;
#X connect 0 3 15 0;
#X connect 0 4 16 0;
#X connect 3 0 5 0;
#X connect 5 0 4 0;
#X connect 6 0 7 0;
#X connect 7 0 10 0;
#X connect 7 1 9 0;
#X connect 7 2 3 0;
#X connect 7 3 2 0;
#X connect 7 4 1 0;
#X connect 8 0 17 0;
#X connect 8 1 18 0;
#X connect 8 2 19 0;
#X connect 8 3 20 0;
#X connect 9 0 8 0;
#X connect 10 0 0 0;
#X connect 11 0 6 0;
#X restore 123 131 pd fingering______;
#X obj 378 90 cnv 15 100 60 empty pitchText CIS 20 12 0 30 -233017
-66577 0;
#N canvas 204 395 1260 375 pitchText 0;
#X obj 523 11 r pitch;
#X msg 170 147 d;
#X msg 210 146 dis;
#X msg 246 147 e;
#X msg 289 147 f;
#X msg 331 146 fis;
#X msg 370 145 g;
#X msg 407 146 gis;
#X msg 447 145 a;
#X msg 489 144 ais;
#X msg 530 144 h;
#X msg 569 143 C;
#X msg 611 142 CIS;
#X msg 657 144 D;
#X msg 697 143 DIS;
#X msg 733 144 E;
#X msg 776 144 F;
#X msg 818 143 FIS;
#X msg 857 142 G;
#X msg 894 143 GIS;
#X msg 934 142 A;
#X msg 976 141 AIS;
#X obj 670 315 s pitchText;
#X obj 673 254 list prepend label;
#X obj 673 283 list trim;
#X msg 1014 139 H;
#X obj 535 45 sel 62 63 64 65 66 67 68 69 70 71 72 73 74 75 76 77 78
79 80 81 82 83;
#X connect 0 0 26 0;
#X connect 1 0 23 0;
#X connect 2 0 23 0;
#X connect 3 0 23 0;
#X connect 4 0 23 0;
#X connect 5 0 23 0;
#X connect 6 0 23 0;
#X connect 7 0 23 0;
#X connect 8 0 23 0;
#X connect 9 0 23 0;
#X connect 10 0 23 0;
#X connect 11 0 23 0;
#X connect 12 0 23 0;
#X connect 13 0 23 0;
#X connect 14 0 23 0;
#X connect 15 0 23 0;
#X connect 16 0 23 0;
#X connect 17 0 23 0;
#X connect 18 0 23 0;
#X connect 19 0 23 0;
#X connect 20 0 23 0;
#X connect 21 0 23 0;
#X connect 23 0 24 0;
#X connect 24 0 22 0;
#X connect 25 0 23 0;
#X connect 26 0 1 0;
#X connect 26 1 2 0;
#X connect 26 2 3 0;
#X connect 26 3 4 0;
#X connect 26 4 5 0;
#X connect 26 5 6 0;
#X connect 26 6 7 0;
#X connect 26 7 8 0;
#X connect 26 8 9 0;
#X connect 26 9 10 0;
#X connect 26 10 11 0;
#X connect 26 11 12 0;
#X connect 26 12 13 0;
#X connect 26 13 14 0;
#X connect 26 14 15 0;
#X connect 26 15 16 0;
#X connect 26 16 17 0;
#X connect 26 17 18 0;
#X connect 26 18 19 0;
#X connect 26 19 20 0;
#X connect 26 20 21 0;
#X connect 26 21 25 0;
#X restore 377 197 pd pitchText;
#X connect 0 0 42 0;
#X connect 5 0 6 0;
#X connect 7 0 8 0;
#X connect 8 0 9 0;
#X connect 9 0 11 0;
#X connect 11 0 10 0;
#X connect 12 0 15 0;
#X connect 13 0 15 0;
#X connect 14 0 36 0;
#X connect 15 0 44 0;
#X connect 16 0 25 0;
#X connect 17 0 25 1;
#X connect 18 0 25 2;
#X connect 19 0 25 3;
#X connect 20 0 25 4;
#X connect 21 0 26 0;
#X connect 22 0 26 1;
#X connect 23 0 26 2;
#X connect 24 0 26 3;
#X connect 27 0 41 0;
#X connect 28 0 15 0;
#X connect 29 0 15 0;
#X connect 33 0 34 0;
#X connect 35 0 33 0;
#X connect 36 0 15 0;
#X connect 37 0 1 1;
#X connect 37 0 1 0;
#X connect 38 0 16 0;
#X connect 38 1 17 0;
#X connect 38 2 18 0;
#X connect 38 3 19 0;
#X connect 38 4 20 0;
#X connect 38 5 21 0;
#X connect 38 6 22 0;
#X connect 38 7 23 0;
#X connect 38 8 24 0;
#X connect 41 0 1 0;
#X connect 41 0 39 0;
#X connect 41 0 1 1;
#X connect 42 0 30 0;
#X connect 44 0 16 0;
#X connect 44 1 17 0;
#X connect 44 2 18 0;
#X connect 44 3 19 0;
#X connect 44 4 20 0;
#X connect 44 5 21 0;
#X connect 44 6 22 0;
#X connect 44 7 23 0;
#X connect 44 8 24 0;
