#N canvas 1746 5 528 420 10;
#X declare -path lib;
#X declare -path percussion;
#X obj 356 93 perc;
#X obj 160 60 notein;
#X floatatom 137 95 5 0 0 0 - - -;
#X floatatom 172 96 5 0 0 0 - - -;
#X floatatom 211 96 5 0 0 0 - - -;
#X obj 140 126 pack 0 0 0;
#X msg 138 153 \$3 \$1 \$2;
#X obj 322 314 s to_perc;
#X obj 85 221 s to_flute;
#X obj 117 251 s to_trb;
#X obj 182 323 s to_pf;
#X obj 136 182 route 1 2 3 4 5 6;
#X obj 318 213 unpack 0 0;
#X obj 336 266 pack 0 0;
#X obj 189 236 unpack 0 0;
#X obj 193 261 - 12;
#X obj 207 289 pack 0 0;
#X obj 322 238 - 24;
#X connect 1 0 2 0;
#X connect 1 1 3 0;
#X connect 1 2 4 0;
#X connect 2 0 5 0;
#X connect 3 0 5 1;
#X connect 4 0 5 2;
#X connect 5 0 6 0;
#X connect 6 0 11 0;
#X connect 11 0 8 0;
#X connect 11 1 9 0;
#X connect 11 2 10 0;
#X connect 11 3 14 0;
#X connect 11 4 7 0;
#X connect 11 5 12 0;
#X connect 12 0 17 0;
#X connect 12 1 13 1;
#X connect 13 0 7 0;
#X connect 14 0 15 0;
#X connect 14 1 16 1;
#X connect 15 0 16 0;
#X connect 16 0 10 0;
#X connect 17 0 13 0;
