#N canvas 493 276 852 510 10;
#X declare -path lib;
#X declare -path percussion;
#X declare -path lib;
#X declare -path external_x86;
#X declare -path lib;
#X declare -path flute;
#X declare -path lib;
#X declare -path trombone;
#X obj 678 32 perc;
#X obj 229 40 notein;
#X floatatom 229 74 5 0 0 0 - - -;
#X floatatom 264 75 5 0 0 0 - - -;
#X floatatom 303 75 5 0 0 0 - - -;
#X obj 232 105 pack 0 0 0;
#X msg 232 132 \$3 \$1 \$2;
#X obj 360 337 s to_perc;
#X obj 233 353 s to_flute;
#X obj 247 329 s to_trb;
#X obj 262 305 s to_pf;
#X obj 232 163 route 1 2 3 4 5 6;
#X obj 360 222 unpack 0 0;
#X obj 360 279 pack 0 0;
#X obj 360 250 - 24;
#X obj 678 54 piano;
#X obj 678 80 flute;
#X obj 677 104 trombone;
#X obj 286 219 unpack 0 0;
#X obj 286 276 pack 0 0;
#X obj 286 247 - 24;
#X obj 31 7 ctlin;
#X floatatom 0 34 5 0 0 0 - - -;
#X floatatom 43 80 5 0 0 0 - - -;
#X floatatom 77 81 5 0 0 0 - - -;
#X obj 15 109 pack 0 0 0;
#X obj 9 168 route 1 2 3 4 5 6;
#X obj 60 223 unpack 0 0;
#X obj 60 280 pack 0 0;
#X obj 60 251 - 24;
#X obj 141 224 unpack 0 0;
#X obj 141 281 pack 0 0;
#X obj 141 252 - 24;
#X floatatom -1 79 5 0 0 0 - - -;
#X msg 9 141 \$3 \$2 \$1;
#X obj 36 318 s ctl_pf;
#X obj 20 341 s ctl_trb;
#X obj 8 364 s ctl_flute;
#X obj 141 309 s ctl_perc;
#X obj 479 8 sysexin;
#X floatatom 479 41 5 0 0 0 - - -;
#X obj 531 182 list prepend;
#X obj 630 184 t l;
#X obj 471 211 list append;
#X floatatom 529 140 5 0 0 0 - - -;
#X obj 473 167 bng 15 250 50 0 empty empty empty 17 7 0 10 -262144
-1 -1;
#X obj 600 141 bng 15 250 50 0 empty empty empty 17 7 0 10 -262144
-1 -1;
#X obj 479 74 sel 240 247;
#X obj 470 245 route 1 2 3 4 5 6;
#X obj 648 327 - 24;
#X obj 471 435 s ex_flute;
#X obj 485 411 s ex_trb;
#X obj 500 387 s ex_pf;
#X obj 648 384 s ex_perc;
#X obj 648 299 list split 1;
#X obj 648 356 list append;
#X obj 522 326 - 24;
#X obj 522 298 list split 1;
#X obj 522 355 list append;
#X obj -1 56 * 100;
#X connect 1 0 2 0;
#X connect 1 1 3 0;
#X connect 1 2 4 0;
#X connect 2 0 5 0;
#X connect 3 0 5 1;
#X connect 4 0 5 2;
#X connect 5 0 6 0;
#X connect 6 0 11 0;
#X connect 11 0 8 0;
#X connect 11 1 9 0;
#X connect 11 2 10 0;
#X connect 11 3 18 0;
#X connect 11 4 7 0;
#X connect 11 5 12 0;
#X connect 12 0 14 0;
#X connect 12 1 13 1;
#X connect 13 0 7 0;
#X connect 14 0 13 0;
#X connect 18 0 20 0;
#X connect 18 1 19 1;
#X connect 19 0 10 0;
#X connect 20 0 19 0;
#X connect 21 0 22 0;
#X connect 21 1 23 0;
#X connect 21 2 24 0;
#X connect 22 0 59 0;
#X connect 23 0 25 1;
#X connect 24 0 25 2;
#X connect 25 0 34 0;
#X connect 26 0 37 0;
#X connect 26 1 36 0;
#X connect 26 2 35 0;
#X connect 26 3 27 0;
#X connect 26 4 38 0;
#X connect 26 5 30 0;
#X connect 27 0 29 0;
#X connect 27 1 28 1;
#X connect 28 0 35 0;
#X connect 29 0 28 0;
#X connect 30 0 32 0;
#X connect 30 1 31 1;
#X connect 31 0 38 0;
#X connect 32 0 31 0;
#X connect 33 0 25 0;
#X connect 34 0 26 0;
#X connect 39 0 40 0;
#X connect 40 0 47 0;
#X connect 41 0 42 0;
#X connect 41 0 43 1;
#X connect 42 0 41 1;
#X connect 43 0 48 0;
#X connect 44 0 41 0;
#X connect 45 0 43 0;
#X connect 46 0 41 1;
#X connect 47 0 46 0;
#X connect 47 1 45 0;
#X connect 47 2 44 0;
#X connect 48 0 50 0;
#X connect 48 1 51 0;
#X connect 48 2 52 0;
#X connect 48 3 57 0;
#X connect 48 4 53 0;
#X connect 48 5 54 0;
#X connect 49 0 55 0;
#X connect 54 0 49 0;
#X connect 54 1 55 1;
#X connect 55 0 53 0;
#X connect 56 0 58 0;
#X connect 57 0 56 0;
#X connect 57 1 58 1;
#X connect 58 0 52 0;
#X connect 59 0 33 0;
