#N canvas 459 279 228 291 10;
#X declare -path lib;
#X declare -path percussion;
#X declare -path lib;
#X declare -path flute;
#X declare -path lib;
#X declare -path trombone;
#X declare -path lib;
#X declare -path external_x86;
#X obj 125 30 perc;
#X obj 125 78 flute;
#X obj 124 102 trombone;
#X obj 31 7 ctlin;
#X obj 15 58 pack 0 0 0;
#X msg 15 95 \$3 \$2 \$1;
#X obj 57 180 s pf;
#X obj 15 132 route 1 2 3 4;
#X obj 125 52 piano;
#X obj 16 241 s fl;
#X obj 32 206 s trb;
#X obj 81 158 s perc;
#X obj 83 11 bng 15 250 50 0 empty empty empty 17 7 0 10 -262144 -1
-1;
#X connect 3 0 4 0;
#X connect 3 1 4 1;
#X connect 3 2 4 2;
#X connect 3 2 12 0;
#X connect 4 0 5 0;
#X connect 5 0 7 0;
#X connect 7 0 9 0;
#X connect 7 1 10 0;
#X connect 7 2 6 0;
#X connect 7 3 11 0;
