#N canvas 41 22 537 365 10;
#X declare -path lib;
#X declare -path percussion;
#X declare -path lib;
#X declare -path flute;
#X declare -path lib;
#X declare -path trombone;
#X declare -path lib;
#X declare -path external_x86;
#X obj 296 113 perc;
#X obj 165 161 flute;
#X obj 393 170 trombone;
#X obj 31 7 ctlin;
#X obj 15 58 pack 0 0 0;
#X msg 15 95 \$3 \$2 \$1;
#X obj 57 180 s pf;
#X obj 15 132 route 1 2 3 4;
#X obj 226 115 piano;
#X obj 16 241 s fl;
#X obj 32 206 s trb;
#X obj 81 158 s perc;
#X obj 83 11 bng 15 250 50 0 empty empty empty 17 7 0 10 -262144 -1
-1;
#X obj 256 196 pan2~;
#X obj 295 210 pan2~;
#X obj 363 216 pan2~;
#X obj 165 219 pan2~;
#X obj 235 268 writesf~ 2;
#X obj 413 211 sig~ 1;
#X obj 177 193 sig~ -1;
#X obj 237 153 sig~ -0.5;
#X obj 330 149 sig~ 0.5;
#X msg 148 316 open \$1;
#X obj 94 289 savepanel;
#X obj 93 265 bng 15 250 50 0 empty empty empty 17 7 0 10 -262144 -1
-1;
#X msg 290 316 start;
#X msg 347 302 stop;
#X connect 0 0 14 0;
#X connect 1 0 16 0;
#X connect 2 0 15 0;
#X connect 3 0 4 0;
#X connect 3 1 4 1;
#X connect 3 2 4 2;
#X connect 3 2 12 0;
#X connect 4 0 5 0;
#X connect 5 0 7 0;
#X connect 7 3 11 0;
#X connect 8 0 13 0;
#X connect 13 0 17 0;
#X connect 13 1 17 1;
#X connect 14 0 17 0;
#X connect 14 1 17 1;
#X connect 15 0 17 0;
#X connect 15 1 17 1;
#X connect 16 0 17 0;
#X connect 16 1 17 1;
#X connect 18 0 15 1;
#X connect 19 0 16 1;
#X connect 20 0 13 1;
#X connect 21 0 14 1;
#X connect 22 0 17 0;
#X connect 23 0 22 0;
#X connect 24 0 23 0;
#X connect 25 0 17 0;
#X connect 26 0 17 0;
