#N canvas 57 22 565 351 10;
#X declare -path lib;
#X declare -path percussion;
#X obj 427 35 loadbang;
#X msg 427 63 \; pd dsp 1;
#X obj 421 188 dac~;
#X obj 309 289 declare -path lib;
#X obj 309 312 declare -path percussion;
#X obj 426 105 jingle;
#N canvas 805 253 494 308 sample 0;
#X obj 277 27 loadbang;
#X obj 278 164 soundfiler;
#X msg 277 123 read -size;
#X obj 63 50 table snare;
#X obj 64 74 table triangle;
#X obj 64 99 table woodblock;
#X obj 65 122 table drum;
#X connect 0 0 2 0;
#X connect 2 0 1 0;
#X restore 420 210 pd sample;
#X obj 426 129 throw~ dmix;
#X obj 426 157 catch~ dmix;
#X obj 62 163 unpack 0 0 0 0 0;
#X obj 183 163 unpack 0 0 0 0 0;
#X obj 62 189 vsl 15 100 0 127 0 0 empty empty empty 0 -9 0 10 -204800
-1 -1 0 1;
#X obj 85 189 vsl 15 100 0 127 0 0 empty empty empty 0 -9 0 10 -262144
-1 -1 0 1;
#X obj 108 189 vsl 15 100 0 127 0 0 empty empty empty 0 -9 0 10 -262144
-1 -1 0 1;
#X obj 131 189 vsl 15 100 0 127 0 0 empty empty empty 0 -9 0 10 -262144
-1 -1 0 1;
#X obj 155 189 vsl 15 100 0 127 0 0 empty empty empty 0 -9 0 10 -262144
-1 -1 0 1;
#X obj 183 189 vsl 15 100 0 127 0 0 empty empty empty 0 -9 0 10 -204800
-1 -1 0 1;
#X obj 206 189 vsl 15 100 0 127 0 0 empty empty empty 0 -9 0 10 -262144
-1 -1 0 1;
#X obj 229 189 vsl 15 100 0 127 0 0 empty empty empty 0 -9 0 10 -262144
-1 -1 0 1;
#X obj 252 189 vsl 15 100 0 127 0 0 empty empty empty 0 -9 0 10 -262144
-1 -1 0 1;
#X obj 276 189 vsl 15 100 0 127 0 0 empty empty empty 0 -9 0 10 -262144
-1 -1 0 1;
#N canvas 0 22 457 266 data 0;
#X obj 69 37 inlet;
#X obj 122 37 inlet;
#X obj 171 36 inlet;
#X obj 231 36 inlet;
#X obj 280 38 inlet;
#X obj 217 186 s lh_sum;
#X obj 69 190 s lh_centroid;
#X obj 69 121 centroid, f 22;
#X obj 217 120 sum, f 26;
#X obj 69 160 /;
#X obj 280 84 t f f;
#X obj 231 84 t f f;
#X obj 171 84 t f f;
#X obj 122 84 t f f;
#X obj 69 84 t f f;
#X obj 177 60 s lh3;
#X obj 289 60 s lh1;
#X obj 237 60 s lh2;
#X obj 128 60 s lh4;
#X obj 74 60 s lh5, f 16;
#X connect 0 0 14 0;
#X connect 0 0 19 0;
#X connect 1 0 13 0;
#X connect 1 0 18 0;
#X connect 2 0 12 0;
#X connect 2 0 15 0;
#X connect 3 0 11 0;
#X connect 3 0 17 0;
#X connect 4 0 10 0;
#X connect 4 0 16 0;
#X connect 7 0 9 0;
#X connect 8 0 9 1;
#X connect 8 0 5 0;
#X connect 9 0 6 0;
#X connect 10 0 7 4;
#X connect 10 1 8 4;
#X connect 11 0 7 3;
#X connect 11 1 8 3;
#X connect 12 0 7 2;
#X connect 12 1 8 2;
#X connect 13 0 7 1;
#X connect 13 1 8 1;
#X connect 14 0 7 0;
#X connect 14 1 8 0;
#X restore 62 303 pd data, f 16;
#N canvas 118 22 556 266 data 0;
#X obj 77 37 inlet;
#X obj 128 37 inlet;
#X obj 176 37 inlet;
#X obj 227 37 inlet;
#X obj 278 37 inlet;
#X obj 78 162 centroid, f 22;
#X obj 248 157 sum, f 26;
#X obj 229 193 /;
#X obj 278 108 t f f;
#X obj 227 108 t f f;
#X obj 176 108 t f f;
#X obj 128 108 t f f;
#X obj 77 108 t f f, f 6;
#X obj 298 206 s rh_sum;
#X obj 228 229 s rh_centroid;
#X obj 289 60 s rh5;
#X obj 237 60 s rh4;
#X obj 185 60 s rh3;
#X obj 137 60 s rh2;
#X obj 89 62 s rh1;
#X connect 0 0 12 0;
#X connect 0 0 19 0;
#X connect 1 0 11 0;
#X connect 1 0 18 0;
#X connect 2 0 10 0;
#X connect 2 0 17 0;
#X connect 3 0 9 0;
#X connect 3 0 16 0;
#X connect 4 0 8 0;
#X connect 4 0 15 0;
#X connect 5 0 7 0;
#X connect 6 0 7 1;
#X connect 6 0 13 0;
#X connect 7 0 14 0;
#X connect 8 0 5 4;
#X connect 8 1 6 4;
#X connect 9 0 5 3;
#X connect 9 1 6 3;
#X connect 10 0 5 2;
#X connect 10 1 6 2;
#X connect 11 0 5 1;
#X connect 11 1 6 1;
#X connect 12 0 5 0;
#X connect 12 1 6 0;
#X restore 183 305 pd data, f 16;
#X obj 62 90 decode;
#X obj 304 167 pc_confirm;
#X obj 304 211 s preset;
#X floatatom 304 190 5 0 0 0 - - -, f 5;
#X obj 356 143 shutdown;
#N canvas 0 22 450 300 ping 0;
#X obj 161 62 inlet;
#X obj 223 161 print;
#X msg 222 127 received a ping;
#X obj 161 159 s toAVR;
#X msg 161 122 162;
#X connect 0 0 2 0;
#X connect 0 0 4 0;
#X connect 2 0 1 0;
#X connect 4 0 3 0;
#X restore 304 145 pd ping;
#X obj 62 117 route 128 129 144 145 240;
#X obj 63 63 comport 4 57600;
#X msg 116 23 devices;
#X msg 64 25 close;
#X msg 376 257 devicename /dev/ttyUSB0;
#X obj 376 237 loadbang;
#X obj 306 238 loadmeter;
#X floatatom 306 265 5 0 0 0 - - -, f 5;
#X obj 246 25 r preset;
#X obj 246 52 == 0;
#X obj 246 71 == 1;
#X obj 246 90 == 2;
#X obj 281 52 tgl 15 0 empty empty empty 17 7 0 10 -262144 -1 -1 1
1;
#X obj 281 71 tgl 15 0 empty empty empty 17 7 0 10 -262144 -1 -1 0
1;
#X obj 281 90 tgl 15 0 empty empty empty 17 7 0 10 -262144 -1 -1 0
1;
#X obj 281 109 tgl 15 0 empty empty empty 17 7 0 10 -262144 -1 -1 0
1;
#X obj 246 108 == 3;
#N canvas 116 362 450 300 wb_triangle 0;
#X obj 158 64 inlet;
#X obj 115 156 tabplay~ snare;
#X restore 307 51 pd wb_triangle;
#X connect 0 0 1 0;
#X connect 5 0 7 0;
#X connect 8 0 2 0;
#X connect 8 0 2 1;
#X connect 9 0 11 0;
#X connect 9 1 12 0;
#X connect 9 2 13 0;
#X connect 9 3 14 0;
#X connect 9 4 15 0;
#X connect 10 0 16 0;
#X connect 10 1 17 0;
#X connect 10 2 18 0;
#X connect 10 3 19 0;
#X connect 10 4 20 0;
#X connect 11 0 21 0;
#X connect 12 0 21 1;
#X connect 13 0 21 2;
#X connect 14 0 21 3;
#X connect 15 0 21 4;
#X connect 16 0 22 0;
#X connect 17 0 22 1;
#X connect 18 0 22 2;
#X connect 19 0 22 3;
#X connect 20 0 22 4;
#X connect 23 0 29 0;
#X connect 24 0 26 0;
#X connect 26 0 25 0;
#X connect 29 0 9 0;
#X connect 29 1 10 0;
#X connect 29 2 24 0;
#X connect 29 3 28 0;
#X connect 29 4 27 0;
#X connect 34 0 33 0;
#X connect 35 0 36 0;
#X connect 37 0 38 0;
#X connect 37 0 39 0;
#X connect 37 0 40 0;
#X connect 37 0 45 0;
#X connect 38 0 41 0;
#X connect 39 0 42 0;
#X connect 40 0 43 0;
#X connect 41 0 46 0;
#X connect 45 0 44 0;
