#N canvas 298 22 565 351 10;
#X declare -path lib;
#X declare -path percussion;
#X obj 427 35 loadbang;
#X msg 427 63 \; pd dsp 1;
#X obj 421 188 dac~;
#X obj 309 289 declare -path lib;
#X obj 309 312 declare -path percussion;
#X obj 426 105 jingle;
#N canvas 482 147 853 732 sample 0;
#X obj 532 25 loadbang;
#X obj 441 342 soundfiler;
#X obj 55 35 table cheek_c0;
#X obj 55 56 table cheek_c1;
#X obj 55 77 table cheek_c2;
#X obj 55 98 table cheek_c3;
#X obj 55 119 table cheek_c4;
#X obj 56 140 table cheek_o0;
#X obj 56 161 table cheek_o1;
#X obj 56 182 table cheek_o2;
#X obj 56 203 table cheek_o3;
#X obj 56 224 table cheek_o4;
#X msg 501 215 read -resize cheek2/c\$1.wav cheek_c\$1 \, read -resize
cheek2/o\$1.wav cheek_o\$1;
#X obj 505 110 until;
#X obj 505 141 cnt 0 5;
#X msg 506 75 5;
#X obj 149 37 table brest_0;
#X obj 150 58 table brest_1;
#X obj 150 79 table brest_2;
#X obj 152 100 table brest_3;
#X obj 152 119 table brest_4;
#X obj 154 140 table brest_5;
#X msg 557 81 6;
#X obj 560 110 until;
#X obj 560 141 cnt 0 6;
#X msg 556 248 read -resize brest/brest\$1.wav brest_\$1;
#X obj 248 60 table toothA_1;
#X obj 248 82 table toothA_2;
#X obj 248 128 table toothC_1;
#X obj 248 150 table toothC_2;
#X obj 248 172 table toothC_3;
#X obj 248 216 table toothD_1;
#X obj 248 260 table toothE_1;
#X obj 248 282 table toothE_2;
#X obj 249 332 table toothF_1;
#X obj 249 354 table toothF_2;
#X obj 249 376 table toothF_3;
#X obj 249 398 table toothF_4;
#X obj 249 442 table toothG_1;
#X obj 249 464 table toothG_2;
#X obj 249 486 table toothG_3;
#X obj 249 508 table toothG_4;
#X obj 576 377 bng 15 250 50 0 empty empty empty 17 7 0 10 -262144
-1 -1;
#X msg 417 416 3;
#X msg 593 416 3;
#X msg 640 416 5;
#X msg 698 416 5;
#X obj 417 448 until;
#X obj 593 448 until;
#X obj 640 448 until;
#X obj 698 448 until;
#X obj 592 481 cnt 0 3;
#X obj 643 480 cnt 0 5;
#X obj 699 479 cnt 0 5;
#X obj 433 643 soundfiler;
#X msg 416 509 read -resize tooth/toothA_\$1.wav toothA_\$1;
#X obj 248 37 table toothA_0;
#X obj 417 478 cnt 0 3;
#X obj 246 108 table toothC_0;
#X msg 474 533 read -resize tooth/toothC_\$1.wav toothC_\$1;
#X msg 473 416 4;
#X obj 473 448 until;
#X obj 473 478 cnt 0 4;
#X msg 523 562 read -resize tooth/toothD_\$1.wav toothD_\$1;
#X msg 527 416 2;
#X obj 527 448 until;
#X obj 527 479 cnt 0 2;
#X obj 247 193 table toothD_0;
#X obj 247 237 table toothE_0;
#X obj 250 308 table toothF_0;
#X obj 251 421 table toothG_0;
#X msg 579 585 read -resize tooth/toothE_\$1.wav toothE_\$1;
#X msg 589 612 read -resize tooth/toothF_\$1.wav toothF_\$1;
#X msg 593 638 read -resize tooth/toothG_\$1.wav toothG_\$1;
#X obj 572 354 loadbang;
#X obj 51 256 table c0;
#X obj 51 277 table c1;
#X obj 52 297 table c2;
#X obj 52 318 table c3;
#X obj 53 337 table c4;
#X obj 53 358 table c5;
#X obj 54 378 table c6;
#X obj 54 400 table c7;
#X obj 53 423 table c8;
#X obj 619 112 until;
#X msg 616 83 9;
#X obj 620 143 cnt 0 9;
#X msg 591 274 read -resize cheek1/c\$1.wav c\$1;
#X obj 683 102 until;
#X obj 684 133 cnt 0 5;
#X msg 680 77 5;
#X msg 630 306 read -resize shoulder/s\$1.wav s\$1;
#X obj 117 257 table s0;
#X obj 116 278 table s1;
#X obj 119 299 table s2;
#X obj 118 320 table s3;
#X obj 120 341 table s4;
#X msg 434 79 2;
#X obj 424 113 until;
#X obj 424 144 cnt 0 2;
#X obj 57 465 table td_long;
#X obj 58 487 table td_dump;
#X msg 433 176 read -resize stomach/long.wav td_long \, read -resize
stomach/dump.wav td_dump;
#X connect 0 0 15 0;
#X connect 0 0 22 0;
#X connect 0 0 85 0;
#X connect 0 0 90 0;
#X connect 0 0 97 0;
#X connect 12 0 1 0;
#X connect 13 0 14 0;
#X connect 14 0 12 0;
#X connect 15 0 13 0;
#X connect 22 0 23 0;
#X connect 23 0 24 0;
#X connect 24 0 25 0;
#X connect 25 0 1 0;
#X connect 42 0 43 0;
#X connect 42 0 44 0;
#X connect 42 0 45 0;
#X connect 42 0 46 0;
#X connect 42 0 60 0;
#X connect 42 0 64 0;
#X connect 43 0 47 0;
#X connect 44 0 48 0;
#X connect 45 0 49 0;
#X connect 46 0 50 0;
#X connect 47 0 57 0;
#X connect 48 0 51 0;
#X connect 49 0 52 0;
#X connect 50 0 53 0;
#X connect 51 0 71 0;
#X connect 52 0 72 0;
#X connect 53 0 73 0;
#X connect 55 0 54 0;
#X connect 57 0 55 0;
#X connect 59 0 54 0;
#X connect 60 0 61 0;
#X connect 61 0 62 0;
#X connect 62 0 59 0;
#X connect 63 0 54 0;
#X connect 64 0 65 0;
#X connect 65 0 66 0;
#X connect 66 0 63 0;
#X connect 71 0 54 0;
#X connect 72 0 54 0;
#X connect 73 0 54 0;
#X connect 74 0 42 0;
#X connect 84 0 86 0;
#X connect 85 0 84 0;
#X connect 86 0 87 0;
#X connect 87 0 1 0;
#X connect 88 0 89 0;
#X connect 89 0 91 0;
#X connect 90 0 88 0;
#X connect 91 0 1 0;
#X connect 97 0 98 0;
#X connect 98 0 99 0;
#X connect 99 0 102 0;
#X connect 102 0 1 0;
#X restore 420 210 pd sample;
#X obj 426 129 throw~ dmix;
#X obj 426 157 catch~ dmix;
#X obj 62 163 unpack 0 0 0 0 0;
#X obj 183 163 unpack 0 0 0 0 0;
#X obj 62 189 vsl 15 100 0 127 0 0 empty empty empty 0 -9 0 10 -204800
-1 -1 0 1;
#X obj 85 189 vsl 15 100 0 127 0 0 empty empty empty 0 -9 0 10 -262144
-1 -1 0 1;
#X obj 108 189 vsl 15 100 0 127 0 0 empty empty empty 0 -9 0 10 -262144
-1 -1 0 1;
#X obj 131 189 vsl 15 100 0 127 0 0 empty empty empty 0 -9 0 10 -262144
-1 -1 0 1;
#X obj 155 189 vsl 15 100 0 127 0 0 empty empty empty 0 -9 0 10 -262144
-1 -1 0 1;
#X obj 183 189 vsl 15 100 0 127 0 0 empty empty empty 0 -9 0 10 -204800
-1 -1 0 1;
#X obj 206 189 vsl 15 100 0 127 0 0 empty empty empty 0 -9 0 10 -262144
-1 -1 0 1;
#X obj 229 189 vsl 15 100 0 127 0 0 empty empty empty 0 -9 0 10 -262144
-1 -1 0 1;
#X obj 252 189 vsl 15 100 0 127 0 0 empty empty empty 0 -9 0 10 -262144
-1 -1 0 1;
#X obj 276 189 vsl 15 100 0 127 0 0 empty empty empty 0 -9 0 10 -262144
-1 -1 0 1;
#N canvas 0 22 457 266 data 0;
#X obj 69 37 inlet;
#X obj 122 37 inlet;
#X obj 171 36 inlet;
#X obj 231 36 inlet;
#X obj 280 38 inlet;
#X obj 217 186 s lh_sum;
#X obj 69 190 s lh_centroid;
#X obj 69 121 centroid;
#X obj 217 120 sum;
#X obj 69 160 /;
#X obj 280 84 t f f;
#X obj 231 84 t f f;
#X obj 171 84 t f f;
#X obj 122 84 t f f;
#X obj 69 84 t f f;
#X obj 177 60 s lh3;
#X obj 289 60 s lh1;
#X obj 237 60 s lh2;
#X obj 128 60 s lh4;
#X obj 74 60 s lh5;
#X connect 0 0 14 0;
#X connect 0 0 19 0;
#X connect 1 0 13 0;
#X connect 1 0 18 0;
#X connect 2 0 12 0;
#X connect 2 0 15 0;
#X connect 3 0 11 0;
#X connect 3 0 17 0;
#X connect 4 0 10 0;
#X connect 4 0 16 0;
#X connect 7 0 9 0;
#X connect 8 0 9 1;
#X connect 8 0 5 0;
#X connect 9 0 6 0;
#X connect 10 0 7 4;
#X connect 11 0 7 3;
#X connect 12 0 7 2;
#X connect 13 0 7 1;
#X connect 14 0 7 0;
#X connect 14 1 8 0;
#X restore 62 303 pd data;
#N canvas 118 22 556 266 data 0;
#X obj 77 37 inlet;
#X obj 128 37 inlet;
#X obj 176 37 inlet;
#X obj 227 37 inlet;
#X obj 278 37 inlet;
#X obj 78 162 centroid;
#X obj 248 157 sum;
#X obj 229 193 /;
#X obj 278 108 t f f;
#X obj 227 108 t f f;
#X obj 176 108 t f f;
#X obj 128 108 t f f;
#X obj 77 108 t f f;
#X obj 298 206 s rh_sum;
#X obj 228 229 s rh_centroid;
#X obj 289 60 s rh5;
#X obj 237 60 s rh4;
#X obj 185 60 s rh3;
#X obj 137 60 s rh2;
#X obj 89 62 s rh1;
#X connect 0 0 12 0;
#X connect 0 0 19 0;
#X connect 1 0 11 0;
#X connect 1 0 18 0;
#X connect 2 0 10 0;
#X connect 2 0 17 0;
#X connect 3 0 9 0;
#X connect 3 0 16 0;
#X connect 4 0 8 0;
#X connect 4 0 15 0;
#X connect 5 0 7 0;
#X connect 6 0 7 1;
#X connect 6 0 13 0;
#X connect 7 0 14 0;
#X connect 8 0 5 4;
#X connect 9 0 5 3;
#X connect 10 0 5 2;
#X connect 11 0 5 1;
#X connect 12 0 5 0;
#X connect 12 1 6 0;
#X restore 183 305 pd data;
#X obj 62 90 decode;
#X obj 304 167 pc_confirm;
#X obj 304 211 s preset;
#X floatatom 304 190 5 0 0 0 - - -;
#X obj 356 143 shutdown;
#N canvas 0 22 450 300 ping 0;
#X obj 161 62 inlet;
#X obj 223 161 print;
#X msg 222 127 received a ping;
#X obj 161 159 s toAVR;
#X msg 161 122 162;
#X connect 0 0 2 0;
#X connect 0 0 4 0;
#X connect 2 0 1 0;
#X connect 4 0 3 0;
#X restore 304 145 pd ping;
#X obj 62 117 route 128 129 144 145 240;
#X obj 63 63 comport 4 57600;
#X msg 116 23 devices;
#X msg 64 25 close;
#X msg 376 257 devicename /dev/ttyUSB0;
#X obj 376 237 loadbang;
#X obj 306 238 loadmeter;
#X floatatom 306 265 5 0 0 0 - - -;
#N canvas 189 354 450 300 brest 0;
#X obj 168 203 throw~ dmix;
#X obj 154 50 bng 15 250 50 0 empty empty empty 17 7 0 10 -262144 -1
-1;
#X obj 165 169 tabplay~ brest_0;
#X msg 168 128 set brest_\$1 \, bang;
#X floatatom 231 97 5 0 0 0 - - -;
#X obj 159 85 erandom 6;
#X connect 1 0 5 0;
#X connect 2 0 0 0;
#X connect 3 0 2 0;
#X connect 5 0 3 0;
#X connect 5 0 4 0;
#X restore 264 64 pd brest;
#N canvas 106 122 925 314 tooth 0;
#X obj 53 231 throw~ dmix;
#X obj 53 197 tabplay~ toothA_0;
#X floatatom 53 130 5 0 0 0 - - -;
#X obj 53 64 bng 15 250 50 0 empty empty empty 17 7 0 10 -262144 -1
-1;
#X msg 53 163 set toothA_\$1 \, bang;
#X obj 53 96 erandom 3;
#X obj 200 230 throw~ dmix;
#X floatatom 200 129 5 0 0 0 - - -;
#X obj 200 63 bng 15 250 50 0 empty empty empty 17 7 0 10 -262144 -1
-1;
#X obj 200 94 erandom 4;
#X msg 200 162 set toothC_\$1 \, bang;
#X obj 200 196 tabplay~ toothC_0;
#X obj 348 229 throw~ dmix;
#X floatatom 348 128 5 0 0 0 - - -;
#X obj 348 62 bng 15 250 50 0 empty empty empty 17 7 0 10 -262144 -1
-1;
#X msg 348 161 set toothD_\$1 \, bang;
#X obj 348 93 erandom 2;
#X obj 348 195 tabplay~ toothD_0;
#X obj 493 227 throw~ dmix;
#X floatatom 493 126 5 0 0 0 - - -;
#X obj 493 60 bng 15 250 50 0 empty empty empty 17 7 0 10 -262144 -1
-1;
#X msg 493 159 set toothE_\$1 \, bang;
#X obj 493 193 tabplay~ toothE_0;
#X obj 493 91 erandom 3;
#X obj 632 225 throw~ dmix;
#X floatatom 632 124 5 0 0 0 - - -;
#X obj 632 58 bng 15 250 50 0 empty empty empty 17 7 0 10 -262144 -1
-1;
#X msg 632 157 set toothF_\$1 \, bang;
#X obj 632 191 tabplay~ toothF_0;
#X obj 632 89 erandom 5;
#X obj 763 223 throw~ dmix;
#X floatatom 763 122 5 0 0 0 - - -;
#X obj 763 56 bng 15 250 50 0 empty empty empty 17 7 0 10 -262144 -1
-1;
#X obj 763 87 erandom 5;
#X msg 763 155 set toothG_\$1 \, bang;
#X obj 763 189 tabplay~ toothG_0;
#X connect 1 0 0 0;
#X connect 2 0 4 0;
#X connect 3 0 5 0;
#X connect 4 0 1 0;
#X connect 5 0 2 0;
#X connect 7 0 10 0;
#X connect 8 0 9 0;
#X connect 9 0 7 0;
#X connect 10 0 11 0;
#X connect 11 0 6 0;
#X connect 13 0 15 0;
#X connect 14 0 16 0;
#X connect 15 0 17 0;
#X connect 16 0 13 0;
#X connect 17 0 12 0;
#X connect 19 0 21 0;
#X connect 20 0 23 0;
#X connect 21 0 22 0;
#X connect 22 0 18 0;
#X connect 23 0 19 0;
#X connect 25 0 27 0;
#X connect 26 0 29 0;
#X connect 27 0 28 0;
#X connect 28 0 24 0;
#X connect 29 0 25 0;
#X connect 31 0 34 0;
#X connect 32 0 33 0;
#X connect 33 0 31 0;
#X connect 34 0 35 0;
#X connect 35 0 30 0;
#X restore 266 87 pd tooth;
#N canvas 602 536 450 300 cheek2 0;
#X obj 175 232 throw~ dmix;
#X obj 115 156 tabplay~ cheek_c0;
#X obj 276 156 tabplay~ cheek_o0;
#X obj 293 35 bng 15 250 50 0 empty empty empty 17 7 0 10 -262144 -1
-1;
#X obj 119 35 bng 15 250 50 0 empty empty empty 17 7 0 10 -262144 -1
-1;
#X msg 109 106 set cheek_c\$1 \, bang;
#X msg 279 111 set cheek_o\$1 \, bang;
#X obj 114 61 erandom 4;
#X obj 283 75 erandom 4;
#X connect 1 0 0 0;
#X connect 2 0 0 0;
#X connect 3 0 8 0;
#X connect 4 0 7 0;
#X connect 5 0 1 0;
#X connect 6 0 2 0;
#X connect 7 0 5 0;
#X connect 8 0 6 0;
#X restore 264 40 pd cheek2;
#N canvas 662 499 450 300 cheek1 0;
#X obj 85 207 throw~ dmix;
#X floatatom 99 44 5 0 0 0 - - -;
#X obj 98 80 / 12.7;
#X obj 79 116 i;
#X obj 61 84 bng 15 250 50 0 empty empty empty 17 7 0 10 -262144 -1
-1;
#X obj 84 170 tabplay~;
#X msg 80 142 set c\$1 \, bang;
#X connect 1 0 2 0;
#X connect 2 0 3 1;
#X connect 3 0 6 0;
#X connect 4 0 3 0;
#X connect 5 0 0 0;
#X connect 6 0 5 0;
#X restore 263 17 pd cheek1;
#N canvas 642 95 450 300 shoulder 0;
#X obj 178 213 throw~ dmix;
#X obj 164 60 bng 15 250 50 0 empty empty empty 17 7 0 10 -262144 -1
-1;
#X obj 169 95 erandom 5;
#X obj 175 179 tabplay~ s0;
#X msg 178 138 set s\$1 \, bang;
#X connect 1 0 2 0;
#X connect 2 0 4 0;
#X connect 3 0 0 0;
#X connect 4 0 3 0;
#X restore 266 111 pd shoulder;
#N canvas 975 112 450 300 td 0;
#X obj 115 209 throw~ dmix;
#X obj 117 120 bng 15 250 50 0 empty empty empty 17 7 0 10 -262144
-1 -1;
#X obj 208 115 bng 15 250 50 0 empty empty empty 17 7 0 10 -262144
-1 -1;
#X obj 209 147 tabplay~ td_dump;
#X obj 116 148 tabplay~ td_long;
#X connect 1 0 4 0;
#X connect 2 0 3 0;
#X connect 3 0 0 0;
#X connect 4 0 0 0;
#X restore 341 18 pd td;
#X connect 0 0 1 0;
#X connect 5 0 7 0;
#X connect 8 0 2 0;
#X connect 8 0 2 1;
#X connect 9 0 11 0;
#X connect 9 1 12 0;
#X connect 9 2 13 0;
#X connect 9 3 14 0;
#X connect 9 4 15 0;
#X connect 10 0 16 0;
#X connect 10 1 17 0;
#X connect 10 2 18 0;
#X connect 10 3 19 0;
#X connect 10 4 20 0;
#X connect 11 0 21 0;
#X connect 12 0 21 1;
#X connect 13 0 21 2;
#X connect 14 0 21 3;
#X connect 15 0 21 4;
#X connect 16 0 22 0;
#X connect 17 0 22 1;
#X connect 18 0 22 2;
#X connect 19 0 22 3;
#X connect 20 0 22 4;
#X connect 23 0 29 0;
#X connect 24 0 26 0;
#X connect 26 0 25 0;
#X connect 29 0 9 0;
#X connect 29 1 10 0;
#X connect 29 2 24 0;
#X connect 29 3 28 0;
#X connect 29 4 27 0;
#X connect 34 0 33 0;
#X connect 35 0 36 0;
