#N canvas 2403 279 719 389 10;
#X declare -path lib;
#X declare -path percussion;
#X obj 477 285 loadbang;
#X msg 477 313 \; pd dsp 1;
#X obj 269 87 dac~;
#X obj 309 289 declare -path lib;
#X obj 309 312 declare -path percussion;
#X obj 274 4 jingle;
#N canvas 482 147 853 732 sample 0;
#X obj 532 25 loadbang;
#X obj 441 342 soundfiler;
#X obj 55 35 table cheek_c0;
#X obj 55 56 table cheek_c1;
#X obj 55 77 table cheek_c2;
#X obj 55 98 table cheek_c3;
#X obj 55 119 table cheek_c4;
#X obj 56 140 table cheek_o0;
#X obj 56 161 table cheek_o1;
#X obj 56 182 table cheek_o2;
#X obj 56 203 table cheek_o3;
#X obj 56 224 table cheek_o4;
#X msg 501 215 read -resize cheek2/c\$1.wav cheek_c\$1 \, read -resize
cheek2/o\$1.wav cheek_o\$1;
#X obj 505 110 until;
#X obj 505 141 cnt 0 5;
#X msg 506 75 5;
#X obj 149 37 table brest_0;
#X obj 150 58 table brest_1;
#X obj 150 79 table brest_2;
#X obj 152 100 table brest_3;
#X obj 152 119 table brest_4;
#X obj 154 140 table brest_5;
#X msg 557 81 6;
#X obj 560 110 until;
#X obj 560 141 cnt 0 6;
#X msg 556 248 read -resize brest/brest\$1.wav brest_\$1;
#X obj 248 60 table toothA_1;
#X obj 248 82 table toothA_2;
#X obj 248 128 table toothC_1;
#X obj 248 150 table toothC_2;
#X obj 248 172 table toothC_3;
#X obj 248 216 table toothD_1;
#X obj 248 260 table toothE_1;
#X obj 248 282 table toothE_2;
#X obj 249 332 table toothF_1;
#X obj 249 354 table toothF_2;
#X obj 249 376 table toothF_3;
#X obj 249 398 table toothF_4;
#X obj 249 442 table toothG_1;
#X obj 249 464 table toothG_2;
#X obj 249 486 table toothG_3;
#X obj 249 508 table toothG_4;
#X obj 576 377 bng 15 250 50 0 empty empty empty 17 7 0 10 -262144
-1 -1;
#X msg 417 416 3;
#X msg 593 416 3;
#X msg 640 416 5;
#X msg 698 416 5;
#X obj 417 448 until;
#X obj 593 448 until;
#X obj 640 448 until;
#X obj 698 448 until;
#X obj 592 481 cnt 0 3;
#X obj 643 480 cnt 0 5;
#X obj 699 479 cnt 0 5;
#X obj 433 643 soundfiler;
#X msg 416 509 read -resize tooth/toothA_\$1.wav toothA_\$1;
#X obj 248 37 table toothA_0;
#X obj 417 478 cnt 0 3;
#X obj 246 108 table toothC_0;
#X msg 474 533 read -resize tooth/toothC_\$1.wav toothC_\$1;
#X msg 473 416 4;
#X obj 473 448 until;
#X obj 473 478 cnt 0 4;
#X msg 523 562 read -resize tooth/toothD_\$1.wav toothD_\$1;
#X msg 527 416 2;
#X obj 527 448 until;
#X obj 527 479 cnt 0 2;
#X obj 247 193 table toothD_0;
#X obj 247 237 table toothE_0;
#X obj 250 308 table toothF_0;
#X obj 251 421 table toothG_0;
#X msg 579 585 read -resize tooth/toothE_\$1.wav toothE_\$1;
#X msg 589 612 read -resize tooth/toothF_\$1.wav toothF_\$1;
#X msg 593 638 read -resize tooth/toothG_\$1.wav toothG_\$1;
#X obj 572 354 loadbang;
#X obj 51 256 table c0;
#X obj 51 277 table c1;
#X obj 52 297 table c2;
#X obj 52 318 table c3;
#X obj 53 337 table c4;
#X obj 53 358 table c5;
#X obj 54 378 table c6;
#X obj 54 400 table c7;
#X obj 53 423 table c8;
#X obj 619 112 until;
#X msg 616 83 9;
#X obj 620 143 cnt 0 9;
#X msg 591 274 read -resize cheek1/c\$1.wav c\$1;
#X obj 683 102 until;
#X obj 684 133 cnt 0 5;
#X msg 680 77 5;
#X msg 630 306 read -resize shoulder/s\$1.wav s\$1;
#X obj 117 257 table s0;
#X obj 116 278 table s1;
#X obj 119 299 table s2;
#X obj 118 320 table s3;
#X obj 120 341 table s4;
#X msg 434 79 2;
#X obj 424 113 until;
#X obj 424 144 cnt 0 2;
#X obj 57 465 table td_long;
#X obj 58 487 table td_dump;
#X msg 433 176 read -resize stomach/long.wav td_long \, read -resize
stomach/dump.wav td_dump;
#X connect 0 0 15 0;
#X connect 0 0 22 0;
#X connect 0 0 85 0;
#X connect 0 0 90 0;
#X connect 0 0 97 0;
#X connect 12 0 1 0;
#X connect 13 0 14 0;
#X connect 14 0 12 0;
#X connect 15 0 13 0;
#X connect 22 0 23 0;
#X connect 23 0 24 0;
#X connect 24 0 25 0;
#X connect 25 0 1 0;
#X connect 42 0 43 0;
#X connect 42 0 44 0;
#X connect 42 0 45 0;
#X connect 42 0 46 0;
#X connect 42 0 60 0;
#X connect 42 0 64 0;
#X connect 43 0 47 0;
#X connect 44 0 48 0;
#X connect 45 0 49 0;
#X connect 46 0 50 0;
#X connect 47 0 57 0;
#X connect 48 0 51 0;
#X connect 49 0 52 0;
#X connect 50 0 53 0;
#X connect 51 0 71 0;
#X connect 52 0 72 0;
#X connect 53 0 73 0;
#X connect 55 0 54 0;
#X connect 57 0 55 0;
#X connect 59 0 54 0;
#X connect 60 0 61 0;
#X connect 61 0 62 0;
#X connect 62 0 59 0;
#X connect 63 0 54 0;
#X connect 64 0 65 0;
#X connect 65 0 66 0;
#X connect 66 0 63 0;
#X connect 71 0 54 0;
#X connect 72 0 54 0;
#X connect 73 0 54 0;
#X connect 74 0 42 0;
#X connect 84 0 86 0;
#X connect 85 0 84 0;
#X connect 86 0 87 0;
#X connect 87 0 1 0;
#X connect 88 0 89 0;
#X connect 89 0 91 0;
#X connect 90 0 88 0;
#X connect 91 0 1 0;
#X connect 97 0 98 0;
#X connect 98 0 99 0;
#X connect 99 0 102 0;
#X connect 102 0 1 0;
#X restore 268 109 pd sample;
#X obj 274 28 throw~ dmix;
#X obj 274 56 catch~ dmix;
#X obj 62 189 vsl 15 100 0 127 0 0 empty empty empty 0 -9 0 10 -204800
-1 -1 0 1;
#X obj 108 189 vsl 15 100 0 127 0 0 empty empty empty 0 -9 0 10 -262144
-1 -1 0 1;
#X obj 149 189 vsl 15 100 0 127 0 0 empty empty empty 0 -9 0 10 -204800
-1 -1 0 1;
#X obj 171 189 vsl 15 100 0 127 0 0 empty empty empty 0 -9 0 10 -262144
-1 -1 0 1;
#X obj 194 189 vsl 15 100 0 127 0 0 empty empty empty 0 -9 0 10 -262144
-1 -1 0 1;
#X obj 304 167 pc_confirm;
#X obj 304 211 s preset;
#X floatatom 304 190 5 0 0 0 - - -;
#X obj 356 143 shutdown;
#N canvas 0 22 450 300 ping 0;
#X obj 161 62 inlet;
#X obj 223 161 print;
#X msg 222 127 received a ping;
#X obj 161 159 s toAVR;
#X msg 161 122 162;
#X connect 0 0 2 0;
#X connect 0 0 4 0;
#X connect 2 0 1 0;
#X connect 4 0 3 0;
#X restore 304 145 pd ping;
#X obj 62 119 route 128 129 144 145 240;
#X obj 63 63 comport 4 57600;
#X msg 116 23 devices;
#X msg 64 25 close;
#X msg 376 257 devicename /dev/ttyUSB0;
#X obj 376 237 loadbang;
#X obj 306 238 loadmeter;
#X floatatom 306 265 5 0 0 0 - - -;
#X obj 62 163 unpack 0 0 0;
#X obj 85 189 vsl 15 100 0 127 0 0 empty empty empty 0 -9 0 10 -262144
-1 -1 0 1;
#X obj 149 163 unpack 0 0 0;
#X obj 62 90 uart_decode;
#X obj 62 333 tgl 15 0 empty empty empty 17 7 0 10 -262144 -1 -1 0
1;
#X obj 84 333 tgl 15 0 empty empty empty 17 7 0 10 -262144 -1 -1 0
1;
#X obj 107 333 tgl 15 0 empty empty empty 17 7 0 10 -262144 -1 -1 0
1;
#N canvas 1675 193 429 327 data_ 0;
#X obj 79 36 inlet;
#X obj 184 39 inlet;
#X obj 275 38 inlet;
#X obj 79 123 > 10;
#X obj 185 123 > 10;
#X obj 275 123 > 10;
#X obj 79 161 outlet;
#X obj 185 161 outlet;
#X obj 275 161 outlet;
#X obj 18 68 s perc_Lthumb;
#X obj 155 73 s perc_Lmiddle;
#X obj 297 69 s perc_Lpalm;
#X obj 40 278 s Lshift;
#X obj 138 194 * 2;
#X obj 30 195 * 4;
#X obj 138 222 ++;
#X obj 40 250 ++;
#X obj 30 156 change;
#X obj 131 160 change;
#X connect 0 0 3 0;
#X connect 0 0 9 0;
#X connect 1 0 4 0;
#X connect 1 0 10 0;
#X connect 2 0 5 0;
#X connect 2 0 11 0;
#X connect 3 0 6 0;
#X connect 3 0 17 0;
#X connect 4 0 7 0;
#X connect 4 0 18 0;
#X connect 5 0 8 0;
#X connect 5 0 15 1;
#X connect 13 0 15 0;
#X connect 14 0 16 0;
#X connect 15 0 16 1;
#X connect 16 0 12 0;
#X connect 17 0 14 0;
#X connect 18 0 13 0;
#X restore 62 303 pd data_;
#N canvas 1686 569 458 357 data_ 0;
#X obj 50 35 inlet;
#X obj 155 36 inlet;
#X obj 245 35 inlet;
#X obj 50 115 > 10;
#X obj 156 115 > 10;
#X obj 246 115 > 10;
#X obj 50 153 outlet;
#X obj 156 153 outlet;
#X obj 246 153 outlet;
#X obj 61 65 s perc_Rthumb;
#X obj 165 69 s perc_Rmiddle;
#X obj 256 68 s perc_Rpalm;
#X obj 148 204 * 2;
#X obj 63 204 * 4;
#X obj 148 232 ++;
#X obj 63 260 ++;
#X obj 63 288 s Rshift;
#X connect 0 0 3 0;
#X connect 0 0 9 0;
#X connect 1 0 4 0;
#X connect 1 0 10 0;
#X connect 2 0 5 0;
#X connect 2 0 11 0;
#X connect 3 0 6 0;
#X connect 3 0 13 0;
#X connect 4 0 7 0;
#X connect 4 0 12 0;
#X connect 5 0 8 0;
#X connect 5 0 14 1;
#X connect 12 0 14 0;
#X connect 13 0 15 0;
#X connect 14 0 15 1;
#X connect 15 0 16 0;
#X restore 149 300 pd data_;
#X obj 149 333 tgl 15 0 empty empty empty 17 7 0 10 -262144 -1 -1 0
1;
#X obj 171 333 tgl 15 0 empty empty empty 17 7 0 10 -262144 -1 -1 0
1;
#X obj 194 333 tgl 15 0 empty empty empty 17 7 0 10 -262144 -1 -1 0
1;
#N canvas 556 210 652 500 cheek_cym 0;
#X obj 106 378 throw~ dmix;
#X obj 123 285 tabplay~ cheek_c0;
#X obj 123 198 bng 15 250 50 0 empty empty empty 17 7 0 10 -262144
-1 -1;
#X msg 123 254 set cheek_c\$1 \, bang;
#X obj 123 224 erandom 4;
#X obj 122 168 spigot;
#X obj 197 115 r Lshift;
#X obj 197 171 change;
#X obj 197 196 tgl 15 0 empty empty empty 17 7 0 10 -262144 -1 -1 1
1;
#X obj 35 35 r perc_Lpalm;
#X obj 197 145 <= 1;
#X obj 28 100 difference;
#X obj 36 73 t f f;
#X obj 23 154 change;
#X obj 20 175 sel 1;
#X obj 121 331 *~;
#X obj 268 267 / 128;
#X obj 265 237 f;
#X obj 403 381 throw~ dmix;
#X obj 420 288 tabplay~ cheek_c0;
#X obj 420 201 bng 15 250 50 0 empty empty empty 17 7 0 10 -262144
-1 -1;
#X msg 420 257 set cheek_c\$1 \, bang;
#X obj 420 227 erandom 4;
#X obj 419 171 spigot;
#X obj 494 174 change;
#X obj 494 199 tgl 15 0 empty empty empty 17 7 0 10 -262144 -1 -1 1
1;
#X obj 494 148 <= 1;
#X obj 325 103 difference;
#X obj 333 76 t f f;
#X obj 320 157 change;
#X obj 317 178 sel 1;
#X obj 418 334 *~;
#X obj 569 284 / 128;
#X obj 566 254 f;
#X obj 494 118 r Rshift;
#X obj 348 40 r perc_Rpalm;
#X obj 26 128 > 20;
#X obj 323 131 > 20;
#X connect 1 0 15 0;
#X connect 2 0 4 0;
#X connect 2 0 17 0;
#X connect 3 0 1 0;
#X connect 4 0 3 0;
#X connect 5 0 2 0;
#X connect 6 0 10 0;
#X connect 7 0 8 0;
#X connect 8 0 5 1;
#X connect 9 0 12 0;
#X connect 10 0 7 0;
#X connect 11 0 36 0;
#X connect 12 0 11 0;
#X connect 12 1 17 1;
#X connect 13 0 14 0;
#X connect 14 0 5 0;
#X connect 15 0 0 0;
#X connect 16 0 15 1;
#X connect 17 0 16 0;
#X connect 19 0 31 0;
#X connect 20 0 22 0;
#X connect 20 0 33 0;
#X connect 21 0 19 0;
#X connect 22 0 21 0;
#X connect 23 0 20 0;
#X connect 24 0 25 0;
#X connect 25 0 23 1;
#X connect 26 0 24 0;
#X connect 27 0 37 0;
#X connect 28 0 27 0;
#X connect 28 1 33 1;
#X connect 29 0 30 0;
#X connect 30 0 23 0;
#X connect 31 0 18 0;
#X connect 32 0 31 1;
#X connect 33 0 32 0;
#X connect 34 0 26 0;
#X connect 35 0 28 0;
#X connect 36 0 13 0;
#X connect 37 0 29 0;
#X restore 431 39 pd cheek_cym;
#N canvas 69 297 563 481 shoulder_wblock 0;
#X obj 75 430 throw~ dmix;
#X obj 78 284 bng 15 250 50 0 empty empty empty 17 7 0 10 -262144 -1
-1;
#X obj 75 318 erandom 5;
#X obj 75 370 tabplay~ s0;
#X msg 75 343 set s\$1 \, bang;
#X obj 79 250 spigot;
#X obj 161 84 r Lshift;
#X obj 161 225 change;
#X obj 161 250 tgl 15 0 empty empty empty 17 7 0 10 -262144 -1 -1 1
1;
#X obj 411 231 tgl 15 0 empty empty empty 17 7 0 10 -262144 -1 -1 1
1;
#X obj 308 251 spigot;
#X obj 144 138 == 0;
#X obj 156 108 t f f;
#X obj 162 193 ||;
#X obj 305 437 throw~ dmix;
#X obj 309 281 bng 15 250 50 0 empty empty empty 17 7 0 10 -262144
-1 -1;
#X obj 309 320 erandom 5;
#X obj 309 372 tabplay~ s0;
#X msg 309 345 set s\$1 \, bang;
#X obj 415 207 change;
#X obj 398 131 == 0;
#X obj 410 101 t f f;
#X obj 416 175 ||;
#X obj 415 77 r Rshift;
#X obj 438 130 == 4;
#X obj 184 137 == 4;
#X obj 77 53 r perc_Lthumb;
#X obj 274 52 r perc_Rthumb;
#X obj 27 120 difference;
#X obj 35 93 t f f;
#X obj 22 174 change;
#X obj 19 195 sel 1;
#X obj 172 387 / 128;
#X obj 179 357 f;
#X obj 79 401 *~;
#X obj 259 123 difference;
#X obj 267 96 t f f;
#X obj 254 177 change;
#X obj 251 198 sel 1;
#X obj 415 372 / 128;
#X obj 422 342 f;
#X obj 307 406 *~;
#X obj 25 148 > 20;
#X obj 257 151 > 20;
#X connect 1 0 2 0;
#X connect 1 0 33 0;
#X connect 2 0 4 0;
#X connect 3 0 34 0;
#X connect 4 0 3 0;
#X connect 5 0 1 0;
#X connect 6 0 12 0;
#X connect 7 0 8 0;
#X connect 8 0 5 1;
#X connect 9 0 10 1;
#X connect 10 0 15 0;
#X connect 11 0 13 0;
#X connect 12 0 11 0;
#X connect 12 1 25 0;
#X connect 13 0 7 0;
#X connect 15 0 16 0;
#X connect 15 0 40 0;
#X connect 16 0 18 0;
#X connect 17 0 41 0;
#X connect 18 0 17 0;
#X connect 19 0 9 0;
#X connect 20 0 22 0;
#X connect 21 0 20 0;
#X connect 21 1 24 0;
#X connect 22 0 19 0;
#X connect 23 0 21 0;
#X connect 24 0 22 1;
#X connect 25 0 13 1;
#X connect 26 0 29 0;
#X connect 27 0 36 0;
#X connect 28 0 42 0;
#X connect 29 0 28 0;
#X connect 29 1 33 1;
#X connect 30 0 31 0;
#X connect 31 0 5 0;
#X connect 32 0 34 1;
#X connect 33 0 32 0;
#X connect 34 0 0 0;
#X connect 35 0 43 0;
#X connect 36 0 35 0;
#X connect 36 1 40 1;
#X connect 37 0 38 0;
#X connect 38 0 10 0;
#X connect 39 0 41 1;
#X connect 40 0 39 0;
#X connect 41 0 14 0;
#X connect 42 0 30 0;
#X connect 43 0 37 0;
#X restore 431 58 pd shoulder_wblock;
#N canvas 720 102 716 426 abdomen_tdrum 0;
#X obj 88 391 throw~ dmix;
#X obj 65 296 bng 15 250 50 0 empty empty empty 17 7 0 10 -262144 -1
-1;
#X obj 66 322 tabplay~ td_dump;
#X obj 166 56 r perc_Lmiddle;
#X obj 89 167 tgl 15 0 empty empty empty 17 7 0 10 -262144 -1 -1 1
1;
#X obj 93 143 change;
#X obj 76 67 == 0;
#X obj 88 37 t f f;
#X obj 94 111 ||;
#X obj 65 274 spigot;
#X obj 157 114 difference;
#X obj 37 228 change;
#X obj 93 13 r Lshift;
#X obj 116 66 == 2;
#X obj 34 249 sel 1;
#X obj 88 360 *~;
#X obj 191 293 / 128;
#X obj 40 202 > 10;
#X obj 187 257 f;
#X obj 165 87 t f f;
#X obj 305 390 throw~ dmix;
#X obj 282 295 bng 15 250 50 0 empty empty empty 17 7 0 10 -262144
-1 -1;
#X obj 306 166 tgl 15 0 empty empty empty 17 7 0 10 -262144 -1 -1 1
1;
#X obj 310 142 change;
#X obj 293 66 == 0;
#X obj 305 36 t f f;
#X obj 311 110 ||;
#X obj 282 273 spigot;
#X obj 374 113 difference;
#X obj 254 227 change;
#X obj 333 65 == 2;
#X obj 251 248 sel 1;
#X obj 305 359 *~;
#X obj 408 292 / 128;
#X obj 257 201 > 10;
#X obj 404 256 f;
#X obj 382 86 t f f;
#X obj 383 55 r perc_Rmiddle;
#X obj 309 12 r Rshift;
#X obj 283 320 tabplay~ td_long;
#X obj 464 324 tabplay~ td_dump;
#X obj 519 353 tabplay~ td_long;
#X obj 557 305 bng 15 250 50 0 empty empty empty 17 7 0 10 -262144
-1 -1;
#X obj 465 303 bng 15 250 50 0 empty empty empty 17 7 0 10 -262144
-1 -1;
#X obj 462 390 throw~ dmix;
#X connect 1 0 2 0;
#X connect 1 0 18 0;
#X connect 2 0 15 0;
#X connect 3 0 19 0;
#X connect 4 0 9 1;
#X connect 5 0 4 0;
#X connect 6 0 8 0;
#X connect 7 0 6 0;
#X connect 7 1 13 0;
#X connect 8 0 5 0;
#X connect 9 0 1 0;
#X connect 10 0 17 0;
#X connect 11 0 14 0;
#X connect 12 0 7 0;
#X connect 13 0 8 1;
#X connect 14 0 9 0;
#X connect 15 0 0 0;
#X connect 16 0 15 1;
#X connect 17 0 11 0;
#X connect 18 0 16 0;
#X connect 19 0 10 0;
#X connect 19 1 18 1;
#X connect 21 0 35 0;
#X connect 21 0 39 0;
#X connect 22 0 27 1;
#X connect 23 0 22 0;
#X connect 24 0 26 0;
#X connect 25 0 24 0;
#X connect 25 1 30 0;
#X connect 26 0 23 0;
#X connect 27 0 21 0;
#X connect 28 0 34 0;
#X connect 29 0 31 0;
#X connect 30 0 26 1;
#X connect 31 0 27 0;
#X connect 32 0 20 0;
#X connect 33 0 32 1;
#X connect 34 0 29 0;
#X connect 35 0 33 0;
#X connect 36 0 28 0;
#X connect 36 1 35 1;
#X connect 37 0 36 0;
#X connect 38 0 25 0;
#X connect 39 0 32 0;
#X connect 40 0 44 0;
#X connect 41 0 44 0;
#X connect 42 0 41 0;
#X connect 43 0 40 0;
#X restore 431 20 pd abdomen_tdrum;
#N canvas 106 122 1014 432 tooth_anvil 0;
#X obj 107 389 throw~ dmix;
#X obj 174 349 tabplay~ toothA_0;
#X floatatom 174 282 5 0 0 0 - - -;
#X obj 168 170 bng 15 250 50 0 empty empty empty 17 7 0 10 -262144
-1 -1;
#X msg 174 315 set toothA_\$1 \, bang;
#X obj 174 248 erandom 3;
#X obj 428 379 throw~ dmix;
#X floatatom 504 281 5 0 0 0 - - -;
#X obj 504 255 erandom 4;
#X msg 504 314 set toothC_\$1 \, bang;
#X obj 501 338 tabplay~ toothC_0;
#X text 72 33 tooth sound;
#X obj 165 18 r perc_Lmiddle;
#X obj 168 91 spigot;
#X obj 224 119 tgl 15 0 empty empty empty 17 7 0 10 -262144 -1 -1 0
1;
#X obj 114 351 *~;
#X obj 114 256 / 127;
#X obj 422 336 *~;
#X obj 417 253 / 127;
#X obj 475 94 spigot;
#X obj 431 11 r perc_Rmiddle;
#X obj 605 8 r Rshift;
#X obj 270 208 change;
#X obj 37 130 difference;
#X obj 45 103 t f f;
#X obj 32 184 change;
#X obj 29 205 sel 1;
#X obj 104 216 f;
#X obj 339 123 difference;
#X obj 347 96 t f f;
#X obj 334 177 change;
#X obj 331 198 sel 1;
#X obj 413 203 f;
#X obj 505 180 bng 15 250 50 0 empty empty empty 17 7 0 10 -262144
-1 -1;
#X obj 35 158 > 20;
#X obj 337 151 > 20;
#X obj 263 78 == 4;
#X obj 297 81 == 6;
#X obj 285 39 t f f;
#X obj 300 1 r Lshift;
#X obj 276 164 ||;
#X obj 597 208 change;
#X obj 590 78 == 4;
#X obj 624 81 == 6;
#X obj 612 39 t f f;
#X obj 603 164 ||;
#X connect 1 0 15 1;
#X connect 2 0 4 0;
#X connect 3 0 5 0;
#X connect 3 0 27 0;
#X connect 4 0 1 0;
#X connect 5 0 2 0;
#X connect 7 0 9 0;
#X connect 8 0 7 0;
#X connect 9 0 10 0;
#X connect 10 0 17 1;
#X connect 12 0 24 0;
#X connect 13 0 3 0;
#X connect 14 0 13 1;
#X connect 15 0 0 0;
#X connect 16 0 15 0;
#X connect 17 0 6 0;
#X connect 18 0 17 0;
#X connect 19 0 33 0;
#X connect 20 0 29 0;
#X connect 21 0 44 0;
#X connect 22 0 14 0;
#X connect 23 0 34 0;
#X connect 24 0 23 0;
#X connect 24 1 27 1;
#X connect 25 0 26 0;
#X connect 26 0 13 0;
#X connect 27 0 16 0;
#X connect 28 0 35 0;
#X connect 29 0 28 0;
#X connect 29 1 32 1;
#X connect 30 0 31 0;
#X connect 31 0 19 0;
#X connect 32 0 18 0;
#X connect 33 0 8 0;
#X connect 33 0 32 0;
#X connect 34 0 25 0;
#X connect 35 0 30 0;
#X connect 36 0 40 0;
#X connect 37 0 40 1;
#X connect 38 0 36 0;
#X connect 38 1 37 0;
#X connect 39 0 38 0;
#X connect 40 0 22 0;
#X connect 41 0 19 1;
#X connect 42 0 45 0;
#X connect 43 0 45 1;
#X connect 44 0 42 0;
#X connect 44 1 43 0;
#X connect 45 0 41 0;
#X restore 431 77 pd tooth_anvil;
#N canvas 1499 141 693 668 abdomen_mute_drum 0;
#X obj 142 473 tabplay~ brest_0;
#X msg 145 445 set brest_\$1 \, bang;
#X obj 136 402 erandom 6;
#X obj 175 589 throw~ dmix;
#X obj 144 342 bng 15 250 50 0 empty empty empty 17 7 0 10 -262144
-1 -1;
#X obj 245 102 r perc_Lmiddle;
#X obj 168 213 tgl 15 0 empty empty empty 17 7 0 10 -262144 -1 -1 0
1;
#X obj 172 189 change;
#X obj 167 83 t f f;
#X obj 173 157 ||;
#X obj 144 320 spigot;
#X obj 236 160 difference;
#X obj 116 274 change;
#X obj 172 59 r Lshift;
#X obj 113 295 sel 1;
#X obj 175 558 *~;
#X obj 270 339 / 128;
#X obj 119 248 > 10;
#X obj 266 303 f;
#X obj 244 133 t f f;
#X obj 392 588 throw~ dmix;
#X obj 361 341 bng 15 250 50 0 empty empty empty 17 7 0 10 -262144
-1 -1;
#X obj 385 212 tgl 15 0 empty empty empty 17 7 0 10 -262144 -1 -1 0
1;
#X obj 389 188 change;
#X obj 384 82 t f f;
#X obj 390 156 ||;
#X obj 361 319 spigot;
#X obj 453 159 difference;
#X obj 333 273 change;
#X obj 330 294 sel 1;
#X obj 392 557 *~;
#X obj 487 338 / 128;
#X obj 336 247 > 10;
#X obj 483 302 f;
#X obj 461 132 t f f;
#X obj 462 101 r perc_Rmiddle;
#X obj 388 58 r Rshift;
#X obj 155 113 == 1;
#X obj 195 112 == 3;
#X obj 412 111 == 3;
#X obj 372 108 == 1;
#X obj 342 467 tabplay~ brest_0;
#X msg 345 439 set brest_\$1 \, bang;
#X obj 336 396 erandom 6;
#X connect 0 0 15 0;
#X connect 1 0 0 0;
#X connect 2 0 1 0;
#X connect 4 0 18 0;
#X connect 4 0 2 0;
#X connect 5 0 19 0;
#X connect 6 0 10 1;
#X connect 7 0 6 0;
#X connect 8 0 37 0;
#X connect 8 1 38 0;
#X connect 9 0 7 0;
#X connect 10 0 4 0;
#X connect 11 0 17 0;
#X connect 12 0 14 0;
#X connect 13 0 8 0;
#X connect 14 0 10 0;
#X connect 15 0 3 0;
#X connect 16 0 15 1;
#X connect 17 0 12 0;
#X connect 18 0 16 0;
#X connect 19 0 11 0;
#X connect 19 1 18 1;
#X connect 21 0 33 0;
#X connect 21 0 43 0;
#X connect 22 0 26 1;
#X connect 23 0 22 0;
#X connect 24 0 40 0;
#X connect 24 1 39 0;
#X connect 25 0 23 0;
#X connect 26 0 21 0;
#X connect 27 0 32 0;
#X connect 28 0 29 0;
#X connect 29 0 26 0;
#X connect 30 0 20 0;
#X connect 31 0 30 1;
#X connect 32 0 28 0;
#X connect 33 0 31 0;
#X connect 34 0 27 0;
#X connect 34 1 33 1;
#X connect 35 0 34 0;
#X connect 36 0 24 0;
#X connect 37 0 9 0;
#X connect 38 0 9 1;
#X connect 39 0 25 1;
#X connect 40 0 25 0;
#X connect 41 0 30 0;
#X connect 42 0 41 0;
#X connect 43 0 42 0;
#X restore 431 95 pd abdomen_mute_drum;
#N canvas 1900 618 450 300 midi 0;
#X obj 22 154 outlet;
#X obj 74 153 outlet;
#X obj 130 155 outlet;
#X obj 181 153 outlet;
#X obj 238 152 outlet;
#X obj 290 154 outlet;
#X obj 51 60 r to_perc;
#X obj 56 92 route 71 77 64 47 53 40;
#X connect 6 0 7 0;
#X connect 7 0 0 0;
#X connect 7 1 1 0;
#X connect 7 2 2 0;
#X connect 7 3 3 0;
#X connect 7 4 4 0;
#X connect 7 5 5 0;
#X restore -28 167 pd midi;
#N canvas 1417 51 761 550 head_triangle 0;
#X obj 458 447 throw~ dmix;
#X floatatom 438 317 5 0 0 0 - - -;
#X obj 476 250 bng 15 250 50 0 empty empty empty 17 7 0 10 -262144
-1 -1;
#X msg 438 350 set toothD_\$1 \, bang;
#X obj 438 282 erandom 2;
#X obj 438 384 tabplay~ toothD_0;
#X obj 196 437 throw~ dmix;
#X floatatom 187 301 5 0 0 0 - - -;
#X obj 187 235 bng 15 250 50 0 empty empty empty 17 7 0 10 -262144
-1 -1;
#X msg 187 334 set toothF_\$1 \, bang;
#X obj 187 368 tabplay~ toothF_0;
#X obj 187 266 erandom 5;
#X obj 446 86 difference;
#X obj 454 59 t f f;
#X obj 441 140 change;
#X obj 438 161 sel 1;
#X obj 444 114 > 20;
#X obj 441 21 r perc_Rmiddle;
#X obj 144 95 difference;
#X obj 152 68 t f f;
#X obj 139 149 change;
#X obj 136 170 sel 1;
#X obj 142 123 > 20;
#X obj 139 30 r perc_Lmiddle;
#X obj 293 169 tgl 15 0 empty empty empty 17 7 0 10 -262144 -1 -1 0
1;
#X obj 284 33 r Lshift;
#X obj 290 144 change;
#X obj 228 202 spigot;
#X obj 280 95 == 5;
#X obj 313 94 == 7;
#X obj 288 121 ||;
#X obj 549 63 r Rshift;
#X obj 479 223 spigot;
#X obj 268 285 / 127;
#X obj 269 258 f;
#X obj 199 403 *~;
#X obj 267 60 t f f;
#X obj 649 212 tgl 15 0 empty empty empty 17 7 0 10 -262144 -1 -1 0
1;
#X obj 646 187 change;
#X obj 636 138 == 5;
#X obj 669 137 == 7;
#X obj 644 164 ||;
#X obj 623 103 t f f;
#X obj 536 299 / 127;
#X obj 537 272 f;
#X obj 471 420 *~;
#X connect 1 0 3 0;
#X connect 2 0 44 0;
#X connect 2 0 4 0;
#X connect 3 0 5 0;
#X connect 4 0 1 0;
#X connect 5 0 45 0;
#X connect 7 0 9 0;
#X connect 8 0 11 0;
#X connect 8 0 34 0;
#X connect 9 0 10 0;
#X connect 10 0 35 0;
#X connect 11 0 7 0;
#X connect 12 0 16 0;
#X connect 13 0 12 0;
#X connect 13 1 44 1;
#X connect 14 0 15 0;
#X connect 15 0 32 0;
#X connect 16 0 14 0;
#X connect 17 0 13 0;
#X connect 18 0 22 0;
#X connect 19 0 18 0;
#X connect 19 1 34 1;
#X connect 20 0 21 0;
#X connect 21 0 27 0;
#X connect 22 0 20 0;
#X connect 23 0 19 0;
#X connect 24 0 27 1;
#X connect 25 0 36 0;
#X connect 26 0 24 0;
#X connect 27 0 8 0;
#X connect 28 0 30 0;
#X connect 29 0 30 1;
#X connect 30 0 26 0;
#X connect 31 0 42 0;
#X connect 32 0 2 0;
#X connect 33 0 35 1;
#X connect 34 0 33 0;
#X connect 35 0 6 0;
#X connect 36 0 28 0;
#X connect 36 1 29 0;
#X connect 37 0 32 1;
#X connect 38 0 37 0;
#X connect 39 0 41 0;
#X connect 40 0 41 1;
#X connect 41 0 38 0;
#X connect 42 0 39 0;
#X connect 42 1 40 0;
#X connect 43 0 45 1;
#X connect 44 0 43 0;
#X connect 45 0 0 0;
#X restore 429 116 pd head_triangle;
#X connect 0 0 1 0;
#X connect 5 0 7 0;
#X connect 8 0 2 0;
#X connect 8 0 2 1;
#X connect 9 0 34 0;
#X connect 10 0 34 2;
#X connect 11 0 35 0;
#X connect 12 0 35 1;
#X connect 13 0 35 2;
#X connect 14 0 16 0;
#X connect 16 0 15 0;
#X connect 19 0 27 0;
#X connect 19 1 29 0;
#X connect 19 2 14 0;
#X connect 19 3 18 0;
#X connect 19 4 17 0;
#X connect 20 0 30 0;
#X connect 21 0 20 0;
#X connect 22 0 20 0;
#X connect 24 0 23 0;
#X connect 25 0 26 0;
#X connect 27 0 9 0;
#X connect 27 1 28 0;
#X connect 27 2 10 0;
#X connect 28 0 34 1;
#X connect 29 0 11 0;
#X connect 29 1 12 0;
#X connect 29 2 13 0;
#X connect 30 0 19 0;
#X connect 34 0 31 0;
#X connect 34 1 32 0;
#X connect 34 2 33 0;
#X connect 35 0 36 0;
#X connect 35 1 37 0;
#X connect 35 2 38 0;
#X connect 44 0 9 0;
#X connect 44 1 28 0;
#X connect 44 2 10 0;
#X connect 44 3 11 0;
#X connect 44 4 12 0;
#X connect 44 5 13 0;
