#N canvas 371 152 889 397 10;
#X declare -path lib;
#X declare -path percussion;
#X obj 477 293 loadbang;
#X msg 477 321 \; pd dsp 1;
#X obj 269 106 dac~;
#X obj 224 320 declare -path lib;
#X obj 224 343 declare -path percussion;
#X obj 274 23 jingle;
#N canvas 375 22 1013 755 sample 0;
#X obj 532 25 loadbang;
#X obj 441 342 soundfiler;
#X obj 55 35 table cheek_c0;
#X obj 55 56 table cheek_c1;
#X obj 55 77 table cheek_c2;
#X obj 55 98 table cheek_c3;
#X obj 55 119 table cheek_c4;
#X obj 56 140 table cheek_o0;
#X obj 56 161 table cheek_o1;
#X obj 56 182 table cheek_o2;
#X obj 56 203 table cheek_o3;
#X obj 56 224 table cheek_o4;
#X msg 501 215 read -resize cheek2/c\$1.wav cheek_c\$1 \, read -resize
cheek2/o\$1.wav cheek_o\$1;
#X obj 505 110 until;
#X obj 505 141 cnt 0 5;
#X msg 506 75 5;
#X obj 149 37 table brest_0;
#X obj 150 58 table brest_1;
#X obj 150 79 table brest_2;
#X obj 152 100 table brest_3;
#X obj 152 119 table brest_4;
#X obj 154 140 table brest_5;
#X msg 557 81 6;
#X obj 560 110 until;
#X obj 560 141 cnt 0 6;
#X msg 556 248 read -resize brest/brest\$1.wav brest_\$1;
#X obj 248 60 table toothA_1;
#X obj 248 82 table toothA_2;
#X obj 248 128 table toothC_1;
#X obj 248 150 table toothC_2;
#X obj 248 172 table toothC_3;
#X obj 248 216 table toothD_1;
#X obj 248 260 table toothE_1;
#X obj 248 282 table toothE_2;
#X obj 249 332 table toothF_1;
#X obj 249 354 table toothF_2;
#X obj 249 376 table toothF_3;
#X obj 249 398 table toothF_4;
#X obj 249 442 table toothG_1;
#X obj 249 464 table toothG_2;
#X obj 249 486 table toothG_3;
#X obj 249 508 table toothG_4;
#X obj 576 377 bng 15 250 50 0 empty empty empty 17 7 0 10 -262144
-1 -1;
#X msg 417 416 3;
#X msg 593 416 3;
#X msg 640 416 5;
#X msg 698 416 5;
#X obj 417 448 until;
#X obj 593 448 until;
#X obj 640 448 until;
#X obj 698 448 until;
#X obj 592 481 cnt 0 3;
#X obj 643 480 cnt 0 5;
#X obj 699 479 cnt 0 5;
#X obj 433 643 soundfiler;
#X msg 416 509 read -resize tooth/toothA_\$1.wav toothA_\$1;
#X obj 248 37 table toothA_0;
#X obj 417 478 cnt 0 3;
#X obj 246 108 table toothC_0;
#X msg 474 533 read -resize tooth/toothC_\$1.wav toothC_\$1;
#X msg 473 416 4;
#X obj 473 448 until;
#X obj 473 478 cnt 0 4;
#X msg 523 562 read -resize tooth/toothD_\$1.wav toothD_\$1;
#X msg 527 416 2;
#X obj 527 448 until;
#X obj 527 479 cnt 0 2;
#X obj 247 193 table toothD_0;
#X obj 247 237 table toothE_0;
#X obj 250 308 table toothF_0;
#X obj 251 421 table toothG_0;
#X msg 579 585 read -resize tooth/toothE_\$1.wav toothE_\$1;
#X msg 589 612 read -resize tooth/toothF_\$1.wav toothF_\$1;
#X msg 593 638 read -resize tooth/toothG_\$1.wav toothG_\$1;
#X obj 572 354 loadbang;
#X obj 51 256 table c0;
#X obj 51 277 table c1;
#X obj 52 297 table c2;
#X obj 52 318 table c3;
#X obj 53 337 table c4;
#X obj 619 112 until;
#X msg 616 83 9;
#X obj 620 143 cnt 0 9;
#X obj 683 102 until;
#X obj 684 133 cnt 0 5;
#X msg 680 77 5;
#X obj 117 257 table s0;
#X obj 116 278 table s1;
#X obj 119 299 table s2;
#X obj 118 320 table s3;
#X obj 120 341 table s4;
#X obj 58 487 table td_dump;
#X obj 57 465 table td_long1;
#X obj 68 519 table td_tom1;
#X obj 148 522 table td_tom2;
#X obj 53 358 table c5;
#X obj 54 378 table c6;
#X obj 54 400 table c7;
#X obj 53 423 table c8;
#X msg 591 274 read -resize head/c\$1.wav c\$1;
#X obj 170 620 table ride;
#X obj 74 549 table arm_0;
#X obj 79 567 table arm_1;
#X obj 79 589 table arm_2;
#X obj 84 607 table arm_3;
#X obj 84 625 table arm_4;
#X obj 89 643 table arm_5;
#X msg 743 415 6;
#X obj 754 445 until;
#X msg 568 665 read -resize arm/guiro\$1.wav arm_\$1;
#X obj 753 477 cnt 0 6;
#X obj 143 465 table td_mid1;
#X msg 420 167 read -resize belly/long1.wav td_long1 \, read -resize
belly/mid1.wav td_mid1 \, read -resize thigh/tom1.wav td_tom1 \, read
-resize thigh/tom2.wav td_tom2;
#X msg 630 306 read -resize chin/s\$1.wav s\$1;
#X obj 78 676 table thai0;
#X obj 157 674 table thai1;
#X obj 766 109 until;
#X msg 668 340 read -resize gong/gong\$1.wav thai\$1;
#X obj 268 659 table perc_hann;
#X msg 615 690 read -resize lib/hann.wav perc_hann;
#X obj 171 646 table ride2;
#X obj 767 140 cnt 0 4;
#X msg 763 84 4;
#X obj 78 705 table thai2;
#X obj 151 705 table thai3;
#X msg 316 593 read -resize release/ride.wav ride \, read -resize release/ride2.wav
ride2;
#X obj 266 696 table tri1;
#X obj 272 713 table tri2;
#X msg 755 501 read -resize gong/tri_0.wav tri1 \, read -resize gong/tri_1.wav
tri2;
#X connect 0 0 15 0;
#X connect 0 0 22 0;
#X connect 0 0 81 0;
#X connect 0 0 85 0;
#X connect 0 0 112 0;
#X connect 0 0 122 0;
#X connect 12 0 1 0;
#X connect 13 0 14 0;
#X connect 14 0 12 0;
#X connect 15 0 13 0;
#X connect 22 0 23 0;
#X connect 23 0 24 0;
#X connect 24 0 25 0;
#X connect 25 0 1 0;
#X connect 42 0 43 0;
#X connect 42 0 44 0;
#X connect 42 0 45 0;
#X connect 42 0 46 0;
#X connect 42 0 60 0;
#X connect 42 0 64 0;
#X connect 42 0 125 0;
#X connect 42 0 107 0;
#X connect 42 0 119 0;
#X connect 42 0 128 0;
#X connect 43 0 47 0;
#X connect 44 0 48 0;
#X connect 45 0 49 0;
#X connect 46 0 50 0;
#X connect 47 0 57 0;
#X connect 48 0 51 0;
#X connect 49 0 52 0;
#X connect 50 0 53 0;
#X connect 51 0 71 0;
#X connect 52 0 72 0;
#X connect 53 0 73 0;
#X connect 55 0 54 0;
#X connect 57 0 55 0;
#X connect 59 0 54 0;
#X connect 60 0 61 0;
#X connect 61 0 62 0;
#X connect 62 0 59 0;
#X connect 63 0 54 0;
#X connect 64 0 65 0;
#X connect 65 0 66 0;
#X connect 66 0 63 0;
#X connect 71 0 54 0;
#X connect 72 0 54 0;
#X connect 73 0 54 0;
#X connect 74 0 42 0;
#X connect 80 0 82 0;
#X connect 81 0 80 0;
#X connect 82 0 99 0;
#X connect 83 0 84 0;
#X connect 84 0 113 0;
#X connect 85 0 83 0;
#X connect 99 0 1 0;
#X connect 107 0 108 0;
#X connect 108 0 110 0;
#X connect 109 0 54 0;
#X connect 110 0 109 0;
#X connect 112 0 1 0;
#X connect 113 0 1 0;
#X connect 116 0 121 0;
#X connect 117 0 1 0;
#X connect 119 0 54 0;
#X connect 121 0 117 0;
#X connect 122 0 116 0;
#X connect 125 0 54 0;
#X connect 128 0 54 0;
#X restore 268 128 pd sample;
#X obj 274 47 throw~ dmix;
#X obj 274 75 catch~ dmix;
#X obj -22 201 vsl 15 100 0 127 0 0 empty empty empty 0 -9 0 10 -204800
-1 -1 0 1;
#X obj 24 201 vsl 15 100 0 127 0 0 empty empty empty 0 -9 0 10 -262144
-1 -1 0 1;
#X obj 101 197 vsl 15 100 0 127 0 0 empty empty empty 0 -9 0 10 -204800
-1 -1 0 1;
#X obj 123 197 vsl 15 100 0 127 0 0 empty empty empty 0 -9 0 10 -262144
-1 -1 0 1;
#X obj 146 197 vsl 15 100 0 127 0 0 empty empty empty 0 -9 0 10 -262144
-1 -1 0 1;
#X obj 219 198 pc_confirm;
#X obj 219 242 s preset;
#X floatatom 219 221 5 0 0 0 - - -;
#X obj 271 174 shutdown;
#N canvas 0 22 450 300 ping 0;
#X obj 161 62 inlet;
#X obj 223 161 print;
#X msg 222 127 received a ping;
#X obj 161 159 s toAVR;
#X msg 161 122 162;
#X connect 0 0 2 0;
#X connect 0 0 4 0;
#X connect 2 0 1 0;
#X connect 4 0 3 0;
#X restore 219 176 pd ping;
#X obj 63 122 route 128 129 144 145 240;
#X obj 63 71 comport 4 57600;
#X msg 116 34 devices;
#X msg 64 36 close;
#X msg 548 317 devicename /dev/ttyUSB0;
#X obj 548 297 loadbang;
#X obj 221 269 loadmeter;
#X floatatom 221 296 5 0 0 0 - - -;
#X obj 1 201 vsl 15 100 0 127 0 0 empty empty empty 0 -9 0 10 -262144
-1 -1 0 1;
#X obj 62 98 uart_decode;
#X obj -22 345 tgl 15 0 empty empty empty 17 7 0 10 -262144 -1 -1 0
1;
#X obj 0 345 tgl 15 0 empty empty empty 17 7 0 10 -262144 -1 -1 0 1
;
#X obj 23 345 tgl 15 0 empty empty empty 17 7 0 10 -262144 -1 -1 0
1;
#N canvas 267 193 429 327 data_ 0;
#X obj -14 29 inlet;
#X obj 117 19 inlet;
#X obj 232 13 inlet;
#X obj -14 116 > 10;
#X obj 126 128 > 10;
#X obj 260 136 > 10;
#X obj -14 154 outlet;
#X obj 126 166 outlet;
#X obj 260 174 outlet;
#X obj 29 103 s perc_Lthumb;
#X obj 142 91 s perc_Lmiddle;
#X obj 274 90 s perc_Lpalm;
#X obj -53 271 s Lshift;
#X obj 79 199 * 2;
#X obj -63 188 * 4;
#X obj 79 227 ++;
#X obj -53 243 ++;
#X obj -63 149 change;
#X obj 72 165 change;
#X obj -17 71 t f f;
#X obj 118 62 t f f;
#X obj 235 51 t f f;
#X connect 0 0 19 0;
#X connect 1 0 20 0;
#X connect 2 0 21 0;
#X connect 3 0 6 0;
#X connect 3 0 17 0;
#X connect 4 0 7 0;
#X connect 4 0 18 0;
#X connect 5 0 8 0;
#X connect 5 0 15 1;
#X connect 13 0 15 0;
#X connect 14 0 16 0;
#X connect 15 0 16 1;
#X connect 16 0 12 0;
#X connect 17 0 14 0;
#X connect 18 0 13 0;
#X connect 19 0 3 0;
#X connect 19 1 9 0;
#X connect 20 0 4 0;
#X connect 20 1 10 0;
#X connect 21 0 5 0;
#X connect 21 1 11 0;
#X restore -22 315 pd data_;
#N canvas 349 409 458 357 data_ 0;
#X obj 50 35 inlet;
#X obj 163 19 inlet;
#X obj 308 26 inlet;
#X obj 50 115 > 10;
#X obj 177 115 > 10;
#X obj 314 127 > 10;
#X obj 72 151 outlet;
#X obj 182 154 outlet;
#X obj 318 155 outlet;
#X obj 59 81 s perc_Rthumb;
#X obj 196 85 s perc_Rmiddle;
#X obj 363 120 s perc_Rpalm;
#X obj 148 204 * 2;
#X obj 63 204 * 4;
#X obj 148 232 ++;
#X obj 63 260 ++;
#X obj 63 288 s Rshift;
#X obj 19 81 t f f;
#X obj 155 47 t f f;
#X obj 311 57 t f f;
#X connect 0 0 17 0;
#X connect 1 0 18 0;
#X connect 2 0 19 0;
#X connect 3 0 6 0;
#X connect 3 0 13 0;
#X connect 4 0 7 0;
#X connect 4 0 12 0;
#X connect 5 0 8 0;
#X connect 5 0 14 1;
#X connect 12 0 14 0;
#X connect 13 0 15 0;
#X connect 14 0 15 1;
#X connect 15 0 16 0;
#X connect 17 0 3 0;
#X connect 17 1 9 0;
#X connect 18 0 4 0;
#X connect 18 1 10 0;
#X connect 19 0 5 0;
#X connect 19 1 11 0;
#X restore 101 308 pd data_;
#X obj 101 341 tgl 15 0 empty empty empty 17 7 0 10 -262144 -1 -1 0
1;
#X obj 123 341 tgl 15 0 empty empty empty 17 7 0 10 -262144 -1 -1 0
1;
#X obj 146 341 tgl 15 0 empty empty empty 17 7 0 10 -262144 -1 -1 0
1;
#N canvas 556 210 652 500 cheek_cym 0;
#X obj 106 378 throw~ dmix;
#X obj 123 285 tabplay~ cheek_c0;
#X obj 123 198 bng 15 250 50 0 empty empty empty 17 7 0 10 -262144
-1 -1;
#X msg 123 254 set cheek_c\$1 \, bang;
#X obj 123 224 erandom 4;
#X obj 122 168 spigot;
#X obj 197 115 r Lshift;
#X obj 197 171 change;
#X obj 197 196 tgl 15 0 empty empty empty 17 7 0 10 -262144 -1 -1 1
1;
#X obj 35 35 r perc_Lpalm;
#X obj 28 100 difference;
#X obj 36 73 t f f;
#X obj 23 154 change;
#X obj 20 175 sel 1;
#X obj 121 331 *~;
#X obj 268 267 / 128;
#X obj 265 237 f;
#X obj 403 381 throw~ dmix;
#X obj 420 288 tabplay~ cheek_c0;
#X obj 420 201 bng 15 250 50 0 empty empty empty 17 7 0 10 -262144
-1 -1;
#X msg 420 257 set cheek_c\$1 \, bang;
#X obj 420 227 erandom 4;
#X obj 419 171 spigot;
#X obj 494 174 change;
#X obj 494 199 tgl 15 0 empty empty empty 17 7 0 10 -262144 -1 -1 1
1;
#X obj 325 103 difference;
#X obj 333 76 t f f;
#X obj 320 157 change;
#X obj 317 178 sel 1;
#X obj 418 334 *~;
#X obj 569 284 / 128;
#X obj 566 254 f;
#X obj 494 118 r Rshift;
#X obj 348 40 r perc_Rpalm;
#X obj 26 128 > 20;
#X obj 323 131 > 20;
#X obj 195 145 == 0;
#X obj 494 148 == 0;
#X connect 1 0 14 0;
#X connect 2 0 4 0;
#X connect 2 0 16 0;
#X connect 3 0 1 0;
#X connect 4 0 3 0;
#X connect 5 0 2 0;
#X connect 6 0 36 0;
#X connect 7 0 8 0;
#X connect 8 0 5 1;
#X connect 9 0 11 0;
#X connect 10 0 34 0;
#X connect 11 0 10 0;
#X connect 11 1 16 1;
#X connect 12 0 13 0;
#X connect 13 0 5 0;
#X connect 14 0 0 0;
#X connect 15 0 14 1;
#X connect 16 0 15 0;
#X connect 18 0 29 0;
#X connect 19 0 21 0;
#X connect 19 0 31 0;
#X connect 20 0 18 0;
#X connect 21 0 20 0;
#X connect 22 0 19 0;
#X connect 23 0 24 0;
#X connect 24 0 22 1;
#X connect 25 0 35 0;
#X connect 26 0 25 0;
#X connect 26 1 31 1;
#X connect 27 0 28 0;
#X connect 28 0 22 0;
#X connect 29 0 17 0;
#X connect 30 0 29 1;
#X connect 31 0 30 0;
#X connect 32 0 37 0;
#X connect 33 0 26 0;
#X connect 34 0 12 0;
#X connect 35 0 27 0;
#X connect 36 0 7 0;
#X connect 37 0 23 0;
#X restore 534 37 pd cheek_cym;
#N canvas 1900 618 712 324 midi 0;
#X obj 22 154 outlet;
#X obj 74 153 outlet;
#X obj 130 155 outlet;
#X obj 181 153 outlet;
#X obj 238 152 outlet;
#X obj 290 154 outlet;
#X obj 51 60 r perc;
#X obj 176 105 route 100 101 102 103 104 105;
#X connect 6 0 7 0;
#X connect 7 0 0 0;
#X connect 7 1 1 0;
#X connect 7 2 2 0;
#X connect 7 3 3 0;
#X connect 7 4 4 0;
#X connect 7 5 5 0;
#X restore -112 179 pd midi;
#N canvas 870 22 693 668 belly_mute_drum 0;
#X obj 142 473 tabplay~ brest_0;
#X msg 145 445 set brest_\$1 \, bang;
#X obj 136 402 erandom 6;
#X obj 175 589 throw~ dmix;
#X obj 144 342 bng 15 250 50 0 empty empty empty 17 7 0 10 -262144
-1 -1;
#X obj 245 102 r perc_Lmiddle;
#X obj 168 213 tgl 15 0 empty empty empty 17 7 0 10 -262144 -1 -1 1
1;
#X obj 172 189 change;
#X obj 144 320 spigot;
#X obj 236 160 difference;
#X obj 116 274 change;
#X obj 172 59 r Lshift;
#X obj 113 295 sel 1;
#X obj 175 558 *~;
#X obj 270 339 / 128;
#X obj 266 303 f;
#X obj 244 133 t f f;
#X obj 392 588 throw~ dmix;
#X obj 361 341 bng 15 250 50 0 empty empty empty 17 7 0 10 -262144
-1 -1;
#X obj 385 212 tgl 15 0 empty empty empty 17 7 0 10 -262144 -1 -1 1
1;
#X obj 389 188 change;
#X obj 361 319 spigot;
#X obj 453 159 difference;
#X obj 333 273 change;
#X obj 330 294 sel 1;
#X obj 392 557 *~;
#X obj 487 338 / 128;
#X obj 483 302 f;
#X obj 461 132 t f f;
#X obj 462 101 r perc_Rmiddle;
#X obj 388 58 r Rshift;
#X obj 342 467 tabplay~ brest_0;
#X msg 345 439 set brest_\$1 \, bang;
#X obj 336 396 erandom 6;
#X obj 155 113 == 0;
#X obj 372 108 == 0;
#X obj 119 248 > 15;
#X obj 336 247 > 15;
#X connect 0 0 13 0;
#X connect 1 0 0 0;
#X connect 2 0 1 0;
#X connect 4 0 15 0;
#X connect 4 0 2 0;
#X connect 5 0 16 0;
#X connect 6 0 8 1;
#X connect 7 0 6 0;
#X connect 8 0 4 0;
#X connect 9 0 36 0;
#X connect 10 0 12 0;
#X connect 11 0 34 0;
#X connect 12 0 8 0;
#X connect 13 0 3 0;
#X connect 14 0 13 1;
#X connect 15 0 14 0;
#X connect 16 0 9 0;
#X connect 16 1 15 1;
#X connect 18 0 27 0;
#X connect 18 0 33 0;
#X connect 19 0 21 1;
#X connect 20 0 19 0;
#X connect 21 0 18 0;
#X connect 22 0 37 0;
#X connect 23 0 24 0;
#X connect 24 0 21 0;
#X connect 25 0 17 0;
#X connect 26 0 25 1;
#X connect 27 0 26 0;
#X connect 28 0 22 0;
#X connect 28 1 27 1;
#X connect 29 0 28 0;
#X connect 30 0 35 0;
#X connect 31 0 25 0;
#X connect 32 0 31 0;
#X connect 33 0 32 0;
#X connect 34 0 7 0;
#X connect 35 0 20 0;
#X connect 36 0 10 0;
#X connect 37 0 23 0;
#X restore 530 15 pd belly_mute_drum;
#X text -24 371 T;
#X text 2 371 M;
#X text 100 367 T;
#X text 124 366 M;
#X text 28 370 P;
#X text 150 367 P;
#N canvas 664 213 720 479 head_wblock 0;
#X obj 47 204 tgl 15 0 empty empty empty 17 7 0 10 -262144 -1 -1 0
1;
#X obj -56 224 spigot;
#X obj -59 410 throw~ dmix;
#X obj -55 254 bng 15 250 50 0 empty empty empty 17 7 0 10 -262144
-1 -1;
#X obj 51 180 change;
#X obj -105 96 difference;
#X obj -97 69 t f f;
#X obj -110 150 change;
#X obj -113 171 sel 1;
#X obj 51 345 / 128;
#X obj 58 315 f;
#X obj -57 379 *~;
#X obj -90 25 r perc_Rmiddle;
#X obj 51 50 r Lshift;
#X obj 51 116 == 6;
#X obj 103 269 r perc_Lmiddle;
#X obj 137 240 r perc_Lthumb;
#X obj 105 318 ++;
#X msg -55 318 set c\$1 \, bang;
#X obj -55 345 tabplay~ c0;
#X obj -60 294 i;
#X obj 107 358 / 30;
#X floatatom 109 385 5 0 0 0 - - -;
#X obj -107 122 > 20;
#X obj 340 206 tgl 15 0 empty empty empty 17 7 0 10 -262144 -1 -1 0
1;
#X obj 237 226 spigot;
#X obj 234 412 throw~ dmix;
#X obj 238 256 bng 15 250 50 0 empty empty empty 17 7 0 10 -262144
-1 -1;
#X obj 344 182 change;
#X obj 188 98 difference;
#X obj 196 71 t f f;
#X obj 183 152 change;
#X obj 180 173 sel 1;
#X obj 344 347 / 128;
#X obj 351 317 f;
#X obj 236 381 *~;
#X obj 344 118 == 6;
#X obj 396 271 r perc_Lmiddle;
#X obj 433 242 r perc_Lthumb;
#X obj 398 320 ++;
#X msg 238 320 set c\$1 \, bang;
#X obj 238 347 tabplay~ c0;
#X obj 233 296 i;
#X obj 400 360 / 30;
#X floatatom 402 387 5 0 0 0 - - -;
#X obj 186 124 > 20;
#X obj 344 52 r Rshift;
#X obj 203 27 r perc_Lmiddle;
#X connect 0 0 1 1;
#X connect 1 0 3 0;
#X connect 3 0 10 0;
#X connect 3 0 20 0;
#X connect 4 0 0 0;
#X connect 5 0 23 0;
#X connect 6 0 5 0;
#X connect 6 1 10 1;
#X connect 7 0 8 0;
#X connect 8 0 1 0;
#X connect 9 0 11 1;
#X connect 10 0 9 0;
#X connect 11 0 2 0;
#X connect 12 0 6 0;
#X connect 13 0 14 0;
#X connect 14 0 4 0;
#X connect 15 0 17 0;
#X connect 16 0 17 1;
#X connect 17 0 21 0;
#X connect 18 0 19 0;
#X connect 19 0 11 0;
#X connect 20 0 18 0;
#X connect 21 0 20 1;
#X connect 21 0 22 0;
#X connect 23 0 7 0;
#X connect 24 0 25 1;
#X connect 25 0 27 0;
#X connect 27 0 34 0;
#X connect 27 0 42 0;
#X connect 28 0 24 0;
#X connect 29 0 45 0;
#X connect 30 0 29 0;
#X connect 30 1 34 1;
#X connect 31 0 32 0;
#X connect 32 0 25 0;
#X connect 33 0 35 1;
#X connect 34 0 33 0;
#X connect 35 0 26 0;
#X connect 36 0 28 0;
#X connect 37 0 39 0;
#X connect 38 0 39 1;
#X connect 39 0 43 0;
#X connect 40 0 41 0;
#X connect 41 0 35 0;
#X connect 42 0 40 0;
#X connect 43 0 42 1;
#X connect 43 0 44 0;
#X connect 45 0 31 0;
#X connect 46 0 36 0;
#X connect 47 0 30 0;
#X restore 540 236 pd head_wblock;
#X text 478 39 no shift;
#X text 635 37 palm;
#X text 659 57 thumb;
#X text 646 11 midlle;
#X text 645 158 midlle;
#X text 644 186 midlle;
#X msg -91 78 open 2;
#X obj 182 36 r toAVR;
#N canvas 636 286 717 473 release_ride 0;
#X obj 105 274 line~;
#X obj 152 406 throw~ dmix;
#X obj 217 305 osc~;
#X obj 165 347 *~;
#X obj 224 279 line~;
#X obj 238 336 abs~;
#X obj 242 9 r perc_Lpalm;
#X obj 212 61 difference;
#X obj 212 130 sel 1;
#X obj 212 108 change;
#X obj 437 66 difference;
#X obj 437 135 sel 1;
#X obj 437 113 change;
#X obj 437 39 r perc_Rpalm;
#X obj 288 66 > 20;
#X obj 289 104 change;
#X obj 241 183 timer;
#X obj 216 209 / 500;
#X obj 353 285 line~;
#X obj 400 417 throw~ dmix;
#X obj 360 325 tabread4~ ride;
#X obj 465 316 osc~;
#X obj 413 358 *~;
#X obj 472 290 line~;
#X obj 486 347 abs~;
#X obj 442 182 timer;
#X obj 464 220 / 500;
#X obj 515 64 > 20;
#X obj 516 102 change;
#X obj 274 139 sel 1;
#X obj 501 137 sel 1;
#X obj 96 314 tabread4~ ride2;
#X msg 478 260 \$1 \, 0 5000;
#X obj 106 161 bng 15 250 50 0 empty empty empty 17 7 0 10 -262144
-1 -1;
#X obj 363 138 bng 15 250 50 0 empty empty empty 17 7 0 10 -262144
-1 -1;
#X msg 230 252 \$1 \, 0 5000;
#X obj 358 179 random 400;
#X obj 347 221 + 4800;
#X obj 106 220 + 4800;
#X obj 101 185 random 400;
#X msg 101 247 0 \, 220500 \$1;
#X msg 342 248 0 \, 220500 \$1;
#X obj 512 238 clip 0 8;
#X obj 266 230 clip 0 8;
#X obj 212 85 < -50;
#X obj 434 90 < -50;
#X connect 0 0 31 0;
#X connect 2 0 5 0;
#X connect 3 0 1 0;
#X connect 4 0 2 0;
#X connect 5 0 3 1;
#X connect 6 0 7 0;
#X connect 6 0 14 0;
#X connect 7 0 44 0;
#X connect 8 0 16 1;
#X connect 9 0 8 0;
#X connect 10 0 45 0;
#X connect 11 0 25 1;
#X connect 12 0 11 0;
#X connect 13 0 10 0;
#X connect 13 0 27 0;
#X connect 14 0 15 0;
#X connect 15 0 29 0;
#X connect 16 0 17 0;
#X connect 17 0 33 0;
#X connect 17 0 43 0;
#X connect 18 0 20 0;
#X connect 20 0 22 0;
#X connect 21 0 24 0;
#X connect 22 0 19 0;
#X connect 23 0 21 0;
#X connect 24 0 22 1;
#X connect 25 0 26 0;
#X connect 26 0 34 0;
#X connect 26 0 42 0;
#X connect 27 0 28 0;
#X connect 28 0 30 0;
#X connect 29 0 16 0;
#X connect 30 0 25 0;
#X connect 31 0 3 0;
#X connect 32 0 23 0;
#X connect 33 0 39 0;
#X connect 34 0 36 0;
#X connect 35 0 4 0;
#X connect 36 0 37 0;
#X connect 37 0 41 0;
#X connect 38 0 40 0;
#X connect 39 0 38 0;
#X connect 40 0 0 0;
#X connect 41 0 18 0;
#X connect 42 0 32 0;
#X connect 43 0 35 0;
#X connect 44 0 9 0;
#X connect 45 0 12 0;
#X restore 533 90 pd release_ride;
#X obj -91 4 loadbang;
#X msg -92 39 devicename /dev/ttyUSB0;
#X obj -22 175 unpack 0 0 0;
#X text 636 233 midlle;
#X text 388 236 oppsite(thumb + middle);
#X text 475 89 release;
#N canvas 636 286 717 473 release_tringle 0;
#X obj 105 296 line~;
#X obj 163 427 throw~ dmix;
#X obj 217 327 osc~;
#X obj 165 369 *~;
#X obj 224 301 line~;
#X obj 238 358 abs~;
#X obj 197 64 difference;
#X obj 197 133 sel 1;
#X obj 197 111 change;
#X obj 437 66 difference;
#X obj 437 135 sel 1;
#X obj 437 113 change;
#X obj 273 69 > 20;
#X obj 274 107 change;
#X obj 216 165 timer;
#X obj 219 220 / 500;
#X obj 353 285 line~;
#X obj 406 429 throw~ dmix;
#X obj 465 316 osc~;
#X obj 413 358 *~;
#X obj 472 290 line~;
#X obj 486 347 abs~;
#X obj 466 171 timer;
#X obj 464 220 / 500;
#X obj 515 64 > 20;
#X obj 516 102 change;
#X obj 259 142 sel 1;
#X obj 501 137 sel 1;
#X msg 478 260 \$1 \, 0 5000;
#X obj 106 183 bng 15 250 50 0 empty empty empty 17 7 0 10 -262144
-1 -1;
#X obj 386 146 bng 15 250 50 0 empty empty empty 17 7 0 10 -262144
-1 -1;
#X msg 230 274 \$1 \, 0 5000;
#X msg 101 269 0 \, 220500 \$1;
#X msg 342 248 0 \, 220500 \$1;
#X obj 512 238 clip 0 8;
#X obj 227 252 clip 0 8;
#X obj 437 39 r perc_Rmiddle;
#X obj 227 12 r perc_Lmiddle;
#X obj 292 389 line~;
#X msg 285 355 0 \, 1 300;
#X obj 228 403 *~;
#X obj 538 380 line~;
#X msg 531 346 0 \, 1 300;
#X obj 416 396 *~;
#X obj 329 129 change;
#X obj 332 69 r Lshift;
#X obj 245 190 spigot;
#X obj 328 94 == 2;
#X obj 346 221 + 4900;
#X obj 358 179 random 200;
#X obj 101 207 random 200;
#X obj 106 242 + 4900;
#X obj 584 145 change;
#X obj 583 110 == 2;
#X obj 587 85 r Rshift;
#X obj 503 190 spigot;
#X obj 360 325 tabread4~ tri1;
#X obj 96 336 tabread4~ tri2;
#X obj 437 90 < -50;
#X obj 197 88 < -50;
#X connect 0 0 57 0;
#X connect 2 0 5 0;
#X connect 3 0 40 0;
#X connect 4 0 2 0;
#X connect 5 0 3 1;
#X connect 6 0 59 0;
#X connect 7 0 14 1;
#X connect 8 0 7 0;
#X connect 9 0 58 0;
#X connect 10 0 22 1;
#X connect 11 0 10 0;
#X connect 12 0 13 0;
#X connect 13 0 26 0;
#X connect 14 0 46 0;
#X connect 15 0 29 0;
#X connect 15 0 35 0;
#X connect 16 0 56 0;
#X connect 18 0 21 0;
#X connect 19 0 43 0;
#X connect 20 0 18 0;
#X connect 21 0 19 1;
#X connect 22 0 55 0;
#X connect 23 0 30 0;
#X connect 23 0 34 0;
#X connect 24 0 25 0;
#X connect 25 0 27 0;
#X connect 26 0 14 0;
#X connect 27 0 22 0;
#X connect 28 0 20 0;
#X connect 29 0 39 0;
#X connect 29 0 50 0;
#X connect 30 0 42 0;
#X connect 30 0 49 0;
#X connect 31 0 4 0;
#X connect 32 0 0 0;
#X connect 33 0 16 0;
#X connect 34 0 28 0;
#X connect 35 0 31 0;
#X connect 36 0 9 0;
#X connect 36 0 24 0;
#X connect 37 0 6 0;
#X connect 37 0 12 0;
#X connect 38 0 40 1;
#X connect 39 0 38 0;
#X connect 40 0 1 0;
#X connect 41 0 43 1;
#X connect 42 0 41 0;
#X connect 43 0 17 0;
#X connect 44 0 46 1;
#X connect 45 0 47 0;
#X connect 46 0 15 0;
#X connect 47 0 44 0;
#X connect 48 0 33 0;
#X connect 49 0 48 0;
#X connect 50 0 51 0;
#X connect 51 0 32 0;
#X connect 52 0 55 1;
#X connect 53 0 52 0;
#X connect 54 0 53 0;
#X connect 55 0 23 0;
#X connect 56 0 19 0;
#X connect 57 0 3 0;
#X connect 58 0 11 0;
#X connect 59 0 8 0;
#X restore 533 111 pd release_tringle;
#N canvas 127 415 761 550 hard_triangle 0;
#X obj 458 494 throw~ dmix;
#X floatatom 438 317 5 0 0 0 - - -;
#X obj 476 250 bng 15 250 50 0 empty empty empty 17 7 0 10 -262144
-1 -1;
#X obj 438 282 erandom 2;
#X obj 196 437 throw~ dmix;
#X floatatom 187 301 5 0 0 0 - - -;
#X obj 187 235 bng 15 250 50 0 empty empty empty 17 7 0 10 -262144
-1 -1;
#X msg 187 334 set toothF_\$1 \, bang;
#X obj 187 368 tabplay~ toothF_0;
#X obj 187 266 erandom 5;
#X obj 446 86 difference;
#X obj 454 59 t f f;
#X obj 441 140 change;
#X obj 438 161 sel 1;
#X obj 444 114 > 20;
#X obj 441 21 r perc_Rmiddle;
#X obj 144 95 difference;
#X obj 152 68 t f f;
#X obj 139 149 change;
#X obj 136 170 sel 1;
#X obj 142 123 > 20;
#X obj 139 30 r perc_Lmiddle;
#X obj 293 169 tgl 15 0 empty empty empty 17 7 0 10 -262144 -1 -1 0
1;
#X obj 284 33 r Lshift;
#X obj 290 144 change;
#X obj 228 202 spigot;
#X obj 549 63 r Rshift;
#X obj 479 223 spigot;
#X obj 268 285 / 127;
#X obj 269 258 f;
#X obj 199 403 *~;
#X obj 649 212 tgl 15 0 empty empty empty 17 7 0 10 -262144 -1 -1 0
1;
#X obj 646 187 change;
#X obj 536 299 / 127;
#X obj 537 272 f;
#X obj 471 467 *~;
#X floatatom 338 217 5 0 0 0 - - -;
#X obj 436 449 tabread4~ toothD_0;
#X obj 418 353 t b f;
#X obj 401 439 line~;
#X msg 404 409 0 \, 8820 \$1;
#X obj 413 382 random 15;
#X obj 360 373 + 194;
#X msg 486 368 set toothD_\$1;
#X obj 280 95 == 4;
#X obj 636 138 == 4;
#X connect 1 0 38 0;
#X connect 2 0 34 0;
#X connect 2 0 3 0;
#X connect 3 0 1 0;
#X connect 5 0 7 0;
#X connect 6 0 9 0;
#X connect 6 0 29 0;
#X connect 7 0 8 0;
#X connect 8 0 30 0;
#X connect 9 0 5 0;
#X connect 10 0 14 0;
#X connect 11 0 10 0;
#X connect 11 1 34 1;
#X connect 12 0 13 0;
#X connect 13 0 27 0;
#X connect 14 0 12 0;
#X connect 15 0 11 0;
#X connect 16 0 20 0;
#X connect 17 0 16 0;
#X connect 17 1 29 1;
#X connect 18 0 19 0;
#X connect 19 0 25 0;
#X connect 20 0 18 0;
#X connect 21 0 17 0;
#X connect 22 0 25 1;
#X connect 23 0 44 0;
#X connect 24 0 22 0;
#X connect 25 0 6 0;
#X connect 26 0 45 0;
#X connect 27 0 2 0;
#X connect 28 0 30 1;
#X connect 29 0 28 0;
#X connect 30 0 4 0;
#X connect 31 0 27 1;
#X connect 32 0 31 0;
#X connect 33 0 35 1;
#X connect 34 0 33 0;
#X connect 35 0 0 0;
#X connect 36 0 29 1;
#X connect 36 0 34 1;
#X connect 37 0 35 0;
#X connect 38 0 41 0;
#X connect 38 1 43 0;
#X connect 39 0 37 0;
#X connect 40 0 39 0;
#X connect 41 0 42 0;
#X connect 42 0 40 0;
#X connect 43 0 37 0;
#X connect 44 0 24 0;
#X connect 45 0 32 0;
#X restore 537 185 pd hard_triangle;
#N canvas 221 227 1014 432 head_anvil 0;
#X obj 107 389 throw~ dmix;
#X obj 174 349 tabplay~ toothA_0;
#X floatatom 174 282 5 0 0 0 - - -;
#X obj 168 170 bng 15 250 50 0 empty empty empty 17 7 0 10 -262144
-1 -1;
#X msg 174 315 set toothA_\$1 \, bang;
#X obj 174 248 erandom 3;
#X obj 611 415 throw~ dmix;
#X floatatom 687 317 5 0 0 0 - - -;
#X obj 687 291 erandom 4;
#X msg 687 350 set toothC_\$1 \, bang;
#X obj 684 374 tabplay~ toothC_0;
#X text 72 33 tooth sound;
#X obj 51 78 r perc_Lmiddle;
#X obj 168 91 spigot;
#X obj 224 119 tgl 15 0 empty empty empty 17 7 0 10 -262144 -1 -1 0
1;
#X obj 114 351 *~;
#X obj 114 256 / 127;
#X obj 605 372 *~;
#X obj 600 289 / 127;
#X obj 716 165 spigot;
#X obj 545 100 r perc_Rmiddle;
#X obj 788 44 r Rshift;
#X obj 264 113 change;
#X obj 37 130 difference;
#X obj 45 103 t f f;
#X obj 32 184 change;
#X obj 29 205 sel 1;
#X obj 104 216 f;
#X obj 522 159 difference;
#X obj 530 132 t f f;
#X obj 517 213 change;
#X obj 514 234 sel 1;
#X obj 596 239 f;
#X obj 688 216 bng 15 250 50 0 empty empty empty 17 7 0 10 -262144
-1 -1;
#X obj 35 158 > 20;
#X obj 520 187 > 20;
#X obj 267 53 r Lshift;
#X obj 769 129 change;
#X floatatom 848 91 5 0 0 0 - - -;
#X floatatom 215 156 5 0 0 0 - - -;
#X obj 263 78 == 1;
#X obj 773 114 == 1;
#X connect 1 0 15 1;
#X connect 2 0 4 0;
#X connect 3 0 5 0;
#X connect 3 0 27 0;
#X connect 4 0 1 0;
#X connect 5 0 2 0;
#X connect 7 0 9 0;
#X connect 8 0 7 0;
#X connect 9 0 10 0;
#X connect 10 0 17 1;
#X connect 12 0 24 0;
#X connect 13 0 3 0;
#X connect 14 0 13 1;
#X connect 15 0 0 0;
#X connect 16 0 15 0;
#X connect 17 0 6 0;
#X connect 18 0 17 0;
#X connect 19 0 33 0;
#X connect 20 0 29 0;
#X connect 21 0 38 0;
#X connect 21 0 41 0;
#X connect 22 0 14 0;
#X connect 23 0 34 0;
#X connect 24 0 23 0;
#X connect 24 1 27 1;
#X connect 25 0 26 0;
#X connect 26 0 13 0;
#X connect 27 0 16 0;
#X connect 28 0 35 0;
#X connect 29 0 28 0;
#X connect 29 1 32 1;
#X connect 30 0 31 0;
#X connect 31 0 19 0;
#X connect 32 0 18 0;
#X connect 33 0 8 0;
#X connect 33 0 32 0;
#X connect 34 0 25 0;
#X connect 35 0 30 0;
#X connect 36 0 40 0;
#X connect 37 0 19 1;
#X connect 39 0 27 1;
#X connect 39 0 32 1;
#X connect 40 0 22 0;
#X connect 41 0 37 0;
#X restore 537 159 pd head_anvil;
#X obj 343 113 outlet~;
#X text 656 110 midlle;
#X text 635 86 palm;
#N canvas 804 377 545 501 temple 0;
#X obj 85 440 throw~ dmix;
#X obj 89 260 spigot;
#X obj 171 94 r Lshift;
#X obj 171 235 change;
#X obj 171 260 tgl 15 0 empty empty empty 17 7 0 10 -262144 -1 -1 1
1;
#X obj 154 148 == 0;
#X obj 87 63 r perc_Lthumb;
#X obj 37 130 difference;
#X obj 45 103 t f f;
#X obj 32 184 change;
#X obj 29 205 sel 1;
#X obj 182 397 / 128;
#X obj 189 367 f;
#X obj 89 411 *~;
#X obj 35 158 > 20;
#X obj 339 438 throw~ dmix;
#X obj 343 258 spigot;
#X obj 425 233 change;
#X obj 425 258 tgl 15 0 empty empty empty 17 7 0 10 -262144 -1 -1 1
1;
#X obj 408 146 == 0;
#X obj 291 128 difference;
#X obj 299 101 t f f;
#X obj 286 182 change;
#X obj 283 203 sel 1;
#X obj 436 395 / 128;
#X obj 443 365 f;
#X obj 343 409 *~;
#X obj 289 156 > 20;
#X obj 341 61 r perc_Rthumb;
#X obj 425 92 r Rshift;
#X floatatom 284 52 5 0 0 0 - - -;
#X floatatom 16 52 5 0 0 0 - - -;
#X msg 83 351 set s\$1 \, bang;
#X obj 81 319 erandom 5;
#X msg 315 356 set s\$1 \, bang;
#X obj 313 324 erandom 5;
#X obj 84 383 tabplay~ s0;
#X obj 339 378 tabplay~ s0;
#X connect 1 0 33 0;
#X connect 1 0 12 0;
#X connect 2 0 5 0;
#X connect 3 0 4 0;
#X connect 4 0 1 1;
#X connect 5 0 3 0;
#X connect 6 0 8 0;
#X connect 7 0 14 0;
#X connect 8 0 7 0;
#X connect 8 1 12 1;
#X connect 9 0 10 0;
#X connect 10 0 1 0;
#X connect 11 0 13 1;
#X connect 12 0 11 0;
#X connect 13 0 0 0;
#X connect 14 0 9 0;
#X connect 16 0 25 0;
#X connect 16 0 35 0;
#X connect 17 0 18 0;
#X connect 18 0 16 1;
#X connect 19 0 17 0;
#X connect 20 0 27 0;
#X connect 21 0 20 0;
#X connect 21 1 25 1;
#X connect 22 0 23 0;
#X connect 23 0 16 0;
#X connect 24 0 26 1;
#X connect 25 0 24 0;
#X connect 26 0 15 0;
#X connect 27 0 22 0;
#X connect 28 0 21 0;
#X connect 29 0 19 0;
#X connect 30 0 21 0;
#X connect 31 0 8 0;
#X connect 32 0 36 0;
#X connect 33 0 32 0;
#X connect 34 0 37 0;
#X connect 35 0 34 0;
#X connect 36 0 13 0;
#X connect 37 0 26 0;
#X restore 533 57 pd temple woodblock;
#X text 486 158 palm;
#X text 477 187 thumb;
#X obj 101 173 unpack 0 0 0;
#X msg 101 148 \$5 \$1 \$2;
#X msg -2 156 \$1 \$5 \$2;
#X connect 0 0 1 0;
#X connect 5 0 7 0;
#X connect 8 0 2 0;
#X connect 8 0 2 1;
#X connect 8 0 65 0;
#X connect 9 0 32 0;
#X connect 10 0 32 2;
#X connect 11 0 33 0;
#X connect 12 0 33 1;
#X connect 13 0 33 2;
#X connect 14 0 16 0;
#X connect 16 0 15 0;
#X connect 19 0 73 0;
#X connect 19 1 72 0;
#X connect 19 2 14 0;
#X connect 19 3 18 0;
#X connect 19 4 17 0;
#X connect 20 0 28 0;
#X connect 21 0 20 0;
#X connect 22 0 20 0;
#X connect 24 0 23 0;
#X connect 25 0 26 0;
#X connect 27 0 32 1;
#X connect 28 0 19 0;
#X connect 32 0 29 0;
#X connect 32 1 30 0;
#X connect 32 2 31 0;
#X connect 33 0 34 0;
#X connect 33 1 35 0;
#X connect 33 2 36 0;
#X connect 38 0 9 0;
#X connect 38 1 27 0;
#X connect 38 2 10 0;
#X connect 38 3 11 0;
#X connect 38 4 12 0;
#X connect 38 5 13 0;
#X connect 53 0 20 0;
#X connect 54 0 20 0;
#X connect 56 0 57 0;
#X connect 57 0 20 0;
#X connect 58 0 9 0;
#X connect 58 1 27 0;
#X connect 58 2 10 0;
#X connect 71 0 11 0;
#X connect 71 1 12 0;
#X connect 71 2 13 0;
#X connect 72 0 71 0;
#X connect 73 0 58 0;
