#N canvas 0 22 450 300 10;
#X obj 171 239 *~;
#X obj 230 171 / 127;
#X obj 52 125 sel 1;
#X obj 52 98 change;
#X obj 92 157 f;
#X obj 108 194 tabplay~ \$1;
#X obj 170 263 outlet~;
#X obj 139 -8 inlet;
#X obj 199 143 f;
#X obj 143 32 difference;
#X obj 52 66 > 30;
#X obj 120 62 t f f;
#X obj 230 219 *;
#X obj 234 193 t f f;
#X obj 327 183 outlet;
#X connect 0 0 6 0;
#X connect 1 0 13 0;
#X connect 2 0 4 0;
#X connect 2 0 8 0;
#X connect 2 0 14 0;
#X connect 3 0 2 0;
#X connect 4 0 5 0;
#X connect 5 0 0 0;
#X connect 7 0 9 0;
#X connect 8 0 1 0;
#X connect 9 0 11 0;
#X connect 10 0 3 0;
#X connect 11 0 10 0;
#X connect 11 1 8 1;
#X connect 12 0 0 1;
#X connect 13 0 12 0;
#X connect 13 1 12 1;
