#N canvas 871 161 543 537 10;
#X declare -path lib;
#X declare -path external_x86;
#X obj 377 371 dac~;
#X obj 378 419 declare -path lib;
#N canvas 356 708 1394 856 samples 0;
#X obj 1078 361 soundfiler;
#X obj 1208 79 loadbang;
#X msg 1062 151 49;
#X obj 1141 179 until;
#X obj 1077 776 soundfiler;
#X msg 1199 620 10;
#X obj 1199 651 until;
#X obj 1201 561 list split 1;
#X obj 1199 485 until;
#X obj 1201 516 list append;
#X obj 1198 457 t b l;
#X obj 1330 508 bang;
#X msg 1141 148 64;
#X obj 1062 182 until;
#X obj 1217 178 until;
#X msg 1307 154 37;
#X obj 1307 186 until;
#X obj 1199 712 pack;
#X obj 1201 587 t b f;
#X msg 1195 425 24 27 28 44 43 40 73 82 84 87 25 26 32;
#X obj 1193 392 loadbang;
#X msg 1217 148 48;
#X obj 15 30 table pf_m22;
#X obj 15 50 table pf_m23;
#X obj 15 70 table pf_m24;
#X obj 15 90 table pf_m25;
#X obj 15 110 table pf_m26;
#X obj 15 130 table pf_m27;
#X obj 15 150 table pf_m28;
#X obj 15 170 table pf_m29;
#X obj 15 190 table pf_m30;
#X obj 15 210 table pf_m31;
#X obj 15 230 table pf_m32;
#X obj 15 250 table pf_m33;
#X obj 15 270 table pf_m34;
#X obj 15 290 table pf_m35;
#X obj 15 310 table pf_m36;
#X obj 15 331 table pf_m37;
#X obj 15 350 table pf_m38;
#X obj 15 370 table pf_m39;
#X obj 15 390 table pf_m40;
#X obj 15 410 table pf_m41;
#X obj 96 29 table pf_m42;
#X obj 96 49 table pf_m43;
#X obj 96 69 table pf_m44;
#X obj 96 89 table pf_m45;
#X obj 96 109 table pf_m46;
#X obj 96 129 table pf_m47;
#X obj 96 149 table pf_m48;
#X obj 96 169 table pf_m49;
#X obj 96 189 table pf_m50;
#X obj 96 209 table pf_m51;
#X obj 96 229 table pf_m52;
#X obj 96 249 table pf_m53;
#X obj 96 269 table pf_m54;
#X obj 96 289 table pf_m55;
#X obj 96 309 table pf_m56;
#X obj 96 329 table pf_m57;
#X obj 96 349 table pf_m58;
#X obj 96 369 table pf_m59;
#X obj 96 388 table pf_m60;
#X obj 96 409 table pf_m61;
#X obj 178 30 table pf_m62;
#X obj 178 50 table pf_m63;
#X obj 178 70 table pf_m64;
#X obj 178 90 table pf_m65;
#X obj 178 110 table pf_m66;
#X obj 178 130 table pf_m67;
#X obj 178 150 table pf_m68;
#X obj 178 170 table pf_m69;
#X obj 178 190 table pf_m70;
#X obj 259 29 table pf_n35;
#X obj 259 49 table pf_n36;
#X obj 259 69 table pf_n37;
#X obj 259 89 table pf_n38;
#X obj 259 109 table pf_n39;
#X obj 259 129 table pf_n40;
#X obj 259 149 table pf_n41;
#X obj 259 169 table pf_n42;
#X obj 259 189 table pf_n43;
#X obj 259 209 table pf_n44;
#X obj 259 229 table pf_n45;
#X obj 259 249 table pf_n46;
#X obj 259 269 table pf_n47;
#X obj 259 289 table pf_n48;
#X obj 259 309 table pf_n49;
#X obj 259 329 table pf_n50;
#X obj 259 349 table pf_n51;
#X obj 259 369 table pf_n52;
#X obj 259 389 table pf_n53;
#X obj 259 409 table pf_n54;
#X obj 341 28 table pf_n55;
#X obj 341 48 table pf_n56;
#X obj 341 68 table pf_n57;
#X obj 341 88 table pf_n58;
#X obj 342 108 table pf_n59;
#X obj 341 128 table pf_n60;
#X obj 341 148 table pf_n61;
#X obj 341 168 table pf_n62;
#X obj 341 188 table pf_n63;
#X obj 341 208 table pf_n64;
#X obj 341 228 table pf_n65;
#X obj 341 248 table pf_n66;
#X obj 341 268 table pf_n67;
#X obj 341 288 table pf_n68;
#X obj 341 308 table pf_n69;
#X obj 341 328 table pf_n70;
#X obj 341 348 table pf_n71;
#X obj 341 368 table pf_n72;
#X obj 341 388 table pf_n73;
#X obj 341 408 table pf_n74;
#X obj 422 29 table pf_n75;
#X obj 422 49 table pf_n76;
#X obj 422 69 table pf_n77;
#X obj 422 89 table pf_n78;
#X obj 423 109 table pf_n79;
#X obj 422 129 table pf_n80;
#X obj 422 149 table pf_n81;
#X obj 422 169 table pf_n82;
#X obj 422 189 table pf_n83;
#X obj 422 209 table pf_n84;
#X obj 422 229 table pf_n85;
#X obj 422 249 table pf_n86;
#X obj 422 269 table pf_n87;
#X obj 422 289 table pf_n88;
#X obj 422 309 table pf_n89;
#X obj 422 329 table pf_n90;
#X obj 422 349 table pf_n91;
#X obj 422 369 table pf_n92;
#X obj 422 389 table pf_n93;
#X obj 422 409 table pf_n94;
#X obj 501 31 table pf_n95;
#X obj 501 51 table pf_n96;
#X obj 501 71 table pf_n97;
#X obj 501 91 table pf_n98;
#X obj 580 34 table pf_o21;
#X obj 580 54 table pf_o22;
#X obj 581 74 table pf_o23;
#X obj 580 94 table pf_o24;
#X obj 580 114 table pf_o25;
#X obj 580 134 table pf_o26;
#X obj 580 154 table pf_o27;
#X obj 580 174 table pf_o28;
#X obj 580 194 table pf_o29;
#X obj 580 214 table pf_o30;
#X obj 580 234 table pf_o31;
#X obj 580 254 table pf_o32;
#X obj 580 274 table pf_o33;
#X obj 580 294 table pf_o34;
#X obj 580 314 table pf_o35;
#X obj 580 334 table pf_o36;
#X obj 580 354 table pf_o37;
#X obj 580 374 table pf_o38;
#X obj 580 394 table pf_o39;
#X obj 580 414 table pf_o40;
#X obj 662 37 table pf_o41;
#X obj 662 57 table pf_o42;
#X obj 662 77 table pf_o43;
#X obj 662 97 table pf_o44;
#X obj 662 117 table pf_o45;
#X obj 662 137 table pf_o46;
#X obj 662 157 table pf_o47;
#X obj 662 177 table pf_o48;
#X obj 662 197 table pf_o49;
#X obj 662 217 table pf_o50;
#X obj 662 237 table pf_o51;
#X obj 662 257 table pf_o52;
#X obj 662 277 table pf_o53;
#X obj 662 297 table pf_o54;
#X obj 662 317 table pf_o55;
#X obj 662 337 table pf_o56;
#X obj 662 357 table pf_o57;
#X obj 662 377 table pf_o58;
#X obj 662 397 table pf_o59;
#X obj 662 417 table pf_o60;
#X obj 742 36 table pf_o61;
#X obj 742 56 table pf_o62;
#X obj 742 76 table pf_o63;
#X obj 742 96 table pf_o64;
#X obj 742 116 table pf_o65;
#X obj 742 136 table pf_o66;
#X obj 742 156 table pf_o67;
#X obj 742 176 table pf_o68;
#X obj 742 196 table pf_o69;
#X obj 825 37 table pf_s36;
#X obj 825 57 table pf_s37;
#X obj 825 77 table pf_s38;
#X obj 825 97 table pf_s39;
#X obj 825 117 table pf_s40;
#X obj 825 138 table pf_s41;
#X obj 825 157 table pf_s42;
#X obj 825 177 table pf_s43;
#X obj 825 197 table pf_s44;
#X obj 825 217 table pf_s45;
#X obj 825 237 table pf_s46;
#X obj 825 257 table pf_s47;
#X obj 825 277 table pf_s48;
#X obj 825 297 table pf_s49;
#X obj 825 317 table pf_s50;
#X obj 825 337 table pf_s51;
#X obj 825 357 table pf_s52;
#X obj 825 378 table pf_s53;
#X obj 825 397 table pf_s54;
#X obj 825 417 table pf_s55;
#X obj 909 39 table pf_s56;
#X obj 910 58 table pf_s57;
#X obj 909 79 table pf_s58;
#X obj 909 99 table pf_s59;
#X obj 909 119 table pf_s60;
#X obj 909 139 table pf_s61;
#X obj 909 159 table pf_s62;
#X obj 909 179 table pf_s63;
#X obj 909 199 table pf_s64;
#X obj 909 219 table pf_s65;
#X obj 909 239 table pf_s66;
#X obj 909 259 table pf_s67;
#X obj 909 279 table pf_s68;
#X obj 909 299 table pf_s69;
#X obj 909 319 table pf_s70;
#X obj 909 339 table pf_s71;
#X obj 909 359 table pf_s72;
#X obj 12 443 table pf_24_0;
#X obj 12 460 table pf_24_1;
#X obj 12 477 table pf_24_2;
#X obj 12 494 table pf_24_3;
#X obj 12 511 table pf_24_4;
#X obj 13 528 table pf_24_5;
#X obj 13 545 table pf_24_6;
#X obj 13 562 table pf_24_7;
#X obj 13 579 table pf_24_8;
#X obj 13 596 table pf_24_9;
#X obj 98 444 table pf_25_0;
#X obj 99 461 table pf_25_1;
#X obj 99 478 table pf_25_2;
#X obj 100 495 table pf_25_3;
#X obj 99 512 table pf_25_4;
#X obj 99 529 table pf_25_5;
#X obj 99 546 table pf_25_6;
#X obj 99 563 table pf_25_7;
#X obj 182 444 table pf_26_0;
#X obj 182 461 table pf_26_1;
#X obj 182 478 table pf_26_2;
#X obj 183 495 table pf_26_3;
#X obj 182 512 table pf_26_4;
#X obj 183 529 table pf_26_5;
#X obj 183 546 table pf_26_6;
#X obj 183 563 table pf_26_7;
#X obj 184 580 table pf_26_8;
#X obj 184 597 table pf_26_9;
#X obj 98 580 table pf_25_8;
#X obj 97 597 table pf_25_9;
#X obj 269 444 table pf_27_0;
#X obj 269 461 table pf_27_1;
#X obj 269 478 table pf_27_2;
#X obj 269 495 table pf_27_3;
#X obj 269 512 table pf_27_4;
#X obj 269 529 table pf_27_5;
#X obj 269 546 table pf_27_6;
#X obj 269 563 table pf_27_7;
#X obj 269 580 table pf_27_8;
#X obj 269 597 table pf_27_9;
#X obj 358 444 table pf_28_0;
#X obj 358 461 table pf_28_1;
#X obj 358 478 table pf_28_2;
#X obj 358 495 table pf_28_3;
#X obj 359 512 table pf_28_4;
#X obj 359 529 table pf_28_5;
#X obj 359 546 table pf_28_6;
#X obj 359 563 table pf_28_7;
#X obj 359 580 table pf_28_8;
#X obj 359 597 table pf_28_9;
#X obj 454 444 table pf_32_0;
#X obj 454 461 table pf_32_1;
#X obj 454 478 table pf_32_2;
#X obj 454 495 table pf_32_3;
#X obj 454 512 table pf_32_4;
#X obj 454 529 table pf_32_5;
#X obj 454 546 table pf_32_6;
#X obj 454 563 table pf_32_7;
#X obj 454 580 table pf_32_8;
#X obj 454 597 table pf_32_9;
#X obj 546 447 table pf_44_0;
#X obj 547 464 table pf_44_1;
#X obj 548 481 table pf_44_2;
#X obj 548 498 table pf_44_3;
#X obj 549 515 table pf_44_4;
#X obj 549 532 table pf_44_5;
#X obj 550 549 table pf_44_6;
#X obj 551 566 table pf_44_7;
#X obj 552 583 table pf_44_8;
#X obj 553 600 table pf_44_9;
#X obj 644 451 table pf_43_0;
#X obj 644 468 table pf_43_1;
#X obj 644 485 table pf_43_2;
#X obj 645 502 table pf_43_3;
#X obj 646 519 table pf_43_4;
#X obj 647 536 table pf_43_5;
#X obj 648 553 table pf_43_6;
#X obj 649 570 table pf_43_7;
#X obj 647 587 table pf_43_8;
#X obj 649 604 table pf_43_9;
#X obj 737 455 table pf_40_0;
#X obj 738 472 table pf_40_1;
#X obj 738 489 table pf_40_2;
#X obj 738 506 table pf_40_3;
#X obj 737 523 table pf_40_4;
#X obj 738 540 table pf_40_5;
#X obj 739 557 table pf_40_6;
#X obj 740 574 table pf_40_7;
#X obj 740 591 table pf_40_8;
#X obj 741 608 table pf_40_9;
#X obj 1089 456 table pf_73_0;
#X obj 1090 473 table pf_73_1;
#X obj 1090 490 table pf_73_2;
#X obj 1090 507 table pf_73_3;
#X obj 1090 524 table pf_73_4;
#X obj 1090 541 table pf_73_5;
#X obj 1089 558 table pf_73_6;
#X obj 1090 575 table pf_73_7;
#X obj 1090 592 table pf_73_8;
#X obj 1090 609 table pf_73_9;
#X obj 999 454 table pf_82_0;
#X obj 999 471 table pf_82_1;
#X obj 999 488 table pf_82_2;
#X obj 999 505 table pf_82_3;
#X obj 1000 522 table pf_82_4;
#X obj 1000 539 table pf_82_5;
#X obj 1000 556 table pf_82_6;
#X obj 1000 573 table pf_82_7;
#X obj 999 590 table pf_82_8;
#X obj 999 607 table pf_82_9;
#X obj 825 449 table pf_84_0;
#X obj 825 469 table pf_84_1;
#X obj 825 488 table pf_84_2;
#X obj 825 507 table pf_84_3;
#X obj 826 526 table pf_84_4;
#X obj 826 546 table pf_84_5;
#X obj 826 565 table pf_84_6;
#X obj 825 584 table pf_84_7;
#X obj 825 603 table pf_84_8;
#X obj 825 622 table pf_84_9;
#X obj 912 452 table pf_87_0;
#X obj 912 473 table pf_87_1;
#X obj 912 491 table pf_87_2;
#X obj 912 510 table pf_87_3;
#X obj 913 529 table pf_87_4;
#X obj 913 549 table pf_87_5;
#X obj 913 568 table pf_87_6;
#X obj 914 586 table pf_87_7;
#X obj 911 606 table pf_87_8;
#X obj 912 625 table pf_87_9;
#X msg 1073 244 read -resize piano/mute/mute_\$1.wav pf_m\$1;
#X msg 1109 269 read -resize piano/mute2/mute2_\$1.wav pf_n\$1;
#X msg 1144 289 read -resize piano/overtone/overtone_\$1.wav pf_o\$1
;
#X msg 1130 324 read -resize piano/string/string_\$1.wav pf_s\$1;
#X msg 1075 749 read -resize piano/scratch/scratch_\$2_\$1.wav pf_\$2_\$1
;
#X obj 1066 212 cnt 22;
#X obj 1141 210 cnt 35;
#X obj 1218 219 cnt 21;
#X obj 1307 219 cnt 36;
#X obj 1200 683 cnt 0 10;
#X msg 1038 103 read -resize hann.wav pf_hann;
#X obj 1035 35 table pf_hann;
#X connect 1 0 2 0;
#X connect 1 0 12 0;
#X connect 1 0 21 0;
#X connect 1 0 15 0;
#X connect 1 0 361 0;
#X connect 2 0 13 0;
#X connect 3 0 357 0;
#X connect 5 0 6 0;
#X connect 6 0 360 0;
#X connect 7 0 18 0;
#X connect 7 1 9 1;
#X connect 7 2 11 0;
#X connect 8 0 9 0;
#X connect 9 0 7 0;
#X connect 10 0 8 0;
#X connect 10 1 9 1;
#X connect 11 0 8 1;
#X connect 12 0 3 0;
#X connect 13 0 356 0;
#X connect 14 0 358 0;
#X connect 15 0 16 0;
#X connect 16 0 359 0;
#X connect 17 0 355 0;
#X connect 18 0 5 0;
#X connect 18 1 17 1;
#X connect 19 0 10 0;
#X connect 20 0 19 0;
#X connect 21 0 14 0;
#X connect 351 0 0 0;
#X connect 352 0 0 0;
#X connect 353 0 0 0;
#X connect 354 0 0 0;
#X connect 355 0 4 0;
#X connect 356 0 351 0;
#X connect 357 0 352 0;
#X connect 358 0 353 0;
#X connect 359 0 354 0;
#X connect 360 0 17 0;
#X connect 361 0 0 0;
#X restore 378 442 pd samples;
#X obj 311 410 loadmeter;
#X floatatom 311 437 5 0 0 0 - - -;
#X obj 376 310 *~ 0.8;
#N canvas 235 43 1189 439 mute 0;
#X floatatom -44 72 5 0 0 0 - - -;
#X floatatom 76 63 5 0 0 0 - - -;
#X floatatom 268 128 5 0 0 0 - - -;
#X floatatom 186 69 5 0 0 0 - - -;
#X floatatom 530 77 5 0 0 0 - - -;
#X floatatom 657 72 5 0 0 0 - - -;
#X floatatom 762 74 5 0 0 0 - - -;
#X obj 439 329 throw~ pmix;
#X obj 656 264 pf_muted m57;
#X obj 185 256 pf_muted m37;
#X obj 530 263 pf_muted m52;
#X obj 770 265 pf_muted m62;
#X obj 186 33 r pf_lhI;
#X obj 76 26 r pf_lhM;
#X obj -44 36 r pf_lhR;
#X obj 762 36 r pf_rhR;
#X obj 657 34 r pf_rhM;
#X obj 530 36 r pf_rhI;
#X obj -39 210 spigot;
#X obj 78 213 spigot;
#X obj 124 129 > 10;
#X obj 183 210 spigot;
#X obj 124 154 change;
#X obj 530 222 spigot;
#X obj 659 220 spigot;
#X obj 769 225 spigot;
#X floatatom 268 225 5 0 0 0 - - -;
#X floatatom 603 142 5 0 0 0 - - -;
#X obj 550 165 > 10;
#X obj 550 190 change;
#X floatatom 603 231 5 0 0 0 - - -;
#X floatatom 313 62 5 0 0 0 - - -;
#X obj 310 203 spigot;
#X obj 313 26 r pf_lhT;
#X floatatom 431 64 5 0 0 0 - - -;
#X obj 429 210 spigot;
#X obj 312 249 pf_muted m42;
#X obj 429 255 pf_muted m48;
#X obj -39 258 pf_muted m22;
#X obj 78 257 pf_muted m26;
#X obj 431 28 r pf_rhT;
#X connect 0 0 18 0;
#X connect 1 0 19 0;
#X connect 1 0 27 0;
#X connect 2 0 20 0;
#X connect 2 0 26 0;
#X connect 3 0 21 0;
#X connect 4 0 23 0;
#X connect 5 0 24 0;
#X connect 5 0 2 0;
#X connect 6 0 25 0;
#X connect 8 0 7 0;
#X connect 9 0 7 0;
#X connect 10 0 7 0;
#X connect 11 0 7 0;
#X connect 12 0 3 0;
#X connect 13 0 1 0;
#X connect 14 0 0 0;
#X connect 15 0 6 0;
#X connect 16 0 5 0;
#X connect 17 0 4 0;
#X connect 18 0 38 0;
#X connect 19 0 39 0;
#X connect 20 0 22 0;
#X connect 21 0 9 0;
#X connect 22 0 21 1;
#X connect 22 0 19 1;
#X connect 22 0 18 1;
#X connect 22 0 32 1;
#X connect 23 0 10 0;
#X connect 24 0 8 0;
#X connect 25 0 11 0;
#X connect 26 0 9 1;
#X connect 26 0 36 1;
#X connect 26 0 38 1;
#X connect 26 0 39 1;
#X connect 27 0 28 0;
#X connect 27 0 30 0;
#X connect 28 0 29 0;
#X connect 29 0 23 1;
#X connect 29 0 24 1;
#X connect 29 0 25 1;
#X connect 29 0 35 1;
#X connect 30 0 10 1;
#X connect 30 0 8 1;
#X connect 30 0 11 1;
#X connect 30 0 37 1;
#X connect 31 0 32 0;
#X connect 32 0 36 0;
#X connect 33 0 31 0;
#X connect 34 0 35 0;
#X connect 35 0 37 0;
#X connect 36 0 7 0;
#X connect 37 0 7 0;
#X connect 38 0 7 0;
#X connect 39 0 7 0;
#X connect 40 0 34 0;
#X restore 324 64 pd mute;
#N canvas 81 150 1027 579 overtone 0;
#X obj 195 138 vsl 15 128 0 127 0 0 empty empty empty 0 -9 0 10 -262144
-1 -1 0 1;
#X obj 217 138 vsl 15 128 0 127 0 0 empty empty empty 0 -9 0 10 -262144
-1 -1 0 1;
#X obj 237 139 vsl 15 128 0 127 0 0 empty empty empty 0 -9 0 10 -262144
-1 -1 0 1;
#X obj 259 139 vsl 15 128 0 127 0 0 empty empty empty 0 -9 0 10 -262144
-1 -1 0 1;
#X obj 282 139 vsl 15 128 0 127 0 0 empty empty empty 0 -9 0 10 -262144
-1 -1 8210 1;
#X obj 562 124 vsl 15 128 0 127 0 0 empty empty empty 0 -9 0 10 -262144
-1 -1 0 1;
#X obj 584 124 vsl 15 128 0 127 0 0 empty empty empty 0 -9 0 10 -262144
-1 -1 0 1;
#X obj 604 125 vsl 15 128 0 127 0 0 empty empty empty 0 -9 0 10 -262144
-1 -1 0 1;
#X obj 626 125 vsl 15 128 0 127 0 0 empty empty empty 0 -9 0 10 -262144
-1 -1 0 1;
#X obj 649 125 vsl 15 128 0 127 0 0 empty empty empty 0 -9 0 10 -262144
-1 -1 9365 1;
#X obj 119 382 s offset;
#X floatatom 119 360 5 0 0 0 - - -;
#X obj 119 303 loadbang;
#X msg 118 340 100;
#X obj 194 415 throw~ pmix;
#X obj 552 409 throw~ pmix;
#X obj 195 -7 r pf_lhT;
#X obj 213 16 r pf_lhI;
#X obj 237 36 r pf_lhM;
#X obj 257 12 r pf_lhR;
#X obj 280 -9 r pf_lhL;
#X obj 498 9 r pf_rhT;
#X obj 564 36 r pf_rhI;
#X obj 611 48 r pf_rhM;
#X obj 654 3 r pf_rhR;
#X obj 708 22 r pf_rhL;
#X obj 345 255 change;
#X obj 346 227 < 10;
#X obj 422 255 change;
#X obj 423 227 < 10;
#X obj 217 307 touch_release 37;
#X obj 195 284 touch_release 36;
#X obj 237 332 touch_release 38;
#X obj 259 355 touch_release 39;
#X obj 285 378 touch_release 40;
#X obj 562 279 touch_release 41;
#X obj 584 302 touch_release 42;
#X obj 604 326 touch_release 43;
#X obj 626 350 touch_release 44;
#X obj 651 373 touch_release 45;
#X connect 0 0 31 0;
#X connect 1 0 30 0;
#X connect 2 0 32 0;
#X connect 3 0 33 0;
#X connect 4 0 34 0;
#X connect 5 0 35 0;
#X connect 6 0 36 0;
#X connect 7 0 37 0;
#X connect 8 0 38 0;
#X connect 9 0 39 0;
#X connect 11 0 10 0;
#X connect 12 0 13 0;
#X connect 13 0 11 0;
#X connect 16 0 0 0;
#X connect 17 0 1 0;
#X connect 18 0 2 0;
#X connect 18 0 29 0;
#X connect 19 0 3 0;
#X connect 20 0 4 0;
#X connect 21 0 5 0;
#X connect 22 0 6 0;
#X connect 23 0 7 0;
#X connect 23 0 27 0;
#X connect 24 0 8 0;
#X connect 25 0 9 0;
#X connect 26 0 30 1;
#X connect 26 0 31 1;
#X connect 26 0 32 1;
#X connect 26 0 33 1;
#X connect 26 0 34 1;
#X connect 27 0 26 0;
#X connect 28 0 35 1;
#X connect 28 0 36 1;
#X connect 28 0 37 1;
#X connect 28 0 38 1;
#X connect 28 0 39 1;
#X connect 29 0 28 0;
#X connect 30 0 14 0;
#X connect 31 0 14 0;
#X connect 32 0 14 0;
#X connect 33 0 14 0;
#X connect 34 0 14 0;
#X connect 35 0 15 0;
#X connect 36 0 15 0;
#X connect 37 0 15 0;
#X connect 38 0 15 0;
#X connect 39 0 15 0;
#X restore 324 83 pd overtone;
#X obj 378 396 declare -path external_x86;
#X msg 54 40 devices;
#X msg 46 16 close;
#X obj 42 240 unpack 0 0 0 0 0;
#X obj 161 237 unpack 0 0 0 0 0;
#X obj 42 270 vsl 15 100 0 127 0 0 empty empty empty 0 -9 0 10 -191407
-1 -1 6400 1;
#X obj 65 270 vsl 15 100 0 127 0 0 empty empty empty 0 -9 0 10 -262144
-1 -1 0 1;
#X obj 88 270 vsl 15 100 0 127 0 0 empty empty empty 0 -9 0 10 -261234
-1 -1 0 1;
#X obj 111 270 vsl 15 100 0 127 0 0 empty empty empty 0 -9 0 10 -204800
-1 -1 0 1;
#X obj 135 270 vsl 15 100 0 127 0 0 empty empty empty 0 -9 0 10 -262144
-1 -1 0 1;
#X obj 163 270 vsl 15 100 0 127 0 0 empty empty empty 0 -9 0 10 -262144
-1 -1 0 1;
#X obj 185 272 vsl 15 100 0 127 0 0 empty empty empty 0 -9 0 10 -204800
-1 -1 0 1;
#X obj 209 270 vsl 15 100 0 127 0 0 empty empty empty 0 -9 0 10 -261234
-1 -1 0 1;
#X obj 232 270 vsl 15 100 0 127 0 0 empty empty empty 0 -9 0 10 -262144
-1 -1 0 1;
#X obj 256 269 vsl 15 100 0 127 0 0 empty empty empty 0 -9 0 10 -191407
-1 -1 7300 1;
#X obj 141 67 r toAVR;
#X msg 110 46 devicename /dev/ttyUSB0;
#X obj 417 23 loadbang;
#X msg 417 51 \; pd dsp 1;
#X obj 110 19 loadbang;
#X obj 423 245 shutdown;
#X obj 268 177 pc_confirm;
#X obj 268 221 s preset;
#N canvas 0 22 450 300 ping 0;
#X obj 161 62 inlet;
#X obj 223 161 print;
#X msg 222 127 received a ping;
#X obj 161 159 s toAVR;
#X msg 161 122 162;
#X connect 0 0 2 0;
#X connect 0 0 4 0;
#X connect 2 0 1 0;
#X connect 4 0 3 0;
#X restore 372 246 pd ping;
#X floatatom 268 200 5 0 0 0 - - -;
#N canvas 230 326 402 330 timbre 0;
#N canvas 569 480 482 368 freqshift 0;
#X obj 130 191 hilbert~;
#X obj 135 239 *~;
#X obj 182 239 *~;
#X obj 199 196 cos~;
#X obj 243 195 cos~;
#X obj 109 143 inlet~;
#X obj 235 163 +~ 0.25;
#X obj 193 126 phasor~;
#X obj 193 103 line~;
#X obj 192 77 pack 0 20;
#X obj 145 271 +~;
#X obj 100 341 outlet~;
#X floatatom 249 44 5 0 0 0 - - -;
#X obj 194 58 / 15;
#X obj 281 26 inlet;
#X obj 340 227 / 127;
#X obj 335 266 pack 0 10;
#X obj 335 288 line~;
#X obj 147 307 *~;
#X connect 0 0 1 0;
#X connect 0 1 2 0;
#X connect 1 0 10 0;
#X connect 2 0 10 1;
#X connect 3 0 1 1;
#X connect 4 0 2 1;
#X connect 5 0 0 0;
#X connect 5 0 11 0;
#X connect 6 0 4 0;
#X connect 7 0 6 0;
#X connect 7 0 3 0;
#X connect 8 0 7 0;
#X connect 9 0 8 0;
#X connect 10 0 18 0;
#X connect 12 0 13 0;
#X connect 12 0 15 0;
#X connect 13 0 9 0;
#X connect 14 0 12 0;
#X connect 15 0 16 0;
#X connect 16 0 17 0;
#X connect 17 0 18 1;
#X connect 18 0 11 0;
#X restore 150 105 pd freqshift;
#X floatatom 242 28 5 0 0 0 - - -;
#X floatatom 303 16 5 0 0 0 - - -;
#X obj 148 166 throw~ pmix;
#N canvas 24 316 508 329 chorus 0;
#X obj 95 112 inlet~;
#X obj 234 283 outlet~;
#X obj 26 288 delwrite~ chorus 1000;
#X obj 257 238 vd~ chorus;
#X obj 262 141 osc~;
#X obj 256 206 +~ 10;
#X obj 324 123 line~;
#X obj 313 71 pack 0 50;
#X obj 260 168 *~;
#X obj 328 7 inlet;
#X obj 326 185 /~ 40;
#X obj 370 32 / 15;
#X connect 0 0 2 0;
#X connect 0 0 1 0;
#X connect 3 0 1 0;
#X connect 4 0 8 0;
#X connect 5 0 3 0;
#X connect 6 0 4 0;
#X connect 6 0 10 0;
#X connect 7 0 6 0;
#X connect 8 0 5 0;
#X connect 9 0 11 0;
#X connect 10 0 8 1;
#X connect 11 0 7 0;
#X restore 150 80 pd chorus;
#N canvas 139 105 630 700 phase 0;
#X obj 119 512 *~;
#X obj 86 512 *~;
#X obj 86 534 -~;
#X obj 235 510 *~;
#X obj 204 510 *~;
#X obj 204 532 +~;
#X obj 176 194 *~;
#X obj 145 194 *~;
#X obj 117 194 *~;
#X obj 86 194 *~;
#X obj 86 219 +~;
#X obj 225 381 *~;
#X obj 341 427 rfft~;
#X obj 175 162 rfft~;
#X obj 80 614 rifft~;
#X obj 66 687 outlet~;
#X obj 195 381 *~;
#X obj 195 403 +~;
#X obj 191 219 -~;
#X obj 86 479 *~;
#X obj 119 480 *~;
#X obj 88 358 +~ 1e-15;
#X obj 80 637 *~;
#X obj 195 427 q8_rsqrt~;
#N canvas 154 183 814 576 read-windows 0;
#X obj 50 -433 *~;
#X obj 136 -437 *~;
#X obj 50 -399 outlet~;
#X obj 137 -401 outlet~;
#X floatatom 53 -574 5 0 0 0 - - -;
#X obj 183 -427 tabreceive~ pf_hann;
#X obj 35 -736 r pf_rhT;
#X obj 56 -604 * 0.8;
#X obj 91 -736 r pf_rhI;
#X obj 149 -736 r pf_rhM;
#X obj 209 -736 r pf_rhR;
#X obj 416 -769 r pf_rh_sum;
#X obj 481 -707 spigot;
#X obj 513 -785 > 10;
#X obj 514 -759 change;
#X obj 443 -683 > 0;
#X text 563 -760 little finger should be pressed;
#X text 493 -651 zero to non-zero;
#X obj 443 -654 change;
#X obj 353 -829 r pf_rh_centroid;
#X floatatom 355 -790 5 0 0 0 - - -;
#X obj 444 -627 sel 1;
#X obj 401 -600 i;
#X obj 405 -509 symbol;
#X msg 403 -485 set pf_\$1;
#X obj 512 -812 r pf_lhL;
#X msg 439 -541 m34;
#X msg 474 -540 o44;
#X msg 507 -538 o54;
#X obj 69 -689 == 1;
#X obj 355 -755 change;
#X obj 35 -654 spigot;
#X obj 93 -655 spigot;
#X obj 159 -656 spigot;
#X obj 217 -657 spigot;
#X obj 193 -691 == 3;
#X obj 127 -689 == 2;
#X obj 251 -692 == 4;
#X obj 261 -490 line~;
#X obj 261 -520 pack 0 100;
#X obj 136 -489 *~;
#X obj 49 -486 *~;
#X obj 248 -564 > 10;
#X obj 265 -544 *;
#X obj 404 -570 sel 1 2 3 4;
#X floatatom 685 -490 5 0 0 0 - - -;
#X obj 694 -646 loadbang;
#X msg 706 -616 0;
#X obj 678 -529 line 0 25;
#X obj 699 -556 pack 0 200;
#X obj 49 -540 pv_grain pf_m22;
#X obj 717 -582 r pf_rhT;
#X msg 407 -542 m44;
#X connect 0 0 2 0;
#X connect 1 0 3 0;
#X connect 4 0 50 0;
#X connect 5 0 1 1;
#X connect 5 0 0 1;
#X connect 6 0 31 0;
#X connect 7 0 4 0;
#X connect 8 0 32 0;
#X connect 9 0 33 0;
#X connect 10 0 34 0;
#X connect 11 0 12 0;
#X connect 11 0 42 0;
#X connect 12 0 15 0;
#X connect 13 0 14 0;
#X connect 14 0 12 1;
#X connect 14 0 43 1;
#X connect 15 0 18 0;
#X connect 18 0 21 0;
#X connect 19 0 20 0;
#X connect 20 0 30 0;
#X connect 21 0 22 0;
#X connect 22 0 44 0;
#X connect 23 0 24 0;
#X connect 24 0 50 1;
#X connect 25 0 13 0;
#X connect 26 0 23 0;
#X connect 27 0 23 0;
#X connect 28 0 23 0;
#X connect 29 0 31 1;
#X connect 30 0 22 1;
#X connect 30 0 29 0;
#X connect 30 0 35 0;
#X connect 30 0 36 0;
#X connect 30 0 37 0;
#X connect 31 0 7 0;
#X connect 32 0 7 0;
#X connect 33 0 7 0;
#X connect 34 0 7 0;
#X connect 35 0 33 1;
#X connect 36 0 32 1;
#X connect 37 0 34 1;
#X connect 38 0 40 1;
#X connect 38 0 41 1;
#X connect 39 0 38 0;
#X connect 40 0 1 0;
#X connect 41 0 0 0;
#X connect 42 0 43 0;
#X connect 43 0 39 0;
#X connect 44 0 52 0;
#X connect 44 1 26 0;
#X connect 44 2 27 0;
#X connect 44 3 28 0;
#X connect 45 0 50 2;
#X connect 46 0 47 0;
#X connect 47 0 48 0;
#X connect 48 0 45 0;
#X connect 49 0 48 0;
#X connect 50 0 41 0;
#X connect 50 1 40 0;
#X connect 51 0 49 0;
#X connect 52 0 23 0;
#X restore 262 130 pd read-windows;
#X obj 188 70 *~;
#X obj 156 70 *~;
#X obj 156 92 +~;
#X obj 226 95 q8_rsqrt~;
#X obj 226 72 +~ 1e-20;
#X obj 140 120 *~;
#X obj 86 119 *~;
#X obj 113 637 tabreceive~ pf_hann;
#X obj 439 455 block~ 2048 4;
#X obj 205 578 tabsend~ prev-imagR;
#X obj 204 602 tabsend~ prev-realR;
#X obj 81 661 *~ 0.000325552;
#X obj 87 9 tabreceive~ prev-realR;
#X obj 140 30 tabreceive~ prev-imagR;
#X connect 0 0 2 1;
#X connect 1 0 2 0;
#X connect 2 0 14 0;
#X connect 2 0 35 0;
#X connect 3 0 5 1;
#X connect 4 0 5 0;
#X connect 5 0 34 0;
#X connect 5 0 14 1;
#X connect 6 0 18 1;
#X connect 7 0 18 0;
#X connect 8 0 10 1;
#X connect 9 0 10 0;
#X connect 10 0 21 0;
#X connect 11 0 17 1;
#X connect 12 0 1 1;
#X connect 12 0 3 1;
#X connect 12 1 0 1;
#X connect 12 1 4 1;
#X connect 13 0 9 1;
#X connect 13 0 7 1;
#X connect 13 1 6 1;
#X connect 13 1 8 1;
#X connect 14 0 22 0;
#X connect 16 0 17 0;
#X connect 17 0 23 0;
#X connect 18 0 11 0;
#X connect 18 0 11 1;
#X connect 18 0 20 0;
#X connect 19 0 1 0;
#X connect 19 0 4 0;
#X connect 20 0 0 0;
#X connect 20 0 3 0;
#X connect 21 0 16 1;
#X connect 21 0 16 0;
#X connect 21 0 19 0;
#X connect 22 0 36 0;
#X connect 23 0 20 1;
#X connect 23 0 19 1;
#X connect 24 0 13 0;
#X connect 24 1 12 0;
#X connect 25 0 27 1;
#X connect 26 0 27 0;
#X connect 27 0 29 0;
#X connect 28 0 30 1;
#X connect 28 0 31 1;
#X connect 29 0 28 0;
#X connect 30 0 8 0;
#X connect 30 0 7 0;
#X connect 31 0 9 0;
#X connect 31 0 6 0;
#X connect 32 0 22 1;
#X connect 36 0 15 0;
#X connect 37 0 26 1;
#X connect 37 0 26 0;
#X connect 37 0 31 0;
#X connect 38 0 25 1;
#X connect 38 0 25 0;
#X connect 38 0 30 0;
#X restore 150 55 pd phase;
#X obj 304 -51 r pf_rhR;
#X obj 243 -51 r pf_rhM;
#X obj 16 206 table prev-imagR 1024;
#X obj 15 232 table prev-realR 1024;
#X obj 152 208 table prev-imagL 1024;
#X obj 152 234 table prev-realL 1024;
#N canvas 569 480 482 368 freqshift 0;
#X obj 130 191 hilbert~;
#X obj 135 239 *~;
#X obj 182 239 *~;
#X obj 199 196 cos~;
#X obj 243 195 cos~;
#X obj 109 143 inlet~;
#X obj 235 163 +~ 0.25;
#X obj 193 126 phasor~;
#X obj 193 103 line~;
#X obj 192 77 pack 0 20;
#X obj 145 271 +~;
#X obj 100 341 outlet~;
#X floatatom 249 44 5 0 0 0 - - -;
#X obj 194 58 / 15;
#X obj 281 26 inlet;
#X obj 340 227 / 127;
#X obj 335 266 pack 0 10;
#X obj 335 288 line~;
#X obj 147 307 *~;
#X connect 0 0 1 0;
#X connect 0 1 2 0;
#X connect 1 0 10 0;
#X connect 2 0 10 1;
#X connect 3 0 1 1;
#X connect 4 0 2 1;
#X connect 5 0 0 0;
#X connect 5 0 11 0;
#X connect 6 0 4 0;
#X connect 7 0 6 0;
#X connect 7 0 3 0;
#X connect 8 0 7 0;
#X connect 9 0 8 0;
#X connect 10 0 18 0;
#X connect 12 0 13 0;
#X connect 12 0 15 0;
#X connect 13 0 9 0;
#X connect 14 0 12 0;
#X connect 15 0 16 0;
#X connect 16 0 17 0;
#X connect 17 0 18 1;
#X connect 18 0 11 0;
#X restore 26 104 pd freqshift;
#X obj 26 171 throw~ pmix;
#N canvas 24 316 508 329 chorus 0;
#X obj 95 112 inlet~;
#X obj 234 283 outlet~;
#X obj 262 141 osc~;
#X obj 256 206 +~ 10;
#X obj 324 123 line~;
#X obj 313 71 pack 0 50;
#X obj 260 168 *~;
#X obj 328 7 inlet;
#X obj 326 185 /~ 40;
#X obj 370 32 / 15;
#X obj 26 288 delwrite~ chorusL 1000;
#X obj 256 239 vd~ chorusL;
#X connect 0 0 1 0;
#X connect 0 0 10 0;
#X connect 2 0 6 0;
#X connect 3 0 11 0;
#X connect 4 0 2 0;
#X connect 4 0 8 0;
#X connect 5 0 4 0;
#X connect 6 0 3 0;
#X connect 7 0 9 0;
#X connect 8 0 6 1;
#X connect 9 0 5 0;
#X connect 11 0 1 0;
#X restore 26 79 pd chorus;
#N canvas 584 55 630 700 phase 0;
#X obj 119 512 *~;
#X obj 86 512 *~;
#X obj 86 534 -~;
#X obj 235 510 *~;
#X obj 204 510 *~;
#X obj 204 532 +~;
#X obj 176 194 *~;
#X obj 145 194 *~;
#X obj 117 194 *~;
#X obj 86 194 *~;
#X obj 86 219 +~;
#X obj 225 381 *~;
#X obj 341 427 rfft~;
#X obj 175 162 rfft~;
#X obj 80 614 rifft~;
#X obj 66 687 outlet~;
#X obj 195 381 *~;
#X obj 195 403 +~;
#X obj 191 219 -~;
#X obj 86 479 *~;
#X obj 119 480 *~;
#X obj 88 358 +~ 1e-15;
#X obj 80 637 *~;
#X obj 195 427 q8_rsqrt~;
#N canvas 50 372 814 576 read-windows 0;
#X obj 49 -468 *~;
#X obj 136 -466 *~;
#X obj 49 -420 outlet~;
#X obj 136 -419 outlet~;
#X floatatom 53 -574 5 0 0 0 - - -;
#X obj 208 -465 tabreceive~ pf_hann;
#X obj 56 -604 * 0.8;
#X obj 446 -725 spigot;
#X obj 509 -757 change;
#X obj 443 -683 > 0;
#X text 563 -760 little finger should be pressed;
#X text 493 -651 zero to non-zero;
#X obj 443 -654 change;
#X floatatom 355 -790 5 0 0 0 - - -;
#X obj 444 -627 sel 1;
#X obj 401 -600 i;
#X obj 476 -504 symbol;
#X msg 476 -480 set pf_\$1;
#X msg 439 -541 m34;
#X msg 476 -540 o44;
#X obj 355 -755 change;
#X obj 35 -654 spigot;
#X obj 93 -655 spigot;
#X obj 159 -656 spigot;
#X obj 217 -657 spigot;
#X floatatom 675 -500 5 0 0 0 - - -;
#X obj 416 -769 r pf_lh_sum;
#X obj 353 -829 r pf_lh_centroid;
#X obj 707 -592 r pf_lhT;
#X obj 35 -752 r pf_lhT;
#X obj 91 -752 r pf_lhI;
#X obj 149 -752 r pf_lhM;
#X obj 209 -752 r pf_lhR;
#X obj 512 -812 r pf_rhL;
#X obj 458 -603 bng 15 250 50 0 empty empty empty 17 7 0 10 -262144
-1 -1;
#X obj 260 -504 line~;
#X obj 260 -534 pack 0 100;
#X obj 135 -503 *~;
#X obj 48 -500 *~;
#X obj 513 -785 > 15;
#X obj 684 -656 loadbang;
#X msg 696 -626 0;
#X obj 244 -579 *;
#X obj 211 -615 > 10;
#X msg 517 -541 o64;
#X obj 502 -724 tgl 15 0 empty empty empty 17 7 0 10 -262144 -1 -1
1 1;
#X obj 404 -570 sel 5 4 3 2;
#X floatatom 189 -798 5 0 0 0 - - -;
#X obj 69 -689 == 5;
#X obj 127 -689 == 4;
#X obj 193 -691 == 3;
#X obj 251 -692 == 2;
#X msg 408 -543 n44;
#X obj 668 -539 line 0 25;
#X obj 689 -566 pack 0 200;
#X obj 49 -540 pv_grain pf_m22;
#X connect 0 0 2 0;
#X connect 1 0 3 0;
#X connect 4 0 55 0;
#X connect 5 0 1 1;
#X connect 5 0 0 1;
#X connect 6 0 4 0;
#X connect 7 0 9 0;
#X connect 8 0 7 1;
#X connect 8 0 42 1;
#X connect 8 0 45 0;
#X connect 9 0 12 0;
#X connect 12 0 14 0;
#X connect 13 0 20 0;
#X connect 14 0 15 0;
#X connect 14 0 34 0;
#X connect 15 0 46 0;
#X connect 16 0 17 0;
#X connect 17 0 55 1;
#X connect 18 0 16 0;
#X connect 19 0 16 0;
#X connect 20 0 15 1;
#X connect 20 0 48 0;
#X connect 20 0 49 0;
#X connect 20 0 50 0;
#X connect 20 0 51 0;
#X connect 21 0 6 0;
#X connect 22 0 6 0;
#X connect 23 0 6 0;
#X connect 24 0 6 0;
#X connect 25 0 55 2;
#X connect 26 0 7 0;
#X connect 26 0 43 0;
#X connect 27 0 13 0;
#X connect 28 0 54 0;
#X connect 29 0 21 0;
#X connect 30 0 22 0;
#X connect 31 0 23 0;
#X connect 32 0 24 0;
#X connect 32 0 47 0;
#X connect 33 0 39 0;
#X connect 35 0 37 1;
#X connect 35 0 38 1;
#X connect 36 0 35 0;
#X connect 37 0 1 0;
#X connect 38 0 0 0;
#X connect 39 0 8 0;
#X connect 40 0 41 0;
#X connect 41 0 53 0;
#X connect 42 0 36 0;
#X connect 43 0 42 0;
#X connect 44 0 16 0;
#X connect 46 0 52 0;
#X connect 46 1 18 0;
#X connect 46 2 19 0;
#X connect 46 3 44 0;
#X connect 48 0 21 1;
#X connect 49 0 22 1;
#X connect 50 0 23 1;
#X connect 51 0 24 1;
#X connect 52 0 16 0;
#X connect 53 0 25 0;
#X connect 54 0 53 0;
#X connect 55 0 38 0;
#X connect 55 1 37 0;
#X restore 262 130 pd read-windows;
#X obj 188 70 *~;
#X obj 156 70 *~;
#X obj 156 92 +~;
#X obj 226 95 q8_rsqrt~;
#X obj 226 72 +~ 1e-20;
#X obj 140 120 *~;
#X obj 86 119 *~;
#X obj 113 637 tabreceive~ pf_hann;
#X obj 81 661 *~ 0.000325552;
#X obj 87 9 tabreceive~ prev-realL;
#X obj 140 30 tabreceive~ prev-imagL;
#X obj 205 601 tabsend~ prev-realL;
#X obj 205 578 tabsend~ prev-imagL;
#X obj 439 455 block~ 2048 4;
#X connect 0 0 2 1;
#X connect 1 0 2 0;
#X connect 2 0 14 0;
#X connect 2 0 36 0;
#X connect 3 0 5 1;
#X connect 4 0 5 0;
#X connect 5 0 14 1;
#X connect 5 0 37 0;
#X connect 6 0 18 1;
#X connect 7 0 18 0;
#X connect 8 0 10 1;
#X connect 9 0 10 0;
#X connect 10 0 21 0;
#X connect 11 0 17 1;
#X connect 12 0 1 1;
#X connect 12 0 3 1;
#X connect 12 1 0 1;
#X connect 12 1 4 1;
#X connect 13 0 9 1;
#X connect 13 0 7 1;
#X connect 13 1 6 1;
#X connect 13 1 8 1;
#X connect 14 0 22 0;
#X connect 16 0 17 0;
#X connect 17 0 23 0;
#X connect 18 0 11 0;
#X connect 18 0 11 1;
#X connect 18 0 20 0;
#X connect 19 0 1 0;
#X connect 19 0 4 0;
#X connect 20 0 0 0;
#X connect 20 0 3 0;
#X connect 21 0 16 1;
#X connect 21 0 16 0;
#X connect 21 0 19 0;
#X connect 22 0 33 0;
#X connect 23 0 20 1;
#X connect 23 0 19 1;
#X connect 24 0 13 0;
#X connect 24 1 12 0;
#X connect 25 0 27 1;
#X connect 26 0 27 0;
#X connect 27 0 29 0;
#X connect 28 0 30 1;
#X connect 28 0 31 1;
#X connect 29 0 28 0;
#X connect 30 0 8 0;
#X connect 30 0 7 0;
#X connect 31 0 9 0;
#X connect 31 0 6 0;
#X connect 32 0 22 1;
#X connect 33 0 15 0;
#X connect 34 0 26 1;
#X connect 34 0 26 0;
#X connect 34 0 31 0;
#X connect 35 0 25 1;
#X connect 35 0 25 0;
#X connect 35 0 30 0;
#X restore 26 54 pd phase;
#X floatatom 86 40 5 0 0 0 - - -;
#X floatatom 147 28 5 0 0 0 - - -;
#X obj 87 -39 r pf_lhM;
#X obj 148 -39 r pf_lhR;
#X connect 0 0 3 0;
#X connect 1 0 4 1;
#X connect 2 0 0 1;
#X connect 4 0 0 0;
#X connect 5 0 4 0;
#X connect 6 0 2 0;
#X connect 7 0 1 0;
#X connect 12 0 13 0;
#X connect 14 0 12 0;
#X connect 15 0 14 0;
#X connect 16 0 14 1;
#X connect 17 0 12 1;
#X connect 18 0 16 0;
#X connect 19 0 17 0;
#X restore 324 117 pd timbre;
#N canvas 357 269 450 384 data 0;
#X obj 62 -8 inlet;
#X obj 122 37 inlet;
#X obj 180 35 inlet;
#X obj 240 35 inlet;
#X obj 301 38 inlet;
#X obj 301 84 t f f;
#X obj 240 83 t f f;
#X obj 180 83 t f f;
#X obj 122 84 t f f;
#X obj 62 39 t f f;
#X obj 65 292 s pf_lh_centroid;
#X obj 213 288 s pf_lh_sum;
#X obj 186 59 s pf_lhM;
#X obj 310 60 s pf_lhT;
#X obj 74 16 s pf_lhL;
#X obj 128 60 s pf_lhR;
#X obj 246 58 s pf_lhI;
#X obj 140 224 t b f;
#X obj 342 232 loadbang;
#X msg 173 79 0;
#X msg 347 264 0;
#X obj 63 133 center;
#X obj 178 158 total;
#X obj 114 201 /;
#X obj 190 205 f;
#X floatatom 210 239 5 0 0 0 - - -;
#X floatatom 51 162 5 0 0 0 - - -;
#X connect 0 0 9 0;
#X connect 0 0 14 0;
#X connect 1 0 8 0;
#X connect 1 0 15 0;
#X connect 2 0 7 0;
#X connect 2 0 12 0;
#X connect 3 0 6 0;
#X connect 3 0 16 0;
#X connect 4 0 5 0;
#X connect 4 0 13 0;
#X connect 5 0 21 4;
#X connect 5 1 22 4;
#X connect 6 0 21 3;
#X connect 6 1 22 3;
#X connect 7 0 21 2;
#X connect 7 1 22 2;
#X connect 8 0 21 1;
#X connect 8 1 22 1;
#X connect 17 0 24 0;
#X connect 17 1 10 0;
#X connect 18 0 20 0;
#X connect 20 0 12 0;
#X connect 20 0 13 0;
#X connect 20 0 16 0;
#X connect 20 0 15 0;
#X connect 20 0 14 0;
#X connect 21 0 23 0;
#X connect 21 0 26 0;
#X connect 22 0 23 1;
#X connect 22 0 24 1;
#X connect 23 0 17 0;
#X connect 24 0 11 0;
#X connect 24 0 25 0;
#X restore 41 381 pd data;
#N canvas 321 351 566 331 data 0;
#X obj 76 -17 inlet;
#X obj 128 37 inlet;
#X obj 176 -8 inlet;
#X obj 227 37 inlet;
#X obj 280 -4 inlet;
#X obj 278 108 t f f;
#X obj 227 108 t f f;
#X obj 176 108 t f f;
#X obj 128 108 t f f;
#X obj 77 108 t f f;
#X obj 170 279 s pf_rh_centroid;
#X obj 82 4 s pf_rhT;
#X obj 137 60 s pf_rhI;
#X obj 185 15 s pf_rhM;
#X obj 237 60 s pf_rhR;
#X obj 291 19 s pf_rhL;
#X obj 295 281 s pf_rh_sum;
#X text 331 224 centroid should be sent first!;
#X obj 370 156 loadbang;
#X msg 370 184 0;
#X obj 208 205 /;
#X obj 78 162 center;
#X obj 224 167 total;
#X obj 284 209 f;
#X obj 234 228 t b f;
#X floatatom 293 232 5 0 0 0 - - -;
#X connect 0 0 9 0;
#X connect 0 0 11 0;
#X connect 1 0 8 0;
#X connect 1 0 12 0;
#X connect 2 0 7 0;
#X connect 2 0 13 0;
#X connect 3 0 6 0;
#X connect 3 0 14 0;
#X connect 4 0 5 0;
#X connect 4 0 15 0;
#X connect 6 0 21 3;
#X connect 6 1 22 3;
#X connect 7 0 21 2;
#X connect 7 1 22 2;
#X connect 8 0 21 1;
#X connect 8 1 22 1;
#X connect 9 0 21 0;
#X connect 9 1 22 0;
#X connect 18 0 19 0;
#X connect 19 0 13 0;
#X connect 19 0 15 0;
#X connect 19 0 14 0;
#X connect 19 0 12 0;
#X connect 19 0 11 0;
#X connect 20 0 24 0;
#X connect 21 0 20 0;
#X connect 22 0 20 1;
#X connect 22 0 23 1;
#X connect 23 0 25 0;
#X connect 23 0 16 0;
#X connect 24 0 23 0;
#X connect 24 1 10 0;
#X restore 163 381 pd data;
#X obj 417 119 throw~ pmix;
#X obj 376 286 catch~ pmix;
#X obj 417 89 jingle;
#X obj 42 117 uart_decode;
#X text 138 406 T;
#X text 116 405 I;
#X text 93 405 M;
#X text 67 402 R;
#X text 41 404 L;
#X text 165 407 T;
#X text 187 405 I;
#X text 215 405 M;
#X text 235 404 R;
#X text 269 403 L;
#X msg 177 105 open 2;
#N canvas 0 350 1316 760 string 0;
#X floatatom -53 67 5 0 0 0 - - -;
#X floatatom 67 67 5 0 0 0 - - -;
#X floatatom 184 67 5 0 0 0 - - -;
#X floatatom 375 116 5 0 0 0 - - -;
#X floatatom 291 67 5 0 0 0 - - -;
#X floatatom 615 80 5 0 0 0 - - -;
#X floatatom 742 80 5 0 0 0 - - -;
#X floatatom 854 80 5 0 0 0 - - -;
#X floatatom 953 84 5 0 0 0 - - -;
#X obj 291 32 r pf_lhI;
#X obj 184 32 r pf_lhM;
#X obj 67 32 r pf_lhR;
#X obj -53 32 r pf_lhL;
#X obj 953 49 r pf_rhL;
#X obj 854 45 r pf_rhR;
#X obj 742 45 r pf_rhM;
#X obj 615 45 r pf_rhI;
#X obj -53 209 spigot;
#X obj 69 209 spigot;
#X obj 186 212 spigot;
#X obj 291 209 spigot;
#X obj 324 172 change;
#X obj 615 228 spigot;
#X obj 744 226 spigot;
#X obj 854 231 spigot;
#X obj 953 220 spigot;
#X floatatom 685 131 5 0 0 0 - - -;
#X obj 637 196 change;
#X obj 326 149 <= 10;
#X obj 637 171 <= 10;
#X floatatom 409 71 5 0 0 0 - - -;
#X obj 409 36 r pf_lhT;
#X obj 401 208 spigot;
#X floatatom 525 78 5 0 0 0 - - -;
#X obj 525 214 spigot;
#X obj 525 43 r pf_rhT;
#X obj -74 664 throw~ pmix;
#X obj -63 631 *~ 0.3;
#X obj -97 527 pf_splay pf_s42;
#X obj -97 424 count 3;
#X obj -53 249 difference;
#X obj -53 282 t f f;
#X obj -73 312 > 15;
#X obj -73 337 change;
#X obj -73 361 sel 1;
#X obj -19 391 f;
#X obj -68 461 pack 0 0;
#X obj -91 385 t b b;
#X obj -60 486 route 0 1 2;
#X obj -60 554 pf_splay pf_s42;
#X obj -39 576 pf_splay pf_s42;
#X obj 50 671 throw~ pmix;
#X obj 61 638 *~ 0.3;
#X obj 27 431 count 3;
#X obj 71 256 difference;
#X obj 71 289 t f f;
#X obj 51 319 > 15;
#X obj 51 344 change;
#X obj 51 368 sel 1;
#X obj 105 398 f;
#X obj 56 468 pack 0 0;
#X obj 33 392 t b b;
#X obj 64 493 route 0 1 2;
#X obj 27 534 pf_splay pf_s45;
#X obj 64 561 pf_splay pf_s45;
#X obj 85 586 pf_splay pf_s45;
#X obj 185 682 throw~ pmix;
#X obj 196 649 *~ 0.3;
#X obj 162 442 count 3;
#X obj 206 300 t f f;
#X obj 186 330 > 15;
#X obj 186 355 change;
#X obj 186 379 sel 1;
#X obj 240 409 f;
#X obj 191 479 pack 0 0;
#X obj 168 403 t b b;
#X obj 199 504 route 0 1 2;
#X obj 194 272 difference;
#X obj 162 545 pf_splay pf_s48;
#X obj 199 572 pf_splay pf_s48;
#X obj 220 597 pf_splay pf_s48;
#X obj 308 686 throw~ pmix;
#X obj 319 653 *~ 0.3;
#X obj 285 446 count 3;
#X obj 329 304 t f f;
#X obj 309 334 > 15;
#X obj 309 359 change;
#X obj 309 383 sel 1;
#X obj 363 413 f;
#X obj 314 483 pack 0 0;
#X obj 291 407 t b b;
#X obj 322 508 route 0 1 2;
#X obj 432 693 throw~ pmix;
#X obj 443 660 *~ 0.3;
#X obj 409 453 count 3;
#X obj 453 311 t f f;
#X obj 433 341 > 15;
#X obj 433 366 change;
#X obj 433 390 sel 1;
#X obj 487 420 f;
#X obj 438 490 pack 0 0;
#X obj 415 414 t b b;
#X obj 446 515 route 0 1 2;
#X obj 578 671 *~ 0.3;
#X obj 544 464 count 3;
#X obj 568 322 t f f;
#X obj 568 352 > 15;
#X obj 568 377 change;
#X obj 568 401 sel 1;
#X obj 622 431 f;
#X obj 573 501 pack 0 0;
#X obj 550 425 t b b;
#X obj 581 526 route 0 1 2;
#X obj 285 549 pf_splay pf_s51;
#X obj 322 576 pf_splay pf_s51;
#X obj 343 598 pf_splay pf_s51;
#X obj 409 556 pf_splay pf_s52;
#X obj 446 583 pf_splay pf_s52;
#X obj 467 608 pf_splay pf_s52;
#X obj 544 567 pf_splay pf_s53;
#X obj 581 594 pf_splay pf_s53;
#X obj 602 619 pf_splay pf_s53;
#X obj 288 259 difference;
#X obj 412 266 difference;
#X obj 535 282 difference;
#X obj 570 700 throw~ pmix;
#X obj 703 684 *~ 0.3;
#X obj 669 477 count 3;
#X obj 693 335 t f f;
#X obj 693 365 > 15;
#X obj 693 390 change;
#X obj 693 414 sel 1;
#X obj 747 444 f;
#X obj 698 514 pack 0 0;
#X obj 675 438 t b b;
#X obj 706 539 route 0 1 2;
#X obj 695 713 throw~ pmix;
#X obj 706 607 pf_splay pf_s54;
#X obj 727 632 pf_splay pf_s54;
#X obj 669 580 pf_splay pf_s54;
#X obj 825 678 *~ 0.3;
#X obj 791 471 count 3;
#X obj 815 329 t f f;
#X obj 815 359 > 15;
#X obj 815 384 change;
#X obj 815 408 sel 1;
#X obj 869 438 f;
#X obj 820 508 pack 0 0;
#X obj 828 533 route 0 1 2;
#X obj 817 707 throw~ pmix;
#X obj 791 574 pf_splay pf_s56;
#X obj 828 601 pf_splay pf_s56;
#X obj 849 626 pf_splay pf_s56;
#X obj 800 442 t b b;
#X obj 965 678 *~ 0.3;
#X obj 931 471 count 3;
#X obj 955 329 t f f;
#X obj 955 359 > 15;
#X obj 955 384 change;
#X obj 955 408 sel 1;
#X obj 1009 438 f;
#X obj 960 508 pack 0 0;
#X obj 968 533 route 0 1 2;
#X obj 957 707 throw~ pmix;
#X obj 940 442 t b b;
#X obj 931 574 pf_splay pf_s64;
#X obj 968 601 pf_splay pf_s64;
#X obj 989 626 pf_splay pf_s64;
#X obj 1104 683 *~ 0.3;
#X obj 1070 476 count 3;
#X obj 1094 334 t f f;
#X obj 1094 364 > 15;
#X obj 1094 389 change;
#X obj 1094 413 sel 1;
#X obj 1148 443 f;
#X obj 1099 513 pack 0 0;
#X obj 1107 538 route 0 1 2;
#X obj 1096 712 throw~ pmix;
#X obj 1079 447 t b b;
#X obj 1070 579 pf_splay pf_s67;
#X obj 1107 606 pf_splay pf_s67;
#X obj 1128 631 pf_splay pf_s67;
#X obj 666 292 difference;
#X obj 800 276 difference;
#X obj 923 292 difference;
#X obj 1054 302 difference;
#X connect 0 0 17 0;
#X connect 1 0 18 0;
#X connect 2 0 19 0;
#X connect 2 0 26 0;
#X connect 3 0 28 0;
#X connect 4 0 20 0;
#X connect 5 0 22 0;
#X connect 6 0 23 0;
#X connect 6 0 3 0;
#X connect 7 0 24 0;
#X connect 8 0 25 0;
#X connect 9 0 4 0;
#X connect 10 0 2 0;
#X connect 11 0 1 0;
#X connect 12 0 0 0;
#X connect 13 0 8 0;
#X connect 14 0 7 0;
#X connect 15 0 6 0;
#X connect 16 0 5 0;
#X connect 17 0 40 0;
#X connect 18 0 54 0;
#X connect 19 0 77 0;
#X connect 20 0 122 0;
#X connect 21 0 20 1;
#X connect 21 0 19 1;
#X connect 21 0 18 1;
#X connect 21 0 17 1;
#X connect 21 0 32 1;
#X connect 22 0 182 0;
#X connect 23 0 183 0;
#X connect 24 0 184 0;
#X connect 25 0 185 0;
#X connect 26 0 29 0;
#X connect 27 0 22 1;
#X connect 27 0 23 1;
#X connect 27 0 24 1;
#X connect 27 0 25 1;
#X connect 27 0 34 1;
#X connect 28 0 21 0;
#X connect 29 0 27 0;
#X connect 30 0 32 0;
#X connect 31 0 30 0;
#X connect 32 0 123 0;
#X connect 33 0 34 0;
#X connect 34 0 124 0;
#X connect 35 0 33 0;
#X connect 37 0 36 0;
#X connect 38 0 37 0;
#X connect 39 0 46 0;
#X connect 40 0 41 0;
#X connect 41 0 42 0;
#X connect 41 1 45 1;
#X connect 42 0 43 0;
#X connect 43 0 44 0;
#X connect 44 0 47 0;
#X connect 45 0 46 1;
#X connect 46 0 48 0;
#X connect 47 0 39 0;
#X connect 47 1 45 0;
#X connect 48 0 38 0;
#X connect 48 1 49 0;
#X connect 48 2 50 0;
#X connect 49 0 37 0;
#X connect 50 0 37 0;
#X connect 52 0 51 0;
#X connect 53 0 60 0;
#X connect 54 0 55 0;
#X connect 55 0 56 0;
#X connect 55 1 59 1;
#X connect 56 0 57 0;
#X connect 57 0 58 0;
#X connect 58 0 61 0;
#X connect 59 0 60 1;
#X connect 60 0 62 0;
#X connect 61 0 53 0;
#X connect 61 1 59 0;
#X connect 62 0 63 0;
#X connect 62 1 64 0;
#X connect 62 2 65 0;
#X connect 63 0 52 0;
#X connect 64 0 52 0;
#X connect 65 0 52 0;
#X connect 67 0 66 0;
#X connect 68 0 74 0;
#X connect 69 0 70 0;
#X connect 69 1 73 1;
#X connect 70 0 71 0;
#X connect 71 0 72 0;
#X connect 72 0 75 0;
#X connect 73 0 74 1;
#X connect 74 0 76 0;
#X connect 75 0 68 0;
#X connect 75 1 73 0;
#X connect 76 0 78 0;
#X connect 76 1 79 0;
#X connect 76 2 80 0;
#X connect 77 0 69 0;
#X connect 78 0 67 0;
#X connect 79 0 67 0;
#X connect 80 0 67 0;
#X connect 82 0 81 0;
#X connect 83 0 89 0;
#X connect 84 0 85 0;
#X connect 84 1 88 1;
#X connect 85 0 86 0;
#X connect 86 0 87 0;
#X connect 87 0 90 0;
#X connect 88 0 89 1;
#X connect 89 0 91 0;
#X connect 90 0 83 0;
#X connect 90 1 88 0;
#X connect 91 0 113 0;
#X connect 91 1 114 0;
#X connect 91 2 115 0;
#X connect 93 0 92 0;
#X connect 94 0 100 0;
#X connect 95 0 96 0;
#X connect 95 1 99 1;
#X connect 96 0 97 0;
#X connect 97 0 98 0;
#X connect 98 0 101 0;
#X connect 99 0 100 1;
#X connect 100 0 102 0;
#X connect 101 0 94 0;
#X connect 101 1 99 0;
#X connect 102 0 116 0;
#X connect 102 1 117 0;
#X connect 102 2 118 0;
#X connect 103 0 125 0;
#X connect 104 0 110 0;
#X connect 105 0 106 0;
#X connect 105 1 109 1;
#X connect 106 0 107 0;
#X connect 107 0 108 0;
#X connect 108 0 111 0;
#X connect 109 0 110 1;
#X connect 110 0 112 0;
#X connect 111 0 104 0;
#X connect 111 1 109 0;
#X connect 112 0 119 0;
#X connect 112 1 120 0;
#X connect 112 2 121 0;
#X connect 113 0 82 0;
#X connect 114 0 82 0;
#X connect 115 0 82 0;
#X connect 116 0 93 0;
#X connect 117 0 93 0;
#X connect 118 0 93 0;
#X connect 119 0 103 0;
#X connect 120 0 103 0;
#X connect 121 0 103 0;
#X connect 122 0 84 0;
#X connect 123 0 95 0;
#X connect 124 0 105 0;
#X connect 126 0 136 0;
#X connect 127 0 133 0;
#X connect 128 0 129 0;
#X connect 128 1 132 1;
#X connect 129 0 130 0;
#X connect 130 0 131 0;
#X connect 131 0 134 0;
#X connect 132 0 133 1;
#X connect 133 0 135 0;
#X connect 134 0 127 0;
#X connect 134 1 132 0;
#X connect 135 0 139 0;
#X connect 135 1 137 0;
#X connect 135 2 138 0;
#X connect 137 0 126 0;
#X connect 138 0 126 0;
#X connect 139 0 126 0;
#X connect 140 0 149 0;
#X connect 141 0 147 0;
#X connect 142 0 143 0;
#X connect 142 1 146 1;
#X connect 143 0 144 0;
#X connect 144 0 145 0;
#X connect 145 0 153 0;
#X connect 146 0 147 1;
#X connect 147 0 148 0;
#X connect 148 0 150 0;
#X connect 148 1 151 0;
#X connect 148 2 152 0;
#X connect 150 0 140 0;
#X connect 151 0 140 0;
#X connect 152 0 140 0;
#X connect 153 0 141 0;
#X connect 153 1 146 0;
#X connect 154 0 163 0;
#X connect 155 0 161 0;
#X connect 156 0 157 0;
#X connect 156 1 160 1;
#X connect 157 0 158 0;
#X connect 158 0 159 0;
#X connect 159 0 164 0;
#X connect 160 0 161 1;
#X connect 161 0 162 0;
#X connect 162 0 165 0;
#X connect 162 1 166 0;
#X connect 162 2 167 0;
#X connect 164 0 155 0;
#X connect 164 1 160 0;
#X connect 165 0 154 0;
#X connect 166 0 154 0;
#X connect 167 0 154 0;
#X connect 168 0 177 0;
#X connect 169 0 175 0;
#X connect 170 0 171 0;
#X connect 170 1 174 1;
#X connect 171 0 172 0;
#X connect 172 0 173 0;
#X connect 173 0 178 0;
#X connect 174 0 175 1;
#X connect 175 0 176 0;
#X connect 176 0 179 0;
#X connect 176 1 180 0;
#X connect 176 2 181 0;
#X connect 178 0 169 0;
#X connect 178 1 174 0;
#X connect 179 0 168 0;
#X connect 180 0 168 0;
#X connect 181 0 168 0;
#X connect 182 0 128 0;
#X connect 183 0 142 0;
#X connect 184 0 156 0;
#X connect 185 0 170 0;
#X restore 322 24 pd string;
#N canvas 308 188 945 676 scraping 0;
#X obj 204 403 pf_finger 27;
#X obj 260 427 pf_finger 28;
#X obj 445 353 pf_finger 73;
#X obj 556 407 pf_finger 82;
#X obj 501 381 pf_finger 40;
#X obj 93 344 pf_finger 25;
#X obj 148 382 pf_finger 26;
#X obj 391 331 pf_finger 43;
#X obj 404 110 > 30;
#X obj 404 139 change;
#X obj 343 218 sel 0;
#X obj 390 266 spigot;
#X floatatom 390 302 5 0 0 0 - - -;
#X obj 445 267 spigot;
#X floatatom 445 303 5 0 0 0 - - -;
#X obj 501 267 spigot;
#X floatatom 501 303 5 0 0 0 - - -;
#X obj 556 268 spigot;
#X floatatom 556 304 5 0 0 0 - - -;
#X obj 404 170 t f f;
#X msg 343 255 0;
#X floatatom 404 86 5 0 0 0 - - -;
#X obj 107 113 > 30;
#X obj 107 142 change;
#X obj 46 226 sel 0;
#X obj 93 274 spigot;
#X floatatom 93 310 5 0 0 0 - - -;
#X obj 148 275 spigot;
#X floatatom 148 311 5 0 0 0 - - -;
#X obj 204 275 spigot;
#X floatatom 204 311 5 0 0 0 - - -;
#X obj 259 276 spigot;
#X floatatom 259 312 5 0 0 0 - - -;
#X obj 107 173 t f f;
#X msg 46 263 0;
#X floatatom 107 89 5 0 0 0 - - -;
#X obj 148 247 r pf_lhM;
#X obj 204 247 r pf_lhR;
#X obj 259 248 r pf_lhL;
#X obj 556 240 r pf_rhL;
#X obj 501 239 r pf_rhR;
#X obj 445 239 r pf_rhM;
#X obj 107 54 r pf_lhI;
#X obj 93 246 r pf_lhT;
#X obj 404 51 r pf_rhI;
#X obj 390 238 r pf_rhT;
#X obj 274 506 *~ 0.5;
#X obj 277 567 throw~ pmix;
#X connect 0 0 46 0;
#X connect 1 0 46 0;
#X connect 2 0 46 0;
#X connect 3 0 46 0;
#X connect 4 0 46 0;
#X connect 5 0 46 0;
#X connect 6 0 46 0;
#X connect 7 0 46 0;
#X connect 8 0 9 0;
#X connect 9 0 19 0;
#X connect 10 0 20 0;
#X connect 11 0 12 0;
#X connect 12 0 7 0;
#X connect 13 0 14 0;
#X connect 14 0 2 0;
#X connect 15 0 16 0;
#X connect 16 0 4 0;
#X connect 17 0 18 0;
#X connect 18 0 3 0;
#X connect 19 0 10 0;
#X connect 19 1 11 1;
#X connect 19 1 13 1;
#X connect 19 1 15 1;
#X connect 19 1 17 1;
#X connect 20 0 12 0;
#X connect 20 0 14 0;
#X connect 20 0 16 0;
#X connect 20 0 18 0;
#X connect 21 0 8 0;
#X connect 22 0 23 0;
#X connect 23 0 33 0;
#X connect 24 0 34 0;
#X connect 25 0 26 0;
#X connect 26 0 5 0;
#X connect 27 0 28 0;
#X connect 28 0 6 0;
#X connect 29 0 30 0;
#X connect 30 0 0 0;
#X connect 31 0 32 0;
#X connect 32 0 1 0;
#X connect 33 0 24 0;
#X connect 33 1 25 1;
#X connect 33 1 27 1;
#X connect 33 1 29 1;
#X connect 33 1 31 1;
#X connect 34 0 26 0;
#X connect 34 0 28 0;
#X connect 34 0 30 0;
#X connect 34 0 32 0;
#X connect 35 0 22 0;
#X connect 36 0 27 0;
#X connect 37 0 29 0;
#X connect 38 0 31 0;
#X connect 39 0 17 0;
#X connect 40 0 15 0;
#X connect 41 0 13 0;
#X connect 42 0 35 0;
#X connect 43 0 25 0;
#X connect 44 0 21 0;
#X connect 45 0 11 0;
#X connect 46 0 47 0;
#X restore 324 45 pd scraping;
#X obj 407 332 rev2~ 90 70 3999 19;
#N canvas 170 335 1118 161 fromMIDI_________ 0;
#X obj -237 75 outlet;
#X obj -134 74 outlet;
#X obj -28 76 outlet;
#X obj 75 75 outlet;
#X obj 180 75 outlet;
#X obj 283 74 outlet;
#X obj 389 76 outlet;
#X obj 492 75 outlet;
#X obj 597 76 outlet;
#X obj 700 75 outlet;
#X obj -134 46 pf_touch 43 44;
#X obj -237 47 pf_touch 40 41;
#X obj -28 48 pf_touch 47 48;
#X obj 75 47 pf_touch 50 51;
#X obj 180 47 pf_touch 53 54;
#X obj 700 47 pf_touch 77 78;
#X obj 597 48 pf_touch 74 75;
#X obj 389 48 pf_touch 67 68;
#X obj 283 46 pf_touch 64 65;
#X obj 492 47 pf_touch 71 72;
#X connect 10 0 1 0;
#X connect 11 0 0 0;
#X connect 12 0 2 0;
#X connect 13 0 3 0;
#X connect 14 0 4 0;
#X connect 15 0 9 0;
#X connect 16 0 8 0;
#X connect 17 0 6 0;
#X connect 18 0 5 0;
#X connect 19 0 7 0;
#X restore 80 196 pd fromMIDI_________;
#X obj 43 90 comport 2 57600;
#X obj 44 152 route 128 129 130 144 145 240;
#X connect 3 0 4 0;
#X connect 5 0 0 1;
#X connect 5 0 0 0;
#X connect 5 0 53 0;
#X connect 9 0 55 0;
#X connect 10 0 55 0;
#X connect 11 0 17 0;
#X connect 11 1 16 0;
#X connect 11 2 14 0;
#X connect 11 3 13 0;
#X connect 11 4 15 0;
#X connect 12 0 22 0;
#X connect 12 1 21 0;
#X connect 12 2 19 0;
#X connect 12 3 18 0;
#X connect 12 4 20 0;
#X connect 13 0 34 0;
#X connect 14 0 34 1;
#X connect 15 0 34 2;
#X connect 16 0 34 3;
#X connect 17 0 34 4;
#X connect 18 0 35 0;
#X connect 19 0 35 1;
#X connect 20 0 35 2;
#X connect 21 0 35 3;
#X connect 22 0 35 4;
#X connect 23 0 55 0;
#X connect 24 0 55 0;
#X connect 25 0 26 0;
#X connect 27 0 24 0;
#X connect 29 0 32 0;
#X connect 32 0 30 0;
#X connect 37 0 5 0;
#X connect 38 0 36 0;
#X connect 39 0 56 0;
#X connect 50 0 55 0;
#X connect 53 0 0 0;
#X connect 53 0 0 1;
#X connect 54 0 13 0;
#X connect 54 1 14 0;
#X connect 54 2 15 0;
#X connect 54 3 16 0;
#X connect 54 4 17 0;
#X connect 54 5 18 0;
#X connect 54 6 19 0;
#X connect 54 7 20 0;
#X connect 54 8 21 0;
#X connect 54 9 22 0;
#X connect 55 0 39 0;
#X connect 56 0 11 0;
#X connect 56 1 12 0;
#X connect 56 3 29 0;
#X connect 56 4 31 0;
#X connect 56 5 28 0;
