#N canvas 858 118 543 537 10;
#X declare -path lib;
#X declare -path flute;
#X declare -path external_x86;
#X obj 377 371 dac~;
#X obj 378 429 declare -path lib;
#X obj 378 453 declare -path flute;
#N canvas 21 22 1394 856 samples 0;
#X obj 1078 361 soundfiler;
#X obj 1208 79 loadbang;
#X obj 1035 35 table hann;
#X msg 1062 151 49;
#X obj 1141 179 until;
#X obj 1077 776 soundfiler;
#X msg 1199 620 10;
#X obj 1199 651 until;
#X obj 1201 561 list split 1;
#X obj 1199 485 until;
#X obj 1201 516 list append;
#X obj 1198 457 t b l;
#X obj 1330 508 bang;
#X msg 1141 148 64;
#X obj 1062 182 until;
#X obj 1217 178 until;
#X msg 1307 154 37;
#X obj 1307 186 until;
#X obj 1199 712 pack;
#X obj 1201 587 t b f;
#X msg 1195 425 24 27 28 44 43 40 73 82 84 87 25 26 32;
#X obj 1193 392 loadbang;
#X msg 1217 148 48;
#X msg 1038 103 read -resize hann.wav hann;
#X obj 15 30 table pf_m22;
#X obj 15 50 table pf_m23;
#X obj 15 70 table pf_m24;
#X obj 15 90 table pf_m25;
#X obj 15 110 table pf_m26;
#X obj 15 130 table pf_m27;
#X obj 15 150 table pf_m28;
#X obj 15 170 table pf_m29;
#X obj 15 190 table pf_m30;
#X obj 15 210 table pf_m31;
#X obj 15 230 table pf_m32;
#X obj 15 250 table pf_m33;
#X obj 15 270 table pf_m34;
#X obj 15 290 table pf_m35;
#X obj 15 310 table pf_m36;
#X obj 15 331 table pf_m37;
#X obj 15 350 table pf_m38;
#X obj 15 370 table pf_m39;
#X obj 15 390 table pf_m40;
#X obj 15 410 table pf_m41;
#X obj 96 29 table pf_m42;
#X obj 96 49 table pf_m43;
#X obj 96 69 table pf_m44;
#X obj 96 89 table pf_m45;
#X obj 96 109 table pf_m46;
#X obj 96 129 table pf_m47;
#X obj 96 149 table pf_m48;
#X obj 96 169 table pf_m49;
#X obj 96 189 table pf_m50;
#X obj 96 209 table pf_m51;
#X obj 96 229 table pf_m52;
#X obj 96 249 table pf_m53;
#X obj 96 269 table pf_m54;
#X obj 96 289 table pf_m55;
#X obj 96 309 table pf_m56;
#X obj 96 329 table pf_m57;
#X obj 96 349 table pf_m58;
#X obj 96 369 table pf_m59;
#X obj 96 388 table pf_m60;
#X obj 96 409 table pf_m61;
#X obj 178 30 table pf_m62;
#X obj 178 50 table pf_m63;
#X obj 178 70 table pf_m64;
#X obj 178 90 table pf_m65;
#X obj 178 110 table pf_m66;
#X obj 178 130 table pf_m67;
#X obj 178 150 table pf_m68;
#X obj 178 170 table pf_m69;
#X obj 178 190 table pf_m70;
#X obj 259 29 table pf_n35;
#X obj 259 49 table pf_n36;
#X obj 259 69 table pf_n37;
#X obj 259 89 table pf_n38;
#X obj 259 109 table pf_n39;
#X obj 259 129 table pf_n40;
#X obj 259 149 table pf_n41;
#X obj 259 169 table pf_n42;
#X obj 259 189 table pf_n43;
#X obj 259 209 table pf_n44;
#X obj 259 229 table pf_n45;
#X obj 259 249 table pf_n46;
#X obj 259 269 table pf_n47;
#X obj 259 289 table pf_n48;
#X obj 259 309 table pf_n49;
#X obj 259 329 table pf_n50;
#X obj 259 349 table pf_n51;
#X obj 259 369 table pf_n52;
#X obj 259 389 table pf_n53;
#X obj 259 409 table pf_n54;
#X obj 341 28 table pf_n55;
#X obj 341 48 table pf_n56;
#X obj 341 68 table pf_n57;
#X obj 341 88 table pf_n58;
#X obj 342 108 table pf_n59;
#X obj 341 128 table pf_n60;
#X obj 341 148 table pf_n61;
#X obj 341 168 table pf_n62;
#X obj 341 188 table pf_n63;
#X obj 341 208 table pf_n64;
#X obj 341 228 table pf_n65;
#X obj 341 248 table pf_n66;
#X obj 341 268 table pf_n67;
#X obj 341 288 table pf_n68;
#X obj 341 308 table pf_n69;
#X obj 341 328 table pf_n70;
#X obj 341 348 table pf_n71;
#X obj 341 368 table pf_n72;
#X obj 341 388 table pf_n73;
#X obj 341 408 table pf_n74;
#X obj 422 29 table pf_n75;
#X obj 422 49 table pf_n76;
#X obj 422 69 table pf_n77;
#X obj 422 89 table pf_n78;
#X obj 423 109 table pf_n79;
#X obj 422 129 table pf_n80;
#X obj 422 149 table pf_n81;
#X obj 422 169 table pf_n82;
#X obj 422 189 table pf_n83;
#X obj 422 209 table pf_n84;
#X obj 422 229 table pf_n85;
#X obj 422 249 table pf_n86;
#X obj 422 269 table pf_n87;
#X obj 422 289 table pf_n88;
#X obj 422 309 table pf_n89;
#X obj 422 329 table pf_n90;
#X obj 422 349 table pf_n91;
#X obj 422 369 table pf_n92;
#X obj 422 389 table pf_n93;
#X obj 422 409 table pf_n94;
#X obj 501 31 table pf_n95;
#X obj 501 51 table pf_n96;
#X obj 501 71 table pf_n97;
#X obj 501 91 table pf_n98;
#X obj 580 34 table pf_o21;
#X obj 580 54 table pf_o22;
#X obj 581 74 table pf_o23;
#X obj 580 94 table pf_o24;
#X obj 580 114 table pf_o25;
#X obj 580 134 table pf_o26;
#X obj 580 154 table pf_o27;
#X obj 580 174 table pf_o28;
#X obj 580 194 table pf_o29;
#X obj 580 214 table pf_o30;
#X obj 580 234 table pf_o31;
#X obj 580 254 table pf_o32;
#X obj 580 274 table pf_o33;
#X obj 580 294 table pf_o34;
#X obj 580 314 table pf_o35;
#X obj 580 334 table pf_o36;
#X obj 580 354 table pf_o37;
#X obj 580 374 table pf_o38;
#X obj 580 394 table pf_o39;
#X obj 580 414 table pf_o40;
#X obj 662 37 table pf_o41;
#X obj 662 57 table pf_o42;
#X obj 662 77 table pf_o43;
#X obj 662 97 table pf_o44;
#X obj 662 117 table pf_o45;
#X obj 662 137 table pf_o46;
#X obj 662 157 table pf_o47;
#X obj 662 177 table pf_o48;
#X obj 662 197 table pf_o49;
#X obj 662 217 table pf_o50;
#X obj 662 237 table pf_o51;
#X obj 662 257 table pf_o52;
#X obj 662 277 table pf_o53;
#X obj 662 297 table pf_o54;
#X obj 662 317 table pf_o55;
#X obj 662 337 table pf_o56;
#X obj 662 357 table pf_o57;
#X obj 662 377 table pf_o58;
#X obj 662 397 table pf_o59;
#X obj 662 417 table pf_o60;
#X obj 742 36 table pf_o61;
#X obj 742 56 table pf_o62;
#X obj 742 76 table pf_o63;
#X obj 742 96 table pf_o64;
#X obj 742 116 table pf_o65;
#X obj 742 136 table pf_o66;
#X obj 742 156 table pf_o67;
#X obj 742 176 table pf_o68;
#X obj 742 196 table pf_o69;
#X obj 825 37 table pf_s36;
#X obj 825 57 table pf_s37;
#X obj 825 77 table pf_s38;
#X obj 825 97 table pf_s39;
#X obj 825 117 table pf_s40;
#X obj 825 138 table pf_s41;
#X obj 825 157 table pf_s42;
#X obj 825 177 table pf_s43;
#X obj 825 197 table pf_s44;
#X obj 825 217 table pf_s45;
#X obj 825 237 table pf_s46;
#X obj 825 257 table pf_s47;
#X obj 825 277 table pf_s48;
#X obj 825 297 table pf_s49;
#X obj 825 317 table pf_s50;
#X obj 825 337 table pf_s51;
#X obj 825 357 table pf_s52;
#X obj 825 378 table pf_s53;
#X obj 825 397 table pf_s54;
#X obj 825 417 table pf_s55;
#X obj 909 39 table pf_s56;
#X obj 910 58 table pf_s57;
#X obj 909 79 table pf_s58;
#X obj 909 99 table pf_s59;
#X obj 909 119 table pf_s60;
#X obj 909 139 table pf_s61;
#X obj 909 159 table pf_s62;
#X obj 909 179 table pf_s63;
#X obj 909 199 table pf_s64;
#X obj 909 219 table pf_s65;
#X obj 909 239 table pf_s66;
#X obj 909 259 table pf_s67;
#X obj 909 279 table pf_s68;
#X obj 909 299 table pf_s69;
#X obj 909 319 table pf_s70;
#X obj 909 339 table pf_s71;
#X obj 909 359 table pf_s72;
#X obj 12 443 table pf_24_0;
#X obj 12 460 table pf_24_1;
#X obj 12 477 table pf_24_2;
#X obj 12 494 table pf_24_3;
#X obj 12 511 table pf_24_4;
#X obj 13 528 table pf_24_5;
#X obj 13 545 table pf_24_6;
#X obj 13 562 table pf_24_7;
#X obj 13 579 table pf_24_8;
#X obj 13 596 table pf_24_9;
#X obj 98 444 table pf_25_0;
#X obj 99 461 table pf_25_1;
#X obj 99 478 table pf_25_2;
#X obj 100 495 table pf_25_3;
#X obj 99 512 table pf_25_4;
#X obj 99 529 table pf_25_5;
#X obj 99 546 table pf_25_6;
#X obj 99 563 table pf_25_7;
#X obj 182 444 table pf_26_0;
#X obj 182 461 table pf_26_1;
#X obj 182 478 table pf_26_2;
#X obj 183 495 table pf_26_3;
#X obj 182 512 table pf_26_4;
#X obj 183 529 table pf_26_5;
#X obj 183 546 table pf_26_6;
#X obj 183 563 table pf_26_7;
#X obj 184 580 table pf_26_8;
#X obj 184 597 table pf_26_9;
#X obj 98 580 table pf_25_8;
#X obj 97 597 table pf_25_9;
#X obj 269 444 table pf_27_0;
#X obj 269 461 table pf_27_1;
#X obj 269 478 table pf_27_2;
#X obj 269 495 table pf_27_3;
#X obj 269 512 table pf_27_4;
#X obj 269 529 table pf_27_5;
#X obj 269 546 table pf_27_6;
#X obj 269 563 table pf_27_7;
#X obj 269 580 table pf_27_8;
#X obj 269 597 table pf_27_9;
#X obj 358 444 table pf_28_0;
#X obj 358 461 table pf_28_1;
#X obj 358 478 table pf_28_2;
#X obj 358 495 table pf_28_3;
#X obj 359 512 table pf_28_4;
#X obj 359 529 table pf_28_5;
#X obj 359 546 table pf_28_6;
#X obj 359 563 table pf_28_7;
#X obj 359 580 table pf_28_8;
#X obj 359 597 table pf_28_9;
#X obj 454 444 table pf_32_0;
#X obj 454 461 table pf_32_1;
#X obj 454 478 table pf_32_2;
#X obj 454 495 table pf_32_3;
#X obj 454 512 table pf_32_4;
#X obj 454 529 table pf_32_5;
#X obj 454 546 table pf_32_6;
#X obj 454 563 table pf_32_7;
#X obj 454 580 table pf_32_8;
#X obj 454 597 table pf_32_9;
#X obj 546 447 table pf_44_0;
#X obj 547 464 table pf_44_1;
#X obj 548 481 table pf_44_2;
#X obj 548 498 table pf_44_3;
#X obj 549 515 table pf_44_4;
#X obj 549 532 table pf_44_5;
#X obj 550 549 table pf_44_6;
#X obj 551 566 table pf_44_7;
#X obj 552 583 table pf_44_8;
#X obj 553 600 table pf_44_9;
#X obj 644 451 table pf_43_0;
#X obj 644 468 table pf_43_1;
#X obj 644 485 table pf_43_2;
#X obj 645 502 table pf_43_3;
#X obj 646 519 table pf_43_4;
#X obj 647 536 table pf_43_5;
#X obj 648 553 table pf_43_6;
#X obj 649 570 table pf_43_7;
#X obj 647 587 table pf_43_8;
#X obj 649 604 table pf_43_9;
#X obj 737 455 table pf_40_0;
#X obj 738 472 table pf_40_1;
#X obj 738 489 table pf_40_2;
#X obj 738 506 table pf_40_3;
#X obj 737 523 table pf_40_4;
#X obj 738 540 table pf_40_5;
#X obj 739 557 table pf_40_6;
#X obj 740 574 table pf_40_7;
#X obj 740 591 table pf_40_8;
#X obj 741 608 table pf_40_9;
#X obj 1089 456 table pf_73_0;
#X obj 1090 473 table pf_73_1;
#X obj 1090 490 table pf_73_2;
#X obj 1090 507 table pf_73_3;
#X obj 1090 524 table pf_73_4;
#X obj 1090 541 table pf_73_5;
#X obj 1089 558 table pf_73_6;
#X obj 1090 575 table pf_73_7;
#X obj 1090 592 table pf_73_8;
#X obj 1090 609 table pf_73_9;
#X obj 999 454 table pf_82_0;
#X obj 999 471 table pf_82_1;
#X obj 999 488 table pf_82_2;
#X obj 999 505 table pf_82_3;
#X obj 1000 522 table pf_82_4;
#X obj 1000 539 table pf_82_5;
#X obj 1000 556 table pf_82_6;
#X obj 1000 573 table pf_82_7;
#X obj 999 590 table pf_82_8;
#X obj 999 607 table pf_82_9;
#X obj 825 449 table pf_84_0;
#X obj 825 469 table pf_84_1;
#X obj 825 488 table pf_84_2;
#X obj 825 507 table pf_84_3;
#X obj 826 526 table pf_84_4;
#X obj 826 546 table pf_84_5;
#X obj 826 565 table pf_84_6;
#X obj 825 584 table pf_84_7;
#X obj 825 603 table pf_84_8;
#X obj 825 622 table pf_84_9;
#X obj 912 452 table pf_87_0;
#X obj 912 473 table pf_87_1;
#X obj 912 491 table pf_87_2;
#X obj 912 510 table pf_87_3;
#X obj 913 529 table pf_87_4;
#X obj 913 549 table pf_87_5;
#X obj 913 568 table pf_87_6;
#X obj 914 586 table pf_87_7;
#X obj 911 606 table pf_87_8;
#X obj 912 625 table pf_87_9;
#X msg 1073 244 read -resize piano/mute/mute_\$1.wav pf_m\$1;
#X msg 1109 269 read -resize piano/mute2/mute2_\$1.wav pf_n\$1;
#X msg 1144 289 read -resize piano/overtone/overtone_\$1.wav pf_o\$1
;
#X msg 1167 316 read -resize piano/string/string_\$1.wav pf_s\$1;
#X msg 1075 749 read -resize piano/scratch/scratch_\$2_\$1.wav pf_\$2_\$1
;
#X obj 1066 212 cnt 22;
#X obj 1141 210 cnt 35;
#X obj 1218 219 cnt 21;
#X obj 1307 219 cnt 36;
#X obj 1200 683 cnt 0 10;
#X connect 1 0 3 0;
#X connect 1 0 13 0;
#X connect 1 0 22 0;
#X connect 1 0 16 0;
#X connect 1 0 23 0;
#X connect 3 0 14 0;
#X connect 4 0 359 0;
#X connect 6 0 7 0;
#X connect 7 0 362 0;
#X connect 8 0 19 0;
#X connect 8 1 10 1;
#X connect 8 2 12 0;
#X connect 9 0 10 0;
#X connect 10 0 8 0;
#X connect 11 0 9 0;
#X connect 11 1 10 1;
#X connect 12 0 9 1;
#X connect 13 0 4 0;
#X connect 14 0 358 0;
#X connect 15 0 360 0;
#X connect 16 0 17 0;
#X connect 17 0 361 0;
#X connect 18 0 357 0;
#X connect 19 0 6 0;
#X connect 19 1 18 1;
#X connect 20 0 11 0;
#X connect 21 0 20 0;
#X connect 22 0 15 0;
#X connect 23 0 0 0;
#X connect 353 0 0 0;
#X connect 354 0 0 0;
#X connect 355 0 0 0;
#X connect 356 0 0 0;
#X connect 357 0 5 0;
#X connect 358 0 353 0;
#X connect 359 0 354 0;
#X connect 360 0 355 0;
#X connect 361 0 356 0;
#X connect 362 0 18 0;
#X restore 377 474 pd samples;
#X obj 224 460 loadmeter;
#X floatatom 224 487 5 0 0 0 - - -;
#X obj 376 310 *~ 0.8;
#N canvas 386 88 945 676 scratch 0;
#X obj 63 376 pf_finger 24;
#X obj 63 232 vsl 15 128 0 127 0 0 empty empty empty 0 -9 0 10 -262144
-1 -1 0 1;
#X obj 159 237 vsl 15 128 0 127 0 0 empty empty empty 0 -9 0 10 -262144
-1 -1 0 1;
#X obj 203 237 vsl 15 128 0 127 0 0 empty empty empty 0 -9 0 10 -262144
-1 -1 0 1;
#X obj 307 235 vsl 15 128 0 127 0 0 empty empty empty 0 -9 0 10 -262144
-1 -1 0 1;
#X obj 433 229 vsl 15 128 0 127 0 0 empty empty empty 0 -9 0 10 -262144
-1 -1 0 1;
#X obj 456 229 vsl 15 128 0 127 0 0 empty empty empty 0 -9 0 10 -262144
-1 -1 0 1;
#X obj 383 245 vsl 15 128 0 127 0 0 empty empty empty 0 -9 0 10 -262144
-1 -1 0 1;
#X obj 502 229 vsl 15 128 0 127 0 0 empty empty empty 0 -9 0 10 -262144
-1 -1 0 1;
#X obj 525 230 vsl 15 128 0 127 0 0 empty empty empty 0 -9 0 10 -262144
-1 -1 0 1;
#X obj 90 234 vsl 15 128 0 127 0 0 empty empty empty 0 -9 0 10 -262144
-1 -1 0 1;
#X obj 120 236 vsl 15 128 0 127 0 0 empty empty empty 0 -9 0 10 -262144
-1 -1 0 1;
#X obj 342 239 vsl 15 128 0 127 0 0 empty empty empty 0 -9 0 10 -262144
-1 -1 0 1;
#X obj 258 102 inlet;
#X obj 25 172 spigot;
#X obj 302 173 spigot;
#X obj 258 132 tgl 15 0 empty empty empty 17 7 0 10 -262144 -1 -1 0
1;
#X obj 70 173 spigot;
#X obj 118 171 spigot;
#X obj 163 172 spigot;
#X obj 209 172 spigot;
#X obj 355 178 spigot;
#X obj 404 175 spigot;
#X obj 457 180 spigot;
#X obj 510 181 spigot;
#X obj 152 460 pf_finger 27;
#X obj 176 486 pf_finger 28;
#X obj 455 397 pf_finger 73;
#X obj 388 435 pf_finger 82;
#X obj 502 441 pf_finger 84;
#X obj 538 472 pf_finger 87;
#X obj 311 416 pf_finger 44;
#X obj 433 375 pf_finger 40;
#X obj 92 402 pf_finger 25;
#X obj 121 428 pf_finger 26;
#X obj 338 490 pf_finger 43;
#X obj 299 555 throw~ pmix;
#X obj 26 73 r pf_lh5;
#X obj 70 99 r pf_lh4;
#X obj 118 69 r pf_lh3;
#X obj 163 98 r pf_lh2;
#X obj 211 72 r pf_lh1;
#X obj 302 96 r pf_rh1;
#X obj 353 75 r pf_rh2;
#X obj 404 98 r pf_rh3;
#X obj 457 103 r pf_rh4;
#X obj 509 77 r pf_rh5;
#X obj 649 187 sel 1;
#X obj 679 271 switch~ 64 1 1;
#X msg 641 234 set 64 1 1 \, 1;
#X connect 0 0 36 0;
#X connect 1 0 0 0;
#X connect 2 0 25 0;
#X connect 3 0 26 0;
#X connect 4 0 31 0;
#X connect 5 0 32 0;
#X connect 6 0 27 0;
#X connect 7 0 28 0;
#X connect 8 0 29 0;
#X connect 9 0 30 0;
#X connect 10 0 33 0;
#X connect 11 0 34 0;
#X connect 12 0 35 0;
#X connect 13 0 16 0;
#X connect 14 0 1 0;
#X connect 15 0 4 0;
#X connect 16 0 15 1;
#X connect 16 0 14 1;
#X connect 16 0 17 1;
#X connect 16 0 18 1;
#X connect 16 0 19 1;
#X connect 16 0 20 1;
#X connect 16 0 21 1;
#X connect 16 0 22 1;
#X connect 16 0 23 1;
#X connect 16 0 24 1;
#X connect 16 0 47 0;
#X connect 17 0 10 0;
#X connect 18 0 11 0;
#X connect 19 0 2 0;
#X connect 20 0 3 0;
#X connect 21 0 12 0;
#X connect 22 0 7 0;
#X connect 23 0 5 0;
#X connect 24 0 6 0;
#X connect 25 0 36 0;
#X connect 26 0 36 0;
#X connect 27 0 36 0;
#X connect 28 0 36 0;
#X connect 29 0 36 0;
#X connect 30 0 36 0;
#X connect 31 0 36 0;
#X connect 32 0 36 0;
#X connect 33 0 36 0;
#X connect 34 0 36 0;
#X connect 35 0 36 0;
#X connect 37 0 14 0;
#X connect 38 0 17 0;
#X connect 39 0 18 0;
#X connect 40 0 19 0;
#X connect 41 0 20 0;
#X connect 42 0 15 0;
#X connect 43 0 21 0;
#X connect 44 0 22 0;
#X connect 45 0 23 0;
#X connect 46 0 24 0;
#X connect 47 0 49 0;
#X connect 47 1 48 0;
#X connect 49 0 48 0;
#X restore 324 45 pd scratch;
#N canvas 258 92 829 552 mute 0;
#X floatatom 89 302 5 0 0 0 - - -;
#X floatatom 64 249 5 0 0 0 - - -;
#X floatatom 150 304 5 0 0 0 - - -;
#X floatatom 125 251 5 0 0 0 - - -;
#X floatatom 211 303 5 0 0 0 - - -;
#X floatatom 186 250 5 0 0 0 - - -;
#X floatatom 272 305 5 0 0 0 - - -;
#X floatatom 247 252 5 0 0 0 - - -;
#X floatatom 336 306 5 0 0 0 - - -;
#X floatatom 311 253 5 0 0 0 - - -;
#X floatatom 417 307 5 0 0 0 - - -;
#X floatatom 392 254 5 0 0 0 - - -;
#X floatatom 478 309 5 0 0 0 - - -;
#X floatatom 453 256 5 0 0 0 - - -;
#X floatatom 539 308 5 0 0 0 - - -;
#X floatatom 514 255 5 0 0 0 - - -;
#X floatatom 600 310 5 0 0 0 - - -;
#X floatatom 575 257 5 0 0 0 - - -;
#X floatatom 664 311 5 0 0 0 - - -;
#X floatatom 639 258 5 0 0 0 - - -;
#X obj 337 108 inlet;
#X obj 25 172 spigot;
#X obj 381 179 spigot;
#X obj 337 138 tgl 15 0 empty empty empty 17 7 0 10 -262144 -1 -1 0
1;
#X obj 70 173 spigot;
#X obj 118 171 spigot;
#X obj 163 172 spigot;
#X obj 209 172 spigot;
#X obj 434 184 spigot;
#X obj 483 181 spigot;
#X obj 536 186 spigot;
#X obj 589 187 spigot;
#X obj 311 344 pf_muted m42;
#X obj 419 444 throw~ pmix;
#X obj 25 98 r pf_lh5;
#X obj 70 121 r pf_lh4;
#X obj 118 97 r pf_lh3;
#X obj 163 119 r pf_lh2;
#X obj 209 98 r pf_lh1;
#X obj 381 102 r pf_rh1;
#X obj 434 122 r pf_rh2;
#X obj 483 104 r pf_rh3;
#X obj 536 124 r pf_rh4;
#X obj 589 110 r pf_rh5;
#X obj 709 150 sel 1;
#X obj 739 234 switch~ 64 1 1;
#X msg 701 197 set 64 1 1 \, 1;
#X obj 515 371 pf_muted m57;
#X obj 45 340 pf_muted m22;
#X obj 126 367 pf_muted m27;
#X obj 187 341 pf_muted m32;
#X obj 248 369 pf_muted m37;
#X obj 393 370 pf_muted m47;
#X obj 453 347 pf_muted m52;
#X obj 575 348 pf_muted m62;
#X obj 639 373 pf_muted m67;
#X connect 0 0 48 1;
#X connect 1 0 48 0;
#X connect 2 0 49 1;
#X connect 3 0 49 0;
#X connect 4 0 50 1;
#X connect 5 0 50 0;
#X connect 6 0 51 1;
#X connect 7 0 51 0;
#X connect 8 0 32 1;
#X connect 9 0 32 0;
#X connect 10 0 52 1;
#X connect 11 0 52 0;
#X connect 12 0 53 1;
#X connect 13 0 53 0;
#X connect 14 0 47 1;
#X connect 15 0 47 0;
#X connect 16 0 54 1;
#X connect 17 0 54 0;
#X connect 18 0 55 1;
#X connect 19 0 55 0;
#X connect 20 0 23 0;
#X connect 21 0 1 0;
#X connect 21 0 18 0;
#X connect 22 0 8 0;
#X connect 22 0 11 0;
#X connect 23 0 22 1;
#X connect 23 0 21 1;
#X connect 23 0 24 1;
#X connect 23 0 25 1;
#X connect 23 0 26 1;
#X connect 23 0 27 1;
#X connect 23 0 28 1;
#X connect 23 0 29 1;
#X connect 23 0 30 1;
#X connect 23 0 31 1;
#X connect 23 0 44 0;
#X connect 24 0 3 0;
#X connect 24 0 16 0;
#X connect 25 0 5 0;
#X connect 25 0 14 0;
#X connect 26 0 7 0;
#X connect 26 0 12 0;
#X connect 27 0 9 0;
#X connect 27 0 10 0;
#X connect 28 0 6 0;
#X connect 28 0 13 0;
#X connect 29 0 4 0;
#X connect 29 0 15 0;
#X connect 30 0 2 0;
#X connect 30 0 17 0;
#X connect 31 0 0 0;
#X connect 31 0 19 0;
#X connect 32 0 33 0;
#X connect 34 0 21 0;
#X connect 35 0 24 0;
#X connect 36 0 25 0;
#X connect 37 0 26 0;
#X connect 38 0 27 0;
#X connect 39 0 22 0;
#X connect 40 0 28 0;
#X connect 41 0 29 0;
#X connect 42 0 30 0;
#X connect 43 0 31 0;
#X connect 44 0 46 0;
#X connect 44 1 45 0;
#X connect 46 0 45 0;
#X connect 47 0 33 0;
#X connect 48 0 33 0;
#X connect 49 0 33 0;
#X connect 50 0 33 0;
#X connect 51 0 33 0;
#X connect 52 0 33 0;
#X connect 53 0 33 0;
#X connect 54 0 33 0;
#X connect 55 0 33 0;
#X restore 324 64 pd mute;
#N canvas 351 168 1027 579 overtone 0;
#X obj 195 138 vsl 15 128 0 127 0 0 empty empty empty 0 -9 0 10 -262144
-1 -1 0 1;
#X obj 217 138 vsl 15 128 0 127 0 0 empty empty empty 0 -9 0 10 -262144
-1 -1 0 1;
#X obj 237 139 vsl 15 128 0 127 0 0 empty empty empty 0 -9 0 10 -262144
-1 -1 0 1;
#X obj 259 139 vsl 15 128 0 127 0 0 empty empty empty 0 -9 0 10 -262144
-1 -1 0 1;
#X obj 282 139 vsl 15 128 0 127 0 0 empty empty empty 0 -9 0 10 -262144
-1 -1 0 1;
#X obj 562 124 vsl 15 128 0 127 0 0 empty empty empty 0 -9 0 10 -262144
-1 -1 0 1;
#X obj 584 124 vsl 15 128 0 127 0 0 empty empty empty 0 -9 0 10 -262144
-1 -1 0 1;
#X obj 604 125 vsl 15 128 0 127 0 0 empty empty empty 0 -9 0 10 -262144
-1 -1 0 1;
#X obj 626 125 vsl 15 128 0 127 0 0 empty empty empty 0 -9 0 10 -262144
-1 -1 0 1;
#X obj 649 125 vsl 15 128 0 127 0 0 empty empty empty 0 -9 0 10 -262144
-1 -1 0 1;
#X obj 119 382 s offset;
#X floatatom 119 360 5 0 0 0 - - -;
#X obj 119 303 loadbang;
#X msg 119 339 100;
#X obj 414 -6 inlet;
#X obj 195 65 spigot;
#X obj 420 18 tgl 15 0 empty empty empty 17 7 0 10 -262144 -1 -1 0
1;
#X obj 217 87 spigot;
#X obj 237 108 spigot;
#X obj 281 64 spigot;
#X obj 259 88 spigot;
#X obj 560 47 spigot;
#X obj 582 69 spigot;
#X obj 602 90 spigot;
#X obj 646 46 spigot;
#X obj 624 70 spigot;
#X obj 194 415 throw~ pmix;
#X obj 552 409 throw~ pmix;
#X obj 195 -7 r pf_lh5;
#X obj 216 14 r pf_lh4;
#X obj 237 36 r pf_lh3;
#X obj 257 12 r pf_lh2;
#X obj 280 -8 r pf_lh1;
#X obj 560 -25 r pf_rh1;
#X obj 581 -4 r pf_rh2;
#X obj 602 18 r pf_rh3;
#X obj 622 -6 r pf_rh4;
#X obj 645 -26 r pf_rh5;
#X obj 835 23 sel 1;
#X obj 865 107 switch~ 64 1 1;
#X msg 827 70 set 64 1 1 \, 1;
#X obj 195 284 touch_release 36;
#X obj 217 307 touch_release 37;
#X obj 237 332 touch_release 38;
#X obj 259 355 touch_release 39;
#X obj 285 378 touch_release 40;
#X obj 562 279 touch_release 41;
#X obj 584 302 touch_release 42;
#X obj 604 326 touch_release 43;
#X obj 626 350 touch_release 44;
#X obj 651 373 touch_release 45;
#X connect 0 0 41 0;
#X connect 1 0 42 0;
#X connect 2 0 43 0;
#X connect 3 0 44 0;
#X connect 4 0 45 0;
#X connect 5 0 46 0;
#X connect 6 0 47 0;
#X connect 7 0 48 0;
#X connect 8 0 49 0;
#X connect 9 0 50 0;
#X connect 11 0 10 0;
#X connect 12 0 13 0;
#X connect 13 0 11 0;
#X connect 14 0 16 0;
#X connect 15 0 0 0;
#X connect 16 0 15 1;
#X connect 16 0 17 1;
#X connect 16 0 18 1;
#X connect 16 0 20 1;
#X connect 16 0 19 1;
#X connect 16 0 21 1;
#X connect 16 0 22 1;
#X connect 16 0 23 1;
#X connect 16 0 25 1;
#X connect 16 0 24 1;
#X connect 16 0 38 0;
#X connect 17 0 1 0;
#X connect 18 0 2 0;
#X connect 19 0 4 0;
#X connect 20 0 3 0;
#X connect 21 0 5 0;
#X connect 22 0 6 0;
#X connect 23 0 7 0;
#X connect 24 0 9 0;
#X connect 25 0 8 0;
#X connect 28 0 15 0;
#X connect 29 0 17 0;
#X connect 30 0 18 0;
#X connect 31 0 20 0;
#X connect 32 0 19 0;
#X connect 33 0 21 0;
#X connect 34 0 22 0;
#X connect 35 0 23 0;
#X connect 36 0 25 0;
#X connect 37 0 24 0;
#X connect 38 0 40 0;
#X connect 38 1 39 0;
#X connect 40 0 39 0;
#X connect 41 0 26 0;
#X connect 42 0 26 0;
#X connect 43 0 26 0;
#X connect 44 0 26 0;
#X connect 45 0 26 0;
#X connect 46 0 27 0;
#X connect 47 0 27 0;
#X connect 48 0 27 0;
#X connect 49 0 27 0;
#X connect 50 0 27 0;
#X restore 324 83 pd overtone;
#X obj 407 332 rev2~ 80 70 3999 19;
#X obj 378 396 declare -path external_x86;
#X msg 54 40 devices;
#X msg 46 16 close;
#X obj 42 240 unpack 0 0 0 0 0;
#X obj 161 237 unpack 0 0 0 0 0;
#X obj 44 152 route 128 129 130 144 145 240;
#X obj 42 273 vsl 15 100 0 127 0 0 empty empty empty 0 -9 0 10 -204800
-1 -1 0 1;
#X obj 65 273 vsl 15 100 0 127 0 0 empty empty empty 0 -9 0 10 -262144
-1 -1 0 1;
#X obj 88 273 vsl 15 100 0 127 0 0 empty empty empty 0 -9 0 10 -262144
-1 -1 0 1;
#X obj 111 273 vsl 15 100 0 127 0 0 empty empty empty 0 -9 0 10 -262144
-1 -1 0 1;
#X obj 135 273 vsl 15 100 0 127 0 0 empty empty empty 0 -9 0 10 -262144
-1 -1 0 1;
#X obj 163 273 vsl 15 100 0 127 0 0 empty empty empty 0 -9 0 10 -262144
-1 -1 0 1;
#X obj 186 273 vsl 15 100 0 127 0 0 empty empty empty 0 -9 0 10 -262144
-1 -1 0 1;
#X obj 209 273 vsl 15 100 0 127 0 0 empty empty empty 0 -9 0 10 -262144
-1 -1 0 1;
#X obj 232 273 vsl 15 100 0 127 0 0 empty empty empty 0 -9 0 10 -262144
-1 -1 0 1;
#X obj 256 273 vsl 15 100 0 127 0 0 empty empty empty 0 -9 0 10 -204800
-1 -1 0 1;
#X obj 285 273 vsl 15 100 0 127 0 0 empty empty empty 0 -9 0 10 -261682
-1 -1 0 1;
#X obj 141 67 r toAVR;
#X msg 110 46 devicename /dev/ttyUSB0;
#X obj 417 23 loadbang;
#X msg 417 51 \; pd dsp 1;
#X obj 110 19 loadbang;
#X obj 423 245 shutdown;
#X obj 268 177 pc_confirm;
#X obj 268 221 s preset;
#N canvas 0 22 450 300 ping 0;
#X obj 161 62 inlet;
#X obj 223 161 print;
#X msg 222 127 received a ping;
#X obj 161 159 s toAVR;
#X msg 161 122 162;
#X connect 0 0 2 0;
#X connect 0 0 4 0;
#X connect 2 0 1 0;
#X connect 4 0 3 0;
#X restore 372 246 pd ping;
#X obj 267 18 r preset;
#X obj 267 45 == 0;
#X obj 267 64 == 1;
#X obj 267 83 == 2;
#X obj 302 45 tgl 15 0 empty empty empty 17 7 0 10 -262144 -1 -1 0
1;
#X obj 302 64 tgl 15 0 empty empty empty 17 7 0 10 -262144 -1 -1 0
1;
#X obj 302 83 tgl 15 0 empty empty empty 17 7 0 10 -262144 -1 -1 1
1;
#X obj 304 102 tgl 15 0 empty empty empty 17 7 0 10 -262144 -1 -1 0
1;
#X floatatom 268 200 5 0 0 0 - - -;
#N canvas 457 179 705 371 timbre 0;
#X obj 58 48 inlet;
#N canvas 322 64 821 693 phase 0;
#X obj 118 478 *~;
#X obj 85 478 *~;
#X obj 85 500 -~;
#X obj 234 476 *~;
#X obj 203 476 *~;
#X obj 203 498 +~;
#X obj 176 194 *~;
#X obj 145 194 *~;
#X obj 117 194 *~;
#X obj 86 194 *~;
#X obj 86 219 +~;
#X obj 224 347 *~;
#X obj 87 623 *~;
#X obj 305 397 rfft~;
#X obj 175 162 rfft~;
#X obj 86 576 rifft~;
#X obj 88 647 outlet~;
#X obj 194 347 *~;
#X obj 194 369 +~;
#X obj 191 219 -~;
#X obj 85 445 *~;
#X obj 118 446 *~;
#X obj 194 623 r window-size;
#X obj 87 324 +~ 1e-15;
#X obj 86 599 *~;
#X obj 194 644 expr 2/(3*$f1);
#X obj 194 393 q8_rsqrt~;
#N canvas 476 88 1006 799 read-windows 0;
#X obj 52 -401 *~;
#X obj 204 -404 *~;
#X obj 52 -353 outlet~;
#X obj 204 -357 outlet~;
#X obj 281 -404 tabreceive~ hann;
#X floatatom 53 -574 5 0 0 0 - - -;
#X floatatom 176 -573 5 0 0 0 - - -;
#X floatatom 294 -571 5 0 0 0 - - -;
#X floatatom 389 -572 5 0 0 0 - - -;
#X obj 413 -513 *~ 0.2;
#X obj 471 -510 *~ 0.2;
#X obj 51 -749 vsl 15 128 0 127 0 0 empty empty empty 0 -9 0 10 -262144
-1 -1 0 1;
#X obj 97 -740 vsl 15 128 0 127 0 0 empty empty empty 0 -9 0 10 -262144
-1 -1 0 1;
#X obj 163 -740 vsl 15 128 0 127 0 0 empty empty empty 0 -9 0 10 -262144
-1 -1 0 1;
#X obj 189 -740 vsl 15 128 0 127 0 0 empty empty empty 0 -9 0 10 -262144
-1 -1 0 1;
#X obj 223 -740 vsl 15 128 0 127 0 0 empty empty empty 0 -9 0 10 -262144
-1 -1 0 1;
#X floatatom 543 -575 5 0 0 0 - - -;
#X obj 39 -781 spigot;
#X obj 86 -782 spigot;
#X obj 133 -783 spigot;
#X obj 181 -784 spigot;
#X obj 229 -776 spigot;
#X obj 286 -816 inlet;
#X obj 40 -821 r pf_lh1;
#X obj 88 -821 r pf_lh2;
#X obj 134 -821 r pf_lh3;
#X obj 181 -819 r pf_lh4;
#X obj 228 -820 r pf_lh5;
#X obj 49 -540 pv_grain pf_m64;
#X obj 171 -540 pv_grain pf_n46;
#X obj 289 -538 pv_grain pf_o46;
#X obj 413 -537 pv_grain pf_s72;
#X obj 541 -535 pv_grain pf_m46;
#X connect 0 0 2 0;
#X connect 1 0 3 0;
#X connect 4 0 1 1;
#X connect 4 0 0 1;
#X connect 5 0 28 0;
#X connect 6 0 29 0;
#X connect 7 0 30 0;
#X connect 8 0 31 0;
#X connect 9 0 0 0;
#X connect 10 0 1 0;
#X connect 11 0 5 0;
#X connect 12 0 6 0;
#X connect 13 0 7 0;
#X connect 14 0 8 0;
#X connect 15 0 16 0;
#X connect 16 0 32 0;
#X connect 17 0 11 0;
#X connect 18 0 12 0;
#X connect 19 0 13 0;
#X connect 20 0 14 0;
#X connect 21 0 15 0;
#X connect 22 0 21 1;
#X connect 22 0 20 1;
#X connect 22 0 19 1;
#X connect 22 0 18 1;
#X connect 22 0 17 1;
#X connect 23 0 17 0;
#X connect 24 0 18 0;
#X connect 25 0 19 0;
#X connect 26 0 20 0;
#X connect 27 0 21 0;
#X connect 28 0 0 0;
#X connect 28 1 1 0;
#X connect 29 0 0 0;
#X connect 29 1 1 0;
#X connect 30 0 0 0;
#X connect 30 1 1 0;
#X connect 31 0 9 0;
#X connect 31 1 10 0;
#X connect 32 0 0 0;
#X connect 32 1 1 0;
#X restore 340 112 pd read-windows;
#X obj 204 544 tabsend~ prev-imag;
#X obj 203 568 tabsend~ prev-real;
#X obj 87 9 tabreceive~ prev-real;
#X obj 140 30 tabreceive~ prev-imag;
#X obj 188 70 *~;
#X obj 156 70 *~;
#X obj 156 92 +~;
#X obj 226 95 q8_rsqrt~;
#X obj 226 72 +~ 1e-20;
#X obj 140 120 *~;
#X obj 86 119 *~;
#X obj 87 300 +~;
#X obj 193 306 +~;
#X obj 119 599 tabreceive~ hann;
#X obj 96 246 lrshift~ 1;
#X obj 91 270 lrshift~ -1;
#X obj 208 246 lrshift~ 1;
#X obj 200 270 lrshift~ -1;
#X obj 333 82 inlet;
#X obj 532 376 r pv_thres;
#X obj 404 564 *~;
#X obj 373 614 q8_rsqrt~;
#X obj 365 564 *~;
#X obj 372 588 +~;
#X obj 377 650 expr~ if ($v1 > $v2 \, 1 \, 0);
#X obj 85 546 *~;
#X obj 130 554 *~;
#X obj 585 177 loadbang;
#X obj 586 136 switch~ 2048 4 1;
#X obj 578 73 sel 1;
#X msg 578 102 set 2048 4 1 \, 1;
#X msg 585 203 \; window-size 2048 \;;
#X connect 0 0 2 1;
#X connect 1 0 2 0;
#X connect 2 0 29 0;
#X connect 2 0 50 1;
#X connect 2 0 50 0;
#X connect 2 0 53 0;
#X connect 3 0 5 1;
#X connect 4 0 5 0;
#X connect 5 0 28 0;
#X connect 5 0 48 0;
#X connect 5 0 48 1;
#X connect 5 0 54 0;
#X connect 6 0 19 1;
#X connect 7 0 19 0;
#X connect 8 0 10 1;
#X connect 9 0 10 0;
#X connect 10 0 39 0;
#X connect 10 0 43 0;
#X connect 10 0 42 0;
#X connect 11 0 18 1;
#X connect 12 0 16 0;
#X connect 13 0 1 1;
#X connect 13 0 3 1;
#X connect 13 1 0 1;
#X connect 13 1 4 1;
#X connect 14 0 9 1;
#X connect 14 0 7 1;
#X connect 14 1 6 1;
#X connect 14 1 8 1;
#X connect 15 0 24 0;
#X connect 17 0 18 0;
#X connect 18 0 26 0;
#X connect 19 0 40 0;
#X connect 19 0 44 0;
#X connect 19 0 45 0;
#X connect 20 0 1 0;
#X connect 20 0 4 0;
#X connect 21 0 0 0;
#X connect 21 0 3 0;
#X connect 22 0 25 0;
#X connect 23 0 17 1;
#X connect 23 0 17 0;
#X connect 23 0 20 0;
#X connect 24 0 12 0;
#X connect 25 0 12 1;
#X connect 26 0 21 1;
#X connect 26 0 20 1;
#X connect 27 0 14 0;
#X connect 27 1 13 0;
#X connect 30 0 33 1;
#X connect 30 0 33 0;
#X connect 30 0 38 0;
#X connect 31 0 32 1;
#X connect 31 0 32 0;
#X connect 31 0 37 0;
#X connect 32 0 34 1;
#X connect 33 0 34 0;
#X connect 34 0 36 0;
#X connect 35 0 37 1;
#X connect 35 0 38 1;
#X connect 36 0 35 0;
#X connect 37 0 8 0;
#X connect 37 0 7 0;
#X connect 38 0 9 0;
#X connect 38 0 6 0;
#X connect 39 0 23 0;
#X connect 40 0 11 0;
#X connect 40 0 11 1;
#X connect 40 0 21 0;
#X connect 41 0 24 1;
#X connect 42 0 39 1;
#X connect 43 0 39 1;
#X connect 44 0 40 1;
#X connect 45 0 40 1;
#X connect 46 0 27 0;
#X connect 46 0 57 0;
#X connect 47 0 52 1;
#X connect 48 0 51 1;
#X connect 49 0 52 0;
#X connect 50 0 51 0;
#X connect 51 0 49 0;
#X connect 52 0 54 1;
#X connect 52 0 53 1;
#X connect 53 0 15 0;
#X connect 54 0 15 1;
#X connect 55 0 59 0;
#X connect 57 0 58 0;
#X connect 57 1 56 0;
#X connect 58 0 56 0;
#X restore 58 105 pd phase vocoder;
#X obj 229 267 table prev-imag 1024;
#X obj 228 293 table prev-real 1024;
#N canvas 569 480 482 368 freqshift 0;
#X obj 130 191 hilbert~;
#X obj 135 239 *~;
#X obj 182 239 *~;
#X obj 199 196 cos~;
#X obj 243 195 cos~;
#X obj 109 143 inlet~;
#X obj 235 163 +~ 0.25;
#X obj 193 126 phasor~;
#X obj 193 103 line~;
#X obj 192 77 pack 0 20;
#X obj 145 271 +~;
#X obj 100 341 outlet~;
#X floatatom 249 44 5 0 0 0 - - -;
#X obj 194 58 / 15;
#X obj 281 26 inlet;
#X obj 340 227 / 127;
#X obj 335 266 pack 0 10;
#X obj 335 288 line~;
#X obj 147 307 *~;
#X connect 0 0 1 0;
#X connect 0 1 2 0;
#X connect 1 0 10 0;
#X connect 2 0 10 1;
#X connect 3 0 1 1;
#X connect 4 0 2 1;
#X connect 5 0 0 0;
#X connect 5 0 11 0;
#X connect 6 0 4 0;
#X connect 7 0 6 0;
#X connect 7 0 3 0;
#X connect 8 0 7 0;
#X connect 9 0 8 0;
#X connect 10 0 18 0;
#X connect 12 0 13 0;
#X connect 12 0 15 0;
#X connect 13 0 9 0;
#X connect 14 0 12 0;
#X connect 15 0 16 0;
#X connect 16 0 17 0;
#X connect 17 0 18 1;
#X connect 18 0 11 0;
#X restore 58 193 pd freqshift;
#N canvas 24 316 508 329 chorus 0;
#X obj 95 112 inlet~;
#X obj 234 283 outlet~;
#X obj 26 288 delwrite~ chorus 1000;
#X obj 257 238 vd~ chorus;
#X obj 262 141 osc~;
#X obj 256 206 +~ 10;
#X obj 324 123 line~;
#X obj 313 71 pack 0 50;
#X obj 260 168 *~;
#X obj 328 7 inlet;
#X floatatom 398 -7 5 0 0 0 - - -;
#X obj 326 185 /~ 40;
#X obj 370 32 / 8;
#X connect 0 0 2 0;
#X connect 0 0 1 0;
#X connect 3 0 1 0;
#X connect 4 0 8 0;
#X connect 5 0 3 0;
#X connect 6 0 4 0;
#X connect 6 0 11 0;
#X connect 7 0 6 0;
#X connect 8 0 5 0;
#X connect 9 0 12 0;
#X connect 10 0 12 0;
#X connect 11 0 8 1;
#X connect 12 0 7 0;
#X restore 58 149 pd chorus;
#N canvas 52 442 528 304 rm 0;
#X obj 201 69 inlet~;
#X obj 203 216 outlet~;
#X obj 204 147 *~;
#X obj 298 125 tabread4~ hann;
#X obj 298 77 phasor~;
#X floatatom 298 26 5 0 0 0 - - -;
#X obj 299 101 *~ 2048;
#X obj 395 102 / 127;
#X floatatom 395 124 5 0 0 0 - - -;
#X obj 274 180 *~;
#X obj 375 196 pack 0 10;
#X obj 371 222 line~;
#X obj 326 250 -~;
#X obj 310 209 sig~ 1;
#X obj 274 282 +~;
#X obj 286 52 / 5;
#X obj 453 44 inlet;
#X connect 0 0 2 0;
#X connect 2 0 1 0;
#X connect 3 0 9 0;
#X connect 4 0 6 0;
#X connect 5 0 7 0;
#X connect 5 0 15 0;
#X connect 6 0 3 0;
#X connect 7 0 8 0;
#X connect 8 0 10 0;
#X connect 9 0 14 0;
#X connect 10 0 11 0;
#X connect 11 0 9 1;
#X connect 11 0 12 1;
#X connect 12 0 14 1;
#X connect 13 0 12 0;
#X connect 14 0 2 1;
#X connect 15 0 4 0;
#X connect 16 0 5 0;
#X restore 58 237 pd rm;
#X floatatom 206 155 5 0 0 0 - - -;
#X floatatom 253 178 5 0 0 0 - - -;
#X floatatom 251 222 5 0 0 0 - - -;
#X obj 389 267 s pv_pb;
#X obj 389 103 vsl 15 128 0 127 0 0 empty empty empty 0 -9 0 10 -262144
-1 -1 0 1;
#X obj 437 111 vsl 15 128 0 127 0 0 empty empty empty 0 -9 0 10 -262144
-1 -1 0 1;
#X obj 206 97 spigot;
#X obj 293 205 spigot;
#X obj 359 28 tgl 15 0 empty empty empty 17 7 0 10 -262144 -1 -1 0
1;
#X obj 256 149 spigot;
#X obj 390 71 spigot;
#X obj 436 77 spigot;
#X obj 389 239 / 3;
#X obj 447 289 s pv_thres;
#X obj 465 204 !- 127;
#X obj 463 256 / 2000;
#X obj 389 26 r pf_rh1;
#X obj 206 58 r pf_rh3;
#X obj 255 113 r pf_rh4;
#X obj 293 174 r pf_rh5;
#X obj 437 30 r pf_rh2;
#X obj 58 281 throw~ pmix;
#X connect 0 0 1 0;
#X connect 0 0 15 0;
#X connect 1 0 5 0;
#X connect 4 0 6 0;
#X connect 5 0 4 0;
#X connect 6 0 28 0;
#X connect 7 0 5 1;
#X connect 8 0 4 1;
#X connect 9 0 6 1;
#X connect 11 0 19 0;
#X connect 12 0 21 0;
#X connect 13 0 7 0;
#X connect 14 0 9 0;
#X connect 15 0 14 1;
#X connect 15 0 16 1;
#X connect 15 0 13 1;
#X connect 15 0 17 1;
#X connect 15 0 18 1;
#X connect 16 0 8 0;
#X connect 17 0 11 0;
#X connect 18 0 12 0;
#X connect 19 0 10 0;
#X connect 21 0 22 0;
#X connect 22 0 20 0;
#X connect 23 0 17 0;
#X connect 24 0 13 0;
#X connect 25 0 16 0;
#X connect 26 0 14 0;
#X connect 27 0 18 0;
#X restore 327 102 pd timbre;
#N canvas 742 242 457 266 data 0;
#X obj 62 -8 inlet;
#X obj 122 37 inlet;
#X obj 180 35 inlet;
#X obj 240 35 inlet;
#X obj 301 38 inlet;
#X obj 69 160 /;
#X obj 301 84 t f f;
#X obj 240 83 t f f;
#X obj 180 83 t f f;
#X obj 122 84 t f f;
#X obj 62 39 t f f;
#X obj 69 190 s pf_lh_centroid;
#X obj 217 186 s pf_lh_sum;
#X obj 74 16 s pf_lh5;
#X obj 128 60 s pf_lh4;
#X obj 186 59 s pf_lh3;
#X obj 246 59 s pf_lh2;
#X obj 310 60 s pf_lh1;
#X obj 63 133 center;
#X obj 191 147 total;
#X connect 0 0 10 0;
#X connect 0 0 13 0;
#X connect 1 0 9 0;
#X connect 1 0 14 0;
#X connect 2 0 8 0;
#X connect 2 0 15 0;
#X connect 3 0 7 0;
#X connect 3 0 16 0;
#X connect 4 0 6 0;
#X connect 4 0 17 0;
#X connect 5 0 11 0;
#X connect 6 0 18 4;
#X connect 6 1 19 4;
#X connect 7 0 18 3;
#X connect 7 1 19 3;
#X connect 8 0 18 2;
#X connect 8 1 19 2;
#X connect 9 0 18 1;
#X connect 9 1 19 1;
#X connect 10 0 18 0;
#X connect 10 1 19 0;
#X connect 18 0 5 0;
#X connect 19 0 5 1;
#X connect 19 0 12 0;
#X restore 41 378 pd data;
#N canvas 118 22 556 266 data 0;
#X obj 76 -17 inlet;
#X obj 128 37 inlet;
#X obj 176 -8 inlet;
#X obj 227 37 inlet;
#X obj 280 -4 inlet;
#X obj 229 193 /;
#X obj 278 108 t f f;
#X obj 227 108 t f f;
#X obj 176 108 t f f;
#X obj 128 108 t f f;
#X obj 77 108 t f f;
#X obj 82 6 s pf_rh1;
#X obj 137 60 s pf_rh2;
#X obj 185 15 s pf_rh3;
#X obj 237 60 s pf_rh4;
#X obj 291 19 s pf_rh5;
#X obj 298 206 s pf_rh_sum;
#X obj 162 228 s pf_rh_centroid;
#X obj 78 162 center;
#X obj 259 157 total;
#X connect 0 0 10 0;
#X connect 0 0 11 0;
#X connect 1 0 9 0;
#X connect 1 0 12 0;
#X connect 2 0 8 0;
#X connect 2 0 13 0;
#X connect 3 0 7 0;
#X connect 3 0 14 0;
#X connect 4 0 6 0;
#X connect 4 0 15 0;
#X connect 5 0 17 0;
#X connect 6 0 18 4;
#X connect 6 1 19 4;
#X connect 7 0 18 3;
#X connect 7 1 19 3;
#X connect 8 0 18 2;
#X connect 8 1 19 2;
#X connect 9 0 18 1;
#X connect 9 1 19 1;
#X connect 10 0 18 0;
#X connect 10 1 19 0;
#X connect 18 0 5 0;
#X connect 19 0 5 1;
#X connect 19 0 16 0;
#X restore 164 378 pd data;
#X obj 267 101 == 3;
#X obj 417 119 throw~ pmix;
#X obj 376 286 catch~ pmix;
#X obj 417 89 jingle;
#X msg 284 246 \$1;
#N canvas 0 22 463 429 fromMIDI 0;
#X obj 131 57 notein 1;
#X floatatom 115 93 5 0 0 0 - - -;
#X floatatom 161 92 5 0 0 0 - - -;
#X floatatom 239 114 5 0 0 0 - - -;
#X obj 240 72 pgmin 1;
#X obj 121 131 pack 0 0;
#X obj 304 213 route 64 66 67 69 71;
#X obj 11 280 outlet;
#X obj 60 282 outlet;
#X obj 112 284 outlet;
#X obj 161 286 outlet;
#X obj 208 287 outlet;
#X obj 265 288 outlet;
#X obj 314 290 outlet;
#X obj 366 292 outlet;
#X obj 415 294 outlet;
#X obj 462 295 outlet;
#X obj 243 152 s preset;
#X obj 82 205 route 47 49 51 53 57;
#X connect 0 0 1 0;
#X connect 0 1 2 0;
#X connect 1 0 5 0;
#X connect 2 0 5 1;
#X connect 3 0 17 0;
#X connect 4 0 3 0;
#X connect 5 0 6 0;
#X connect 5 0 18 0;
#X connect 6 0 12 0;
#X connect 6 1 13 0;
#X connect 6 2 14 0;
#X connect 6 3 15 0;
#X connect 6 4 16 0;
#X connect 18 0 7 0;
#X connect 18 1 8 0;
#X connect 18 2 9 0;
#X connect 18 3 10 0;
#X connect 18 4 11 0;
#X restore 68 212 pd fromMIDI;
#X obj 42 117 uart_decode;
#X text 39 402 T;
#X text 66 402 I;
#X text 93 402 M;
#X text 117 402 R;
#X text 140 402 L;
#X text 267 402 T;
#X text 240 402 I;
#X text 215 402 M;
#X text 191 402 R;
#X text 167 402 L;
#X obj 43 90 comport 2 57600;
#X msg 177 105 open 2;
#X connect 4 0 5 0;
#X connect 6 0 0 1;
#X connect 6 0 0 0;
#X connect 6 0 10 0;
#X connect 10 0 0 0;
#X connect 10 0 0 1;
#X connect 12 0 66 0;
#X connect 13 0 66 0;
#X connect 14 0 17 0;
#X connect 14 1 18 0;
#X connect 14 2 20 0;
#X connect 14 3 21 0;
#X connect 14 4 19 0;
#X connect 15 0 22 0;
#X connect 15 1 23 0;
#X connect 15 2 25 0;
#X connect 15 3 26 0;
#X connect 15 4 24 0;
#X connect 16 0 14 0;
#X connect 16 1 15 0;
#X connect 16 2 53 0;
#X connect 16 3 34 0;
#X connect 16 4 36 0;
#X connect 16 5 33 0;
#X connect 17 0 47 0;
#X connect 18 0 47 1;
#X connect 19 0 47 2;
#X connect 20 0 47 3;
#X connect 21 0 47 4;
#X connect 22 0 48 0;
#X connect 23 0 48 1;
#X connect 24 0 48 2;
#X connect 25 0 48 3;
#X connect 26 0 48 4;
#X connect 28 0 66 0;
#X connect 29 0 66 0;
#X connect 30 0 31 0;
#X connect 32 0 29 0;
#X connect 34 0 45 0;
#X connect 37 0 38 0;
#X connect 37 0 39 0;
#X connect 37 0 40 0;
#X connect 37 0 49 0;
#X connect 38 0 41 0;
#X connect 39 0 42 0;
#X connect 40 0 43 0;
#X connect 41 0 7 0;
#X connect 42 0 8 0;
#X connect 43 0 9 0;
#X connect 44 0 46 0;
#X connect 45 0 35 0;
#X connect 49 0 44 0;
#X connect 51 0 6 0;
#X connect 52 0 50 0;
#X connect 53 0 27 0;
#X connect 54 0 17 0;
#X connect 54 1 18 0;
#X connect 54 2 19 0;
#X connect 54 3 20 0;
#X connect 54 4 21 0;
#X connect 54 5 22 0;
#X connect 54 6 23 0;
#X connect 54 7 24 0;
#X connect 54 8 25 0;
#X connect 54 9 26 0;
#X connect 55 0 16 0;
#X connect 66 0 55 0;
#X connect 67 0 66 0;
