#N canvas 424 44 1021 733 10;
#X declare -path lib;
#X declare -path flute;
#X obj 128 31 adc~;
#X obj 133 560 dac~;
#X obj 564 52 declare -path lib;
#X obj 565 104 declare -path flute;
#N canvas 451 32 1396 856 samples 0;
#X obj 1021 409 soundfiler;
#X obj 1010 195 until;
#X obj 1176 89 loadbang;
#X obj 1003 45 table hann;
#X obj 27 42 table m22;
#X obj 27 62 table m23;
#X obj 27 82 table m24;
#X obj 27 102 table m25;
#X obj 27 122 table m26;
#X obj 27 142 table m27;
#X obj 27 162 table m28;
#X obj 27 182 table m29;
#X obj 27 202 table m30;
#X obj 27 222 table m31;
#X obj 27 242 table m32;
#X obj 27 262 table m33;
#X obj 27 282 table m34;
#X obj 27 302 table m35;
#X obj 27 322 table m36;
#X obj 27 342 table m37;
#X obj 27 362 table m38;
#X obj 27 382 table m39;
#X obj 27 402 table m40;
#X obj 27 422 table m41;
#X obj 96 42 table m42;
#X obj 96 62 table m43;
#X obj 96 82 table m44;
#X obj 96 102 table m45;
#X obj 96 122 table m46;
#X obj 96 142 table m47;
#X obj 96 162 table m48;
#X obj 96 182 table m49;
#X obj 96 202 table m50;
#X obj 96 222 table m51;
#X obj 96 242 table m52;
#X obj 96 262 table m53;
#X obj 96 282 table m54;
#X obj 96 302 table m55;
#X obj 96 322 table m56;
#X obj 96 342 table m57;
#X obj 96 362 table m58;
#X obj 96 382 table m59;
#X obj 96 402 table m60;
#X obj 96 422 table m61;
#X obj 162 41 table m62;
#X obj 162 61 table m63;
#X obj 162 81 table m64;
#X obj 162 101 table m65;
#X obj 162 121 table m66;
#X obj 162 141 table m67;
#X obj 162 161 table m68;
#X obj 162 181 table m69;
#X obj 162 201 table m70;
#X obj 237 42 table n35;
#X obj 237 62 table n36;
#X obj 237 82 table n37;
#X obj 237 102 table n38;
#X obj 237 122 table n39;
#X obj 237 142 table n40;
#X obj 237 162 table n41;
#X obj 237 182 table n42;
#X obj 237 202 table n43;
#X obj 237 222 table n44;
#X obj 237 242 table n45;
#X obj 237 262 table n46;
#X obj 237 282 table n47;
#X obj 237 302 table n48;
#X obj 237 322 table n49;
#X obj 237 342 table n50;
#X obj 237 362 table n51;
#X obj 237 382 table n52;
#X obj 237 402 table n53;
#X obj 237 422 table n54;
#X obj 302 43 table n55;
#X obj 302 63 table n56;
#X obj 302 83 table n57;
#X obj 302 103 table n58;
#X obj 302 123 table n59;
#X obj 302 143 table n60;
#X obj 302 163 table n61;
#X obj 302 183 table n62;
#X obj 302 203 table n63;
#X obj 302 223 table n64;
#X obj 302 243 table n65;
#X obj 302 263 table n66;
#X obj 302 283 table n67;
#X obj 302 303 table n68;
#X obj 302 323 table n69;
#X obj 302 343 table n70;
#X obj 302 363 table n71;
#X obj 302 383 table n72;
#X obj 302 403 table n73;
#X obj 302 423 table n74;
#X obj 365 44 table n75;
#X obj 365 64 table n76;
#X obj 365 84 table n77;
#X obj 365 104 table n78;
#X obj 365 124 table n79;
#X obj 365 144 table n80;
#X obj 365 164 table n81;
#X obj 365 184 table n82;
#X obj 365 204 table n83;
#X obj 365 224 table n84;
#X obj 365 244 table n85;
#X obj 365 264 table n86;
#X obj 365 284 table n87;
#X obj 365 304 table n88;
#X obj 365 324 table n89;
#X obj 365 344 table n90;
#X obj 365 364 table n91;
#X obj 365 384 table n92;
#X obj 365 404 table n93;
#X obj 365 424 table n94;
#X obj 430 45 table n95;
#X obj 430 65 table n96;
#X obj 430 85 table n97;
#X obj 430 105 table n98;
#X obj 430 125 table n99;
#X obj 430 145 table n100;
#X obj 430 165 table n101;
#X obj 430 185 table n102;
#X obj 430 205 table n103;
#X obj 430 225 table n104;
#X obj 430 245 table n105;
#X obj 430 265 table n106;
#X obj 430 285 table n107;
#X obj 430 305 table n108;
#X obj 516 48 table o21;
#X obj 516 68 table o22;
#X obj 516 88 table o23;
#X obj 516 108 table o24;
#X obj 516 128 table o25;
#X obj 516 148 table o26;
#X obj 516 168 table o27;
#X obj 516 188 table o28;
#X obj 516 208 table o29;
#X obj 516 228 table o30;
#X obj 516 248 table o31;
#X obj 516 268 table o32;
#X obj 516 288 table o33;
#X obj 516 308 table o34;
#X obj 516 328 table o35;
#X obj 516 348 table o36;
#X obj 516 368 table o37;
#X obj 516 388 table o38;
#X obj 516 408 table o39;
#X obj 516 428 table o40;
#X obj 578 49 table o41;
#X obj 578 69 table o42;
#X obj 578 89 table o43;
#X obj 578 109 table o44;
#X obj 578 129 table o45;
#X obj 578 149 table o46;
#X obj 578 169 table o47;
#X obj 578 189 table o48;
#X obj 578 209 table o49;
#X obj 578 229 table o50;
#X obj 578 249 table o51;
#X obj 578 269 table o52;
#X obj 578 289 table o53;
#X obj 578 309 table o54;
#X obj 578 329 table o55;
#X obj 578 349 table o56;
#X obj 578 369 table o57;
#X obj 578 389 table o58;
#X obj 578 409 table o59;
#X obj 578 429 table o60;
#X obj 644 50 table o61;
#X obj 644 70 table o62;
#X obj 644 90 table o63;
#X obj 644 110 table o64;
#X obj 644 130 table o65;
#X obj 644 150 table o66;
#X obj 644 170 table o67;
#X obj 644 190 table o68;
#X obj 644 210 table o69;
#X obj 717 49 table s36;
#X obj 717 69 table s37;
#X obj 717 89 table s38;
#X obj 717 109 table s39;
#X obj 717 129 table s40;
#X obj 717 149 table s41;
#X obj 717 169 table s42;
#X obj 717 189 table s43;
#X obj 717 209 table s44;
#X obj 717 229 table s45;
#X obj 717 249 table s46;
#X obj 717 269 table s47;
#X obj 717 289 table s48;
#X obj 717 309 table s49;
#X obj 717 329 table s50;
#X obj 717 349 table s51;
#X obj 717 369 table s52;
#X obj 717 389 table s53;
#X obj 717 409 table s54;
#X obj 717 429 table s55;
#X obj 779 50 table s56;
#X obj 779 70 table s57;
#X obj 779 90 table s58;
#X obj 779 110 table s59;
#X obj 779 130 table s60;
#X obj 779 150 table s61;
#X obj 779 170 table s62;
#X obj 779 190 table s63;
#X obj 779 210 table s64;
#X obj 779 230 table s65;
#X obj 779 250 table s66;
#X obj 779 270 table s67;
#X obj 779 290 table s68;
#X obj 779 310 table s69;
#X obj 779 330 table s70;
#X obj 779 350 table s71;
#X obj 779 370 table s72;
#X msg 1014 277 read -resize piano/mute/mute_\$1.wav m\$1;
#X msg 1010 164 49;
#X obj 1010 226 counter 22;
#X msg 1092 299 read -resize piano/mute2/mute2_\$1.wav n\$1;
#X obj 1089 192 until;
#X msg 1089 161 74;
#X obj 1089 223 counter 35;
#X msg 1169 326 read -resize piano/overtone/overtone_\$1.wav o\$1;
#X msg 1255 167 37;
#X obj 1165 191 until;
#X msg 1165 161 49, f 5;
#X obj 1166 232 counter 21;
#X msg 1258 357 read -resize piano/string/string_\$1.wav s\$1;
#X obj 1255 232 counter 36;
#X obj 1255 199 until;
#X obj 14 533 table 21_0;
#X obj 14 553 table 21_1;
#X obj 14 573 table 21_2;
#X obj 14 595 table 21_3;
#X obj 14 615 table 21_4;
#X obj 15 636 table 21_5;
#X obj 92 530 table 28_0;
#X obj 92 550 table 28_1;
#X obj 92 570 table 28_2;
#X obj 92 592 table 28_3;
#X obj 173 531 table 29_0;
#X obj 174 552 table 29_1;
#X obj 175 573 table 29_2;
#X obj 176 594 table 29_3;
#X obj 248 549 table 29_1;
#X obj 249 570 table 29_2;
#X obj 250 591 table 29_3;
#X obj 247 528 table 32_0;
#X obj 371 509 table 73_0;
#X obj 371 528 table 73_1;
#X obj 371 547 table 73_2;
#X obj 371 566 table 73_3;
#X obj 371 585 table 73_4;
#X obj 371 604 table 73_5;
#X obj 371 623 table 73_6;
#X obj 371 642 table 73_7;
#X obj 371 661 table 73_8;
#X obj 371 680 table 73_9;
#X obj 1055 715 soundfiler;
#X msg 1027 567 10;
#X obj 1095 523 loadbang;
#X msg 1032 670 read -resize piano/scratch/scratch_73_\$1.wav 73_\$1
;
#X obj 1027 598 until;
#X obj 1027 629 counter 0;
#X connect 1 0 215 0;
#X connect 2 0 214 0;
#X connect 2 0 218 0;
#X connect 2 0 221 0;
#X connect 2 0 223 0;
#X connect 213 0 0 0;
#X connect 214 0 1 0;
#X connect 215 0 213 0;
#X connect 216 0 0 0;
#X connect 217 0 219 0;
#X connect 218 0 217 0;
#X connect 219 0 216 0;
#X connect 220 0 0 0;
#X connect 221 0 227 0;
#X connect 222 0 224 0;
#X connect 223 0 222 0;
#X connect 224 0 220 0;
#X connect 225 0 0 0;
#X connect 226 0 225 0;
#X connect 227 0 226 0;
#X connect 257 0 260 0;
#X connect 258 0 257 0;
#X connect 259 0 256 0;
#X connect 260 0 261 0;
#X connect 261 0 259 0;
#X restore 559 128 pd samples;
#X obj 803 40 loadmeter;
#X floatatom 805 70 5 0 0 0 - - -, f 5;
#X obj 128 70 envfol;
#N canvas 0 22 549 390 sensor 0;
#X obj 420 110 outlet;
#X obj 121 345 outlet;
#X obj 78 315 outlet;
#X restore 547 225 pd sensor;
#X floatatom 651 194 5 0 0 0 mode - -, f 5;
#X obj 550 280 vsl 15 128 0 127 0 0 empty empty empty 0 -9 0 10 -262144
-1 -1 0 1;
#X obj 589 280 vsl 15 128 0 127 0 0 empty empty empty 0 -9 0 10 -262144
-1 -1 0 1;
#X obj 634 280 vsl 15 128 0 127 0 0 empty empty empty 0 -9 0 10 -262144
-1 -1 0 1;
#X obj 670 280 vsl 15 128 0 127 0 0 empty empty empty 0 -9 0 10 -262144
-1 -1 0 1;
#X obj 714 280 vsl 15 128 0 127 0 0 empty empty empty 0 -9 0 10 -262144
-1 -1 0 1;
#X obj 779 280 vsl 15 128 0 127 0 0 empty empty empty 0 -9 0 10 -262144
-1 -1 0 1;
#X obj 819 280 vsl 15 128 0 127 0 0 empty empty empty 0 -9 0 10 -262144
-1 -1 0 1;
#X obj 855 280 vsl 15 128 0 127 0 0 empty empty empty 0 -9 0 10 -262144
-1 -1 0 1;
#X obj 891 280 vsl 15 128 0 127 0 0 empty empty empty 0 -9 0 10 -262144
-1 -1 0 1;
#N canvas 126 74 613 499 fingering 0;
#X obj 25 153 << 8;
#X obj 83 153 << 7;
#X obj 140 153 << 6;
#X obj 198 153 << 5;
#X obj 261 153 << 4;
#X obj 365 153 << 3;
#X obj 423 153 << 2;
#X obj 478 153 << 1;
#X obj 25 90 > 10;
#X obj 25 123 change;
#X obj 83 91 > 10;
#X obj 83 123 change;
#X obj 140 90 > 10;
#X obj 140 123 change;
#X obj 198 90 > 10;
#X obj 198 123 change;
#X obj 261 90 > 10;
#X obj 261 123 change;
#X obj 365 90 > 10;
#X obj 365 123 change;
#X obj 423 90 > 10;
#X obj 423 123 change;
#X obj 478 90 > 10;
#X obj 478 123 change;
#X obj 532 90 > 10;
#X obj 532 123 change;
#X obj 25 57 r lt;
#X obj 198 57 r l3;
#X obj 140 57 r l2;
#X obj 83 57 r l1;
#X obj 365 57 r r1;
#X obj 423 57 r r2;
#X obj 478 57 r r3;
#X obj 532 57 r es;
#X obj 261 57 r lgis;
#X obj 478 191 +, f 10;
#X obj 367 191 +, f 10;
#X obj 201 197 +, f 10;
#X obj 101 196 +, f 10;
#X obj 407 235 +, f 10;
#X obj 136 232 +, f 10;
#X obj 240 300 +, f 10;
#X obj 159 321 +, f 10;
#X obj 156 361 outlet;
#X obj 219 -12 tgl 15 0 empty empty empty 17 7 0 10 -262144 -1 -1 0
1;
#X text 277 -12 for testing;
#X obj 225 12 metro 50;
#X connect 0 0 42 0;
#X connect 1 0 38 0;
#X connect 2 0 38 1;
#X connect 3 0 37 0;
#X connect 4 0 37 1;
#X connect 5 0 36 0;
#X connect 6 0 36 1;
#X connect 7 0 35 0;
#X connect 8 0 9 0;
#X connect 9 0 0 0;
#X connect 10 0 11 0;
#X connect 11 0 1 0;
#X connect 12 0 13 0;
#X connect 13 0 2 0;
#X connect 14 0 15 0;
#X connect 15 0 3 0;
#X connect 16 0 17 0;
#X connect 17 0 4 0;
#X connect 18 0 19 0;
#X connect 19 0 5 0;
#X connect 20 0 21 0;
#X connect 21 0 6 0;
#X connect 22 0 23 0;
#X connect 23 0 7 0;
#X connect 24 0 25 0;
#X connect 25 0 35 1;
#X connect 26 0 8 0;
#X connect 27 0 14 0;
#X connect 28 0 12 0;
#X connect 29 0 10 0;
#X connect 30 0 18 0;
#X connect 31 0 20 0;
#X connect 32 0 22 0;
#X connect 33 0 24 0;
#X connect 34 0 16 0;
#X connect 35 0 39 1;
#X connect 36 0 39 0;
#X connect 37 0 40 1;
#X connect 38 0 40 0;
#X connect 39 0 41 1;
#X connect 40 0 41 0;
#X connect 41 0 42 1;
#X connect 42 0 43 0;
#X connect 44 0 46 0;
#X connect 46 0 0 0;
#X connect 46 0 1 0;
#X connect 46 0 2 0;
#X connect 46 0 3 0;
#X connect 46 0 4 0;
#X connect 46 0 5 0;
#X connect 46 0 6 0;
#X connect 46 0 7 0;
#X restore 552 478 pd fingering;
#X obj 550 429 s lt;
#X obj 589 429 s l1;
#X obj 634 429 s l2;
#X obj 670 429 s l3;
#X obj 779 429 s r1;
#X obj 819 429 s r2;
#X obj 855 429 s r3;
#X obj 891 429 s es;
#X obj 714 429 s lgis;
#X floatatom 552 502 5 0 0 0 - - -, f 5;
#N canvas 0 22 1394 478 fingering_to_midi 0;
#X obj 46 37 inlet;
#X obj 550 293 outlet, f 10;
#X msg 411 173 62;
#X msg 441 173 63;
#X msg 471 173 64;
#X msg 503 173 65;
#X msg 532 173 66;
#X msg 561 173 67;
#X msg 590 173 68;
#X msg 619 173 69;
#X msg 649 173 70;
#X msg 679 173 71;
#X msg 708 173 72;
#X msg 739 173 73;
#X obj 467 51 sel 494 495 493 489 483 481 497 449 457 449 129 1 366
367;
#X msg 771 173 74;
#X msg 804 173 75;
#X connect 0 0 14 0;
#X connect 2 0 1 0;
#X connect 3 0 1 0;
#X connect 4 0 1 0;
#X connect 5 0 1 0;
#X connect 6 0 1 0;
#X connect 7 0 1 0;
#X connect 8 0 1 0;
#X connect 9 0 1 0;
#X connect 10 0 1 0;
#X connect 11 0 1 0;
#X connect 12 0 1 0;
#X connect 13 0 1 0;
#X connect 14 0 2 0;
#X connect 14 1 3 0;
#X connect 14 2 4 0;
#X connect 14 3 5 0;
#X connect 14 4 6 0;
#X connect 14 5 7 0;
#X connect 14 6 8 0;
#X connect 14 7 9 0;
#X connect 14 8 10 0;
#X connect 14 9 11 0;
#X connect 14 10 12 0;
#X connect 14 11 13 0;
#X connect 14 12 15 0;
#X connect 14 13 16 0;
#X connect 15 0 1 0;
#X connect 16 0 1 0;
#X restore 552 523 pd fingering_to_midi;
#X obj 104 103 s~ envfol;
#X obj 186 103 s attack;
#X obj 90 373 catch~ mix;
#X obj 371 163 s location;
#X floatatom 367 120 5 0 0 0 - - -, f 5;
#X obj 534 188 s transpo;
#X floatatom 534 171 5 0 0 0 - - -, f 5;
#X obj 355 238 s air;
#X floatatom 278 211 5 0 0 0 - - -, f 5;
#X floatatom 350 209 5 0 0 0 - - -, f 5;
#X obj 278 230 s octave;
#X obj 486 259 s pepe;
#X floatatom 489 229 5 0 0 0 - - -, f 5;
#X floatatom 419 224 5 0 0 0 - - -, f 5;
#X obj 416 254 s mod;
#X obj 559 580 s pitch;
#X floatatom 560 552 5 0 0 0 - - -, f 5;
#X obj 247 516 bng 15 250 50 0 empty empty empty 17 7 0 10 -262144
-1 -1;
#X obj 282 502 print~;
#X obj 65 469 r~ envfol;
#X obj 76 520 *~;
#X obj 153 449 rev2~ 80 80 3000 20, f 42;
#X obj 81 400 *~ 0.8;
#N canvas 0 22 450 300 string 0;
#X obj 269 202 table prev-imag;
#X obj 269 222 table prev-real;
#X obj 75 217 throw~ mix;
#N canvas 322 64 821 693 phase 0;
#X obj 51 477 *~;
#X obj 18 477 *~;
#X obj 18 499 -~;
#X obj 167 475 *~;
#X obj 136 475 *~;
#X obj 136 497 +~;
#X obj 109 193 *~;
#X obj 78 193 *~;
#X obj 50 193 *~;
#X obj 19 193 *~;
#X obj 19 218 +~;
#X obj 127 379 *~;
#X obj 20 622 *~;
#X obj 238 430 rfft~;
#X obj 108 161 rfft~;
#X obj 19 564 rifft~;
#X obj 21 646 outlet~;
#X obj 97 379 *~;
#X obj 97 401 +~;
#X obj 124 218 -~;
#X obj 18 431 *~;
#X obj 51 432 *~;
#X obj 127 622 r window-size;
#X obj 19 349 +~ 1e-15;
#X obj 19 598 *~;
#X obj 127 643 expr 2/(3*$f1);
#X obj 293 539 loadbang;
#X obj 97 425 q8_rsqrt~;
#N canvas 286 653 1006 799 read-windows 1;
#X obj 114 -57 *~;
#X obj 193 -646 f;
#X obj 259 -60 *~;
#X obj 193 -779 bang~;
#X obj 47 -453 line~;
#X obj 243 -751 r location;
#X obj 235 -644 +;
#X obj 81 -407 / 4;
#X floatatom 370 -506 7 0 0 0 - - -, f 7;
#X obj 459 -651 r transpo;
#X obj 459 -629 * 0.01;
#X obj 461 -608 + 69;
#X obj 462 -587 mtof;
#X obj 462 -565 / 440;
#X obj 114 -31 outlet~;
#X obj 259 -35 outlet~;
#X obj 270 -640 s see-loc;
#X obj 233 -584 / 2;
#X obj 196 -584 -;
#X obj 61 -364 -~;
#X obj 46 -535 f;
#X obj 45 -564 b;
#X msg 47 -481 0 \, \$1 \$2;
#X obj 336 -60 tabreceive~ hann;
#X obj 47 -508 pack 0 11.61, f 13;
#X obj 370 -530 * 2048;
#X obj 230 -329 tabread4~ n62;
#X obj 53 -329 tabread4~ n62;
#X obj 196 -610 * 44.1;
#X msg 281 -405 set n\$1;
#X floatatom 281 -439 5 0 0 0 - - -, f 5;
#X obj 349 -336 tabread4~ n62;
#X obj 381 -427 + 12;
#X obj 465 -337 tabread4~ n62;
#X msg 372 -393 set n\$1;
#X obj 210 -680 +;
#X floatatom 283 -678 5 0 0 0 - - -, f 5;
#X floatatom 254 -296 5 0 0 0 - - -, f 5;
#X obj 102 -284 *~;
#X obj 355 -266 *~;
#X obj 185 -275 *~;
#X obj 464 -261 *~;
#X obj 251 -312 r octave;
#X obj 225 -160 r air;
#X obj 101 -197 +~, f 5;
#X obj 173 -197 +~, f 5;
#X obj 286 -95 +~, f 5;
#X obj 108 -145 *~;
#X obj 170 -143 *~;
#X obj 342 -129 *~;
#X obj 114 -107 +~, f 4;
#X obj 253 -275 xfade;
#X obj 226 -137 xfade;
#X obj 580 -335 tabread4~ a62;
#X obj 722 -347 tabread4~ a62;
#X obj 274 -471 r pitch;
#X obj 285 -121 *~;
#X obj 194 -548 s offset;
#X obj 143 -324 r offset;
#X obj 452 -393 r offset;
#X obj 654 -402 r offset;
#X msg 558 -396 set a\$1;
#X connect 0 0 14 0;
#X connect 1 0 6 0;
#X connect 1 0 28 0;
#X connect 2 0 15 0;
#X connect 3 0 1 0;
#X connect 3 0 35 0;
#X connect 4 0 19 0;
#X connect 4 0 26 0;
#X connect 4 0 33 0;
#X connect 4 0 54 0;
#X connect 5 0 35 1;
#X connect 6 0 1 1;
#X connect 6 0 16 0;
#X connect 7 0 19 1;
#X connect 8 0 7 0;
#X connect 8 0 17 0;
#X connect 8 0 20 1;
#X connect 9 0 10 0;
#X connect 10 0 11 0;
#X connect 11 0 12 0;
#X connect 12 0 13 0;
#X connect 13 0 25 0;
#X connect 17 0 18 1;
#X connect 18 0 21 0;
#X connect 18 0 57 0;
#X connect 19 0 27 0;
#X connect 19 0 31 0;
#X connect 19 0 53 0;
#X connect 20 0 24 0;
#X connect 21 0 20 0;
#X connect 22 0 4 0;
#X connect 23 0 2 1;
#X connect 23 0 0 1;
#X connect 24 0 22 0;
#X connect 25 0 8 0;
#X connect 26 0 40 0;
#X connect 27 0 38 0;
#X connect 28 0 18 0;
#X connect 29 0 26 0;
#X connect 29 0 27 0;
#X connect 30 0 29 0;
#X connect 30 0 32 0;
#X connect 30 0 61 0;
#X connect 31 0 39 0;
#X connect 32 0 34 0;
#X connect 33 0 41 0;
#X connect 34 0 31 0;
#X connect 34 0 33 0;
#X connect 35 0 1 1;
#X connect 36 0 35 1;
#X connect 37 0 51 0;
#X connect 38 0 44 0;
#X connect 39 0 44 1;
#X connect 40 0 45 0;
#X connect 41 0 45 1;
#X connect 42 0 37 0;
#X connect 43 0 52 0;
#X connect 44 0 47 0;
#X connect 45 0 56 0;
#X connect 46 0 2 0;
#X connect 47 0 50 0;
#X connect 48 0 50 1;
#X connect 49 0 46 1;
#X connect 50 0 0 0;
#X connect 51 0 38 1;
#X connect 51 0 40 1;
#X connect 51 1 41 1;
#X connect 51 1 39 1;
#X connect 52 0 56 1;
#X connect 52 0 47 1;
#X connect 52 1 49 1;
#X connect 52 1 48 1;
#X connect 53 0 48 0;
#X connect 54 0 49 0;
#X connect 55 0 30 0;
#X connect 56 0 46 0;
#X connect 58 0 27 1;
#X connect 58 0 26 1;
#X connect 59 0 31 1;
#X connect 59 0 33 1;
#X connect 60 0 53 1;
#X connect 60 0 54 1;
#X connect 61 0 53 0;
#X connect 61 0 54 0;
#X restore 109 133 pd read-windows;
#X obj 137 543 tabsend~ prev-imag;
#X obj 136 567 tabsend~ prev-real;
#X obj 20 8 tabreceive~ prev-real;
#X obj 73 29 tabreceive~ prev-imag;
#X obj 121 69 *~;
#X obj 89 69 *~;
#X obj 89 91 +~;
#X obj 159 94 q8_rsqrt~;
#X obj 159 71 +~ 1e-20;
#X obj 73 119 *~;
#X obj 19 118 *~;
#X obj 19 325 +~;
#X obj 125 331 +~;
#X obj 300 616 block~ 2048 4;
#X obj 52 598 tabreceive~ hann;
#X msg 293 565 \; window-size 2048 \; transpo 0 \;;
#X obj 29 245 lrshift~ 1;
#X obj 24 269 lrshift~ -1;
#X obj 141 245 lrshift~ 1;
#X obj 133 269 lrshift~ -1;
#X connect 0 0 2 1;
#X connect 1 0 2 0;
#X connect 2 0 30 0;
#X connect 2 0 15 0;
#X connect 3 0 5 1;
#X connect 4 0 5 0;
#X connect 5 0 29 0;
#X connect 5 0 15 1;
#X connect 6 0 19 1;
#X connect 7 0 19 0;
#X connect 8 0 10 1;
#X connect 9 0 10 0;
#X connect 10 0 40 0;
#X connect 10 0 46 0;
#X connect 10 0 45 0;
#X connect 11 0 18 1;
#X connect 12 0 16 0;
#X connect 13 0 1 1;
#X connect 13 0 3 1;
#X connect 13 1 0 1;
#X connect 13 1 4 1;
#X connect 14 0 9 1;
#X connect 14 0 7 1;
#X connect 14 1 6 1;
#X connect 14 1 8 1;
#X connect 15 0 24 0;
#X connect 17 0 18 0;
#X connect 18 0 27 0;
#X connect 19 0 41 0;
#X connect 19 0 47 0;
#X connect 19 0 48 0;
#X connect 20 0 1 0;
#X connect 20 0 4 0;
#X connect 21 0 0 0;
#X connect 21 0 3 0;
#X connect 22 0 25 0;
#X connect 23 0 17 1;
#X connect 23 0 17 0;
#X connect 23 0 20 0;
#X connect 24 0 12 0;
#X connect 25 0 12 1;
#X connect 26 0 44 0;
#X connect 27 0 20 1;
#X connect 27 0 21 1;
#X connect 28 0 14 0;
#X connect 28 1 13 0;
#X connect 31 0 34 1;
#X connect 31 0 34 0;
#X connect 31 0 39 0;
#X connect 32 0 33 1;
#X connect 32 0 33 0;
#X connect 32 0 38 0;
#X connect 33 0 35 1;
#X connect 34 0 35 0;
#X connect 35 0 37 0;
#X connect 36 0 38 1;
#X connect 36 0 39 1;
#X connect 37 0 36 0;
#X connect 38 0 8 0;
#X connect 38 0 7 0;
#X connect 39 0 9 0;
#X connect 39 0 6 0;
#X connect 40 0 23 0;
#X connect 41 0 11 0;
#X connect 41 0 11 1;
#X connect 41 0 21 0;
#X connect 43 0 24 1;
#X connect 45 0 40 1;
#X connect 46 0 40 1;
#X connect 47 0 41 1;
#X connect 48 0 41 1;
#X restore 75 109 pd phase vocoder;
#N canvas 569 480 482 368 freqshift 0;
#X obj 130 191 hilbert~;
#X obj 135 239 *~;
#X obj 182 239 *~;
#X obj 199 196 cos~;
#X obj 243 195 cos~;
#X obj 109 143 inlet~;
#X obj 235 163 +~ 0.25;
#X obj 193 126 phasor~;
#X obj 193 103 line~;
#X obj 192 77 pack 0 20;
#X obj 145 271 +~;
#X obj 100 341 outlet~;
#X floatatom 191 40 5 0 0 0 - - -, f 5;
#X floatatom 289 131 5 0 0 0 - - -, f 5;
#X obj 278 24 r pepe;
#X obj 281 79 / 5;
#X connect 0 0 1 0;
#X connect 0 1 2 0;
#X connect 1 0 10 0;
#X connect 2 0 10 1;
#X connect 3 0 1 1;
#X connect 4 0 2 1;
#X connect 5 0 0 0;
#X connect 5 0 11 0;
#X connect 6 0 4 0;
#X connect 7 0 6 0;
#X connect 7 0 3 0;
#X connect 8 0 7 0;
#X connect 9 0 8 0;
#X connect 10 0 11 0;
#X connect 12 0 15 0;
#X connect 13 0 6 1;
#X connect 14 0 12 0;
#X connect 15 0 9 0;
#X restore 75 181 pd freqshift;
#N canvas 24 316 508 329 chorus 0;
#X obj 77 41 inlet~;
#X obj 216 212 outlet~;
#X obj 8 217 delwrite~ chorus 1000;
#X obj 239 167 vd~ chorus;
#X obj 244 70 osc~;
#X floatatom 315 -12 5 0 0 0 - - -, f 5;
#X obj 238 135 +~ 10;
#X obj 306 52 line~;
#X obj 309 18 pack 0 50;
#X obj 242 97 *~;
#X obj 299 85 /~ 10;
#X obj 195 11 r mod;
#X connect 0 0 2 0;
#X connect 0 0 1 0;
#X connect 3 0 1 0;
#X connect 4 0 9 0;
#X connect 5 0 8 0;
#X connect 6 0 3 0;
#X connect 7 0 4 0;
#X connect 7 0 10 0;
#X connect 8 0 7 0;
#X connect 9 0 6 0;
#X connect 10 0 9 1;
#X connect 11 0 5 0;
#X restore 75 145 pd chorus;
#X connect 3 0 5 0;
#X connect 4 0 2 0;
#X connect 5 0 4 0;
#X restore 97 219 pd string;
#N canvas 389 22 668 543 granular 1;
#X obj 167 500 throw~ mix;
#X obj 215 11 tgl 15 0 empty empty empty 17 7 0 10 -262144 -1 -1 0
1;
#X obj 166 436 tabplay~;
#X obj 218 92 random 10;
#X msg 172 401 set 73_\$1 \, bang;
#X obj 217 39 metro 100;
#X obj 292 89 + 40;
#X floatatom 312 35 5 0 0 0 - - -, f 5;
#X obj 169 474 *~ 0.1;
#X obj 413 284 + 1;
#X obj 340 168 bng 15 250 50 0 empty empty empty 17 7 0 10 -262144
-1 -1;
#X msg 362 312 0;
#X obj 337 213 f;
#X obj 311 255 sel 9;
#X floatatom 403 215 5 0 0 0 - - -, f 5;
#X obj 231 337 route;
#X obj 152 93 t b b;
#X connect 1 0 5 0;
#X connect 2 0 8 0;
#X connect 3 0 6 0;
#X connect 4 0 2 0;
#X connect 5 0 3 0;
#X connect 6 0 5 1;
#X connect 7 0 6 1;
#X connect 8 0 0 0;
#X connect 9 0 12 1;
#X connect 10 0 12 0;
#X connect 11 0 12 1;
#X connect 12 0 13 0;
#X connect 12 0 14 0;
#X connect 13 0 11 0;
#X connect 13 1 9 0;
#X restore 175 223 pd granular;
#X connect 0 0 7 0;
#X connect 5 0 6 0;
#X connect 7 0 31 0;
#X connect 7 1 32 0;
#X connect 8 2 9 0;
#X connect 10 0 20 0;
#X connect 11 0 21 0;
#X connect 12 0 22 0;
#X connect 13 0 23 0;
#X connect 14 0 28 0;
#X connect 15 0 24 0;
#X connect 16 0 25 0;
#X connect 17 0 26 0;
#X connect 18 0 27 0;
#X connect 19 0 29 0;
#X connect 29 0 30 0;
#X connect 30 0 47 0;
#X connect 33 0 53 0;
#X connect 33 0 52 0;
#X connect 35 0 34 0;
#X connect 37 0 36 0;
#X connect 39 0 41 0;
#X connect 40 0 38 0;
#X connect 43 0 42 0;
#X connect 44 0 45 0;
#X connect 47 0 46 0;
#X connect 48 0 49 0;
#X connect 50 0 51 0;
#X connect 51 0 1 0;
#X connect 51 0 1 1;
#X connect 51 0 52 0;
#X connect 52 0 1 0;
#X connect 52 0 1 1;
#X connect 53 0 51 1;
#X connect 53 0 1 1;
#X connect 53 0 1 0;
