#N canvas 277 574 1021 733 10;
#X declare -path lib;
#X declare -path flute;
#X obj 128 31 adc~;
#X obj 130 514 dac~;
#X obj 564 52 declare -path lib;
#X obj 565 104 declare -path flute;
#N canvas 1528 22 1440 856 samples 1;
#X obj 1053 341 soundfiler;
#X obj 1208 79 loadbang;
#X obj 1035 35 table hann;
#X obj 59 32 table m22;
#X obj 59 52 table m23;
#X obj 59 72 table m24;
#X obj 59 92 table m25;
#X obj 59 112 table m26;
#X obj 59 132 table m27;
#X obj 59 152 table m28;
#X obj 59 172 table m29;
#X obj 59 192 table m30;
#X obj 59 212 table m31;
#X obj 59 232 table m32;
#X obj 59 252 table m33;
#X obj 59 272 table m34;
#X obj 59 292 table m35;
#X obj 59 312 table m36;
#X obj 59 332 table m37;
#X obj 59 352 table m38;
#X obj 59 372 table m39;
#X obj 59 392 table m40;
#X obj 59 412 table m41;
#X obj 128 32 table m42;
#X obj 128 52 table m43;
#X obj 128 72 table m44;
#X obj 128 92 table m45;
#X obj 128 112 table m46;
#X obj 128 132 table m47;
#X obj 128 152 table m48;
#X obj 128 172 table m49;
#X obj 128 192 table m50;
#X obj 128 212 table m51;
#X obj 128 232 table m52;
#X obj 128 252 table m53;
#X obj 128 272 table m54;
#X obj 128 292 table m55;
#X obj 128 312 table m56;
#X obj 128 332 table m57;
#X obj 128 352 table m58;
#X obj 128 372 table m59;
#X obj 128 392 table m60;
#X obj 128 412 table m61;
#X obj 194 31 table m62;
#X obj 194 51 table m63;
#X obj 194 71 table m64;
#X obj 194 91 table m65;
#X obj 194 111 table m66;
#X obj 194 131 table m67;
#X obj 194 151 table m68;
#X obj 194 171 table m69;
#X obj 194 191 table m70;
#X obj 269 32 table n35;
#X obj 269 52 table n36;
#X obj 269 72 table n37;
#X obj 269 92 table n38;
#X obj 269 112 table n39;
#X obj 269 132 table n40;
#X obj 269 152 table n41;
#X obj 269 172 table n42;
#X obj 269 192 table n43;
#X obj 269 212 table n44;
#X obj 269 232 table n45;
#X obj 269 252 table n46;
#X obj 269 272 table n47;
#X obj 269 292 table n48;
#X obj 269 312 table n49;
#X obj 269 332 table n50;
#X obj 269 352 table n51;
#X obj 269 372 table n52;
#X obj 269 392 table n53;
#X obj 269 412 table n54;
#X obj 334 33 table n55;
#X obj 334 53 table n56;
#X obj 334 73 table n57;
#X obj 334 93 table n58;
#X obj 334 113 table n59;
#X obj 334 133 table n60;
#X obj 334 153 table n61;
#X obj 334 173 table n62;
#X obj 334 193 table n63;
#X obj 334 213 table n64;
#X obj 334 233 table n65;
#X obj 334 253 table n66;
#X obj 334 273 table n67;
#X obj 334 293 table n68;
#X obj 334 313 table n69;
#X obj 334 333 table n70;
#X obj 334 353 table n71;
#X obj 334 373 table n72;
#X obj 334 393 table n73;
#X obj 334 413 table n74;
#X obj 397 34 table n75;
#X obj 397 54 table n76;
#X obj 397 74 table n77;
#X obj 397 94 table n78;
#X obj 397 114 table n79;
#X obj 397 134 table n80;
#X obj 397 154 table n81;
#X obj 397 174 table n82;
#X obj 397 194 table n83;
#X obj 397 214 table n84;
#X obj 397 234 table n85;
#X obj 397 254 table n86;
#X obj 397 274 table n87;
#X obj 397 294 table n88;
#X obj 397 314 table n89;
#X obj 397 334 table n90;
#X obj 397 354 table n91;
#X obj 397 374 table n92;
#X obj 397 394 table n93;
#X obj 397 414 table n94;
#X obj 462 35 table n95;
#X obj 462 55 table n96;
#X obj 462 75 table n97;
#X obj 462 95 table n98;
#X obj 548 38 table o21;
#X obj 548 58 table o22;
#X obj 548 78 table o23;
#X obj 548 98 table o24;
#X obj 548 118 table o25;
#X obj 548 138 table o26;
#X obj 548 158 table o27;
#X obj 548 178 table o28;
#X obj 548 198 table o29;
#X obj 548 218 table o30;
#X obj 548 238 table o31;
#X obj 548 258 table o32;
#X obj 548 278 table o33;
#X obj 548 298 table o34;
#X obj 548 318 table o35;
#X obj 548 338 table o36;
#X obj 548 358 table o37;
#X obj 548 378 table o38;
#X obj 548 398 table o39;
#X obj 548 418 table o40;
#X obj 610 39 table o41;
#X obj 610 59 table o42;
#X obj 610 79 table o43;
#X obj 610 99 table o44;
#X obj 610 119 table o45;
#X obj 610 139 table o46;
#X obj 610 159 table o47;
#X obj 610 179 table o48;
#X obj 610 199 table o49;
#X obj 610 219 table o50;
#X obj 610 239 table o51;
#X obj 610 259 table o52;
#X obj 610 279 table o53;
#X obj 610 299 table o54;
#X obj 610 319 table o55;
#X obj 610 339 table o56;
#X obj 610 359 table o57;
#X obj 610 379 table o58;
#X obj 610 399 table o59;
#X obj 610 419 table o60;
#X obj 676 40 table o61;
#X obj 676 60 table o62;
#X obj 676 80 table o63;
#X obj 676 100 table o64;
#X obj 676 120 table o65;
#X obj 676 140 table o66;
#X obj 676 160 table o67;
#X obj 676 180 table o68;
#X obj 676 200 table o69;
#X obj 749 39 table s36;
#X obj 749 59 table s37;
#X obj 749 79 table s38;
#X obj 749 99 table s39;
#X obj 749 119 table s40;
#X obj 749 139 table s41;
#X obj 749 159 table s42;
#X obj 749 179 table s43;
#X obj 749 199 table s44;
#X obj 749 219 table s45;
#X obj 749 239 table s46;
#X obj 749 259 table s47;
#X obj 749 279 table s48;
#X obj 749 299 table s49;
#X obj 749 319 table s50;
#X obj 749 339 table s51;
#X obj 749 359 table s52;
#X obj 749 379 table s53;
#X obj 749 399 table s54;
#X obj 749 419 table s55;
#X obj 811 40 table s56;
#X obj 811 60 table s57;
#X obj 811 80 table s58;
#X obj 811 100 table s59;
#X obj 811 120 table s60;
#X obj 811 140 table s61;
#X obj 811 160 table s62;
#X obj 811 180 table s63;
#X obj 811 200 table s64;
#X obj 811 220 table s65;
#X obj 811 240 table s66;
#X obj 811 260 table s67;
#X obj 811 280 table s68;
#X obj 811 300 table s69;
#X obj 811 320 table s70;
#X obj 811 340 table s71;
#X obj 811 360 table s72;
#X msg 1046 267 read -resize piano/mute/mute_\$1.wav m\$1;
#X msg 1042 154 49;
#X msg 1124 289 read -resize piano/mute2/mute2_\$1.wav n\$1;
#X obj 1121 182 until;
#X msg 1201 316 read -resize piano/overtone/overtone_\$1.wav o\$1;
#X msg 1197 151 49, f 5;
#X msg 1302 343 read -resize piano/string/string_\$1.wav s\$1;
#X obj 287 500 table 28_0;
#X obj 287 520 table 28_1;
#X obj 287 540 table 28_2;
#X obj 287 562 table 28_3;
#X obj 653 499 table 73_0;
#X obj 653 518 table 73_1;
#X obj 653 537 table 73_2;
#X obj 653 556 table 73_3;
#X obj 653 575 table 73_4;
#X obj 653 594 table 73_5;
#X obj 653 613 table 73_6;
#X obj 653 632 table 73_7;
#X obj 653 651 table 73_8;
#X obj 653 670 table 73_9;
#X obj 1031 783 soundfiler;
#X obj 793 502 table 84_0;
#X obj 793 522 table 84_1;
#X obj 793 541 table 84_2;
#X obj 793 560 table 84_3;
#X obj 794 579 table 84_4;
#X obj 794 599 table 84_5;
#X obj 794 618 table 84_6;
#X obj 794 637 table 84_7;
#X obj 793 656 table 84_8;
#X obj 793 675 table 84_9;
#X obj 869 504 table 87_0;
#X obj 869 524 table 87_1;
#X obj 869 543 table 87_2;
#X obj 869 562 table 87_3;
#X obj 870 581 table 87_4;
#X obj 870 601 table 87_5;
#X obj 870 620 table 87_6;
#X obj 871 638 table 87_7;
#X obj 869 677 table 87_9;
#X obj 868 658 table 87_8;
#X obj 728 500 table 82_0;
#X obj 728 520 table 82_1;
#X obj 728 539 table 82_2;
#X obj 728 558 table 82_3;
#X obj 729 577 table 82_4;
#X obj 729 597 table 82_5;
#X obj 729 616 table 82_6;
#X obj 729 635 table 82_7;
#X obj 728 654 table 82_8;
#X obj 728 673 table 82_9;
#X obj 287 584 table 28_4;
#X obj 287 604 table 28_5;
#X obj 287 624 table 28_6;
#X obj 287 646 table 28_7;
#X obj 287 666 table 28_8;
#X obj 287 688 table 28_9;
#X obj 215 498 table 27_0;
#X obj 215 518 table 27_1;
#X obj 215 538 table 27_2;
#X obj 215 560 table 27_3;
#X obj 215 582 table 27_4;
#X obj 215 602 table 27_5;
#X obj 215 622 table 27_6;
#X obj 215 644 table 27_7;
#X obj 215 664 table 27_8;
#X obj 215 686 table 27_9;
#X obj 7 494 table 24_0;
#X obj 6 514 table 24_1;
#X obj 6 534 table 24_2;
#X obj 6 556 table 24_3;
#X obj 6 576 table 24_4;
#X obj 7 597 table 24_5;
#X obj 7 619 table 24_6;
#X obj 7 639 table 24_7;
#X obj 7 659 table 24_8;
#X obj 7 681 table 24_9;
#X msg 999 613 10;
#X obj 999 644 until;
#X obj 1001 554 list split 1;
#X obj 999 478 until;
#X obj 1001 509 list append;
#X obj 1027 438 t b l;
#X obj 1130 501 bang;
#X msg 1121 151 64;
#X obj 1121 213 counter 35;
#X obj 1042 185 until;
#X obj 1042 216 counter 22;
#X obj 1197 181 until;
#X obj 1198 222 counter 21;
#X msg 1287 157 37;
#X obj 1287 189 until;
#X obj 1287 222 counter 36;
#X obj 1003 705 pack;
#X obj 1001 580 t b f;
#X obj 1000 676 counter 0 10;
#X msg 1025 748 read -resize piano/scratch/scratch_\$2_\$1.wav \$2_\$1
;
#X obj 437 501 table 44_0;
#X obj 438 522 table 44_1;
#X obj 439 543 table 44_2;
#X obj 440 564 table 44_3;
#X obj 439 588 table 44_4;
#X obj 440 609 table 44_5;
#X obj 441 630 table 44_6;
#X obj 442 651 table 44_7;
#X obj 440 671 table 44_8;
#X obj 441 692 table 44_9;
#X obj 510 501 table 43_0;
#X obj 511 522 table 43_1;
#X obj 513 543 table 43_2;
#X obj 514 563 table 43_3;
#X obj 512 588 table 43_4;
#X obj 513 609 table 43_5;
#X obj 514 630 table 43_6;
#X obj 515 651 table 43_7;
#X obj 513 671 table 43_8;
#X obj 514 691 table 43_9;
#X obj 581 500 table 40_0;
#X obj 582 521 table 40_1;
#X obj 584 542 table 40_2;
#X obj 584 563 table 40_3;
#X obj 583 587 table 40_4;
#X obj 584 608 table 40_5;
#X obj 585 629 table 40_6;
#X obj 586 650 table 40_7;
#X obj 584 670 table 40_8;
#X obj 585 690 table 40_9;
#X obj 80 493 table 25_0;
#X obj 81 512 table 25_1;
#X obj 81 531 table 25_2;
#X obj 82 550 table 25_3;
#X obj 80 573 table 25_4;
#X obj 81 592 table 25_5;
#X obj 81 611 table 25_6;
#X obj 81 631 table 25_7;
#X obj 82 653 table 25_8;
#X obj 82 672 table 25_9;
#X obj 146 494 table 26_0;
#X obj 147 513 table 26_1;
#X obj 147 532 table 26_2;
#X obj 148 551 table 26_3;
#X obj 146 574 table 26_4;
#X obj 147 593 table 26_5;
#X obj 147 612 table 26_6;
#X obj 147 633 table 26_7;
#X obj 148 654 table 26_8;
#X obj 148 673 table 26_9;
#X obj 361 500 table 32_0;
#X obj 361 520 table 32_1;
#X obj 361 540 table 32_2;
#X obj 361 562 table 32_3;
#X obj 361 584 table 32_4;
#X obj 361 604 table 32_5;
#X obj 361 624 table 32_6;
#X obj 361 646 table 32_7;
#X obj 361 666 table 32_8;
#X obj 361 688 table 32_9;
#X msg 1018 405 24 27 28 44 43 40 73 82 84 87 25 26 32;
#X obj 1011 372 loadbang;
#X connect 1 0 203 0;
#X connect 1 0 287 0;
#X connect 1 0 207 0;
#X connect 1 0 293 0;
#X connect 202 0 0 0;
#X connect 203 0 289 0;
#X connect 204 0 0 0;
#X connect 205 0 288 0;
#X connect 206 0 0 0;
#X connect 207 0 291 0;
#X connect 208 0 0 0;
#X connect 280 0 281 0;
#X connect 281 0 298 0;
#X connect 282 0 297 0;
#X connect 282 1 284 1;
#X connect 282 2 286 0;
#X connect 283 0 284 0;
#X connect 284 0 282 0;
#X connect 285 0 283 0;
#X connect 285 1 284 1;
#X connect 286 0 283 1;
#X connect 287 0 205 0;
#X connect 288 0 204 0;
#X connect 289 0 290 0;
#X connect 290 0 202 0;
#X connect 291 0 292 0;
#X connect 292 0 206 0;
#X connect 293 0 294 0;
#X connect 294 0 295 0;
#X connect 295 0 208 0;
#X connect 296 0 299 0;
#X connect 297 0 280 0;
#X connect 297 1 296 1;
#X connect 298 0 296 0;
#X connect 299 0 223 0;
#X connect 360 0 285 0;
#X connect 361 0 360 0;
#X restore 559 128 pd samples;
#X obj 803 40 loadmeter;
#X floatatom 805 70 5 0 0 0 - - -, f 5;
#X obj 128 70 envfol;
#N canvas 0 22 549 390 sensor 0;
#X obj 420 110 outlet;
#X obj 121 345 outlet;
#X obj 78 315 outlet;
#X restore 547 225 pd sensor;
#X floatatom 651 194 5 0 0 0 mode - -, f 5;
#X obj 548 279 vsl 15 128 0 127 0 0 empty empty empty 0 -9 0 10 -262144
-1 -1 0 1;
#X obj 589 280 vsl 15 128 0 127 0 0 empty empty empty 0 -9 0 10 -262144
-1 -1 0 1;
#X obj 634 280 vsl 15 128 0 127 0 0 empty empty empty 0 -9 0 10 -262144
-1 -1 0 1;
#X obj 670 280 vsl 15 128 0 127 0 0 empty empty empty 0 -9 0 10 -262144
-1 -1 0 1;
#X obj 714 280 vsl 15 128 0 127 0 0 empty empty empty 0 -9 0 10 -262144
-1 -1 0 1;
#X obj 779 280 vsl 15 128 0 127 0 0 empty empty empty 0 -9 0 10 -262144
-1 -1 0 1;
#X obj 819 280 vsl 15 128 0 127 0 0 empty empty empty 0 -9 0 10 -262144
-1 -1 0 1;
#X obj 855 280 vsl 15 128 0 127 0 0 empty empty empty 0 -9 0 10 -262144
-1 -1 0 1;
#X obj 891 280 vsl 15 128 0 127 0 0 empty empty empty 0 -9 0 10 -262144
-1 -1 0 1;
#N canvas 126 74 613 499 fingering 0;
#X obj 25 153 << 8;
#X obj 83 153 << 7;
#X obj 140 153 << 6;
#X obj 198 153 << 5;
#X obj 261 153 << 4;
#X obj 365 153 << 3;
#X obj 423 153 << 2;
#X obj 478 153 << 1;
#X obj 25 90 > 10;
#X obj 25 123 change;
#X obj 83 91 > 10;
#X obj 83 123 change;
#X obj 140 90 > 10;
#X obj 140 123 change;
#X obj 198 90 > 10;
#X obj 198 123 change;
#X obj 261 90 > 10;
#X obj 261 123 change;
#X obj 365 90 > 10;
#X obj 365 123 change;
#X obj 423 90 > 10;
#X obj 423 123 change;
#X obj 478 90 > 10;
#X obj 478 123 change;
#X obj 532 90 > 10;
#X obj 532 123 change;
#X obj 25 57 r lt;
#X obj 198 57 r l3;
#X obj 140 57 r l2;
#X obj 83 57 r l1;
#X obj 365 57 r r1;
#X obj 423 57 r r2;
#X obj 478 57 r r3;
#X obj 532 57 r es;
#X obj 261 57 r lgis;
#X obj 478 191 +, f 10;
#X obj 367 191 +, f 10;
#X obj 201 197 +, f 10;
#X obj 101 196 +, f 10;
#X obj 407 235 +, f 10;
#X obj 136 232 +, f 10;
#X obj 240 300 +, f 10;
#X obj 159 321 +, f 10;
#X obj 156 361 outlet;
#X obj 219 -12 tgl 15 0 empty empty empty 17 7 0 10 -262144 -1 -1 0
1;
#X text 277 -12 for testing;
#X obj 225 12 metro 50;
#X connect 0 0 42 0;
#X connect 1 0 38 0;
#X connect 2 0 38 1;
#X connect 3 0 37 0;
#X connect 4 0 37 1;
#X connect 5 0 36 0;
#X connect 6 0 36 1;
#X connect 7 0 35 0;
#X connect 8 0 9 0;
#X connect 9 0 0 0;
#X connect 10 0 11 0;
#X connect 11 0 1 0;
#X connect 12 0 13 0;
#X connect 13 0 2 0;
#X connect 14 0 15 0;
#X connect 15 0 3 0;
#X connect 16 0 17 0;
#X connect 17 0 4 0;
#X connect 18 0 19 0;
#X connect 19 0 5 0;
#X connect 20 0 21 0;
#X connect 21 0 6 0;
#X connect 22 0 23 0;
#X connect 23 0 7 0;
#X connect 24 0 25 0;
#X connect 25 0 35 1;
#X connect 26 0 8 0;
#X connect 27 0 14 0;
#X connect 28 0 12 0;
#X connect 29 0 10 0;
#X connect 30 0 18 0;
#X connect 31 0 20 0;
#X connect 32 0 22 0;
#X connect 33 0 24 0;
#X connect 34 0 16 0;
#X connect 35 0 39 1;
#X connect 36 0 39 0;
#X connect 37 0 40 1;
#X connect 38 0 40 0;
#X connect 39 0 41 1;
#X connect 40 0 41 0;
#X connect 41 0 42 1;
#X connect 42 0 43 0;
#X connect 44 0 46 0;
#X connect 46 0 0 0;
#X connect 46 0 1 0;
#X connect 46 0 2 0;
#X connect 46 0 3 0;
#X connect 46 0 4 0;
#X connect 46 0 5 0;
#X connect 46 0 6 0;
#X connect 46 0 7 0;
#X restore 552 478 pd fingering;
#X obj 550 429 s lt;
#X obj 589 429 s l1;
#X obj 634 429 s l2;
#X obj 670 429 s l3;
#X obj 779 429 s r1;
#X obj 819 429 s r2;
#X obj 855 429 s r3;
#X obj 891 429 s es;
#X obj 714 429 s lgis;
#X floatatom 552 502 5 0 0 0 - - -, f 5;
#N canvas 0 22 1394 478 fingering_to_midi 0;
#X obj 46 37 inlet;
#X obj 550 293 outlet, f 10;
#X msg 411 173 62;
#X msg 441 173 63;
#X msg 471 173 64;
#X msg 503 173 65;
#X msg 532 173 66;
#X msg 561 173 67;
#X msg 590 173 68;
#X msg 619 173 69;
#X msg 649 173 70;
#X msg 679 173 71;
#X msg 708 173 72;
#X msg 739 173 73;
#X obj 467 51 sel 494 495 493 489 483 481 497 449 457 449 129 1 366
367;
#X msg 771 173 74;
#X msg 804 173 75;
#X connect 0 0 14 0;
#X connect 2 0 1 0;
#X connect 3 0 1 0;
#X connect 4 0 1 0;
#X connect 5 0 1 0;
#X connect 6 0 1 0;
#X connect 7 0 1 0;
#X connect 8 0 1 0;
#X connect 9 0 1 0;
#X connect 10 0 1 0;
#X connect 11 0 1 0;
#X connect 12 0 1 0;
#X connect 13 0 1 0;
#X connect 14 0 2 0;
#X connect 14 1 3 0;
#X connect 14 2 4 0;
#X connect 14 3 5 0;
#X connect 14 4 6 0;
#X connect 14 5 7 0;
#X connect 14 6 8 0;
#X connect 14 7 9 0;
#X connect 14 8 10 0;
#X connect 14 9 11 0;
#X connect 14 10 12 0;
#X connect 14 11 13 0;
#X connect 14 12 15 0;
#X connect 14 13 16 0;
#X connect 15 0 1 0;
#X connect 16 0 1 0;
#X restore 552 523 pd fingering_to_midi;
#X obj 104 103 s~ envfol;
#X obj 186 103 s attack;
#X obj 123 364 catch~ mix;
#X obj 371 163 s location;
#X floatatom 367 120 5 0 0 0 - - -, f 5;
#X obj 534 188 s transpo;
#X floatatom 534 171 5 0 0 0 - - -, f 5;
#X obj 355 238 s air;
#X floatatom 278 211 5 0 0 0 - - -, f 5;
#X floatatom 350 209 5 0 0 0 - - -, f 5;
#X obj 278 230 s octave;
#X obj 486 259 s pepe;
#X floatatom 489 229 5 0 0 0 - - -, f 5;
#X floatatom 419 224 5 0 0 0 - - -, f 5;
#X obj 416 254 s mod;
#X obj 559 580 s pitch;
#X floatatom 560 552 5 0 0 0 - - -, f 5;
#X obj 124 400 *~ 0.8;
#N canvas 586 22 945 676 scratch 0;
#X obj 63 376 pf_finger 24;
#X obj 180 401 pf_finger 27;
#X obj 214 424 pf_finger 28;
#X obj 377 398 pf_finger 73;
#X obj 402 421 pf_finger 82;
#X obj 424 442 pf_finger 84;
#X obj 448 469 pf_finger 87;
#X obj 63 232 vsl 15 128 0 127 0 0 empty empty empty 0 -9 0 10 -262144
-1 -1 0 1;
#X obj 180 236 vsl 15 128 0 127 0 0 empty empty empty 0 -9 0 10 -262144
-1 -1 0 1;
#X obj 203 237 vsl 15 128 0 127 0 0 empty empty empty 0 -9 0 10 -262144
-1 -1 0 1;
#X obj 229 236 vsl 15 128 0 127 0 0 empty empty empty 0 -9 0 10 -262144
-1 -1 0 1;
#X obj 338 229 vsl 15 128 0 127 0 0 empty empty empty 0 -9 0 10 -262144
-1 -1 0 1;
#X obj 355 230 vsl 15 128 0 127 0 0 empty empty empty 0 -9 0 10 -262144
-1 -1 0 1;
#X obj 378 230 vsl 15 128 0 127 0 0 empty empty empty 0 -9 0 10 -262144
-1 -1 0 1;
#X obj 401 230 vsl 15 128 0 127 0 0 empty empty empty 0 -9 0 10 -262144
-1 -1 0 1;
#X obj 424 230 vsl 15 128 0 127 0 0 empty empty empty 0 -9 0 10 -262144
-1 -1 0 1;
#X obj 447 231 vsl 15 128 0 127 0 0 empty empty empty 0 -9 0 10 -262144
-1 -1 0 1;
#X obj 230 445 pf_finger 44;
#X obj 345 480 pf_finger 43;
#X obj 355 376 pf_finger 40;
#X obj 90 234 vsl 15 128 0 127 0 0 empty empty empty 0 -9 0 10 -262144
-1 -1 0 1;
#X obj 92 402 pf_finger 25;
#X obj 120 236 vsl 15 128 0 127 0 0 empty empty empty 0 -9 0 10 -262144
-1 -1 0 1;
#X obj 121 428 pf_finger 26;
#X obj 264 240 vsl 15 128 0 127 0 0 empty empty empty 0 -9 0 10 -262144
-1 -1 0 1;
#X obj 260 491 pf_finger 32;
#X connect 7 0 0 0;
#X connect 8 0 1 0;
#X connect 9 0 2 0;
#X connect 10 0 17 0;
#X connect 11 0 18 0;
#X connect 12 0 19 0;
#X connect 13 0 3 0;
#X connect 14 0 4 0;
#X connect 15 0 5 0;
#X connect 16 0 6 0;
#X connect 20 0 21 0;
#X connect 22 0 23 0;
#X connect 24 0 25 0;
#X restore 106 165 pd scratch;
#N canvas 410 241 696 602 mute 0;
#X obj 134 418 line~;
#X obj 33 461 *~;
#X obj 33 502 throw~ mix;
#X obj 113 370 pack 0.5 10;
#X obj 193 341 del 10;
#X obj 196 376 pack 0 500;
#X obj 9 377 line~;
#X obj 11 421 tabread4~ m36;
#X msg 58 321 0;
#X msg -32 319 44100 \$1;
#X obj -31 290 f;
#X obj 149 213 i 1000;
#X obj 167 179 t b f;
#X floatatom 166 148 5 0 0 0 - - -, f 5;
#X obj 51 204 t b b f b;
#X obj 47 172 / 127;
#X floatatom 40 145 5 0 0 0 - - -, f 5;
#X obj 182 244 -;
#X obj -18 89 change;
#X floatatom 91 27 5 0 0 0 - - -, f 5;
#X obj 14 60 > 0;
#X obj -11 113 sel 1;
#X obj 50 64 t f f;
#X obj 53 118 f;
#X floatatom 182 266 5 0 0 0 - - -, f 5;
#X connect 0 0 1 1;
#X connect 1 0 2 0;
#X connect 3 0 0 0;
#X connect 4 0 5 0;
#X connect 5 0 0 0;
#X connect 6 0 7 0;
#X connect 7 0 1 0;
#X connect 8 0 6 0;
#X connect 9 0 6 0;
#X connect 10 0 9 0;
#X connect 11 0 17 0;
#X connect 12 0 11 0;
#X connect 12 1 17 1;
#X connect 13 0 12 0;
#X connect 14 0 10 0;
#X connect 14 1 8 0;
#X connect 14 2 3 0;
#X connect 14 3 4 0;
#X connect 15 0 14 0;
#X connect 16 0 15 0;
#X connect 17 0 10 1;
#X connect 17 0 24 0;
#X connect 18 0 21 0;
#X connect 19 0 22 0;
#X connect 20 0 18 0;
#X connect 21 0 23 0;
#X connect 22 0 20 0;
#X connect 22 1 23 1;
#X connect 23 0 16 0;
#X restore 107 189 pd mute;
#N canvas 223 315 1027 579 overtone 0;
#X obj 197 47 vsl 15 128 0 127 0 0 empty empty empty 0 -9 0 10 -262144
-1 -1 0 1;
#X obj 219 47 vsl 15 128 0 127 0 0 empty empty empty 0 -9 0 10 -262144
-1 -1 0 1;
#X obj 239 48 vsl 15 128 0 127 0 0 empty empty empty 0 -9 0 10 -262144
-1 -1 0 1;
#X obj 261 48 vsl 15 128 0 127 0 0 empty empty empty 0 -9 0 10 -262144
-1 -1 0 1;
#X obj 284 48 vsl 15 128 0 127 0 0 empty empty empty 0 -9 0 10 -262144
-1 -1 0 1;
#X obj 564 33 vsl 15 128 0 127 0 0 empty empty empty 0 -9 0 10 -262144
-1 -1 0 1;
#X obj 586 33 vsl 15 128 0 127 0 0 empty empty empty 0 -9 0 10 -262144
-1 -1 0 1;
#X obj 606 34 vsl 15 128 0 127 0 0 empty empty empty 0 -9 0 10 -262144
-1 -1 0 1;
#X obj 628 34 vsl 15 128 0 127 0 0 empty empty empty 0 -9 0 10 -262144
-1 -1 6400 1;
#X obj 651 34 vsl 15 128 0 127 0 0 empty empty empty 0 -9 0 10 -262144
-1 -1 0 1;
#X floatatom 418 102 5 0 0 0 - - -, f 5;
#X obj 359 197 +;
#X obj 329 197 +;
#X obj 389 198 +;
#X obj 418 198 +;
#X obj 447 198 +;
#X floatatom 329 89 5 0 0 0 - - -, f 5;
#X obj 329 62 + 21;
#X floatatom 329 40 5 0 0 0 - - -, f 5;
#X obj 404 172 * 2;
#X obj 436 171 * 3;
#X obj 462 171 * 4;
#X floatatom 124 404 5 0 0 0 - - -, f 5;
#X floatatom 632 384 5 0 0 0 - - -, f 5;
#X obj 694 411 / 15;
#X floatatom 797 95 5 0 0 0 - - -, f 5;
#X obj 738 190 +;
#X obj 708 190 +;
#X obj 768 191 +;
#X obj 797 191 +;
#X obj 826 191 +;
#X floatatom 707 98 5 0 0 0 - - -, f 5;
#X obj 707 74 + 21;
#X floatatom 707 52 5 0 0 0 - - -, f 5;
#X obj 783 165 * 2;
#X obj 815 164 * 3;
#X obj 841 164 * 4;
#X obj 239 241 touch_release;
#X obj 288 425 / 15;
#X obj 611 410 /;
#X floatatom 611 432 5 0 0 0 - - -, f 5;
#X obj 211 433 /;
#X floatatom 211 461 5 0 0 0 - - -, f 5;
#X obj 685 318 t f f;
#X obj 642 318 t f f;
#X obj 598 319 t f f;
#X obj 555 319 t f f;
#X obj 514 318 t f f;
#X floatatom 560 385 5 0 0 0 - - -, f 5;
#X obj 545 359 centroid, f 12;
#X obj 641 359 sum, f 11;
#X obj 268 337 t f f;
#X obj 225 337 t f f;
#X obj 181 338 t f f;
#X obj 138 338 t f f;
#X obj 97 337 t f f;
#X obj 128 378 centroid, f 12;
#X obj 224 378 sum, f 11;
#X floatatom 224 400 5 0 0 0 - - -, f 5;
#X obj 206 517 s left_centroid;
#X obj 797 50 r left_centroid;
#X obj 608 527 s right_centroid;
#X obj 414 75 r right_centroid;
#X obj 617 492 clip 1 5;
#X obj 210 491 clip 1 5;
#X obj 696 441 s right_sum;
#X obj 329 14 r right_sum;
#X obj 288 447 s left_sum;
#X obj 707 23 r left_sum;
#X obj 421 374 s offset;
#X floatatom 427 335 5 0 0 0 - - -, f 5;
#X floatatom 226 12 5 0 0 0 - - -, f 5;
#X floatatom 451 220 5 0 0 0 - - -, f 5;
#X floatatom 454 253 5 0 0 0 - - -, f 5;
#X floatatom 403 260 5 0 0 0 - - -, f 5;
#X floatatom 380 297 5 0 0 0 - - -, f 5;
#X obj 564 188 touch_release;
#X obj 197 193 touch_release;
#X obj 219 216 touch_release;
#X obj 261 264 touch_release;
#X obj 287 287 touch_release;
#X obj 586 211 touch_release;
#X obj 606 236 touch_release;
#X obj 628 259 touch_release;
#X obj 653 282 touch_release;
#X connect 0 0 55 0;
#X connect 0 0 77 0;
#X connect 1 0 54 0;
#X connect 1 0 78 0;
#X connect 2 0 37 0;
#X connect 2 0 53 0;
#X connect 3 0 52 0;
#X connect 3 0 79 0;
#X connect 4 0 51 0;
#X connect 4 0 80 0;
#X connect 5 0 47 0;
#X connect 5 0 76 0;
#X connect 6 0 46 0;
#X connect 6 0 81 0;
#X connect 7 0 45 0;
#X connect 7 0 82 0;
#X connect 8 0 44 0;
#X connect 8 0 83 0;
#X connect 9 0 43 0;
#X connect 9 0 84 0;
#X connect 10 0 11 1;
#X connect 10 0 19 0;
#X connect 10 0 20 0;
#X connect 10 0 21 0;
#X connect 11 0 75 0;
#X connect 11 0 78 1;
#X connect 12 0 77 1;
#X connect 13 0 37 1;
#X connect 13 0 74 0;
#X connect 14 0 73 0;
#X connect 14 0 79 1;
#X connect 15 0 72 0;
#X connect 15 0 80 1;
#X connect 16 0 12 0;
#X connect 16 0 11 0;
#X connect 16 0 13 0;
#X connect 16 0 14 0;
#X connect 16 0 15 0;
#X connect 17 0 16 0;
#X connect 18 0 17 0;
#X connect 19 0 13 1;
#X connect 20 0 14 1;
#X connect 21 0 15 1;
#X connect 22 0 41 0;
#X connect 23 0 24 0;
#X connect 23 0 39 1;
#X connect 24 0 65 0;
#X connect 25 0 26 1;
#X connect 25 0 34 0;
#X connect 25 0 35 0;
#X connect 25 0 36 0;
#X connect 26 0 81 1;
#X connect 27 0 76 1;
#X connect 28 0 82 1;
#X connect 29 0 83 1;
#X connect 30 0 84 1;
#X connect 31 0 27 0;
#X connect 31 0 26 0;
#X connect 31 0 28 0;
#X connect 31 0 29 0;
#X connect 31 0 30 0;
#X connect 32 0 31 0;
#X connect 33 0 32 0;
#X connect 34 0 28 1;
#X connect 35 0 29 1;
#X connect 36 0 30 1;
#X connect 38 0 67 0;
#X connect 39 0 40 0;
#X connect 40 0 63 0;
#X connect 41 0 42 0;
#X connect 42 0 64 0;
#X connect 43 0 49 4;
#X connect 43 1 50 4;
#X connect 44 0 49 3;
#X connect 44 1 50 3;
#X connect 45 0 49 2;
#X connect 45 1 50 2;
#X connect 46 0 49 1;
#X connect 46 1 50 1;
#X connect 47 0 49 0;
#X connect 47 1 50 0;
#X connect 48 0 39 0;
#X connect 49 0 48 0;
#X connect 50 0 23 0;
#X connect 51 0 56 4;
#X connect 51 1 57 4;
#X connect 52 0 56 3;
#X connect 52 1 57 3;
#X connect 53 0 56 2;
#X connect 53 1 57 2;
#X connect 54 0 56 1;
#X connect 54 1 57 1;
#X connect 55 0 56 0;
#X connect 55 1 57 0;
#X connect 56 0 22 0;
#X connect 57 0 58 0;
#X connect 58 0 41 1;
#X connect 58 0 38 0;
#X connect 60 0 25 0;
#X connect 62 0 10 0;
#X connect 63 0 61 0;
#X connect 64 0 59 0;
#X connect 66 0 18 0;
#X connect 68 0 33 0;
#X connect 70 0 69 0;
#X connect 71 0 0 0;
#X connect 71 0 1 0;
#X connect 71 0 2 0;
#X connect 71 0 3 0;
#X connect 71 0 4 0;
#X restore 107 214 pd overtone;
#X obj 159 440 rev2~ 80 70 3999 19, f 28;
#N canvas 0 22 450 300 modulation 0;
#X restore 108 239 pd modulation;
#X connect 0 0 7 0;
#X connect 5 0 6 0;
#X connect 7 0 31 0;
#X connect 7 1 32 0;
#X connect 8 2 9 0;
#X connect 10 0 20 0;
#X connect 11 0 21 0;
#X connect 12 0 22 0;
#X connect 13 0 23 0;
#X connect 14 0 28 0;
#X connect 15 0 24 0;
#X connect 16 0 25 0;
#X connect 17 0 26 0;
#X connect 18 0 27 0;
#X connect 19 0 29 0;
#X connect 29 0 30 0;
#X connect 30 0 47 0;
#X connect 33 0 48 0;
#X connect 35 0 34 0;
#X connect 37 0 36 0;
#X connect 39 0 41 0;
#X connect 40 0 38 0;
#X connect 43 0 42 0;
#X connect 44 0 45 0;
#X connect 47 0 46 0;
#X connect 48 0 1 1;
#X connect 48 0 1 0;
#X connect 48 0 52 0;
#X connect 52 0 1 0;
#X connect 52 0 1 1;
