#N canvas 80 112 629 396 10;
#X declare -path lib;
#X declare -path trombone;
#X obj 463 -9 loadbang;
#X msg 463 27 \; pd dsp 1;
#X obj 461 67 declare -path lib;
#X obj 461 93 declare -path trombone;
#X obj 455 270 jingle;
#X obj 465 332 dac~;
#X obj 42 11 adc~;
#N canvas 324 50 209 162 data 0;
#X obj 16 25 inlet;
#X obj 17 87 s tb_rh1;
#X obj 91 86 s tb_rh2;
#X obj 92 28 inlet;
#X connect 0 0 1 0;
#X connect 3 0 2 0;
#X restore 277 338 pd data;
#X obj 174 106 route 128 129 144 145 240;
#X obj 381 122 pc_confirm;
#X obj 381 166 s preset;
#X floatatom 381 145 5 0 0 0 - - -;
#X obj 391 222 shutdown;
#N canvas 0 50 450 300 ping 0;
#X obj 161 62 inlet;
#X obj 223 161 print;
#X msg 222 127 received a ping;
#X obj 161 159 s toAVR;
#X msg 161 122 162;
#X connect 0 0 2 0;
#X connect 0 0 4 0;
#X connect 2 0 1 0;
#X connect 4 0 3 0;
#X restore 328 79 pd ping;
#X msg 221 11 devices;
#X msg 211 -12 close;
#X msg 277 17 devicename /dev/ttyUSB0;
#X obj 277 -10 loadbang;
#N canvas 386 408 911 525 sample 0;
#X obj 338 404 soundfiler;
#X obj 372 101 loadbang;
#X obj 785 294 until;
#X obj 785 351 t f f;
#X obj 787 431 tabwrite phasor;
#X msg 865 311 2048;
#X obj 779 385 / 2048;
#X obj 670 104 table tb_hann;
#X obj 669 129 table tb_phasor;
#X msg 431 209 read -resize hann.wav tb_hann \, read -resize phasor.wav
tb_phasor;
#X obj 29 107 table tb_sl1a;
#X obj 29 132 table tb_sl2a;
#X obj 29 157 table tb_sl3a;
#X obj 29 182 table tb_sl4a;
#X obj 29 207 table tb_sl5a;
#X obj 29 232 table tb_sl6a;
#X obj 29 257 table tb_sl7a;
#X obj 29 282 table tb_sl8a;
#X obj 29 307 table tb_sl9a;
#X obj 29 332 table tb_sl10a;
#X obj 29 357 table tb_sl11a;
#X obj 123 104 table tb_sl1b;
#X obj 123 129 table tb_sl2b;
#X obj 123 154 table tb_sl3b;
#X obj 123 179 table tb_sl4b;
#X obj 123 204 table tb_sl5b;
#X obj 123 229 table tb_sl6b;
#X obj 123 254 table tb_sl7b;
#X obj 123 279 table tb_sl8b;
#X obj 123 304 table tb_sl9b;
#X obj 123 329 table tb_sl10b;
#X obj 123 354 table tb_sl11b;
#X obj 217 106 table tb_sl1c;
#X obj 217 131 table tb_sl2c;
#X obj 217 156 table tb_sl3c;
#X obj 217 181 table tb_sl4c;
#X obj 217 206 table tb_sl5c;
#X obj 217 231 table tb_sl6c;
#X obj 217 256 table tb_sl7c;
#X obj 217 281 table tb_sl8c;
#X obj 217 306 table tb_sl9c;
#X obj 217 331 table tb_sl10c;
#X obj 217 356 table tb_sl11c;
#X msg 470 343 read -resize slap/\$1a.wav tb_sl\$1a;
#X msg 480 362 read -resize slap/\$1b.wav tb_sl\$1b;
#X msg 482 381 read -resize slap/\$1c.wav tb_sl\$1c;
#X obj 469 295 until;
#X msg 467 270 12;
#X obj 469 318 cnt 1 12;
#X obj 33 397 table tb_air1;
#X obj 37 415 table tb_air2;
#X obj 35 435 table tb_air3;
#X obj 39 453 table tb_air4;
#X obj 133 398 table tb_air5;
#X obj 137 416 table tb_air6;
#X obj 135 436 table tb_air7;
#X obj 139 454 table tb_air8;
#X obj 246 408 table tb_air9;
#X obj 244 429 table tb_air10;
#X obj 250 445 table tb_air11;
#X msg 504 440 read -resize air/\$1.wav tb_air\$1;
#X obj 788 323 cnt 0 2048;
#X obj 75 39 table tb_b;
#X obj 81 63 table tb_e;
#X msg 345 161 read -resize trombone/note/64.wav tb_e \, read -resize
trombone/note/70.wav tb_b;
#X connect 1 0 9 0;
#X connect 1 0 64 0;
#X connect 1 0 47 0;
#X connect 2 0 61 0;
#X connect 3 0 6 0;
#X connect 3 1 4 1;
#X connect 5 0 2 0;
#X connect 6 0 4 0;
#X connect 9 0 0 0;
#X connect 43 0 0 0;
#X connect 44 0 0 0;
#X connect 45 0 0 0;
#X connect 46 0 48 0;
#X connect 47 0 46 0;
#X connect 48 0 43 0;
#X connect 48 0 44 0;
#X connect 48 0 45 0;
#X connect 48 0 60 0;
#X connect 60 0 0 0;
#X connect 61 0 3 0;
#X connect 64 0 0 0;
#X restore 462 121 pd sample;
#N canvas 493 22 998 636 pv 0;
#X floatatom 311 133 5 0 0 0 location - -;
#X floatatom 590 199 5 0 0 0 - - -;
#X floatatom 372 154 5 0 0 0 - - -;
#X obj 84 458 table prev-imag-tb;
#X obj 84 480 table prev-real-tb;
#X obj 372 502 throw~ tb_mix;
#X obj 246 57 r tb_envfol;
#X obj 590 146 r tb_lh1;
#X obj 372 106 r tb_rh1;
#X obj 251 327 *;
#X obj 252 299 t f f;
#X obj 268 270 clip 0 1;
#X obj 250 355 pack 0 10;
#X obj 249 378 line~;
#X obj 323 416 *~;
#X obj 598 309 r tb_rh2;
#X obj 377 457 *~;
#X obj 597 338 > 10;
#X obj 594 383 sel 1 0;
#X obj 253 226 / 3;
#N canvas 327 159 1408 827 phase-vocoder 0;
#X obj 49 503 *~;
#X obj 16 503 *~;
#X obj 16 525 -~;
#X obj 165 501 *~;
#X obj 134 501 *~;
#X obj 134 523 +~;
#X obj 109 193 *~;
#X obj 78 193 *~;
#X obj 50 193 *~;
#X obj 19 193 *~;
#X obj 19 218 +~;
#X obj 127 379 *~;
#X obj 129 451 rfft~;
#X obj 108 161 rfft~;
#X obj 27 652 rifft~;
#X obj 28 732 outlet~;
#X obj 97 379 *~;
#X obj 97 401 +~;
#X obj 124 218 -~;
#X obj 18 431 *~;
#X obj 51 432 *~;
#X obj 19 349 +~ 1e-15;
#X obj 26 684 *~;
#X obj 97 425 q8_rsqrt~;
#X obj 121 69 *~;
#X obj 89 69 *~;
#X obj 89 91 +~;
#X obj 159 94 q8_rsqrt~;
#X obj 159 71 +~ 1e-20;
#X obj 73 119 *~;
#X obj 19 118 *~;
#X obj 19 315 +~;
#X obj 125 321 +~;
#X obj 122 712 block~ 2048 4;
#X obj 372 45 inlet;
#X text 359 21 location;
#X obj 512 -7 inlet;
#X obj 20 8 tabreceive~ prev-real-tb;
#X obj 74 29 tabreceive~ prev-imag-tb;
#X obj 131 591 tabsend~ prev-imag-tb;
#X obj 130 615 tabsend~ prev-real-tb;
#X obj 292 500 *~;
#X obj 315 99 f;
#X obj 346 504 *~;
#X obj 293 52 bang~;
#X obj 289 317 line~;
#X floatatom 510 176 7 0 0 0 - - -;
#X obj 432 151 / 2;
#X obj 321 143 -;
#X obj 291 361 -~;
#X obj 267 237 f;
#X obj 267 208 b;
#X obj 102 660 tabreceive~ tb_hann;
#X obj 508 213 / 4;
#X obj 824 178 inlet;
#X obj 776 272 *~;
#X obj 804 312 +~;
#X obj 41 245 lrshift~ 1;
#X obj 36 269 lrshift~ -1;
#X obj 142 254 lrshift~ 1;
#X obj 137 278 lrshift~ -1;
#X obj 399 471 tabreceive~ tb_hann;
#X obj 27 708 *~ 0.0003255;
#X msg 266 290 0 \, \$1 11.609;
#X obj 866 252 osc~;
#X obj 790 243 / 2;
#X obj 631 170 inlet;
#X obj 583 264 *~;
#X obj 509 272 sig~;
#X obj 883 283 +~;
#X obj 861 322 clip~ -1 1;
#X obj 905 251 osc~;
#X obj 895 206 * -0.1333;
#X obj 627 236 osc~;
#X obj 676 238 osc~;
#X obj 510 63 * 0.01;
#X obj 510 105 mtof;
#X obj 510 126 / 440;
#X obj 510 149 * 2048;
#X obj 512 41 line;
#X obj 495 17 pack 0 30;
#X obj 565 402 r tb_overtone;
#X msg 559 497 set tb_e;
#X obj 391 410 tabread4~ tb_b;
#X obj 293 415 tabread4~ tb_b;
#X msg 542 535 set tb_b;
#X obj 699 214 * 0.133;
#X obj 581 463 sel 0 1;
#X obj 510 84 + 69;
#X connect 0 0 2 1;
#X connect 1 0 2 0;
#X connect 2 0 40 0;
#X connect 2 0 14 0;
#X connect 3 0 5 1;
#X connect 4 0 5 0;
#X connect 5 0 39 0;
#X connect 5 0 14 1;
#X connect 6 0 18 1;
#X connect 7 0 18 0;
#X connect 8 0 10 1;
#X connect 9 0 10 0;
#X connect 10 0 31 0;
#X connect 10 0 58 0;
#X connect 10 0 57 0;
#X connect 11 0 17 1;
#X connect 12 0 1 1;
#X connect 12 0 3 1;
#X connect 12 1 0 1;
#X connect 12 1 4 1;
#X connect 13 0 9 1;
#X connect 13 0 7 1;
#X connect 13 1 6 1;
#X connect 13 1 8 1;
#X connect 14 0 22 0;
#X connect 16 0 17 0;
#X connect 17 0 23 0;
#X connect 18 0 32 0;
#X connect 18 0 59 0;
#X connect 18 0 60 0;
#X connect 19 0 1 0;
#X connect 19 0 4 0;
#X connect 20 0 0 0;
#X connect 20 0 3 0;
#X connect 21 0 16 1;
#X connect 21 0 16 0;
#X connect 21 0 19 0;
#X connect 22 0 62 0;
#X connect 23 0 19 1;
#X connect 23 0 20 1;
#X connect 24 0 26 1;
#X connect 25 0 26 0;
#X connect 26 0 28 0;
#X connect 27 0 29 1;
#X connect 27 0 30 1;
#X connect 28 0 27 0;
#X connect 29 0 8 0;
#X connect 29 0 7 0;
#X connect 30 0 9 0;
#X connect 30 0 6 0;
#X connect 31 0 21 0;
#X connect 32 0 11 0;
#X connect 32 0 11 1;
#X connect 32 0 20 0;
#X connect 34 0 42 1;
#X connect 36 0 80 0;
#X connect 37 0 25 1;
#X connect 37 0 25 0;
#X connect 37 0 30 0;
#X connect 38 0 24 1;
#X connect 38 0 24 0;
#X connect 38 0 29 0;
#X connect 41 0 13 0;
#X connect 42 0 48 0;
#X connect 43 0 12 0;
#X connect 44 0 42 0;
#X connect 45 0 49 0;
#X connect 45 0 83 0;
#X connect 46 0 47 0;
#X connect 46 0 50 1;
#X connect 46 0 53 0;
#X connect 47 0 48 1;
#X connect 48 0 51 0;
#X connect 48 0 83 1;
#X connect 48 0 84 1;
#X connect 49 0 84 0;
#X connect 50 0 63 0;
#X connect 51 0 50 0;
#X connect 52 0 22 1;
#X connect 53 0 68 0;
#X connect 54 0 56 1;
#X connect 54 0 64 0;
#X connect 54 0 65 0;
#X connect 54 0 72 0;
#X connect 55 0 56 0;
#X connect 56 0 83 0;
#X connect 56 0 84 0;
#X connect 57 0 31 1;
#X connect 58 0 31 1;
#X connect 59 0 32 1;
#X connect 60 0 32 1;
#X connect 61 0 43 1;
#X connect 61 0 41 1;
#X connect 62 0 15 0;
#X connect 63 0 45 0;
#X connect 64 0 69 0;
#X connect 65 0 55 0;
#X connect 66 0 67 0;
#X connect 66 0 73 0;
#X connect 66 0 86 0;
#X connect 67 0 49 1;
#X connect 68 0 49 1;
#X connect 69 0 70 0;
#X connect 70 0 55 1;
#X connect 71 0 69 1;
#X connect 72 0 71 0;
#X connect 73 0 67 1;
#X connect 74 0 67 1;
#X connect 75 0 88 0;
#X connect 76 0 77 0;
#X connect 77 0 78 0;
#X connect 78 0 46 0;
#X connect 79 0 75 0;
#X connect 80 0 79 0;
#X connect 81 0 87 0;
#X connect 82 0 83 0;
#X connect 82 0 84 0;
#X connect 83 0 43 0;
#X connect 84 0 41 0;
#X connect 85 0 83 0;
#X connect 85 0 84 0;
#X connect 86 0 74 0;
#X connect 87 0 82 0;
#X connect 87 1 85 0;
#X connect 88 0 76 0;
#X restore 353 297 pd phase-vocoder;
#X obj 314 197 + 500;
#X obj 315 223 * 44.1;
#X floatatom 423 196 5 0 0 0 - - -;
#X obj 422 250 *;
#X floatatom 481 198 5 0 0 0 - - -;
#X obj 589 230 / 32;
#X obj 585 255 clip 0 1;
#X obj 463 264 *;
#X obj 482 238 t b f;
#X obj 433 225 t b f;
#X obj 505 293 - 64;
#X obj 497 324 clip 0 100;
#N canvas 0 50 550 410 freq_shift 0;
#X obj 244 172 hilbert~;
#X obj 249 220 *~;
#X obj 296 220 *~;
#X obj 313 177 cos~;
#X obj 357 176 cos~;
#X obj 213 134 inlet~;
#X obj 349 144 +~ 0.25;
#X obj 307 84 line~;
#X obj 306 58 pack 0 20;
#X obj 259 252 +~;
#X obj 214 322 outlet~;
#X floatatom 392 36 5 0 0 0 - - -;
#X obj 394 8 inlet;
#X obj 298 113 phasor~;
#X obj 256 284 *~;
#X obj 365 242 pack 0 10;
#X obj 357 290 line~;
#X obj 421 177 / 64;
#X obj 395 60 / 5;
#X connect 0 0 1 0;
#X connect 0 1 2 0;
#X connect 1 0 9 0;
#X connect 2 0 9 1;
#X connect 3 0 1 1;
#X connect 4 0 2 1;
#X connect 5 0 0 0;
#X connect 6 0 4 0;
#X connect 7 0 13 0;
#X connect 8 0 7 0;
#X connect 9 0 14 0;
#X connect 11 0 17 0;
#X connect 11 0 18 0;
#X connect 12 0 11 0;
#X connect 13 0 3 0;
#X connect 13 0 6 0;
#X connect 14 0 10 0;
#X connect 15 0 16 0;
#X connect 16 0 14 1;
#X connect 17 0 15 0;
#X connect 18 0 8 0;
#X restore 379 366 pd freq_shift;
#X obj 597 360 change;
#X obj 696 400 change;
#X obj 696 435 s tb_overtone;
#X obj 364 254 * 4.7244;
#X obj 695 371 > 100;
#X obj 310 166 * 1000;
#X obj 492 148 r tb_lh3;
#X obj 423 147 r tb_lh2;
#X obj 532 456 line~;
#X obj 507 419 pack 1 100;
#X obj 603 417 pack 0 500;
#X connect 0 0 39 0;
#X connect 1 0 26 0;
#X connect 1 0 31 0;
#X connect 2 0 37 0;
#X connect 6 0 0 0;
#X connect 6 0 19 0;
#X connect 7 0 1 0;
#X connect 8 0 2 0;
#X connect 9 0 12 0;
#X connect 10 0 9 0;
#X connect 10 1 9 1;
#X connect 11 0 10 0;
#X connect 12 0 13 0;
#X connect 13 0 14 0;
#X connect 14 0 16 0;
#X connect 15 0 17 0;
#X connect 15 0 38 0;
#X connect 16 0 5 0;
#X connect 17 0 34 0;
#X connect 18 0 43 0;
#X connect 18 1 44 0;
#X connect 19 0 11 0;
#X connect 20 0 14 1;
#X connect 20 0 33 0;
#X connect 21 0 22 0;
#X connect 22 0 20 0;
#X connect 23 0 24 0;
#X connect 24 0 20 2;
#X connect 25 0 28 0;
#X connect 26 0 27 0;
#X connect 27 0 29 0;
#X connect 27 0 30 0;
#X connect 28 0 20 3;
#X connect 29 0 28 0;
#X connect 29 1 28 1;
#X connect 30 0 24 0;
#X connect 30 1 24 1;
#X connect 31 0 32 0;
#X connect 32 0 33 1;
#X connect 33 0 14 1;
#X connect 34 0 18 0;
#X connect 35 0 36 0;
#X connect 37 0 20 1;
#X connect 38 0 35 0;
#X connect 39 0 21 0;
#X connect 40 0 25 0;
#X connect 41 0 23 0;
#X connect 42 0 16 1;
#X connect 43 0 42 0;
#X connect 44 0 42 0;
#X restore 462 160 pd pv;
#N canvas 335 128 1205 695 sample_playback 0;
#X obj 112 193 change;
#X obj 117 162 i;
#X obj 441 637 throw~ tb_mix;
#X floatatom 21 508 5 0 0 0 - - -;
#X obj 20 485 line;
#X obj -6 318 bng 15 250 50 0 empty empty empty 17 7 0 10 -262144 -1
-1;
#X obj 21 380 random 20;
#X obj 20 406 + 5;
#X obj 256 88 line~;
#X obj 237 231 *~ 1;
#X obj 427 28 bng 15 250 50 0 empty empty empty 17 7 0 10 -262144 -1
-1;
#X floatatom 108 372 5 0 0 0 - - -;
#X obj 169 248 tabread~;
#X msg 141 405 set tb_sl\$1a;
#X msg 198 430 set tb_sl\$1b;
#X msg 256 454 set tb_sl\$1c;
#X obj 121 55 r tb_rh1;
#X obj -6 290 spigot;
#X obj -35 204 < 5;
#X obj -36 229 change;
#X obj -35 174 r tb_rh2;
#X obj 53 233 bng 15 250 50 0 empty empty empty 17 7 0 10 -262144 -1
-1;
#X obj 481 429 *~ 0.9;
#X obj 490 567 *~ 0.7;
#X obj 105 347 i 1;
#X obj 44 198 r trb_atk;
#X obj 119 126 / 24;
#X obj 107 215 clip 0 6;
#X obj 119 272 i 6;
#X obj 110 247 t b f;
#X obj 138 296 -;
#X floatatom 129 325 5 0 0 0 - - -;
#X obj 237 265 tabread~;
#X obj 317 228 *~ 1;
#X obj 442 173 / 100;
#X obj 441 145 + 95;
#X obj 440 109 random 10;
#X obj -7 449 pack 0 500;
#X msg 257 57 0 \, 44100 1000;
#X obj 318 265 tabread~;
#X obj 361 176 / 100;
#X obj 361 150 + 95;
#X obj 360 117 random 10;
#N canvas 0 50 550 410 freq_shift 0;
#X obj 244 172 hilbert~;
#X obj 249 220 *~;
#X obj 296 220 *~;
#X obj 313 177 cos~;
#X obj 357 176 cos~;
#X obj 213 134 inlet~;
#X obj 349 144 +~ 0.25;
#X obj 307 84 line~;
#X obj 306 58 pack 0 20;
#X obj 259 252 +~;
#X obj 214 322 outlet~;
#X floatatom 392 36 5 0 0 0 - - -;
#X obj 394 8 inlet;
#X obj 298 113 phasor~;
#X obj 256 284 *~;
#X obj 365 242 pack 0 10;
#X obj 357 290 line~;
#X obj 421 177 / 64;
#X obj 395 60 / 5;
#X connect 0 0 1 0;
#X connect 0 1 2 0;
#X connect 1 0 9 0;
#X connect 2 0 9 1;
#X connect 3 0 1 1;
#X connect 4 0 2 1;
#X connect 5 0 0 0;
#X connect 6 0 4 0;
#X connect 7 0 13 0;
#X connect 8 0 7 0;
#X connect 9 0 14 0;
#X connect 11 0 17 0;
#X connect 11 0 18 0;
#X connect 12 0 11 0;
#X connect 13 0 3 0;
#X connect 13 0 6 0;
#X connect 14 0 10 0;
#X connect 15 0 16 0;
#X connect 16 0 14 1;
#X connect 17 0 15 0;
#X connect 18 0 8 0;
#X restore 511 493 pd freq_shift;
#X obj -6 345 t b b b b;
#X obj 256 25 del 4;
#X connect 0 0 27 0;
#X connect 1 0 0 0;
#X connect 3 0 43 1;
#X connect 4 0 3 0;
#X connect 5 0 44 0;
#X connect 6 0 7 0;
#X connect 7 0 4 0;
#X connect 8 0 12 0;
#X connect 8 0 9 0;
#X connect 9 0 32 0;
#X connect 10 0 36 0;
#X connect 10 0 42 0;
#X connect 10 0 45 0;
#X connect 11 0 13 0;
#X connect 11 0 14 0;
#X connect 11 0 15 0;
#X connect 12 0 22 0;
#X connect 13 0 12 0;
#X connect 14 0 32 0;
#X connect 15 0 39 0;
#X connect 16 0 26 0;
#X connect 17 0 5 0;
#X connect 18 0 19 0;
#X connect 19 0 17 1;
#X connect 20 0 18 0;
#X connect 21 0 17 0;
#X connect 22 0 2 0;
#X connect 22 0 43 0;
#X connect 23 0 2 0;
#X connect 24 0 11 0;
#X connect 25 0 21 0;
#X connect 26 0 1 0;
#X connect 27 0 29 0;
#X connect 28 0 30 0;
#X connect 29 0 28 0;
#X connect 29 1 30 1;
#X connect 30 0 31 0;
#X connect 31 0 24 1;
#X connect 32 0 22 0;
#X connect 33 0 39 0;
#X connect 34 0 33 1;
#X connect 35 0 34 0;
#X connect 36 0 35 0;
#X connect 37 0 4 0;
#X connect 38 0 8 0;
#X connect 39 0 22 0;
#X connect 40 0 9 1;
#X connect 41 0 40 0;
#X connect 42 0 41 0;
#X connect 43 0 23 0;
#X connect 44 0 37 0;
#X connect 44 1 6 0;
#X connect 44 2 10 0;
#X connect 44 3 24 0;
#X connect 45 0 38 0;
#X restore 463 185 pd sample_playback;
#X obj 510 293 catch~ tb_mix;
#X obj 3 194 s tb_envfol;
#X floatatom 43 155 5 0 0 0 - - -;
#X obj 43 127 spigot;
#X obj 118 61 tgl 15 0 empty empty empty 17 7 0 10 -262144 -1 -1 0
1;
#X obj 211 85 uart_decode;
#X obj 299 34 r toAVR;
#X msg 167 41 open 2;
#X obj 316 189 vsl 15 128 0 127 0 0 empty empty palm 0 -9 0 10 -262144
-1 -1 0 1;
#X obj 210 63 comport 2 57600;
#X obj 174 189 vsl 15 128 0 127 0 0 empty empty empty 0 -9 0 10 -262144
-1 -1 0 1;
#X obj 203 189 vsl 15 128 0 127 0 0 empty empty empty 0 -9 0 10 -262144
-1 -1 0 1;
#X obj 231 189 vsl 15 128 0 127 0 0 empty empty empty 0 -9 0 10 -262144
-1 -1 0 1;
#X msg 175 129 \$2 \$3 \$5;
#X obj 174 156 unpack 0 0 0;
#X msg 276 129 \$1 \$3;
#X obj 277 153 unpack 0 0;
#N canvas 691 429 280 159 data 0;
#X obj 109 82 s tb_lh2;
#X obj 51 83 s tb_lh1;
#X obj 37 32 inlet;
#X obj 98 35 inlet;
#X obj 147 33 inlet;
#X obj 169 83 s tb_lh3;
#X connect 2 0 1 0;
#X connect 3 0 0 0;
#X connect 4 0 5 0;
#X restore 174 338 pd data;
#X obj 277 189 vsl 15 128 0 127 0 0 empty empty empty 0 -9 0 10 -262144
-1 -1 3600 1;
#X obj 123 11 loadbang;
#X msg 117 38 1;
#X obj 43 63 hip~ 1000;
#N canvas 553 231 651 544 trb_envfol 0;
#X floatatom 145 102 5 0 0 0 - - -;
#X floatatom 145 255 5 0 0 0 - - -;
#X obj 284 219 -;
#X floatatom 237 256 5 0 0 0 - - -;
#X obj 235 284 moses 0;
#X floatatom 211 311 5 0 0 0 - - -;
#X obj 259 158 t b f;
#X obj 307 193 f 0;
#X obj 307 371 +;
#X floatatom 247 423 5 0 0 0 - - -;
#X obj 152 37 inlet~;
#X obj 247 459 outlet;
#X obj 145 197 / 10;
#X obj 144 133 clip 50 85;
#X obj 146 160 - 50;
#X obj 145 70 env~ 256 128;
#X obj 250 337 / 40;
#X obj 209 339 / 100;
#X connect 0 0 13 0;
#X connect 1 0 6 0;
#X connect 2 0 3 0;
#X connect 3 0 4 0;
#X connect 4 0 5 0;
#X connect 4 1 16 0;
#X connect 5 0 17 0;
#X connect 6 0 7 0;
#X connect 6 1 2 0;
#X connect 7 0 2 1;
#X connect 7 0 8 1;
#X connect 8 0 7 1;
#X connect 8 0 9 0;
#X connect 9 0 11 0;
#X connect 10 0 15 0;
#X connect 12 0 1 0;
#X connect 13 0 14 0;
#X connect 14 0 12 0;
#X connect 15 0 0 0;
#X connect 16 0 8 0;
#X connect 17 0 8 0;
#X restore 43 91 pd trb_envfol;
#X obj 358 257 loadbang;
#X obj 360 286 0;
#X obj 535 10 delay 1000;
#N canvas 278 415 450 300 midi_________ 0;
#X obj 87 245 outlet;
#X obj 176 156 outlet;
#X obj 226 134 outlet;
#X obj 274 133 outlet;
#X obj 11 240 outlet;
#X obj 63 28 r trb;
#X obj 80 55 route 100 101 102 103 104 105;
#X obj 31 89 / 30;
#X obj 14 197 line 0 20;
#X obj 7 162 pack 0 200;
#X obj 181 13 difference;
#X obj 306 38 > 35;
#X obj 333 127 s trb_atk;
#X obj 319 85 sel 1;
#X obj 323 55 change;
#X obj 151 215 outlet;
#X connect 5 0 6 0;
#X connect 6 0 7 0;
#X connect 6 0 10 0;
#X connect 6 1 0 0;
#X connect 6 2 15 0;
#X connect 6 3 1 0;
#X connect 6 4 2 0;
#X connect 6 5 3 0;
#X connect 7 0 9 0;
#X connect 8 0 4 0;
#X connect 9 0 8 0;
#X connect 10 0 11 0;
#X connect 11 0 14 0;
#X connect 13 0 12 0;
#X connect 14 0 13 0;
#X restore 38 341 pd midi_________;
#X floatatom 347 124 5 0 0 0 - - -;
#X floatatom 337 227 5 0 0 0 - - -;
#X connect 0 0 46 0;
#X connect 4 0 5 1;
#X connect 4 0 5 0;
#X connect 6 0 42 0;
#X connect 8 0 34 0;
#X connect 8 1 36 0;
#X connect 8 2 9 0;
#X connect 8 3 13 0;
#X connect 8 4 12 0;
#X connect 9 0 11 0;
#X connect 11 0 10 0;
#X connect 14 0 30 0;
#X connect 15 0 30 0;
#X connect 16 0 30 0;
#X connect 17 0 16 0;
#X connect 21 0 5 1;
#X connect 21 0 5 0;
#X connect 23 0 22 0;
#X connect 24 0 23 0;
#X connect 25 0 24 1;
#X connect 26 0 8 0;
#X connect 27 0 30 0;
#X connect 28 0 30 0;
#X connect 29 0 7 1;
#X connect 30 0 26 0;
#X connect 31 0 38 0;
#X connect 32 0 38 1;
#X connect 33 0 38 2;
#X connect 34 0 35 0;
#X connect 35 0 31 0;
#X connect 35 1 32 0;
#X connect 35 2 33 0;
#X connect 36 0 37 0;
#X connect 37 0 39 0;
#X connect 37 1 29 0;
#X connect 39 0 7 0;
#X connect 40 0 41 0;
#X connect 41 0 25 0;
#X connect 42 0 43 0;
#X connect 43 0 24 0;
#X connect 44 0 45 0;
#X connect 45 0 7 1;
#X connect 45 0 7 0;
#X connect 45 0 38 2;
#X connect 45 0 38 1;
#X connect 45 0 38 0;
#X connect 46 0 1 0;
#X connect 47 0 23 0;
#X connect 47 1 31 0;
#X connect 47 2 32 0;
#X connect 47 3 33 0;
#X connect 47 4 39 0;
#X connect 47 5 29 0;
#X connect 48 0 39 0;
#X connect 49 0 29 0;
