#N canvas 164 212 629 396 10;
#X declare -path lib;
#X declare -path trombone;
#X obj 463 -9 loadbang;
#X msg 463 27 \; pd dsp 1;
#X obj 461 67 declare -path lib;
#X obj 461 93 declare -path trombone;
#X obj 455 270 jingle;
#X obj 465 332 dac~;
#X obj 42 11 adc~;
#N canvas 324 50 209 162 data 0;
#X obj 16 25 inlet;
#X obj 17 87 s tb_rh1;
#X obj 91 86 s tb_rh2;
#X obj 92 28 inlet;
#X connect 0 0 1 0;
#X connect 3 0 2 0;
#X restore 277 338 pd data;
#X obj 174 106 route 128 129 144 145 240;
#X obj 381 122 pc_confirm;
#X obj 381 166 s preset;
#X floatatom 381 145 5 0 0 0 - - -;
#X obj 391 222 shutdown;
#N canvas 0 50 450 300 ping 0;
#X obj 161 62 inlet;
#X obj 223 161 print;
#X msg 222 127 received a ping;
#X obj 161 159 s toAVR;
#X msg 161 122 162;
#X connect 0 0 2 0;
#X connect 0 0 4 0;
#X connect 2 0 1 0;
#X connect 4 0 3 0;
#X restore 328 79 pd ping;
#X msg 221 11 devices;
#X msg 211 -12 close;
#X msg 277 17 devicename /dev/ttyUSB0;
#X obj 277 -10 loadbang;
#N canvas 474 320 911 525 sample 0;
#X obj 338 404 soundfiler;
#X obj 372 101 loadbang;
#X obj 785 294 until;
#X obj 785 351 t f f;
#X obj 787 431 tabwrite phasor;
#X msg 865 311 2048;
#X obj 779 385 / 2048;
#X obj 670 104 table tb_hann;
#X obj 669 129 table tb_phasor;
#X msg 431 209 read -resize hann.wav tb_hann \, read -resize phasor.wav
tb_phasor;
#X obj 75 39 table tb;
#X obj 29 107 table tb_sl1a;
#X obj 29 132 table tb_sl2a;
#X obj 29 157 table tb_sl3a;
#X obj 29 182 table tb_sl4a;
#X obj 29 207 table tb_sl5a;
#X obj 29 232 table tb_sl6a;
#X obj 29 257 table tb_sl7a;
#X obj 29 282 table tb_sl8a;
#X obj 29 307 table tb_sl9a;
#X obj 29 332 table tb_sl10a;
#X obj 29 357 table tb_sl11a;
#X obj 123 104 table tb_sl1b;
#X obj 123 129 table tb_sl2b;
#X obj 123 154 table tb_sl3b;
#X obj 123 179 table tb_sl4b;
#X obj 123 204 table tb_sl5b;
#X obj 123 229 table tb_sl6b;
#X obj 123 254 table tb_sl7b;
#X obj 123 279 table tb_sl8b;
#X obj 123 304 table tb_sl9b;
#X obj 123 329 table tb_sl10b;
#X obj 123 354 table tb_sl11b;
#X obj 217 106 table tb_sl1c;
#X obj 217 131 table tb_sl2c;
#X obj 217 156 table tb_sl3c;
#X obj 217 181 table tb_sl4c;
#X obj 217 206 table tb_sl5c;
#X obj 217 231 table tb_sl6c;
#X obj 217 256 table tb_sl7c;
#X obj 217 281 table tb_sl8c;
#X obj 217 306 table tb_sl9c;
#X obj 217 331 table tb_sl10c;
#X obj 217 356 table tb_sl11c;
#X msg 470 343 read -resize slap/\$1a.wav tb_sl\$1a;
#X msg 480 362 read -resize slap/\$1b.wav tb_sl\$1b;
#X msg 482 381 read -resize slap/\$1c.wav tb_sl\$1c;
#X obj 469 295 until;
#X msg 467 270 12;
#X obj 469 318 cnt 1 12;
#X obj 33 397 table tb_air1;
#X obj 37 415 table tb_air2;
#X obj 35 435 table tb_air3;
#X obj 39 453 table tb_air4;
#X obj 133 398 table tb_air5;
#X obj 137 416 table tb_air6;
#X obj 135 436 table tb_air7;
#X obj 139 454 table tb_air8;
#X obj 246 408 table tb_air9;
#X obj 244 429 table tb_air10;
#X obj 250 445 table tb_air11;
#X msg 504 440 read -resize air/\$1.wav tb_air\$1;
#X obj 788 323 cnt 0 2048;
#X obj 80 60 table tbff;
#X msg 345 161 read -resize trombone/note/mf.wav tb \, read -resize
trombone/note/ff.wav tbff;
#X connect 1 0 9 0;
#X connect 1 0 64 0;
#X connect 1 0 48 0;
#X connect 2 0 62 0;
#X connect 3 0 6 0;
#X connect 3 1 4 1;
#X connect 5 0 2 0;
#X connect 6 0 4 0;
#X connect 9 0 0 0;
#X connect 44 0 0 0;
#X connect 45 0 0 0;
#X connect 46 0 0 0;
#X connect 47 0 49 0;
#X connect 48 0 47 0;
#X connect 49 0 44 0;
#X connect 49 0 45 0;
#X connect 49 0 46 0;
#X connect 49 0 61 0;
#X connect 61 0 0 0;
#X connect 62 0 3 0;
#X connect 64 0 0 0;
#X restore 462 121 pd sample;
#N canvas 461 360 998 636 pv 0;
#X floatatom 311 133 5 0 0 0 location - -;
#X floatatom 486 182 5 0 0 0 - - -;
#X floatatom 394 172 5 0 0 0 - - -;
#X obj 84 458 table prev-imag-tb;
#X obj 84 480 table prev-real-tb;
#N canvas 24 316 508 329 chorus 0;
#X obj 98 103 inlet~;
#X obj 237 274 outlet~;
#X obj 265 132 osc~;
#X floatatom 328 -13 5 0 0 0 - - -;
#X obj 259 197 +~ 10;
#X obj 327 114 line~;
#X obj 330 80 pack 0 50;
#X obj 263 159 *~;
#X obj 320 147 /~ 10;
#X obj 326 -45 inlet;
#X obj 29 279 delwrite~ chorus-tb 1000;
#X obj 260 229 vd~ chorus-tb;
#X obj 330 45 / 15;
#X connect 0 0 1 0;
#X connect 0 0 10 0;
#X connect 2 0 7 0;
#X connect 3 0 12 0;
#X connect 4 0 11 0;
#X connect 5 0 2 0;
#X connect 5 0 8 0;
#X connect 6 0 5 0;
#X connect 7 0 4 0;
#X connect 8 0 7 1;
#X connect 9 0 3 0;
#X connect 11 0 1 0;
#X connect 12 0 6 0;
#X restore 363 339 pd chorus;
#N canvas 0 50 550 410 pitch_shift 0;
#X obj 244 172 hilbert~;
#X obj 249 220 *~;
#X obj 296 220 *~;
#X obj 313 177 cos~;
#X obj 357 176 cos~;
#X obj 213 134 inlet~;
#X obj 349 144 +~ 0.25;
#X obj 307 84 line~;
#X obj 306 58 pack 0 20;
#X obj 259 252 +~;
#X obj 214 322 outlet~;
#X floatatom 392 36 5 0 0 0 - - -;
#X obj 395 60 / 5;
#X obj 394 8 inlet;
#X obj 298 113 phasor~;
#X connect 0 0 1 0;
#X connect 0 1 2 0;
#X connect 1 0 9 0;
#X connect 2 0 9 1;
#X connect 3 0 1 1;
#X connect 4 0 2 1;
#X connect 5 0 0 0;
#X connect 5 0 10 0;
#X connect 6 0 4 0;
#X connect 7 0 14 0;
#X connect 8 0 7 0;
#X connect 9 0 10 0;
#X connect 11 0 12 0;
#X connect 12 0 8 0;
#X connect 13 0 11 0;
#X connect 14 0 3 0;
#X connect 14 0 6 0;
#X restore 370 375 pd pitch_shift;
#X obj 342 600 throw~ tb_mix;
#X obj 563 124 r tb_lh2;
#X obj 246 57 r tb_envfol;
#X obj 486 129 r tb_lh1;
#X obj 563 227 * 5;
#X obj 564 161 - 55;
#X obj 394 124 r tb_rh1;
#X obj 400 457 *~;
#X obj 492 325 / 64;
#X obj 251 327 *;
#X obj 252 299 t f f;
#X obj 252 254 clip 0 1;
#X obj 250 355 pack 0 10;
#X obj 249 378 line~;
#X obj 293 514 *~;
#X obj 671 124 r tb_lh3;
#X floatatom 665 258 5 0 0 0 - - -;
#X obj 492 300 clip 0 64;
#X obj 669 157 - 43;
#X obj 730 388 r tb_rh2;
#X obj 347 555 *~;
#X obj 698 414 > 10;
#X obj 696 463 sel 1 0;
#X obj 726 532 line~;
#X obj 679 497 pack 1 100;
#X obj 756 494 pack 0 500;
#X obj 253 226 / 3;
#X obj 668 222 * 3.7;
#X obj 498 399 xfade;
#X obj 335 430 *~;
#X obj 499 358 * 90;
#N canvas 0 70 1408 827 phase-vocoder 0;
#X obj 49 503 *~;
#X obj 16 503 *~;
#X obj 16 525 -~;
#X obj 165 501 *~;
#X obj 134 501 *~;
#X obj 134 523 +~;
#X obj 109 193 *~;
#X obj 78 193 *~;
#X obj 50 193 *~;
#X obj 19 193 *~;
#X obj 19 218 +~;
#X obj 127 379 *~;
#X obj 27 708 *~;
#X obj 203 486 rfft~;
#X obj 108 161 rfft~;
#X obj 27 652 rifft~;
#X obj 28 732 outlet~;
#X obj 97 379 *~;
#X obj 97 401 +~;
#X obj 124 218 -~;
#X obj 18 431 *~;
#X obj 51 432 *~;
#X obj 134 708 r window-size;
#X obj 19 349 +~ 1e-15;
#X obj 26 684 *~;
#X obj 134 729 expr 2/(3*$f1);
#X obj 312 664 loadbang;
#X obj 97 425 q8_rsqrt~;
#X obj 121 69 *~;
#X obj 89 69 *~;
#X obj 89 91 +~;
#X obj 159 94 q8_rsqrt~;
#X obj 159 71 +~ 1e-20;
#X obj 73 119 *~;
#X obj 19 118 *~;
#X obj 19 325 +~;
#X obj 125 331 +~;
#X obj 312 738 block~ 2048 4;
#X obj 372 45 inlet;
#X text 359 21 location;
#X obj 508 38 inlet;
#X text 525 18 pitch;
#X obj 20 8 tabreceive~ prev-real-tb;
#X obj 74 29 tabreceive~ prev-imag-tb;
#X obj 131 591 tabsend~ prev-imag-tb;
#X obj 130 615 tabsend~ prev-real-tb;
#X obj 356 584 *~;
#X obj 301 103 f;
#X obj 867 597 *~;
#X obj 316 52 bang~;
#X obj 289 317 line~;
#X floatatom 510 173 7 0 0 0 - - -;
#X obj 510 63 * 0.01;
#X obj 510 84 + 69;
#X obj 510 105 mtof;
#X obj 510 126 / 440;
#X obj 432 151 / 2;
#X obj 393 152 -;
#X obj 291 361 -~;
#X obj 267 237 f;
#X obj 267 208 b;
#X msg 266 290 0 \, \$1 \$2;
#X obj 266 263 pack 0 11.61;
#X obj 510 149 * 2048;
#X msg 312 690 \; window-size 2048 \;;
#X obj 102 660 tabreceive~ tb_hann;
#X obj 674 685 tabreceive~ tb_hann;
#X obj 508 213 / 4;
#X obj 303 408 tabread4~ tb;
#X obj 404 408 tabread4~ tb;
#X obj 900 158 inlet;
#X obj 933 232 *~;
#X obj 875 242 +~;
#X obj 972 219 osc~ 3;
#X obj 29 245 lrshift~ 1;
#X obj 24 269 lrshift~ -1;
#X obj 130 254 lrshift~ 1;
#X obj 125 278 lrshift~ -1;
#X obj 1190 419 inlet;
#X obj 1179 476 xfade;
#X obj 323 485 *~;
#X obj 413 490 *~;
#X obj 805 402 tabread4~ tb;
#X obj 912 400 tabread4~ tb;
#X obj 810 492 *~;
#X obj 904 496 *~;
#X obj 506 404 tabread4~ tbff;
#X obj 627 403 tabread4~ tbff;
#X obj 1017 399 tabread4~ tbff;
#X obj 1138 398 tabread4~ tbff;
#X obj 285 151 s trbpos;
#X obj 1066 282 r trbpos;
#X obj 565 290 r trbpos;
#X obj 507 491 *~;
#X obj 614 494 *~;
#X obj 1030 498 *~;
#X obj 1141 504 *~;
#X text 1217 439 dry/wet;
#X obj 741 237 inlet;
#X obj 741 280 xfade;
#X text 736 207 timbre;
#X obj 317 438 *~;
#X obj 407 444 *~;
#X obj 505 442 *~;
#X obj 610 442 *~;
#X obj 806 431 *~;
#X obj 896 437 *~;
#X obj 1024 431 *~;
#X obj 1135 427 *~;
#X obj 1279 234 inlet;
#X obj 1270 290 f;
#X obj 1188 690 sig~;
#X obj 1190 737 *~ -1;
#X connect 0 0 2 1;
#X connect 1 0 2 0;
#X connect 2 0 45 0;
#X connect 2 0 15 0;
#X connect 3 0 5 1;
#X connect 4 0 5 0;
#X connect 5 0 44 0;
#X connect 5 0 15 1;
#X connect 6 0 19 1;
#X connect 7 0 19 0;
#X connect 8 0 10 1;
#X connect 9 0 10 0;
#X connect 10 0 35 0;
#X connect 10 0 75 0;
#X connect 10 0 74 0;
#X connect 11 0 18 1;
#X connect 12 0 16 0;
#X connect 13 0 1 1;
#X connect 13 0 3 1;
#X connect 13 1 0 1;
#X connect 13 1 4 1;
#X connect 14 0 9 1;
#X connect 14 0 7 1;
#X connect 14 1 6 1;
#X connect 14 1 8 1;
#X connect 15 0 24 0;
#X connect 17 0 18 0;
#X connect 18 0 27 0;
#X connect 19 0 36 0;
#X connect 19 0 76 0;
#X connect 19 0 77 0;
#X connect 20 0 1 0;
#X connect 20 0 4 0;
#X connect 21 0 0 0;
#X connect 21 0 3 0;
#X connect 22 0 25 0;
#X connect 23 0 17 1;
#X connect 23 0 17 0;
#X connect 23 0 20 0;
#X connect 24 0 12 0;
#X connect 25 0 12 1;
#X connect 26 0 64 0;
#X connect 27 0 20 1;
#X connect 27 0 21 1;
#X connect 28 0 30 1;
#X connect 29 0 30 0;
#X connect 30 0 32 0;
#X connect 31 0 33 1;
#X connect 31 0 34 1;
#X connect 32 0 31 0;
#X connect 33 0 8 0;
#X connect 33 0 7 0;
#X connect 34 0 9 0;
#X connect 34 0 6 0;
#X connect 35 0 23 0;
#X connect 36 0 11 0;
#X connect 36 0 11 1;
#X connect 36 0 21 0;
#X connect 38 0 47 1;
#X connect 40 0 52 0;
#X connect 42 0 29 1;
#X connect 42 0 29 0;
#X connect 42 0 34 0;
#X connect 43 0 28 1;
#X connect 43 0 28 0;
#X connect 43 0 33 0;
#X connect 46 0 14 0;
#X connect 47 0 57 0;
#X connect 48 0 13 0;
#X connect 49 0 47 0;
#X connect 50 0 58 0;
#X connect 50 0 69 0;
#X connect 50 0 83 0;
#X connect 50 0 89 0;
#X connect 50 0 87 0;
#X connect 51 0 56 0;
#X connect 51 0 59 1;
#X connect 51 0 67 0;
#X connect 52 0 53 0;
#X connect 53 0 54 0;
#X connect 54 0 55 0;
#X connect 55 0 63 0;
#X connect 56 0 57 1;
#X connect 57 0 60 0;
#X connect 57 0 90 0;
#X connect 58 0 68 0;
#X connect 58 0 82 0;
#X connect 58 0 86 0;
#X connect 58 0 88 0;
#X connect 59 0 62 0;
#X connect 60 0 59 0;
#X connect 60 0 110 0;
#X connect 61 0 50 0;
#X connect 62 0 61 0;
#X connect 63 0 51 0;
#X connect 65 0 24 1;
#X connect 66 0 46 1;
#X connect 66 0 48 1;
#X connect 67 0 58 1;
#X connect 68 0 101 0;
#X connect 69 0 102 0;
#X connect 70 0 71 0;
#X connect 70 0 72 1;
#X connect 70 0 73 0;
#X connect 71 0 72 0;
#X connect 72 0 82 0;
#X connect 72 0 83 0;
#X connect 72 0 88 0;
#X connect 72 0 89 0;
#X connect 73 0 71 1;
#X connect 74 0 35 1;
#X connect 75 0 35 1;
#X connect 76 0 36 1;
#X connect 77 0 36 1;
#X connect 78 0 79 0;
#X connect 79 0 81 1;
#X connect 79 0 80 1;
#X connect 79 0 94 1;
#X connect 79 0 93 1;
#X connect 79 1 85 1;
#X connect 79 1 84 1;
#X connect 79 1 95 1;
#X connect 79 1 96 1;
#X connect 80 0 46 0;
#X connect 81 0 48 0;
#X connect 82 0 105 0;
#X connect 83 0 106 0;
#X connect 84 0 46 0;
#X connect 85 0 48 0;
#X connect 86 0 103 0;
#X connect 87 0 104 0;
#X connect 88 0 107 0;
#X connect 89 0 108 0;
#X connect 91 0 89 1;
#X connect 91 0 88 1;
#X connect 91 0 83 1;
#X connect 91 0 82 1;
#X connect 92 0 87 1;
#X connect 92 0 86 1;
#X connect 92 0 69 1;
#X connect 92 0 68 1;
#X connect 93 0 46 0;
#X connect 94 0 48 0;
#X connect 95 0 46 0;
#X connect 96 0 48 0;
#X connect 98 0 99 0;
#X connect 99 0 102 1;
#X connect 99 0 101 1;
#X connect 99 0 105 1;
#X connect 99 0 106 1;
#X connect 99 1 104 1;
#X connect 99 1 103 1;
#X connect 99 1 107 1;
#X connect 99 1 108 1;
#X connect 101 0 80 0;
#X connect 102 0 81 0;
#X connect 103 0 93 0;
#X connect 104 0 94 0;
#X connect 105 0 84 0;
#X connect 106 0 85 0;
#X connect 107 0 95 0;
#X connect 108 0 96 0;
#X connect 109 0 110 1;
#X connect 110 0 111 0;
#X connect 111 0 82 0;
#X connect 111 0 88 0;
#X connect 111 0 86 0;
#X connect 111 0 68 0;
#X connect 111 0 112 0;
#X connect 112 0 89 0;
#X connect 112 0 83 0;
#X connect 112 0 87 0;
#X connect 112 0 69 0;
#X restore 335 250 pd phase-vocoder;
#X obj 310 166 * 1000;
#X obj 314 197 + 500;
#X obj 315 223 * 44.1;
#X floatatom 426 205 5 0 0 0 - - -;
#X obj 397 49 clip 0.5 3;
#X obj 426 70 - 0.5;
#X obj 428 91 * 32;
#X floatatom 775 159 5 0 0 0 - - -;
#X obj 775 111 r tb_rh2;
#X obj 773 201 - 50;
#X obj 777 234 clip 0 100;
#X connect 0 0 39 0;
#X connect 1 0 5 1;
#X connect 1 0 24 0;
#X connect 1 0 38 4;
#X connect 2 0 38 1;
#X connect 5 0 6 0;
#X connect 6 0 14 0;
#X connect 8 0 12 0;
#X connect 9 0 0 0;
#X connect 9 0 33 0;
#X connect 9 0 43 0;
#X connect 10 0 1 0;
#X connect 11 0 6 1;
#X connect 12 0 11 0;
#X connect 13 0 2 0;
#X connect 14 0 21 1;
#X connect 15 0 37 0;
#X connect 16 0 19 0;
#X connect 17 0 16 0;
#X connect 17 1 16 1;
#X connect 18 0 17 0;
#X connect 19 0 20 0;
#X connect 20 0 21 0;
#X connect 21 0 27 0;
#X connect 22 0 25 0;
#X connect 23 0 38 3;
#X connect 24 0 15 0;
#X connect 25 0 34 0;
#X connect 26 0 28 0;
#X connect 27 0 7 0;
#X connect 28 0 29 0;
#X connect 29 0 31 0;
#X connect 29 1 32 0;
#X connect 30 0 27 1;
#X connect 31 0 30 0;
#X connect 32 0 30 0;
#X connect 33 0 18 0;
#X connect 34 0 23 0;
#X connect 35 0 36 1;
#X connect 35 1 14 1;
#X connect 36 0 21 1;
#X connect 37 0 35 0;
#X connect 38 0 5 0;
#X connect 38 0 36 0;
#X connect 39 0 40 0;
#X connect 40 0 41 0;
#X connect 41 0 38 0;
#X connect 42 0 38 2;
#X connect 43 0 44 0;
#X connect 44 0 45 0;
#X connect 45 0 42 0;
#X connect 46 0 48 0;
#X connect 47 0 46 0;
#X connect 48 0 49 0;
#X connect 49 0 38 5;
#X restore 462 160 pd pv;
#N canvas 386 136 1205 695 sample_playback 0;
#X obj 121 155 / 12;
#X obj 114 222 change;
#X obj 119 191 i;
#X obj 441 637 throw~ tb_mix;
#N canvas 0 50 550 410 pitch_shift 0;
#X obj 249 220 *~;
#X obj 296 220 *~;
#X obj 313 177 cos~;
#X obj 357 176 cos~;
#X obj 223 124 inlet~;
#X obj 349 144 +~ 0.25;
#X obj 307 84 line~;
#X obj 306 58 pack 0 20;
#X obj 259 252 +~;
#X obj 214 322 outlet~;
#X floatatom 392 36 5 0 0 0 - - -;
#X obj 395 60 / 5;
#X obj 394 8 inlet;
#X obj 298 113 phasor~;
#X obj 244 172 hilbert~;
#X connect 0 0 8 0;
#X connect 1 0 8 1;
#X connect 2 0 0 1;
#X connect 3 0 1 1;
#X connect 4 0 14 0;
#X connect 5 0 3 0;
#X connect 6 0 13 0;
#X connect 7 0 6 0;
#X connect 8 0 9 0;
#X connect 10 0 11 0;
#X connect 11 0 7 0;
#X connect 12 0 10 0;
#X connect 13 0 2 0;
#X connect 13 0 5 0;
#X connect 14 0 0 0;
#X connect 14 1 1 0;
#X restore 552 530 pd pitch_shift;
#X floatatom 21 508 5 0 0 0 - - -;
#X obj 20 485 line;
#X obj -6 345 t b b;
#X obj -6 318 bng 15 250 50 0 empty empty empty 17 7 0 10 -262144 -1
-1;
#X obj -7 451 pack 0 6000;
#X obj 21 380 random 20;
#X obj 20 406 + 5;
#X obj 256 88 line~;
#X obj 406 234 *~ 1;
#X obj 317 228 *~ 1;
#X obj 237 231 *~ 1;
#X obj 429 204 / 100;
#X obj 346 206 / 100;
#X obj 266 209 / 100;
#X obj 427 28 bng 15 250 50 0 empty empty empty 17 7 0 10 -262144 -1
-1;
#X floatatom 103 323 5 0 0 0 - - -;
#X obj 169 266 tabread~;
#X obj 237 265 tabread~;
#X obj 318 265 tabread~;
#X obj 404 265 tabread~;
#X msg 136 356 set tb_sl\$1a;
#X msg 193 381 set tb_sl\$1b;
#X msg 251 405 set tb_sl\$1c;
#X msg 303 380 set tb_sl\$1b;
#X msg 354 354 set tb_sl\$1a;
#X obj 122 270 + 1;
#X obj 492 462 rev2~ 90 85 6000 80;
#X obj 264 150 random 50;
#X obj 344 146 random 50;
#X obj 427 145 random 50;
#X obj 345 178 + 75;
#X obj 428 177 + 75;
#X obj 265 183 + 75;
#X floatatom 161 82 5 0 0 0 - - -;
#X obj 189 136 + 25;
#X obj 121 55 r tb_rh1;
#X obj -6 290 spigot;
#X obj -35 204 < 5;
#X obj -36 229 change;
#X obj -35 174 r tb_rh2;
#X obj 53 233 bng 15 250 50 0 empty empty empty 17 7 0 10 -262144 -1
-1;
#X floatatom -4 206 5 0 0 0 - - -;
#X obj 47 53 r trb_atk;
#X obj 184 102 * 2;
#X obj 481 429 *~ 0.9;
#X obj 490 567 *~ 0.7;
#X msg 257 57 0 \, 13230 300;
#X obj 100 298 i 1;
#X connect 0 0 2 0;
#X connect 1 0 30 0;
#X connect 2 0 1 0;
#X connect 4 0 50 0;
#X connect 5 0 4 1;
#X connect 6 0 5 0;
#X connect 7 0 9 0;
#X connect 7 1 10 0;
#X connect 8 0 7 0;
#X connect 8 0 19 0;
#X connect 8 0 52 0;
#X connect 9 0 6 0;
#X connect 10 0 11 0;
#X connect 11 0 6 0;
#X connect 12 0 13 0;
#X connect 12 0 14 0;
#X connect 12 0 15 0;
#X connect 12 0 21 0;
#X connect 13 0 24 0;
#X connect 14 0 23 0;
#X connect 15 0 22 0;
#X connect 16 0 13 1;
#X connect 17 0 14 1;
#X connect 18 0 15 1;
#X connect 19 0 51 0;
#X connect 19 0 32 0;
#X connect 19 0 33 0;
#X connect 19 0 34 0;
#X connect 20 0 25 0;
#X connect 20 0 26 0;
#X connect 20 0 27 0;
#X connect 20 0 28 0;
#X connect 20 0 29 0;
#X connect 21 0 49 0;
#X connect 22 0 49 0;
#X connect 23 0 49 0;
#X connect 24 0 49 0;
#X connect 25 0 21 0;
#X connect 26 0 22 0;
#X connect 27 0 23 0;
#X connect 28 0 24 0;
#X connect 30 0 52 1;
#X connect 31 0 50 0;
#X connect 31 0 4 0;
#X connect 32 0 37 0;
#X connect 33 0 35 0;
#X connect 34 0 36 0;
#X connect 35 0 17 0;
#X connect 36 0 16 0;
#X connect 37 0 18 0;
#X connect 38 0 48 0;
#X connect 39 0 35 1;
#X connect 39 0 37 1;
#X connect 39 0 36 1;
#X connect 40 0 0 0;
#X connect 40 0 38 0;
#X connect 41 0 8 0;
#X connect 42 0 43 0;
#X connect 43 0 41 1;
#X connect 44 0 42 0;
#X connect 44 0 46 0;
#X connect 45 0 41 0;
#X connect 47 0 45 0;
#X connect 48 0 39 0;
#X connect 49 0 3 0;
#X connect 49 0 31 0;
#X connect 50 0 3 0;
#X connect 51 0 12 0;
#X connect 52 0 20 0;
#X restore 463 185 pd sample_playback;
#X obj 510 293 catch~ tb_mix;
#X obj 43 193 s tb_envfol;
#X floatatom 43 168 5 0 0 0 - - -;
#X obj 43 140 spigot;
#X obj 118 61 tgl 15 0 empty empty empty 17 7 0 10 -262144 -1 -1 1
1;
#X obj 211 85 uart_decode;
#X obj 299 34 r toAVR;
#X msg 167 41 open 2;
#X obj 316 189 vsl 15 128 0 127 0 0 empty empty palm 0 -9 0 10 -262144
-1 -1 0 1;
#X obj 210 63 comport 2 57600;
#X obj 174 189 vsl 15 128 0 127 0 0 empty empty empty 0 -9 0 10 -262144
-1 -1 0 1;
#X obj 203 189 vsl 15 128 0 127 0 0 empty empty empty 0 -9 0 10 -262144
-1 -1 0 1;
#X obj 231 189 vsl 15 128 0 127 0 0 empty empty empty 0 -9 0 10 -262144
-1 -1 0 1;
#X msg 175 129 \$2 \$3 \$5;
#X obj 174 156 unpack 0 0 0;
#X msg 276 129 \$1 \$3;
#X obj 277 153 unpack 0 0;
#N canvas 691 429 280 159 data 0;
#X obj 109 82 s tb_lh2;
#X obj 51 83 s tb_lh1;
#X obj 37 32 inlet;
#X obj 98 35 inlet;
#X obj 147 33 inlet;
#X obj 169 83 s tb_lh3;
#X connect 2 0 1 0;
#X connect 3 0 0 0;
#X connect 4 0 5 0;
#X restore 174 338 pd data;
#X obj 277 189 vsl 15 128 0 127 0 0 empty empty empty 0 -9 0 10 -262144
-1 -1 0 1;
#X obj 123 11 loadbang;
#X msg 117 38 1;
#X obj 43 63 hip~ 1000;
#X obj 618 350 bng 15 250 50 0 empty empty empty 17 7 0 10 -262144
-1 -1;
#N canvas 553 461 651 544 trb_envfol 0;
#X floatatom 145 102 5 0 0 0 - - -;
#X floatatom 145 255 5 0 0 0 - - -;
#X obj 284 219 -;
#X floatatom 237 256 5 0 0 0 - - -;
#X obj 235 284 moses 0;
#X floatatom 211 311 5 0 0 0 - - -;
#X obj 259 158 t b f;
#X obj 307 193 f 0;
#X obj 307 371 +;
#X floatatom 247 423 5 0 0 0 - - -;
#X obj 152 37 inlet~;
#X obj 247 459 outlet;
#X obj 145 197 / 10;
#X obj 144 133 clip 50 85;
#X obj 146 160 - 50;
#X obj 388 171 difference;
#X obj 145 70 env~ 256 128;
#X obj 250 337 / 40;
#X obj 386 330 s trb_atk;
#X obj 386 300 sel 1;
#X obj 386 261 change;
#X obj 386 226 > 35;
#X obj 209 339 / 100;
#X connect 0 0 13 0;
#X connect 0 0 15 0;
#X connect 1 0 6 0;
#X connect 2 0 3 0;
#X connect 3 0 4 0;
#X connect 4 0 5 0;
#X connect 4 1 17 0;
#X connect 5 0 22 0;
#X connect 6 0 7 0;
#X connect 6 1 2 0;
#X connect 7 0 2 1;
#X connect 7 0 8 1;
#X connect 8 0 7 1;
#X connect 8 0 9 0;
#X connect 9 0 11 0;
#X connect 10 0 16 0;
#X connect 12 0 1 0;
#X connect 13 0 14 0;
#X connect 14 0 12 0;
#X connect 15 0 21 0;
#X connect 16 0 0 0;
#X connect 17 0 8 0;
#X connect 19 0 18 0;
#X connect 20 0 19 0;
#X connect 21 0 20 0;
#X connect 22 0 8 0;
#X restore 43 104 pd trb_envfol;
#X obj 358 257 loadbang;
#X obj 360 286 0;
#X obj 535 10 delay 1000;
#X connect 0 0 47 0;
#X connect 4 0 5 1;
#X connect 4 0 5 0;
#X connect 6 0 42 0;
#X connect 8 0 34 0;
#X connect 8 1 36 0;
#X connect 8 2 9 0;
#X connect 8 3 13 0;
#X connect 8 4 12 0;
#X connect 9 0 11 0;
#X connect 11 0 10 0;
#X connect 14 0 30 0;
#X connect 15 0 30 0;
#X connect 16 0 30 0;
#X connect 17 0 16 0;
#X connect 21 0 5 1;
#X connect 21 0 5 0;
#X connect 23 0 22 0;
#X connect 24 0 23 0;
#X connect 25 0 24 1;
#X connect 26 0 8 0;
#X connect 27 0 30 0;
#X connect 28 0 30 0;
#X connect 29 0 7 1;
#X connect 30 0 26 0;
#X connect 31 0 38 0;
#X connect 32 0 38 1;
#X connect 33 0 38 2;
#X connect 34 0 35 0;
#X connect 35 0 31 0;
#X connect 35 1 32 0;
#X connect 35 2 33 0;
#X connect 36 0 37 0;
#X connect 37 0 39 0;
#X connect 37 1 29 0;
#X connect 39 0 7 0;
#X connect 40 0 41 0;
#X connect 41 0 25 0;
#X connect 42 0 44 0;
#X connect 44 0 24 0;
#X connect 45 0 46 0;
#X connect 46 0 7 1;
#X connect 46 0 7 0;
#X connect 46 0 38 2;
#X connect 46 0 38 1;
#X connect 46 0 38 0;
#X connect 47 0 1 0;
