#N canvas 595 108 599 361 10;
#X declare -path lib;
#X declare -path trombone;
#X obj 404 -31 loadbang;
#X msg 404 5 \; pd dsp 1;
#X obj 402 45 declare -path lib;
#X obj 402 71 declare -path trombone;
#X obj -13 195 jingle;
#X obj 3 284 dac~;
#X obj 14 -1 adc~;
#X obj 152 159 vsl 15 100 0 127 0 0 empty empty empty 0 -9 0 10 -204800
-1 -1 0 1;
#X obj 175 156 vsl 15 100 0 127 0 0 empty empty empty 0 -9 0 10 -262144
-1 -1 0 1;
#X obj 198 159 vsl 15 100 0 127 0 0 empty empty empty 0 -9 0 10 -262144
-1 -1 0 1;
#X obj 238 159 vsl 15 100 0 127 0 0 empty empty empty 0 -9 0 10 -204800
-1 -1 0 1;
#N canvas 183 395 457 266 data 0;
#X obj 50 26 inlet;
#X obj 135 24 inlet;
#X obj 204 24 inlet;
#X obj 69 121 centroid;
#X obj 217 120 sum;
#X obj 69 160 /;
#X obj 171 84 t f f;
#X obj 122 84 t f f;
#X obj 69 84 t f f;
#X obj 69 190 s tb_lh_centroid;
#X obj 216 192 s tb_lh_sum;
#X obj 68 53 s tb_lh1;
#X obj 142 52 s tb_lh2;
#X connect 0 0 8 0;
#X connect 0 0 11 0;
#X connect 1 0 7 0;
#X connect 1 0 12 0;
#X connect 2 0 6 0;
#X connect 3 0 5 0;
#X connect 4 0 5 1;
#X connect 4 0 10 0;
#X connect 5 0 9 0;
#X connect 6 0 3 2;
#X connect 7 0 3 1;
#X connect 8 0 3 0;
#X connect 8 1 4 0;
#X restore 154 271 pd data;
#N canvas 324 22 344 237 data 0;
#X obj 18 38 inlet;
#X obj 23 117 s tb_rh1;
#X obj 83 119 s tb_rh2;
#X obj 98 58 inlet;
#X connect 0 0 1 0;
#X connect 3 0 2 0;
#X restore 238 269 pd data;
#X obj 152 133 unpack 0 0 0;
#X obj 152 62 decode;
#X obj 152 85 route 128 129 144 145 240;
#X obj 68 15 s attack;
#X obj 309 123 pc_confirm;
#X obj 309 167 s preset;
#X floatatom 309 146 5 0 0 0 - - -;
#X obj 321 57 shutdown;
#N canvas 0 22 450 300 ping 0;
#X obj 161 62 inlet;
#X obj 223 161 print;
#X msg 222 127 received a ping;
#X obj 161 159 s toAVR;
#X msg 161 122 162;
#X connect 0 0 2 0;
#X connect 0 0 4 0;
#X connect 2 0 1 0;
#X connect 4 0 3 0;
#X restore 269 57 pd ping;
#X msg 162 -11 devices;
#X msg 152 -34 close;
#X obj 151 41 comport 4 57600;
#X msg 218 -5 devicename /dev/ttyUSB0;
#X obj 218 -32 loadbang;
#N canvas 437 241 769 428 sample 0;
#X obj 190 346 soundfiler;
#X obj 75 39 table tb_f1;
#X msg 262 167 read -resize trombone/ff/1.wav tb_f1;
#X obj 352 78 loadbang;
#X obj 581 251 counter;
#X obj 578 222 until;
#X obj 578 279 t f f;
#X obj 580 359 tabwrite phasor;
#X msg 583 180 2048;
#X obj 572 313 / 2048;
#X msg 332 324 read -resize slap/\$1a.wav tb_sl\$1;
#X obj 78 95 table tb_sl1;
#X obj 80 120 table tb_sl2;
#X obj 78 147 table tb_sl3;
#X obj 81 173 table tb_sl4;
#X obj 87 204 table tb_sl5;
#X obj 81 225 table tb_sl6;
#X obj 81 253 table tb_sl7;
#X obj 77 278 table tb_sl8;
#X obj 78 302 table tb_sl9;
#X obj 81 330 table tb_sl10;
#X obj 77 355 table tb_sl11;
#X obj 332 276 until;
#X obj 332 299 counter;
#X msg 330 251 12;
#X obj 587 83 table tb_hann;
#X obj 586 108 table tb_phasor;
#X msg 350 193 read -resize hann.wav tb_hann \, read -resize phasor.wav
tb_phasor;
#X connect 2 0 0 0;
#X connect 3 0 27 0;
#X connect 3 0 2 0;
#X connect 3 0 24 0;
#X connect 4 0 6 0;
#X connect 5 0 4 0;
#X connect 6 0 9 0;
#X connect 6 1 7 1;
#X connect 8 0 5 0;
#X connect 9 0 7 0;
#X connect 10 0 0 0;
#X connect 22 0 23 0;
#X connect 23 0 10 0;
#X connect 24 0 22 0;
#X connect 27 0 0 0;
#X restore 403 99 pd sample;
#X obj 88 158 sig~ 1;
#X obj 89 136 tgl 15 0 empty empty empty 17 7 0 10 -262144 -1 -1 0
1;
#X obj 87 -12 bng 15 250 50 0 empty empty empty 17 7 0 10 -262144 -1
-1;
#N canvas 275 162 484 394 pv 0;
#N canvas 363 47 764 780 phase 0;
#X obj 51 477 *~;
#X obj 18 477 *~;
#X obj 18 499 -~;
#X obj 167 475 *~;
#X obj 136 475 *~;
#X obj 136 497 +~;
#X obj 109 193 *~;
#X obj 78 193 *~;
#X obj 50 193 *~;
#X obj 19 193 *~;
#X obj 19 218 +~;
#X obj 127 379 *~;
#X obj 33 674 *~;
#X obj 194 428 rfft~;
#X obj 108 161 rfft~;
#X obj 33 618 rifft~;
#X obj 34 698 outlet~;
#X obj 97 379 *~;
#X obj 97 401 +~;
#X obj 124 218 -~;
#X obj 18 431 *~;
#X obj 51 432 *~;
#X obj 140 674 r window-size;
#X obj 19 349 +~ 1e-15;
#X obj 32 650 *~;
#X obj 140 695 expr 2/(3*$f1);
#X obj 344 601 loadbang;
#X obj 97 425 q8_rsqrt~;
#X obj 121 69 *~;
#X obj 89 69 *~;
#X obj 89 91 +~;
#X obj 159 94 q8_rsqrt~;
#X obj 159 71 +~ 1e-20;
#X obj 73 119 *~;
#X obj 19 118 *~;
#X obj 19 325 +~;
#X obj 125 331 +~;
#X obj 351 678 block~ 2048 4;
#X obj 29 245 lrshift~ 1;
#X obj 24 269 lrshift~ -1;
#X obj 141 245 lrshift~ 1;
#X obj 133 269 lrshift~ -1;
#X obj 448 39 inlet;
#X text 435 15 location;
#X obj 508 38 inlet;
#X text 525 18 pitch;
#X obj 20 8 tabreceive~ prev-real-tb;
#X obj 74 29 tabreceive~ prev-imag-tb;
#X obj 137 543 tabsend~ prev-imag-tb;
#X obj 136 567 tabsend~ prev-real-tb;
#X obj 316 514 *~;
#X obj 396 130 f;
#X obj 488 513 *~;
#X obj 316 52 bang~;
#X obj 266 318 line~;
#X obj 305 366 / 4;
#X floatatom 510 173 7 0 0 0 - - -;
#X obj 510 63 * 0.01;
#X obj 510 84 + 69;
#X obj 510 105 mtof;
#X obj 510 126 / 440;
#X obj 578 244 / 2;
#X obj 341 180 -;
#X obj 291 388 -~;
#X obj 267 237 f;
#X obj 267 208 b;
#X msg 266 290 0 \, \$1 \$2;
#X obj 266 263 pack 0 11.61;
#X obj 510 149 * 2048;
#X obj 399 166 * 44.1;
#X obj 413 96 +;
#X obj 291 425 tabread4~ tb_f1;
#X obj 397 425 tabread4~ tb_f1;
#X msg 344 627 \; window-size 2048 \;;
#X floatatom 431 85 5 0 0 0 - - -;
#X obj 578 574 table real_buf 2048;
#X obj 579 600 table imag_buf 2048;
#X obj 415 60 * 5;
#X obj 65 650 tabreceive~ tb_hann;
#X obj 523 441 tabreceive~ tb_hann;
#X connect 0 0 2 1;
#X connect 1 0 2 0;
#X connect 2 0 49 0;
#X connect 2 0 15 0;
#X connect 3 0 5 1;
#X connect 4 0 5 0;
#X connect 5 0 48 0;
#X connect 5 0 15 1;
#X connect 6 0 19 1;
#X connect 7 0 19 0;
#X connect 8 0 10 1;
#X connect 9 0 10 0;
#X connect 10 0 35 0;
#X connect 10 0 39 0;
#X connect 10 0 38 0;
#X connect 11 0 18 1;
#X connect 12 0 16 0;
#X connect 13 0 1 1;
#X connect 13 0 3 1;
#X connect 13 1 0 1;
#X connect 13 1 4 1;
#X connect 14 0 9 1;
#X connect 14 0 7 1;
#X connect 14 1 6 1;
#X connect 14 1 8 1;
#X connect 15 0 24 0;
#X connect 17 0 18 0;
#X connect 18 0 27 0;
#X connect 19 0 36 0;
#X connect 19 0 40 0;
#X connect 19 0 41 0;
#X connect 20 0 1 0;
#X connect 20 0 4 0;
#X connect 21 0 0 0;
#X connect 21 0 3 0;
#X connect 22 0 25 0;
#X connect 23 0 17 1;
#X connect 23 0 17 0;
#X connect 23 0 20 0;
#X connect 24 0 12 0;
#X connect 25 0 12 1;
#X connect 26 0 73 0;
#X connect 27 0 20 1;
#X connect 27 0 21 1;
#X connect 28 0 30 1;
#X connect 29 0 30 0;
#X connect 30 0 32 0;
#X connect 31 0 33 1;
#X connect 31 0 34 1;
#X connect 32 0 31 0;
#X connect 33 0 8 0;
#X connect 33 0 7 0;
#X connect 34 0 9 0;
#X connect 34 0 6 0;
#X connect 35 0 23 0;
#X connect 36 0 11 0;
#X connect 36 0 11 1;
#X connect 36 0 21 0;
#X connect 38 0 35 1;
#X connect 39 0 35 1;
#X connect 40 0 36 1;
#X connect 41 0 36 1;
#X connect 42 0 77 0;
#X connect 44 0 57 0;
#X connect 46 0 29 1;
#X connect 46 0 29 0;
#X connect 46 0 34 0;
#X connect 47 0 28 1;
#X connect 47 0 28 0;
#X connect 47 0 33 0;
#X connect 50 0 14 0;
#X connect 51 0 69 0;
#X connect 52 0 13 0;
#X connect 53 0 51 0;
#X connect 53 0 70 0;
#X connect 54 0 63 0;
#X connect 54 0 72 0;
#X connect 55 0 63 1;
#X connect 56 0 55 0;
#X connect 56 0 61 0;
#X connect 56 0 64 1;
#X connect 57 0 58 0;
#X connect 58 0 59 0;
#X connect 59 0 60 0;
#X connect 60 0 68 0;
#X connect 61 0 62 1;
#X connect 62 0 65 0;
#X connect 62 0 71 1;
#X connect 62 0 72 1;
#X connect 63 0 71 0;
#X connect 64 0 67 0;
#X connect 65 0 64 0;
#X connect 66 0 54 0;
#X connect 67 0 66 0;
#X connect 68 0 56 0;
#X connect 69 0 62 0;
#X connect 70 0 51 1;
#X connect 71 0 50 0;
#X connect 72 0 52 0;
#X connect 74 0 70 1;
#X connect 77 0 74 0;
#X connect 78 0 24 1;
#X connect 79 0 52 1;
#X connect 79 0 50 1;
#X restore 75 109 pd phase vocoder;
#X floatatom 74 75 5 0 0 0 location - -;
#X floatatom 196 76 5 0 0 0 - - -;
#X floatatom 286 75 5 0 0 0 - - -;
#X obj 215 95 r tb_lh2;
#X obj 306 131 table prev-imag-tb;
#X obj 306 153 table prev-real-tb;
#N canvas 24 316 508 329 chorus 0;
#X obj 98 103 inlet~;
#X obj 237 274 outlet~;
#X obj 265 132 osc~;
#X floatatom 336 50 5 0 0 0 - - -;
#X obj 259 197 +~ 10;
#X obj 327 114 line~;
#X obj 330 80 pack 0 50;
#X obj 263 159 *~;
#X obj 320 147 /~ 10;
#X obj 334 18 inlet;
#X obj 29 279 delwrite~ chorus-tb 1000;
#X obj 260 229 vd~ chorus-tb;
#X obj 391 48 / 10;
#X connect 0 0 1 0;
#X connect 0 0 10 0;
#X connect 2 0 7 0;
#X connect 3 0 12 0;
#X connect 4 0 11 0;
#X connect 5 0 2 0;
#X connect 5 0 8 0;
#X connect 6 0 5 0;
#X connect 7 0 4 0;
#X connect 8 0 7 1;
#X connect 9 0 3 0;
#X connect 11 0 1 0;
#X connect 12 0 6 0;
#X restore 74 178 pd chorus;
#N canvas 0 22 550 410 pitch_shift 0;
#X obj 244 172 hilbert~;
#X obj 249 220 *~;
#X obj 296 220 *~;
#X obj 313 177 cos~;
#X obj 357 176 cos~;
#X obj 223 124 inlet~;
#X obj 349 144 +~ 0.25;
#X obj 307 84 line~;
#X obj 306 58 pack 0 20;
#X obj 259 252 +~;
#X obj 214 322 outlet~;
#X floatatom 392 36 5 0 0 0 - - -;
#X obj 395 60 / 5;
#X obj 394 8 inlet;
#X obj 298 113 phasor~;
#X connect 0 0 1 0;
#X connect 0 1 2 0;
#X connect 1 0 9 0;
#X connect 2 0 9 1;
#X connect 3 0 1 1;
#X connect 4 0 2 1;
#X connect 5 0 0 0;
#X connect 5 0 10 0;
#X connect 6 0 4 0;
#X connect 7 0 14 0;
#X connect 8 0 7 0;
#X connect 9 0 10 0;
#X connect 11 0 12 0;
#X connect 12 0 8 0;
#X connect 13 0 11 0;
#X connect 14 0 3 0;
#X connect 14 0 6 0;
#X restore 103 270 pd pitch_shift;
#X floatatom 231 233 12 0 0 0 - - -;
#X obj 86 361 throw~ tb_mix;
#X floatatom 230 173 5 0 0 0 - - -;
#X obj 230 150 r tb_lh2;
#X obj 73 22 r tb_envfol;
#X obj 103 292 *~ 0.5;
#X obj 196 23 r tb_lh1;
#X obj 291 21 r tb_rh1;
#X obj 228 199 / 2;
#X connect 0 0 7 0;
#X connect 1 0 0 0;
#X connect 2 0 7 1;
#X connect 3 0 0 1;
#X connect 7 0 8 0;
#X connect 8 0 14 0;
#X connect 9 0 8 1;
#X connect 11 0 17 0;
#X connect 12 0 11 0;
#X connect 13 0 1 0;
#X connect 14 0 10 0;
#X connect 15 0 2 0;
#X connect 16 0 3 0;
#X connect 17 0 9 0;
#X restore 398 157 pd pv;
#X obj 238 133 unpack 0 0;
#N canvas 223 150 476 501 sample_playback 0;
#X obj 177 19 tabplay~ tb_sl1;
#X obj 178 74 tabplay~ tb_sl3;
#X obj 174 171 tabplay~ tb_sl6;
#X obj 174 137 tabplay~ tb_sl5;
#X obj 174 106 tabplay~ tb_sl4;
#X obj 181 47 tabplay~ tb_sl2;
#X obj 154 14 bng 15 250 50 0 empty empty empty 17 7 0 10 -262144 -1
-1;
#X obj 151 46 bng 15 250 50 0 empty empty empty 17 7 0 10 -262144 -1
-1;
#X obj 152 72 bng 15 250 50 0 empty empty empty 17 7 0 10 -262144 -1
-1;
#X obj 151 102 bng 15 250 50 0 empty empty empty 17 7 0 10 -262144
-1 -1;
#X obj 148 133 bng 15 250 50 0 empty empty empty 17 7 0 10 -262144
-1 -1;
#X obj 147 168 bng 15 250 50 0 empty empty empty 17 7 0 10 -262144
-1 -1;
#X obj 149 198 bng 15 250 50 0 empty empty empty 17 7 0 10 -262144
-1 -1;
#X obj 154 229 bng 15 250 50 0 empty empty empty 17 7 0 10 -262144
-1 -1;
#X obj 151 261 bng 15 250 50 0 empty empty empty 17 7 0 10 -262144
-1 -1;
#X obj 150 295 bng 15 250 50 0 empty empty empty 17 7 0 10 -262144
-1 -1;
#X obj 152 325 bng 15 250 50 0 empty empty empty 17 7 0 10 -262144
-1 -1;
#X obj 73 140 vsl 15 128 0 127 0 0 empty empty empty 0 -9 0 10 -262144
-1 -1 0 1;
#X obj 68 311 / 12;
#X obj 10 283 r pushed;
#X obj 346 218 throw~ tb_slap_mix;
#X obj 73 362 i;
#X obj 124 407 sel 0 1 2 3 4 5 6 7 8 9 10;
#X obj 78 412 change;
#X obj 75 448 i;
#X obj 33 420 bng 15 250 50 0 empty empty empty 17 7 0 10 -262144 -1
-1;
#X obj 181 262 tabplay~ tb_sl8;
#X obj 184 292 tabplay~ tb_sl11;
#X obj 184 323 tabplay~ tb_sl10;
#X obj 182 230 tabplay~ tb_sl9;
#X obj 179 198 tabplay~ tb_sl8;
#X connect 0 0 20 0;
#X connect 1 0 20 0;
#X connect 2 0 20 0;
#X connect 3 0 20 0;
#X connect 4 0 20 0;
#X connect 5 0 20 0;
#X connect 6 0 0 0;
#X connect 7 0 5 0;
#X connect 8 0 1 0;
#X connect 9 0 4 0;
#X connect 10 0 3 0;
#X connect 11 0 2 0;
#X connect 12 0 30 0;
#X connect 13 0 29 0;
#X connect 14 0 26 0;
#X connect 15 0 27 0;
#X connect 16 0 28 0;
#X connect 17 0 18 0;
#X connect 18 0 21 0;
#X connect 19 0 25 0;
#X connect 21 0 23 0;
#X connect 22 0 16 0;
#X connect 22 1 15 0;
#X connect 22 2 14 0;
#X connect 22 3 13 0;
#X connect 22 4 12 0;
#X connect 22 5 11 0;
#X connect 22 6 10 0;
#X connect 22 7 9 0;
#X connect 22 8 8 0;
#X connect 22 9 7 0;
#X connect 22 10 6 0;
#X connect 23 0 24 1;
#X connect 24 0 22 0;
#X connect 25 0 24 0;
#X connect 26 0 20 0;
#X connect 27 0 20 0;
#X connect 28 0 20 0;
#X connect 29 0 20 0;
#X connect 30 0 20 0;
#X restore 399 182 pd sample_playback;
#X obj 260 158 vsl 15 100 0 127 0 0 empty empty empty 0 -9 0 10 -262144
-1 -1 0 1;
#X obj 42 178 catch~ tb_mix;
#X obj 63 221 catch~ tb_slap_mix;
#X obj 56 268 rev2~ 80 60 3000 20;
#X obj 14 22 env~;
#X obj 12 116 s tb_envfol;
#X floatatom 11 92 5 0 0 0 - - -;
#X obj 22 64 spigot;
#X obj 59 39 tgl 15 0 empty empty empty 17 7 0 10 -262144 -1 -1 0 1
;
#X connect 0 0 1 0;
#X connect 4 0 5 1;
#X connect 4 0 5 0;
#X connect 6 0 38 0;
#X connect 7 0 11 0;
#X connect 8 0 11 1;
#X connect 9 0 11 2;
#X connect 10 0 12 0;
#X connect 13 0 7 0;
#X connect 13 1 8 0;
#X connect 13 2 9 0;
#X connect 14 0 15 0;
#X connect 15 0 13 0;
#X connect 15 1 32 0;
#X connect 15 2 17 0;
#X connect 15 4 21 0;
#X connect 15 5 20 0;
#X connect 17 0 19 0;
#X connect 19 0 18 0;
#X connect 22 0 24 0;
#X connect 23 0 24 0;
#X connect 25 0 24 0;
#X connect 26 0 25 0;
#X connect 29 0 28 0;
#X connect 32 0 10 0;
#X connect 32 1 34 0;
#X connect 34 0 12 1;
#X connect 35 0 5 1;
#X connect 35 0 5 0;
#X connect 36 0 5 1;
#X connect 36 0 5 0;
#X connect 36 0 37 0;
#X connect 37 0 5 1;
#X connect 37 0 5 0;
#X connect 38 0 41 0;
#X connect 40 0 39 0;
#X connect 41 0 40 0;
#X connect 42 0 41 1;
