#N canvas 475 194 909 460 10;
#X declare -path lib;
#X declare -path trombone;
#X obj 728 46 loadbang;
#X msg 728 82 \; pd dsp 1;
#X obj 726 122 declare -path lib;
#X obj 726 148 declare -path trombone;
#X obj 727 211 throw~ mix;
#X obj 727 179 jingle;
#X obj 727 277 dac~;
#X obj 728 241 catch~ mix;
#X obj 171 93 adc~;
#X obj 170 143 env~;
#X obj 166 181 s env;
#X connect 0 0 1 0;
#X connect 5 0 4 0;
#X connect 7 0 6 0;
#X connect 7 0 6 1;
#X connect 8 0 9 0;
#X connect 9 0 10 0;
