#N canvas 1497 -245 1920 1038 10;
#X msg -53 -78 devices;
#X msg -115 -79 close;
#X obj 126 225 unpack 0 0 0 0 0;
#X obj 243 225 unpack 0 0 0 0 0;
#X floatatom 568 295 5 0 0 0 - - -;
#X floatatom 625 294 5 0 0 0 - - -;
#X obj 360 225 unpack 0 0 0;
#X obj 568 259 unpack 0 0;
#X obj 709 225 print;
#X msg 709 196 systemhalt;
#X text 472 292 program change;
#X text 531 214 ping;
#X obj 275 176 route 128 129 130 144 145 240;
#X obj -92 39 sel 255;
#X obj -92 81 f;
#X obj -17 81 list prepend;
#X obj 49 118 t l;
#X obj -92 117 list append;
#X obj -92 1 split 128 256;
#X obj -92 -38 comport 4 57600;
#X msg 389 89 162;
#X msg -247 -62 160 \, 3 \, 1 \, 255;
#X obj 389 115 print;
#X obj 126 263 vsl 15 128 0 127 0 0 empty empty empty 0 -9 0 10 -262144
-1 -1 0 1;
#X obj 149 263 vsl 15 128 0 127 0 0 empty empty empty 0 -9 0 10 -262144
-1 -1 0 1;
#X obj 172 263 vsl 15 128 0 127 0 0 empty empty empty 0 -9 0 10 -262144
-1 -1 0 1;
#X obj 195 263 vsl 15 128 0 127 0 0 empty empty empty 0 -9 0 10 -262144
-1 -1 0 1;
#X obj 219 263 vsl 15 128 0 127 0 0 empty empty empty 0 -9 0 10 -262144
-1 -1 0 1;
#X obj 243 263 vsl 15 128 0 127 0 0 empty empty empty 0 -9 0 10 -262144
-1 -1 0 1;
#X obj 266 263 vsl 15 128 0 127 0 0 empty empty empty 0 -9 0 10 -262144
-1 -1 0 1;
#X obj 289 263 vsl 15 128 0 127 0 0 empty empty empty 0 -9 0 10 -262144
-1 -1 0 1;
#X obj 312 263 vsl 15 128 0 127 0 0 empty empty empty 0 -9 0 10 -262144
-1 -1 0 1;
#X obj 336 263 vsl 15 128 0 127 0 0 empty empty empty 0 -9 0 10 -262144
-1 -1 0 1;
#X obj 360 265 vsl 15 128 0 127 0 0 empty empty empty 0 -9 0 10 -262144
-1 -1 0 1;
#X obj 383 264 vsl 15 128 0 127 0 0 empty empty empty 0 -9 0 10 -262144
-1 -1 0 1;
#X obj 407 264 vsl 15 128 0 127 0 0 empty empty empty 0 -9 0 10 -262144
-1 -1 0 1;
#X obj 362 453 realtime;
#X obj 362 418 t b b;
#X floatatom 364 512 5 0 0 0 - - -;
#X obj 362 478 i;
#X obj 244 455 realtime;
#X obj 244 420 t b b;
#X floatatom 246 514 5 0 0 0 - - -;
#X obj 244 480 i;
#X obj 128 445 realtime;
#X obj 128 410 t b b;
#X floatatom 130 504 5 0 0 0 - - -;
#X obj 128 470 i;
#X text -91 596 software;
#X msg 33 -75 devicename COM8;
#X obj 584 448 iter;
#X obj 565 391 t b l b;
#X msg 607 424 163;
#X msg 560 471 255;
#X msg 561 354 2 3;
#X obj 605 513 s toAVR;
#X obj 149 -39 r toAVR;
#X connect 0 0 19 0;
#X connect 1 0 19 0;
#X connect 2 0 23 0;
#X connect 2 1 24 0;
#X connect 2 2 25 0;
#X connect 2 3 26 0;
#X connect 2 4 27 0;
#X connect 3 0 28 0;
#X connect 3 1 29 0;
#X connect 3 2 30 0;
#X connect 3 3 31 0;
#X connect 3 4 32 0;
#X connect 6 0 33 0;
#X connect 6 1 34 0;
#X connect 6 2 35 0;
#X connect 7 0 4 0;
#X connect 7 1 5 0;
#X connect 9 0 8 0;
#X connect 12 0 2 0;
#X connect 12 1 3 0;
#X connect 12 2 6 0;
#X connect 12 3 7 0;
#X connect 12 3 51 0;
#X connect 12 4 20 0;
#X connect 12 5 9 0;
#X connect 13 0 14 0;
#X connect 13 0 15 1;
#X connect 13 1 14 1;
#X connect 14 0 17 0;
#X connect 15 0 16 0;
#X connect 15 0 17 1;
#X connect 16 0 15 1;
#X connect 17 0 12 0;
#X connect 18 0 13 0;
#X connect 18 1 15 0;
#X connect 19 0 18 0;
#X connect 20 0 19 0;
#X connect 20 0 22 0;
#X connect 21 0 19 0;
#X connect 23 0 45 0;
#X connect 28 0 41 0;
#X connect 33 0 37 0;
#X connect 36 0 39 0;
#X connect 37 0 36 0;
#X connect 37 1 36 1;
#X connect 39 0 38 0;
#X connect 40 0 43 0;
#X connect 41 0 40 0;
#X connect 41 1 40 1;
#X connect 43 0 42 0;
#X connect 44 0 47 0;
#X connect 45 0 44 0;
#X connect 45 1 44 1;
#X connect 47 0 46 0;
#X connect 49 0 19 0;
#X connect 50 0 55 0;
#X connect 51 0 53 0;
#X connect 51 1 50 0;
#X connect 51 2 52 0;
#X connect 52 0 55 0;
#X connect 53 0 55 0;
#X connect 54 0 51 0;
#X connect 56 0 19 0;
