#N canvas 235 111 460 255 10;
#X obj 75 123 centroid, f 22;
#X obj 236 124 sum, f 26;
#X obj 177 160 /;
#X obj 254 157 outlet;
#X obj 178 193 outlet;
#X obj 216 15 inlet;
#X obj 214 47 unpack 0 0 0 0 0;
#X obj 141 76 t f f;
#X obj 183 76 t f f;
#X obj 226 76 t f f;
#X obj 268 76 t f f;
#X obj 308 76 t f f;
#X connect 0 0 2 0;
#X connect 1 0 2 1;
#X connect 1 0 3 0;
#X connect 2 0 4 0;
#X connect 5 0 6 0;
#X connect 6 0 7 0;
#X connect 6 1 8 0;
#X connect 6 2 9 0;
#X connect 6 3 10 0;
#X connect 6 4 11 0;
#X connect 7 0 0 0;
#X connect 7 1 1 0;
#X connect 8 0 0 1;
#X connect 8 1 1 1;
#X connect 9 0 0 2;
#X connect 9 1 1 2;
#X connect 10 0 0 3;
#X connect 10 1 1 3;
#X connect 11 0 0 4;
#X connect 11 1 1 4;
