#N canvas 89 60 408 368 10;
#X obj 42 45 inlet;
#X obj 87 43 inlet;
#X obj 134 44 inlet;
#X obj 179 44 inlet;
#X obj 226 46 inlet;
#X obj 86 91 * 2;
#X obj 135 88 * 3;
#X obj 179 89 * 4;
#X obj 226 90 * 5;
#X obj 90 225 outlet;
#X obj 97 172 sum, f 26;
#X connect 0 0 10 0;
#X connect 1 0 5 0;
#X connect 2 0 6 0;
#X connect 3 0 7 0;
#X connect 4 0 8 0;
#X connect 5 0 10 1;
#X connect 6 0 10 2;
#X connect 7 0 10 3;
#X connect 8 0 10 4;
#X connect 10 0 9 0;
