#N canvas 0 22 450 300 10;
#X obj 122 43 inlet;
#X obj 102 238 outlet;
#X obj 142 148 + 1;
#X obj 125 111 f \$1;
#X obj 120 70 t b;
#X obj 199 48 inlet;
#X obj 210 245 t b b, f 12;
#X obj 285 77 loadbang;
#X obj 283 145 sel 0;
#X msg 276 180 100000;
#X obj 71 161 sel;
#X obj 286 113 f \$2;
#X obj 296 243 f \$1;
#X connect 0 0 4 0;
#X connect 2 0 3 1;
#X connect 3 0 2 0;
#X connect 3 0 10 0;
#X connect 4 0 3 0;
#X connect 5 0 3 1;
#X connect 6 0 3 0;
#X connect 6 1 12 0;
#X connect 7 0 11 0;
#X connect 8 0 9 0;
#X connect 8 1 10 1;
#X connect 9 0 10 1;
#X connect 10 0 6 0;
#X connect 10 1 1 0;
#X connect 11 0 8 0;
#X connect 12 0 3 1;
