#N canvas 0 22 450 300 10;
#X obj 122 43 inlet;
#X obj 123 188 outlet;
#X obj 142 148 + 1;
#X obj 125 111 f \$1;
#X obj 120 70 t b;
#X obj 199 48 inlet;
#X connect 0 0 4 0;
#X connect 2 0 3 1;
#X connect 3 0 2 0;
#X connect 3 0 1 0;
#X connect 4 0 3 0;
#X connect 5 0 3 1;
