#N canvas 506 243 255 232 10;
#X obj 74 162 outlet;
#X obj 74 36 inlet;
#X obj 143 44 inlet;
#X obj 74 98 f;
#X obj 130 141 + 1;
#X obj 98 64 t b f;
#X obj 157 108 % \$1;
#X connect 1 0 3 0;
#X connect 2 0 5 0;
#X connect 3 0 0 0;
#X connect 3 0 4 0;
#X connect 4 0 6 0;
#X connect 5 0 3 0;
#X connect 5 1 3 1;
#X connect 6 0 3 1;
