#N canvas 807 295 450 300 10;
#X obj 130 65 inlet;
#X obj 126 222 outlet;
#X obj 160 151 f;
#X obj 133 115 t f b;
#X obj 116 185 -;
#X connect 0 0 3 0;
#X connect 2 0 4 1;
#X connect 3 0 4 0;
#X connect 3 0 2 1;
#X connect 3 1 2 0;
#X connect 4 0 2 1;
#X connect 4 0 1 0;
