#N canvas 777 92 545 566 10;
#X floatatom 135 92 5 0 0 0 - - -, f 5;
#X floatatom 135 245 5 0 0 0 - - -, f 5;
#X obj 274 209 -;
#X floatatom 227 246 5 0 0 0 - - -, f 5;
#X obj 225 274 moses 0;
#X floatatom 201 301 5 0 0 0 - - -, f 5;
#X floatatom 249 303 5 0 0 0 - - -, f 5;
#X obj 249 148 t b f;
#X obj 297 183 f 0;
#X obj 297 361 +;
#X floatatom 237 413 5 0 0 0 - - -, f 5;
#X obj 142 27 inlet~;
#X obj 237 449 outlet;
#X obj 200 329 / 15;
#X obj 135 187 / 10;
#X obj 135 60 env~ 512;
#X obj 134 123 clip 50 85;
#X obj 136 150 - 50;
#X connect 0 0 16 0;
#X connect 1 0 7 0;
#X connect 2 0 3 0;
#X connect 3 0 4 0;
#X connect 4 0 5 0;
#X connect 4 1 6 0;
#X connect 5 0 13 0;
#X connect 6 0 9 0;
#X connect 7 0 8 0;
#X connect 7 1 2 0;
#X connect 8 0 2 1;
#X connect 8 0 9 1;
#X connect 9 0 8 1;
#X connect 9 0 10 0;
#X connect 10 0 12 0;
#X connect 11 0 15 0;
#X connect 13 0 9 0;
#X connect 14 0 1 0;
#X connect 15 0 0 0;
#X connect 16 0 17 0;
#X connect 17 0 14 0;
