#N canvas 0 22 545 566 10;
#X floatatom 135 92 5 0 0 0 - - -, f 5;
#X obj 135 123 clip 50 100;
#X obj 135 187 / 50;
#X obj 135 217 *;
#X floatatom 135 245 5 0 0 0 - - -, f 5;
#X obj 135 152 - 50;
#X obj 138 321 line~;
#X obj 217 247 -;
#X floatatom 218 273 5 0 0 0 - - -, f 5;
#X obj 208 293 moses 0;
#X floatatom 218 317 5 0 0 0 - - -, f 5;
#X floatatom 266 319 5 0 0 0 - - -, f 5;
#X obj 218 172 t b f;
#X obj 266 214 f 0;
#X obj 234 378 +;
#X floatatom 194 439 5 0 0 0 - - -, f 5;
#X obj 136 293 pack 0 5;
#X obj 221 344 / 5;
#X obj 133 384 outlet~;
#X obj 142 27 inlet~;
#X obj 263 537 outlet;
#X obj 135 61 env~ 1024;
#X floatatom 251 438 5 0 0 0 - - -, f 5;
#X obj 251 457 > 0.2;
#X obj 252 484 change;
#X obj 265 509 sel 1;
#X connect 0 0 1 0;
#X connect 1 0 5 0;
#X connect 2 0 3 1;
#X connect 2 0 3 0;
#X connect 3 0 4 0;
#X connect 4 0 12 0;
#X connect 5 0 2 0;
#X connect 6 0 18 0;
#X connect 7 0 8 0;
#X connect 8 0 9 0;
#X connect 9 0 10 0;
#X connect 9 1 11 0;
#X connect 10 0 17 0;
#X connect 11 0 14 0;
#X connect 12 0 13 0;
#X connect 12 1 7 0;
#X connect 13 0 7 1;
#X connect 13 0 14 1;
#X connect 14 0 13 1;
#X connect 14 0 15 0;
#X connect 14 0 22 0;
#X connect 15 0 16 0;
#X connect 16 0 6 0;
#X connect 17 0 14 0;
#X connect 19 0 21 0;
#X connect 21 0 0 0;
#X connect 22 0 23 0;
#X connect 23 0 24 0;
#X connect 24 0 25 0;
#X connect 25 0 20 0;
