#N canvas 218 297 185 296 10;
#X obj 46 54 random \$1;
#X obj 40 181 sel;
#X obj 62 245 outlet;
#X obj 26 20 inlet;
#X obj 107 126 f 0;
#X obj 105 94 t f b;
#X connect 0 0 5 0;
#X connect 1 0 0 0;
#X connect 1 1 2 0;
#X connect 1 1 4 1;
#X connect 3 0 0 0;
#X connect 4 0 1 1;
#X connect 5 0 1 0;
#X connect 5 1 4 0;
