#N canvas 2 52 603 296 10;
#X obj 116 129 bng 15 250 50 0 empty empty empty 17 7 0 10 -262144
-1 -1;
#X obj 117 215 outlet~;
#X obj 261 42 loadbang;
#X obj 292 168 soundfiler;
#X obj 283 84 t b b;
#X obj 138 63 table \$0-jingle;
#X obj 140 154 tabplay~ \$0-jingle;
#X msg 289 135 read -resize jingle.wav \$1-jingle;
#X obj 342 104 i \$0;
#X obj 115 180 *~ 0.5;
#X obj 147 108 del \$1;
#X connect 0 0 6 0;
#X connect 2 0 4 0;
#X connect 4 0 10 0;
#X connect 4 1 8 0;
#X connect 6 0 9 0;
#X connect 7 0 3 0;
#X connect 8 0 7 0;
#X connect 9 0 1 0;
#X connect 10 0 0 0;
