#N canvas 2 52 450 300 10;
#X obj 138 63 table jingle;
#X obj 116 129 bng 15 250 50 0 empty empty empty 17 7 0 10 -262144
-1 -1;
#X obj 117 215 outlet~;
#X obj 140 154 tabplay~ jingle, f 11;
#X obj 261 42 loadbang;
#X obj 292 168 soundfiler;
#X msg 289 135 read -resize jingle.wav jingle;
#X obj 283 84 t b b;
#X obj 186 118 del 2000;
#X connect 1 0 3 0;
#X connect 3 0 2 0;
#X connect 4 0 7 0;
#X connect 6 0 5 0;
#X connect 7 0 8 0;
#X connect 7 1 6 0;
#X connect 8 0 1 0;
