#N canvas 2 52 603 296 10;
#X obj 116 129 bng 15 250 50 0 empty empty empty 17 7 0 10 -262144
-1 -1;
#X obj 117 215 outlet~;
#X obj 261 42 loadbang;
#X obj 292 168 soundfiler;
#X obj 283 84 t b b;
#X obj 186 118 del 2000;
#X obj 138 63 table \$0-jingle;
#X obj 140 154 tabplay~ \$0-jingle, f 11;
#X msg 289 135 read -resize jingle.wav \$1-jingle;
#X obj 342 104 i \$0;
#X connect 0 0 7 0;
#X connect 2 0 4 0;
#X connect 4 0 5 0;
#X connect 4 1 9 0;
#X connect 5 0 0 0;
#X connect 7 0 1 0;
#X connect 8 0 3 0;
#X connect 9 0 8 0;
