#N canvas 106 49 337 258 10;
#X obj 54 67 t b l b, f 12;
#X msg 124 106 163;
#X msg 54 106 255;
#X obj 54 168 s toAVR;
#X obj 86 106 iter;
#X obj 54 37 inlet;
#X obj 213 130 outlet;
#X obj 156 104 unpack 0 0;
#X obj 236 65 loadbang;
#X msg 239 90 0;
#X connect 0 0 2 0;
#X connect 0 1 4 0;
#X connect 0 1 7 0;
#X connect 0 2 1 0;
#X connect 1 0 3 0;
#X connect 2 0 3 0;
#X connect 4 0 3 0;
#X connect 5 0 0 0;
#X connect 7 1 6 0;
#X connect 8 0 9 0;
#X connect 9 0 6 0;
