#N canvas 106 49 231 258 10;
#X obj 54 67 t b l b;
#X msg 124 106 163;
#X msg 54 106 255;
#X obj 54 168 s toAVR;
#X obj 86 106 iter;
#X obj 54 37 inlet;
#X obj 126 168 outlet;
#X connect 0 0 2 0;
#X connect 0 1 4 0;
#X connect 0 1 6 0;
#X connect 0 2 1 0;
#X connect 1 0 3 0;
#X connect 2 0 3 0;
#X connect 4 0 3 0;
#X connect 5 0 0 0;
