#N canvas 0 22 500 396 10;
#X obj 130 297 outlet~;
#X obj 151 10 inlet;
#X obj 126 151 line~;
#X obj 124 184 tabread4~ arm_0;
#X floatatom 303 66 5 0 0 0 - - -;
#X msg 136 120 0 \, \$1 50;
#X obj 293 25 inlet;
#X obj 281 96 * 2205;
#X obj 117 82 f;
#X obj 145 41 t b f b;
#X msg 249 169 set arm_\$1;
#X obj 226 130 random 6;
#X obj 112 251 *~;
#X obj 202 284 line~;
#X obj 300 207 t b f;
#X obj 177 217 del 10;
#X obj 172 253 pack 0 30;
#X connect 1 0 9 0;
#X connect 2 0 3 0;
#X connect 3 0 12 0;
#X connect 4 0 7 0;
#X connect 5 0 2 0;
#X connect 6 0 4 0;
#X connect 7 0 8 1;
#X connect 8 0 5 0;
#X connect 9 0 8 0;
#X connect 9 1 14 0;
#X connect 9 2 11 0;
#X connect 10 0 3 0;
#X connect 11 0 10 0;
#X connect 12 0 0 0;
#X connect 13 0 12 1;
#X connect 14 0 15 0;
#X connect 14 1 13 0;
#X connect 15 0 16 0;
#X connect 16 0 13 0;
