#N canvas 280 77 794 725 10;
#X obj 273 156 tgl 15 0 empty empty empty 17 7 0 10 -262144 -1 -1 1
1;
#X obj 273 187 metro 100;
#X obj 407 259 + 40;
#X floatatom 427 227 5 0 0 0 - - -;
#X obj 469 432 + 1;
#X obj 396 316 bng 15 250 50 0 empty empty empty 17 7 0 10 -262144
-1 -1;
#X msg 410 448 0;
#X obj 393 361 f;
#X floatatom 332 353 5 0 0 0 - - -;
#X obj 274 276 t b f;
#X obj 129 80 vsl 15 128 0 127 0 0 empty empty empty 0 -9 0 10 -262144
-1 -1 12700 1;
#X obj 237 533 gr~;
#X obj 141 415 *;
#X obj 262 549 gr~;
#X obj 270 529 gr~;
#X obj 295 545 gr~;
#X obj 304 526 gr~;
#X obj 185 327 - 127;
#X obj 185 349 abs;
#X floatatom 185 371 5 0 0 0 - - -;
#X obj 167 181 > 0;
#X obj 168 206 change;
#X obj 264 244 random 10;
#X obj 151 499 random 100;
#X obj 133 565 +;
#X obj 120 470 t f b;
#X obj 150 532 / 10000;
#X obj 141 341 / 256;
#X obj 233 449 pack 0 \$1 0 0.1;
#X obj 122 44 inlet;
#X obj 240 616 outlet~;
#X obj 235 496 route 0 1 2 3 4;
#X obj 367 403 sel 4;
#X obj 185 390 + 15;
#X obj 333 233 random 10;
#X connect 0 0 1 0;
#X connect 1 0 22 0;
#X connect 1 0 34 0;
#X connect 2 0 1 1;
#X connect 3 0 2 1;
#X connect 4 0 7 1;
#X connect 5 0 7 0;
#X connect 6 0 7 1;
#X connect 7 0 8 0;
#X connect 7 0 32 0;
#X connect 8 0 28 0;
#X connect 9 0 5 0;
#X connect 9 1 28 2;
#X connect 10 0 17 0;
#X connect 10 0 20 0;
#X connect 10 0 27 0;
#X connect 11 0 30 0;
#X connect 12 0 25 0;
#X connect 13 0 30 0;
#X connect 14 0 30 0;
#X connect 15 0 30 0;
#X connect 16 0 30 0;
#X connect 17 0 18 0;
#X connect 18 0 19 0;
#X connect 19 0 33 0;
#X connect 20 0 21 0;
#X connect 21 0 0 0;
#X connect 22 0 9 0;
#X connect 23 0 26 0;
#X connect 24 0 28 3;
#X connect 25 0 24 0;
#X connect 25 1 23 0;
#X connect 26 0 24 1;
#X connect 27 0 12 1;
#X connect 27 0 12 0;
#X connect 28 0 31 0;
#X connect 29 0 10 0;
#X connect 31 0 11 0;
#X connect 31 1 13 0;
#X connect 31 2 14 0;
#X connect 31 3 15 0;
#X connect 31 4 16 0;
#X connect 32 0 6 0;
#X connect 32 1 4 0;
#X connect 33 0 3 0;
#X connect 34 0 2 0;
