#N canvas 515 79 969 731 10;
#X obj 179 534 *~;
#X obj 336 614 outlet~;
#X obj 212 510 tabread~ pf_hann;
#X obj 88 442 line~;
#X obj 179 104 metro 100;
#X obj 178 74 tgl 15 0 empty empty empty 17 7 0 10 -262144 -1 -1 0
1;
#X obj 88 506 tabread4~ pf_p\$1;
#X obj 177 161 route 0 1;
#X floatatom 280 298 5 0 0 0 - - -;
#X floatatom 431 -26 5 0 0 0 - - -;
#X obj 167 411 f;
#X obj 84 384 t a b b;
#X obj 216 396 random 100;
#X obj 181 432 +;
#X obj 341 572 *~;
#X obj 724 426 clip 0 1;
#X obj 732 492 line~;
#X obj 271 -65 inlet;
#X obj 177 50 change;
#X floatatom 323 66 5 0 0 0 - - -;
#X obj 95 195 t b b;
#X msg 183 339 0;
#X obj 81 354 pack 0 0;
#X obj 94 225 f;
#X obj 476 526 *~;
#X obj 507 493 tabread~ pf_hann;
#X obj 379 447 line~;
#X obj 385 498 tabread4~ pf_p\$1;
#X obj 457 387 f;
#X obj 380 370 t a b b;
#X obj 504 385 random 100;
#X obj 471 419 +;
#X obj 390 177 t b b;
#X msg 469 318 0;
#X obj 380 326 pack 0 0;
#X obj 392 212 f;
#X obj 215 472 /~;
#X obj 534 428 / 2048;
#X obj 508 459 /~;
#X obj 243 450 / 2048;
#X obj 540 235 * 10;
#X obj 637 -38 inlet;
#X obj 640 8 s \$0-gra;
#X obj 636 327 r \$0-gra;
#X obj 637 393 + 2048;
#X obj 637 361 * 5;
#X obj 707 -36 inlet;
#X obj 79 299 +;
#X obj 280 278 * 50;
#X obj 231 66 / 2;
#X obj 788 -34 inlet;
#X obj 786 9 s \$0-pst;
#X obj 184 252 r \$0-pst;
#X obj 367 244 t f f;
#X obj 73 253 t f f;
#X obj 705 6 s \$0-div;
#X obj 444 247 r \$0-div;
#X obj 123 312 r \$0-div;
#X obj 85 325 -;
#X obj 380 279 -;
#X obj 322 149 * 44.1;
#X obj 180 -14 > 5;
#X obj 703 256 - 5;
#X obj 281 19 !- 180;
#X obj 727 462 pack 0 20;
#X obj 161 469 max 0;
#X obj 472 466 max 0;
#X obj 526 190 + 10;
#X obj 176 132 cnt 0 2;
#X obj 722 387 / 10;
#X connect 0 0 14 0;
#X connect 2 0 0 1;
#X connect 3 0 6 0;
#X connect 3 0 36 0;
#X connect 4 0 68 0;
#X connect 5 0 4 0;
#X connect 6 0 0 0;
#X connect 7 0 20 0;
#X connect 7 1 32 0;
#X connect 8 0 10 1;
#X connect 8 0 28 1;
#X connect 9 0 62 0;
#X connect 9 0 63 0;
#X connect 9 0 67 0;
#X connect 10 0 13 0;
#X connect 11 0 3 0;
#X connect 11 1 10 0;
#X connect 11 2 12 0;
#X connect 12 0 13 1;
#X connect 13 0 65 0;
#X connect 14 0 1 0;
#X connect 15 0 64 0;
#X connect 16 0 14 1;
#X connect 17 0 9 0;
#X connect 17 0 61 0;
#X connect 18 0 5 0;
#X connect 19 0 34 1;
#X connect 19 0 22 1;
#X connect 19 0 60 0;
#X connect 20 0 23 0;
#X connect 20 1 21 0;
#X connect 21 0 11 0;
#X connect 22 0 11 0;
#X connect 23 0 54 0;
#X connect 24 0 14 0;
#X connect 25 0 24 1;
#X connect 26 0 27 0;
#X connect 26 0 38 0;
#X connect 27 0 24 0;
#X connect 28 0 31 0;
#X connect 29 0 26 0;
#X connect 29 1 28 0;
#X connect 29 2 30 0;
#X connect 30 0 31 1;
#X connect 31 0 66 0;
#X connect 32 0 35 0;
#X connect 32 1 33 0;
#X connect 33 0 29 0;
#X connect 34 0 29 0;
#X connect 35 0 53 0;
#X connect 36 0 2 0;
#X connect 37 0 38 1;
#X connect 38 0 25 0;
#X connect 39 0 36 1;
#X connect 40 0 12 1;
#X connect 40 0 30 1;
#X connect 41 0 42 0;
#X connect 43 0 45 0;
#X connect 44 0 37 1;
#X connect 44 0 39 1;
#X connect 45 0 44 0;
#X connect 46 0 55 0;
#X connect 47 0 58 0;
#X connect 48 0 8 0;
#X connect 49 0 4 1;
#X connect 50 0 51 0;
#X connect 52 0 47 1;
#X connect 53 0 59 0;
#X connect 53 1 37 0;
#X connect 54 0 47 0;
#X connect 54 1 39 0;
#X connect 56 0 59 1;
#X connect 57 0 58 1;
#X connect 58 0 22 0;
#X connect 59 0 34 0;
#X connect 60 0 23 1;
#X connect 60 0 35 1;
#X connect 61 0 18 0;
#X connect 62 0 69 0;
#X connect 63 0 19 0;
#X connect 63 0 48 0;
#X connect 63 0 49 0;
#X connect 64 0 16 0;
#X connect 65 0 6 1;
#X connect 66 0 27 1;
#X connect 67 0 40 0;
#X connect 68 0 7 0;
#X connect 69 0 15 0;
