#N canvas 97 23 403 590 10;
#X obj 180 398 line~;
#X obj 93 433 *~;
#X obj 179 362 pack 0.5 10;
#X obj 268 337 del 10;
#X obj 268 365 pack 0 500;
#X obj 70 365 line~;
#X msg 107 289 0;
#X msg 28 291 44100 \$1;
#X obj 29 262 f;
#X obj 285 148 i 1000;
#X obj 285 115 t b f;
#X floatatom 285 84 5 0 0 0 - - -;
#X obj 46 209 t b b f b;
#X obj 285 179 -;
#X obj 284 54 inlet;
#X obj 181 52 loadbang;
#X obj 93 474 outlet~;
#X obj 180 308 / 127;
#X obj 44 92 inlet;
#X obj 42 145 unpack 0 sample;
#X msg 198 243 set \$1;
#X obj 70 393 tabread~ pf_m22;
#X connect 0 0 1 1;
#X connect 1 0 16 0;
#X connect 2 0 0 0;
#X connect 3 0 4 0;
#X connect 4 0 0 0;
#X connect 5 0 21 0;
#X connect 6 0 5 0;
#X connect 7 0 5 0;
#X connect 8 0 7 0;
#X connect 9 0 13 0;
#X connect 10 0 9 0;
#X connect 10 1 13 1;
#X connect 11 0 10 0;
#X connect 12 0 8 0;
#X connect 12 1 6 0;
#X connect 12 2 17 0;
#X connect 12 3 3 0;
#X connect 13 0 8 1;
#X connect 14 0 11 0;
#X connect 15 0 9 0;
#X connect 17 0 2 0;
#X connect 18 0 19 0;
#X connect 19 0 12 0;
#X connect 19 1 20 0;
#X connect 20 0 21 0;
#X connect 21 0 1 0;
