#N canvas 97 23 403 590 10;
#X obj 198 450 line~;
#X obj 97 493 *~;
#X obj 197 414 pack 0.5 10;
#X obj 280 392 del 10;
#X obj 280 420 pack 0 500;
#X obj 74 425 line~;
#X msg 122 353 0;
#X msg 32 351 44100 \$1;
#X obj 33 322 f;
#X obj 289 244 i 1000;
#X obj 289 211 t b f;
#X floatatom 289 180 5 0 0 0 - - -;
#X obj 57 269 t b b f b;
#X obj 57 246 / 127;
#X floatatom 57 223 5 0 0 0 - - -;
#X obj 289 275 -;
#X obj 58 139 change;
#X floatatom 115 63 5 0 0 0 - - -;
#X obj 58 163 sel 1;
#X obj 114 96 t f f;
#X obj 57 196 f;
#X obj 115 35 inlet;
#X obj 288 150 inlet;
#X obj 185 148 loadbang;
#X obj 97 534 outlet~;
#X obj 75 453 tabread4~ pf_\$1;
#X obj 58 112 > 10;
#X connect 0 0 1 1;
#X connect 1 0 24 0;
#X connect 2 0 0 0;
#X connect 3 0 4 0;
#X connect 4 0 0 0;
#X connect 5 0 25 0;
#X connect 6 0 5 0;
#X connect 7 0 5 0;
#X connect 8 0 7 0;
#X connect 9 0 15 0;
#X connect 10 0 9 0;
#X connect 10 1 15 1;
#X connect 11 0 10 0;
#X connect 12 0 8 0;
#X connect 12 1 6 0;
#X connect 12 2 2 0;
#X connect 12 3 3 0;
#X connect 13 0 12 0;
#X connect 14 0 13 0;
#X connect 15 0 8 1;
#X connect 16 0 18 0;
#X connect 17 0 19 0;
#X connect 18 0 20 0;
#X connect 19 0 26 0;
#X connect 19 1 20 1;
#X connect 20 0 14 0;
#X connect 21 0 17 0;
#X connect 22 0 11 0;
#X connect 23 0 9 0;
#X connect 25 0 1 0;
#X connect 26 0 16 0;
