#N canvas 2094 276 384 613 10;
#X obj 35 99 t f f;
#X obj 15 154 change;
#X obj 15 178 sel 1;
#X obj 64 191 f;
#X obj 20 278 pack 0 0;
#X obj 28 303 route 0 1;
#X obj 45 461 throw~ pmix;
#X obj 38 29 inlet;
#X obj -7 346 pf_splay \$1;
#X obj 52 362 pf_splay \$1;
#X obj -8 241 cnt 0 2;
#X obj 15 129 > 40;
#X obj 152 360 osc~;
#X obj 155 324 line~;
#X obj 85 421 *~;
#X msg 237 331 0;
#X msg 152 289 \$1 \, 0 5000;
#X obj -3 202 t b b b;
#X obj 177 427 abs~;
#X obj 169 462 +~ 0.25;
#X obj 162 395 *~ 0.25;
#X obj 166 230 / 30;
#X connect 0 0 11 0;
#X connect 0 1 3 1;
#X connect 1 0 2 0;
#X connect 2 0 17 0;
#X connect 3 0 4 1;
#X connect 3 0 21 0;
#X connect 4 0 5 0;
#X connect 5 0 8 0;
#X connect 5 1 9 0;
#X connect 7 0 0 0;
#X connect 8 0 14 0;
#X connect 9 0 14 0;
#X connect 10 0 4 0;
#X connect 11 0 1 0;
#X connect 12 0 20 0;
#X connect 13 0 12 0;
#X connect 14 0 6 0;
#X connect 15 0 12 1;
#X connect 16 0 13 0;
#X connect 17 0 10 0;
#X connect 17 1 3 0;
#X connect 17 2 15 0;
#X connect 18 0 19 0;
#X connect 19 0 14 1;
#X connect 20 0 18 0;
#X connect 21 0 16 0;
