#N canvas 300 77 187 480 10;
#X obj 35 99 t f f;
#X obj 15 154 change;
#X obj 15 178 sel 1;
#X obj 69 208 f;
#X obj 20 278 pack 0 0;
#X obj -3 202 t b b;
#X obj 28 303 route 0 1;
#X obj -9 241 count 2;
#X obj 27 427 throw~ pmix;
#X obj 38 29 inlet;
#X obj -9 344 pf_splay \$1;
#X obj 28 371 pf_splay \$1;
#X obj 15 129 > 20;
#X connect 0 0 12 0;
#X connect 0 1 3 1;
#X connect 1 0 2 0;
#X connect 2 0 5 0;
#X connect 3 0 4 1;
#X connect 4 0 6 0;
#X connect 5 0 7 0;
#X connect 5 1 3 0;
#X connect 6 0 10 0;
#X connect 6 1 11 0;
#X connect 7 0 4 0;
#X connect 9 0 0 0;
#X connect 10 0 8 0;
#X connect 11 0 8 0;
#X connect 12 0 1 0;
