#N canvas 605 22 500 619 10;
#X obj 35 99 t f f;
#X obj 15 154 change;
#X obj 15 178 sel 1;
#X obj 64 191 f;
#X obj 20 278 pack 0 0;
#X obj 28 303 route 0 1;
#X obj 45 461 throw~ pmix;
#X obj 38 29 inlet;
#X obj -8 241 cnt 0 2;
#X obj 15 129 > 40;
#X obj 239 365 osc~;
#X obj 242 329 line~;
#X obj 85 421 *~;
#X msg 324 336 0;
#X msg 152 289 \$1 \, 0 5000;
#X obj -3 202 t b b b;
#X obj 264 432 abs~;
#X obj 256 467 +~ 0.25;
#X obj 249 400 *~ 0.25;
#X obj 154 209 / 30;
#X obj 114 349 pf_splay pf_s\$1;
#X obj 131 55 loadbang;
#X obj 136 91 i \$1;
#X obj 143 163 soundfiler;
#X obj 228 213 / 44.1;
#X obj 155 249 pack 0 0;
#X obj -7 346 pf_splay pf_s\$1;
#X msg 137 125 read -resize ../piano/string/string_\$1.wav pf_s\$1
;
#X connect 0 0 9 0;
#X connect 0 1 3 1;
#X connect 1 0 2 0;
#X connect 2 0 15 0;
#X connect 3 0 4 1;
#X connect 3 0 19 0;
#X connect 4 0 5 0;
#X connect 5 0 26 0;
#X connect 5 1 20 0;
#X connect 7 0 0 0;
#X connect 8 0 4 0;
#X connect 9 0 1 0;
#X connect 10 0 18 0;
#X connect 11 0 10 0;
#X connect 12 0 6 0;
#X connect 13 0 10 1;
#X connect 14 0 11 0;
#X connect 15 0 8 0;
#X connect 15 1 3 0;
#X connect 15 2 13 0;
#X connect 16 0 17 0;
#X connect 17 0 12 1;
#X connect 18 0 16 0;
#X connect 19 0 25 0;
#X connect 20 0 12 0;
#X connect 21 0 22 0;
#X connect 22 0 27 0;
#X connect 23 0 24 0;
#X connect 24 0 25 1;
#X connect 24 0 20 1;
#X connect 24 0 26 1;
#X connect 25 0 14 0;
#X connect 26 0 12 0;
#X connect 27 0 23 0;
