#N canvas 0 22 370 377 10;
#X obj 204 96 / 127;
#X obj 108 194 tabplay~ \$1;
#X obj 208 316 outlet~;
#X obj 170 57 inlet;
#X obj 204 144 *;
#X obj 208 118 t f f;
#X obj 208 232 line~;
#X obj 200 280 *~;
#X msg 208 208 \$1 \, 0 5000;
#X obj 120 121 bng 15 250 50 0 empty empty empty 17 7 0 10 -262144
-1 -1;
#X obj 220 169 pack 0 0;
#X obj 274 131 inlet;
#X connect 0 0 5 0;
#X connect 1 0 7 0;
#X connect 3 0 0 0;
#X connect 3 0 9 0;
#X connect 4 0 10 0;
#X connect 5 0 4 0;
#X connect 5 1 4 1;
#X connect 6 0 7 1;
#X connect 7 0 2 0;
#X connect 8 0 6 0;
#X connect 9 0 1 0;
#X connect 10 0 8 0;
#X connect 11 0 10 1;
