#N canvas 524 244 173 343 10;
#X floatatom 43 55 5 0 0 0 - - -;
#X obj 43 21 inlet;
#X obj 43 125 difference;
#X obj 43 190 change;
#X obj 43 88 t f f;
#X obj 43 219 sel 1;
#X obj 48 243 f;
#X obj 59 274 outlet;
#X obj 43 156 > 30;
#X connect 0 0 4 0;
#X connect 1 0 0 0;
#X connect 2 0 8 0;
#X connect 3 0 5 0;
#X connect 4 0 2 0;
#X connect 4 1 6 1;
#X connect 5 0 6 0;
#X connect 6 0 7 0;
#X connect 8 0 3 0;
