#N canvas 343 272 571 350 10;
#X obj 181 43 r ctl_pf;
#X obj 208 186 pack 0 0;
#X obj 208 262 line 0 25;
#X obj 147 185 pack 0 0;
#X obj 181 74 route \$1 \$2;
#X obj 207 299 outlet;
#X obj 78 66 r to_pf;
#X obj 77 102 route \$1;
#X obj 79 130 sel 0;
#X msg 77 170 0;
#X obj 328 144 vline_set;
#X floatatom 291 59 5 0 0 0 - - -;
#X floatatom 265 151 5 0 0 0 - - -;
#X obj 379 62 r ex_pf;
#X text 440 101 alternative envelope;
#X obj 375 101 route \$1;
#X obj 387 208 print;
#X connect 0 0 4 0;
#X connect 1 0 2 0;
#X connect 2 0 5 0;
#X connect 3 0 2 0;
#X connect 4 0 3 1;
#X connect 4 1 1 1;
#X connect 6 0 7 0;
#X connect 7 0 8 0;
#X connect 8 0 9 0;
#X connect 8 1 11 0;
#X connect 9 0 3 0;
#X connect 10 0 12 0;
#X connect 10 1 2 0;
#X connect 10 1 16 0;
#X connect 11 0 10 0;
#X connect 12 0 1 0;
#X connect 13 0 15 0;
#X connect 15 0 10 1;
