#N canvas 499 22 987 708 10;
#X obj 210 -628 f;
#X obj 108 -687 bang~;
#X obj 69 -389 line~;
#X obj 103 -343 / 4;
#X floatatom 392 -442 7 0 0 0 - - -, f 7;
#X obj 390 -574 * 0.01;
#X obj 392 -553 + 69;
#X obj 393 -532 mtof;
#X obj 393 -510 / 440;
#X obj 89 -155 outlet~;
#X obj 221 -157 outlet~;
#X obj 255 -520 / 2;
#X obj 218 -520 -;
#X obj 83 -300 -~;
#X obj 68 -471 f;
#X obj 67 -500 b;
#X msg 69 -417 0 \, \$1 \$2;
#X obj 69 -444 pack 0 11.61, f 13;
#X obj 392 -466 * 2048;
#X obj 213 -549 * 44.1;
#X floatatom 245 -749 5 0 0 0 - - -, f 5;
#X obj 256 -811 inlet;
#X obj 75 -265 tabread4~ \$1;
#X obj 197 -263 tabread4~ \$1;
#X obj 174 -757 > 0, f 5;
#X obj 117 -653 spigot, f 11;
#X obj 176 -716 change;
#X obj 87 -205 *~;
#X obj 216 -209 *~;
#X obj 335 -333 / 127;
#X obj 330 -297 pack 0 10;
#X obj 329 -262 line~;
#X obj 211 -604 !- 127;
#X obj 393 -617 r pv_pb;
#X obj 227 -662 line 0 15;
#X obj 237 -691 pack 0 100;
#X connect 0 0 32 0;
#X connect 1 0 25 0;
#X connect 2 0 13 0;
#X connect 2 0 23 0;
#X connect 3 0 13 1;
#X connect 4 0 3 0;
#X connect 4 0 11 0;
#X connect 4 0 14 1;
#X connect 5 0 6 0;
#X connect 6 0 7 0;
#X connect 7 0 8 0;
#X connect 8 0 18 0;
#X connect 11 0 12 1;
#X connect 12 0 15 0;
#X connect 12 0 23 1;
#X connect 12 0 22 1;
#X connect 13 0 22 0;
#X connect 14 0 17 0;
#X connect 15 0 14 0;
#X connect 16 0 2 0;
#X connect 17 0 16 0;
#X connect 18 0 4 0;
#X connect 19 0 12 0;
#X connect 20 0 24 0;
#X connect 20 0 35 0;
#X connect 21 0 20 0;
#X connect 21 0 29 0;
#X connect 22 0 27 0;
#X connect 23 0 28 0;
#X connect 24 0 26 0;
#X connect 25 0 0 0;
#X connect 26 0 25 1;
#X connect 27 0 9 0;
#X connect 28 0 10 0;
#X connect 29 0 30 0;
#X connect 30 0 31 0;
#X connect 31 0 28 1;
#X connect 31 0 27 1;
#X connect 32 0 19 0;
#X connect 33 0 5 0;
#X connect 34 0 0 1;
#X connect 35 0 34 0;
