#N canvas 577 241 543 700 10;
#X obj 210 -628 f;
#X obj 108 -687 bang~;
#X obj 64 -483 line~;
#X obj 84 -249 outlet~;
#X obj 216 -251 outlet~;
#X obj 215 -565 * 44.1;
#X floatatom 245 -749 5 0 0 0 - - -;
#X obj 256 -811 inlet;
#X obj 70 -359 tabread4~ \$1;
#X obj 192 -357 tabread4~ \$1;
#X obj 174 -757 > 0;
#X obj 117 -653 spigot;
#X obj 176 -716 change;
#X obj 82 -299 *~;
#X obj 211 -303 *~;
#X obj 330 -427 / 127;
#X obj 325 -391 pack 0 10;
#X obj 324 -356 line~;
#X obj 211 -604 !- 127;
#X obj 227 -662 line 0 15;
#X obj 237 -691 pack 0 100;
#X obj 77 -577 b;
#X obj 210 -534 - 2048;
#X obj 377 -512 inlet;
#X obj 461 -550 + 69;
#X obj 462 -529 mtof;
#X obj 462 -507 / 440;
#X floatatom 453 -622 5 0 0 0 - - -;
#X obj 435 -445 * 2048;
#X floatatom 444 -398 5 0 0 0 - - -;
#X obj 429 -339 / 2;
#X obj 64 -543 f;
#X msg 64 -511 0 \, \$1 11.61;
#X obj 459 -571 * 0.01;
#X obj 466 -671 inlet;
#X connect 0 0 18 0;
#X connect 1 0 11 0;
#X connect 2 0 8 0;
#X connect 2 0 9 0;
#X connect 5 0 21 0;
#X connect 5 0 22 0;
#X connect 6 0 10 0;
#X connect 6 0 20 0;
#X connect 7 0 6 0;
#X connect 7 0 15 0;
#X connect 8 0 13 0;
#X connect 9 0 14 0;
#X connect 10 0 12 0;
#X connect 11 0 0 0;
#X connect 12 0 11 1;
#X connect 13 0 3 0;
#X connect 14 0 4 0;
#X connect 15 0 16 0;
#X connect 16 0 17 0;
#X connect 17 0 14 1;
#X connect 17 0 13 1;
#X connect 18 0 5 0;
#X connect 19 0 0 1;
#X connect 20 0 19 0;
#X connect 21 0 31 0;
#X connect 22 0 9 1;
#X connect 22 0 8 1;
#X connect 23 0 9 0;
#X connect 23 0 8 0;
#X connect 24 0 25 0;
#X connect 25 0 26 0;
#X connect 26 0 28 0;
#X connect 27 0 33 0;
#X connect 28 0 29 0;
#X connect 29 0 30 0;
#X connect 29 0 31 1;
#X connect 30 0 22 1;
#X connect 31 0 32 0;
#X connect 32 0 2 0;
#X connect 33 0 24 0;
#X connect 34 0 27 0;
