#N canvas 442 223 453 343 10;
#X obj 211 131 +;
#X obj 131 135 +;
#X obj 167 203 +;
#X obj 92 257 +;
#X obj 259 95 t b f;
#X obj 166 101 t b f;
#X obj 206 165 t b f;
#X obj 117 224 t b f;
#X obj 257 54 inlet;
#X obj 216 56 inlet;
#X obj 164 56 inlet;
#X obj 117 56 inlet;
#X obj 63 72 inlet;
#X obj 89 283 outlet;
#X connect 0 0 6 0;
#X connect 1 0 2 0;
#X connect 2 0 7 0;
#X connect 3 0 13 0;
#X connect 4 0 0 0;
#X connect 4 1 0 1;
#X connect 5 0 1 0;
#X connect 5 1 1 1;
#X connect 6 0 2 0;
#X connect 6 1 2 1;
#X connect 7 0 3 0;
#X connect 7 1 3 1;
#X connect 8 0 4 0;
#X connect 9 0 0 0;
#X connect 10 0 5 0;
#X connect 11 0 1 0;
#X connect 12 0 3 0;
