#N canvas 30 167 569 522 10;
#X obj 372 349 line~;
#X obj 242 413 *~;
#X obj 370 380 *~;
#X obj 347 245 del 100;
#X obj 272 -22 inlet;
#X msg 348 284 0 6000;
#X obj 242 96 change;
#X obj 417 241 / 127;
#X obj 377 208 f;
#X msg 418 304 \$1 40;
#X obj 242 446 outlet~;
#X obj 433 116 spigot;
#X obj 479 50 inlet;
#X obj 254 7 difference;
#X obj 245 30 t f f;
#X obj 243 124 sel 1;
#X obj 290 78 abs;
#X obj 190 395 *~;
#X obj 344 46 change;
#X obj 344 17 > 30;
#X obj 345 80 sel 1;
#X obj 345 110 timer;
#X obj 284 242 / 200;
#X obj 244 183 t b b b b;
#X msg 247 314 \$1 \, 0 6000;
#X obj 261 287 f;
#X obj 243 341 line~;
#X obj 246 368 osc~;
#X obj 284 264 clip 0 30;
#X obj 383 153 * 2;
#X obj 421 273 min 1;
#X msg 135 278 4500;
#X obj 133 350 tabplay~ pf_o\$1;
#X obj 242 72 < -50;
#X connect 0 0 2 1;
#X connect 0 0 2 0;
#X connect 1 0 10 0;
#X connect 2 0 1 1;
#X connect 3 0 5 0;
#X connect 4 0 13 0;
#X connect 4 0 19 0;
#X connect 5 0 0 0;
#X connect 6 0 15 0;
#X connect 7 0 30 0;
#X connect 8 0 7 0;
#X connect 9 0 0 0;
#X connect 11 0 23 0;
#X connect 12 0 11 1;
#X connect 13 0 14 0;
#X connect 14 0 33 0;
#X connect 14 1 16 0;
#X connect 15 0 11 0;
#X connect 16 0 29 0;
#X connect 17 0 1 0;
#X connect 18 0 20 0;
#X connect 19 0 18 0;
#X connect 20 0 21 0;
#X connect 21 0 22 0;
#X connect 22 0 28 0;
#X connect 23 0 31 0;
#X connect 23 1 3 0;
#X connect 23 1 25 0;
#X connect 23 2 8 0;
#X connect 23 3 21 1;
#X connect 24 0 26 0;
#X connect 25 0 24 0;
#X connect 26 0 27 0;
#X connect 27 0 17 1;
#X connect 28 0 25 1;
#X connect 29 0 8 1;
#X connect 30 0 9 0;
#X connect 31 0 32 0;
#X connect 32 0 17 0;
#X connect 33 0 6 0;
