#N canvas 30 167 569 522 10;
#X obj 389 323 line~;
#X obj 242 413 *~;
#X obj 399 382 *~;
#X obj 75 324 line~;
#X obj 154 228 * 44.1;
#X floatatom 103 157 5 0 0 0 - - -;
#X obj 103 218 * 44.1;
#X obj 73 259 f;
#X obj 187 198 t b b;
#X obj 139 259 f;
#X obj 103 187 + 5000;
#X obj 73 285 pack 0 5000;
#X obj 347 245 del 100;
#X obj 272 -22 inlet;
#X obj 103 121 r offset;
#X msg 348 284 0 6000;
#X obj 242 96 change;
#X obj 417 241 / 127;
#X obj 358 194 f;
#X msg 418 270 \$1 40;
#X obj 242 446 outlet~;
#X obj 115 352 tabread4~ pf_o\$1;
#X obj 433 116 spigot;
#X obj 479 50 inlet;
#X obj 254 7 difference;
#X obj 242 72 < -60;
#X obj 245 30 t f f;
#X obj 243 124 sel 1;
#X obj 290 78 abs;
#X obj 188 383 *~;
#X obj 344 46 change;
#X obj 344 17 > 30;
#X obj 345 80 sel 1;
#X obj 345 110 timer;
#X obj 284 242 / 200;
#X obj 244 183 t b b b b;
#X msg 247 314 \$1 \, 0 6000;
#X obj 261 287 f;
#X obj 243 341 line~;
#X obj 246 368 osc~;
#X obj 284 264 clip 0 30;
#X connect 0 0 2 1;
#X connect 0 0 2 0;
#X connect 1 0 20 0;
#X connect 2 0 1 1;
#X connect 3 0 21 0;
#X connect 4 0 9 1;
#X connect 5 0 4 0;
#X connect 5 0 10 0;
#X connect 6 0 7 1;
#X connect 7 0 11 0;
#X connect 8 0 7 0;
#X connect 8 1 9 0;
#X connect 9 0 3 0;
#X connect 10 0 6 0;
#X connect 11 0 3 0;
#X connect 12 0 15 0;
#X connect 13 0 24 0;
#X connect 13 0 31 0;
#X connect 14 0 5 0;
#X connect 15 0 0 0;
#X connect 16 0 27 0;
#X connect 17 0 19 0;
#X connect 18 0 17 0;
#X connect 19 0 0 0;
#X connect 21 0 29 0;
#X connect 22 0 35 0;
#X connect 23 0 22 1;
#X connect 24 0 26 0;
#X connect 25 0 16 0;
#X connect 26 0 25 0;
#X connect 26 1 28 0;
#X connect 27 0 22 0;
#X connect 28 0 18 1;
#X connect 29 0 1 0;
#X connect 30 0 32 0;
#X connect 31 0 30 0;
#X connect 32 0 33 0;
#X connect 33 0 34 0;
#X connect 34 0 40 0;
#X connect 35 0 8 0;
#X connect 35 1 12 0;
#X connect 35 1 37 0;
#X connect 35 2 18 0;
#X connect 35 3 33 1;
#X connect 36 0 38 0;
#X connect 37 0 36 0;
#X connect 38 0 39 0;
#X connect 39 0 29 1;
#X connect 40 0 37 1;
