#N canvas 361 22 569 522 10;
#X obj 287 303 line~;
#X obj 174 398 *~;
#X obj 290 336 *~;
#X obj 75 324 line~;
#X obj 154 228 * 44.1;
#X floatatom 103 157 5 0 0 0 - - -;
#X obj 103 218 * 44.1;
#X obj 73 259 f;
#X obj 187 198 t b b;
#X obj 139 259 f;
#X obj 103 187 + 5000;
#X obj 245 170 bng 15 250 50 0 empty empty empty 17 7 0 10 -262144
-1 -1;
#X obj 73 285 pack 0 5000;
#X obj 245 225 del 100;
#X obj 272 -22 inlet;
#X obj 103 121 r offset;
#X msg 246 264 0 6000;
#X obj 244 5 > 0;
#X obj 244 29 change;
#X obj 244 55 sel 0 1;
#X msg 431 208 0 10;
#X obj 315 221 / 127;
#X obj 313 31 moses 0;
#X obj 358 194 f;
#X msg 316 250 \$1 40;
#X obj 174 431 outlet~;
#X obj 117 364 tabread4~ pf_o\$1;
#X connect 0 0 2 1;
#X connect 0 0 2 0;
#X connect 1 0 25 0;
#X connect 2 0 1 1;
#X connect 3 0 26 0;
#X connect 4 0 9 1;
#X connect 5 0 4 0;
#X connect 5 0 10 0;
#X connect 6 0 7 1;
#X connect 7 0 12 0;
#X connect 8 0 7 0;
#X connect 8 1 9 0;
#X connect 9 0 3 0;
#X connect 10 0 6 0;
#X connect 11 0 8 0;
#X connect 11 0 13 0;
#X connect 11 0 23 0;
#X connect 12 0 3 0;
#X connect 13 0 16 0;
#X connect 14 0 17 0;
#X connect 14 0 22 0;
#X connect 15 0 5 0;
#X connect 16 0 0 0;
#X connect 17 0 18 0;
#X connect 18 0 19 0;
#X connect 19 0 11 0;
#X connect 19 1 20 0;
#X connect 20 0 0 0;
#X connect 21 0 24 0;
#X connect 22 1 23 1;
#X connect 23 0 21 0;
#X connect 24 0 0 0;
#X connect 26 0 1 0;
