#N canvas 76 323 461 347 10;
#X obj 71 170 tabread~ \$1;
#X obj 179 167 tabread~ \$1;
#X obj 227 236 tabread~ \$1;
#X obj 331 265 tabread~ \$1;
#X obj 179 66 line~;
#X msg 180 33 0 \, 13230 300;
#X obj 114 291 outlet~;
#X obj 71 35 inlet;
#X obj 265 143 *~ 1.5;
#X obj 362 194 *~ 2.5;
#X obj 154 192 delwrite~ a 100;
#X obj 127 256 delread~ a 12;
#X obj 186 138 *~ 0.6;
#X connect 0 0 6 0;
#X connect 1 0 10 0;
#X connect 2 0 6 0;
#X connect 3 0 6 0;
#X connect 4 0 0 0;
#X connect 4 0 8 0;
#X connect 4 0 9 0;
#X connect 4 0 12 0;
#X connect 5 0 4 0;
#X connect 7 0 5 0;
#X connect 8 0 2 0;
#X connect 9 0 3 0;
#X connect 11 0 6 0;
#X connect 12 0 1 0;
