#N canvas 165 22 257 289 10;
#X obj 54 113 sel 255;
#X obj 54 155 f;
#X obj 118 155 list prepend;
#X obj 187 107 t l;
#X obj 55 190 list append;
#X obj 118 63 moses 128;
#X obj 55 230 outlet;
#X obj 118 27 inlet;
#X connect 0 0 1 0;
#X connect 0 0 2 1;
#X connect 0 1 1 1;
#X connect 1 0 4 0;
#X connect 2 0 3 0;
#X connect 2 0 4 1;
#X connect 3 0 2 1;
#X connect 4 0 6 0;
#X connect 5 0 2 0;
#X connect 5 1 0 0;
#X connect 7 0 5 0;
