#N canvas 0 22 450 300 10;
#X obj 121 67 inlet~;
#X obj 164 162 snapshot~;
#X obj 163 207 outlet;
#X obj 192 74 inlet;
#X obj 279 54 loadbang;
#X obj 288 103 i \$1;
#X obj 201 115 metro;
#X obj 288 125 sel 0;
#X obj 276 159 i 50;
#X connect 0 0 1 0;
#X connect 1 0 2 0;
#X connect 3 0 6 0;
#X connect 4 0 5 0;
#X connect 5 0 7 0;
#X connect 6 0 1 0;
#X connect 7 0 8 0;
#X connect 7 1 6 1;
#X connect 8 0 6 1;
