#N canvas 359 82 343 546 10;
#X obj -182 42 inlet;
#X obj -32 50 inlet;
#X obj -99 190 list append;
#X obj -75 72 t b;
#X msg -79 104 1;
#X obj -172 127 f 0;
#X obj -174 162 sel 0 1;
#X msg 4 151 0;
#X obj -190 254 outlet;
#X obj -171 79 t b f;
#X obj -183 209 f;
#X obj -48 450 t l l;
#X obj -89 513 del;
#X obj -42 287 list append;
#X obj -166 412 bng 15 250 50 0 empty empty empty 17 7 0 10 -262144
-1 -1;
#X obj -43 310 list split 2;
#X msg -87 479 \$2;
#X obj -100 267 t b l;
#X obj 40 399 t b;
#X obj -17 515 outlet;
#X obj -49 342 unpack 0 0;
#X obj -47 413 pack 0 0;
#X obj -28 380 * 100;
#X connect 0 0 9 0;
#X connect 1 0 2 1;
#X connect 1 0 3 0;
#X connect 2 0 17 0;
#X connect 3 0 4 0;
#X connect 4 0 5 1;
#X connect 5 0 6 0;
#X connect 6 0 10 0;
#X connect 6 1 2 0;
#X connect 7 0 5 1;
#X connect 9 0 5 0;
#X connect 9 1 10 1;
#X connect 10 0 8 0;
#X connect 11 0 16 0;
#X connect 11 1 19 0;
#X connect 12 0 14 0;
#X connect 13 0 15 0;
#X connect 14 0 13 0;
#X connect 15 0 20 0;
#X connect 15 1 13 1;
#X connect 15 2 18 0;
#X connect 16 0 12 0;
#X connect 17 0 14 0;
#X connect 17 1 13 1;
#X connect 18 0 7 0;
#X connect 20 0 21 0;
#X connect 20 1 22 0;
#X connect 21 0 11 0;
#X connect 22 0 21 1;
