#N canvas 0 22 349 425 10;
#X obj 97 152 cos;
#X floatatom 99 208 5 0 0 0 - - -, f 5;
#X obj 173 177 cos;
#X floatatom 176 216 5 0 0 0 - - -, f 5;
#X obj 167 116 - 90;
#X obj 171 143 * 0.0174533;
#X obj 95 118 * 0.0174533;
#X obj 79 263 pack 0 10;
#X obj 173 258 pack 0 10;
#X obj 75 311 line~;
#X obj 175 325 line~;
#X obj 120 49 inlet;
#X obj 78 372 outlet~;
#X obj 175 375 outlet~;
#X connect 0 0 1 0;
#X connect 1 0 7 0;
#X connect 2 0 3 0;
#X connect 3 0 8 0;
#X connect 4 0 5 0;
#X connect 5 0 2 0;
#X connect 6 0 0 0;
#X connect 7 0 9 0;
#X connect 8 0 10 0;
#X connect 9 0 12 0;
#X connect 10 0 13 0;
#X connect 11 0 6 0;
#X connect 11 0 4 0;
