#N canvas 1704 0 1920 1038 10;
#X msg -53 -78 devices;
#X msg -115 -79 close;
#X obj 126 225 unpack 0 0 0 0 0;
#X obj 243 225 unpack 0 0 0 0 0;
#X floatatom 568 295 5 0 0 0 - - -;
#X floatatom 625 294 5 0 0 0 - - -;
#X obj 360 225 unpack 0 0 0;
#X obj 568 259 unpack 0 0;
#X obj 709 225 print;
#X msg 709 196 systemhalt;
#X text 472 292 program change;
#X text 531 214 ping;
#X obj 275 176 route 128 129 130 144 145 240;
#X obj -92 39 sel 255;
#X obj -92 81 f;
#X obj -17 81 list prepend;
#X obj 49 118 t l;
#X obj -92 117 list append;
#X obj -92 1 split 128 256;
#X msg 322 94 162;
#X obj 126 263 vsl 15 128 0 127 0 0 empty empty empty 0 -9 0 10 -262144
-1 -1 0 1;
#X obj 149 263 vsl 15 128 0 127 0 0 empty empty empty 0 -9 0 10 -262144
-1 -1 0 1;
#X obj 172 263 vsl 15 128 0 127 0 0 empty empty empty 0 -9 0 10 -262144
-1 -1 0 1;
#X obj 195 263 vsl 15 128 0 127 0 0 empty empty empty 0 -9 0 10 -262144
-1 -1 0 1;
#X obj 219 263 vsl 15 128 0 127 0 0 empty empty empty 0 -9 0 10 -262144
-1 -1 0 1;
#X obj 243 263 vsl 15 128 0 127 0 0 empty empty empty 0 -9 0 10 -262144
-1 -1 0 1;
#X obj 266 263 vsl 15 128 0 127 0 0 empty empty empty 0 -9 0 10 -262144
-1 -1 0 1;
#X obj 289 263 vsl 15 128 0 127 0 0 empty empty empty 0 -9 0 10 -262144
-1 -1 0 1;
#X obj 312 263 vsl 15 128 0 127 0 0 empty empty empty 0 -9 0 10 -262144
-1 -1 0 1;
#X obj 336 263 vsl 15 128 0 127 0 0 empty empty empty 0 -9 0 10 -262144
-1 -1 0 1;
#X obj 360 265 vsl 15 128 0 127 0 0 empty empty empty 0 -9 0 10 -262144
-1 -1 0 1;
#X obj 383 264 vsl 15 128 0 127 0 0 empty empty empty 0 -9 0 10 -262144
-1 -1 0 1;
#X obj 407 264 vsl 15 128 0 127 0 0 empty empty empty 0 -9 0 10 -262144
-1 -1 0 1;
#X obj 362 453 realtime;
#X obj 362 418 t b b;
#X floatatom 364 512 5 0 0 0 - - -;
#X obj 362 478 i;
#X obj 244 455 realtime;
#X obj 244 420 t b b;
#X floatatom 246 514 5 0 0 0 - - -;
#X obj 244 480 i;
#X obj 128 445 realtime;
#X obj 128 410 t b b;
#X floatatom 130 504 5 0 0 0 - - -;
#X obj 128 470 i;
#X text -91 596 software;
#X obj 584 448 iter;
#X obj 565 391 t b l b;
#X msg 607 424 163;
#X msg 560 471 255;
#X msg 561 354 2 3;
#X obj 605 513 s toAVR;
#X obj 149 -39 r toAVR;
#X msg -225 -6 163 \, 4 \, 2 \, 255;
#X msg -217 85 200 \, 255;
#X obj 78 60 print;
#X obj -92 -38 comport 4 9600;
#X obj 298 39 print arduino;
#X obj 289 6 comport 8 9600;
#X msg 307 -47 devices;
#X msg 380 -37 3;
#X msg 388 4 close;
#X msg -247 -62 160;
#X msg 33 -75 devicename COM9;
#X connect 0 0 56 0;
#X connect 1 0 56 0;
#X connect 2 0 20 0;
#X connect 2 1 21 0;
#X connect 2 2 22 0;
#X connect 2 3 23 0;
#X connect 2 4 24 0;
#X connect 3 0 25 0;
#X connect 3 1 26 0;
#X connect 3 2 27 0;
#X connect 3 3 28 0;
#X connect 3 4 29 0;
#X connect 6 0 30 0;
#X connect 6 1 31 0;
#X connect 6 2 32 0;
#X connect 7 0 4 0;
#X connect 7 1 5 0;
#X connect 9 0 8 0;
#X connect 12 0 2 0;
#X connect 12 1 3 0;
#X connect 12 2 6 0;
#X connect 12 3 7 0;
#X connect 12 3 47 0;
#X connect 12 4 19 0;
#X connect 12 5 9 0;
#X connect 13 0 14 0;
#X connect 13 0 15 1;
#X connect 13 1 14 1;
#X connect 14 0 17 0;
#X connect 15 0 16 0;
#X connect 15 0 17 1;
#X connect 16 0 15 1;
#X connect 17 0 12 0;
#X connect 18 0 13 0;
#X connect 18 1 15 0;
#X connect 19 0 56 0;
#X connect 20 0 42 0;
#X connect 25 0 38 0;
#X connect 30 0 34 0;
#X connect 33 0 36 0;
#X connect 34 0 33 0;
#X connect 34 1 33 1;
#X connect 36 0 35 0;
#X connect 37 0 40 0;
#X connect 38 0 37 0;
#X connect 38 1 37 1;
#X connect 40 0 39 0;
#X connect 41 0 44 0;
#X connect 42 0 41 0;
#X connect 42 1 41 1;
#X connect 44 0 43 0;
#X connect 46 0 51 0;
#X connect 47 0 49 0;
#X connect 47 1 46 0;
#X connect 47 2 48 0;
#X connect 48 0 51 0;
#X connect 49 0 51 0;
#X connect 50 0 47 0;
#X connect 52 0 56 0;
#X connect 53 0 56 0;
#X connect 54 0 56 0;
#X connect 56 0 18 0;
#X connect 56 0 55 0;
#X connect 58 0 57 0;
#X connect 59 0 58 0;
#X connect 60 0 58 0;
#X connect 61 0 58 0;
#X connect 62 0 56 0;
#X connect 63 0 56 0;
