#N canvas 1779 -128 1366 686 10;
#X msg 138 68 devices;
#X obj 146 103 comport 4 57600;
#X obj 172 229 list prepend;
#X obj 211 277 t l;
#X obj 138 134 sel 126;
#X obj 140 320 list append;
#X obj 144 412 print;
#X obj 117 178 t b b;
#X msg 268 139 close;
#X floatatom 195 458 5 0 0 0 - - -;
#X floatatom 230 458 5 0 0 0 - - -;
#X floatatom 269 459 5 0 0 0 - - -;
#X floatatom 322 463 5 0 0 0 - - -;
#X floatatom 378 463 5 0 0 0 - - -;
#X floatatom 323 560 5 0 0 0 src - -;
#X floatatom 418 479 5 0 0 0 strength - -;
#X floatatom 485 466 5 0 0 0 options - -;
#X floatatom 527 468 5 0 0 0 - - -;
#X floatatom 571 466 5 0 0 0 - - -;
#X floatatom 612 467 5 0 0 0 - - -;
#X floatatom 654 469 5 0 0 0 - - -;
#X floatatom 698 473 5 0 0 0 - - -;
#X floatatom 739 474 5 0 0 0 - - -;
#X floatatom 781 476 5 0 0 0 - - -;
#X floatatom 825 474 5 0 0 0 - - -;
#X floatatom 866 475 5 0 0 0 - - -;
#X floatatom 908 477 5 0 0 0 - - -;
#X floatatom 988 474 5 0 0 0 - - -;
#X obj 197 487 << 8;
#X obj 198 518 +;
#X floatatom 198 543 5 0 0 0 length - -;
#X obj 321 490 << 8;
#X obj 325 522 +;
#X obj 882 515 << 8;
#X obj 886 547 +;
#X obj 797 513 << 8;
#X obj 801 545 +;
#X obj 721 509 << 8;
#X obj 725 541 +;
#X obj 661 512 << 8;
#X obj 665 544 +;
#X obj 556 506 << 8;
#X obj 560 538 +;
#X obj 552 362 unpack 0 0 0 0 0 0 0 0 0 0 0 0 0 0 0 0 0 0 0 0 0 0 0
;
#X floatatom 983 423 5 0 0 0 - - -;
#X floatatom 552 573 5 0 0 0 - - -;
#X floatatom 656 591 5 0 0 0 - - -;
#X floatatom 723 593 5 0 0 0 - - -;
#X floatatom 795 587 5 0 0 0 - - -;
#X floatatom 881 596 5 0 0 0 - - -;
#X obj 47 126 print;
#X msg 219 72 devicename COM8;
#X connect 0 0 1 0;
#X connect 1 0 4 0;
#X connect 1 0 50 0;
#X connect 2 0 3 0;
#X connect 2 0 5 1;
#X connect 3 0 2 1;
#X connect 4 0 7 0;
#X connect 4 1 2 0;
#X connect 5 0 6 0;
#X connect 5 0 43 0;
#X connect 7 0 5 0;
#X connect 7 1 2 1;
#X connect 8 0 1 0;
#X connect 9 0 28 0;
#X connect 10 0 29 1;
#X connect 12 0 31 0;
#X connect 13 0 32 1;
#X connect 17 0 41 0;
#X connect 18 0 42 1;
#X connect 19 0 39 0;
#X connect 20 0 40 1;
#X connect 21 0 37 0;
#X connect 22 0 38 1;
#X connect 23 0 35 0;
#X connect 24 0 36 1;
#X connect 25 0 33 0;
#X connect 26 0 34 1;
#X connect 28 0 29 0;
#X connect 29 0 30 0;
#X connect 31 0 32 0;
#X connect 32 0 14 0;
#X connect 33 0 34 0;
#X connect 34 0 49 0;
#X connect 35 0 36 0;
#X connect 36 0 48 0;
#X connect 37 0 38 0;
#X connect 38 0 47 0;
#X connect 39 0 40 0;
#X connect 40 0 46 0;
#X connect 41 0 42 0;
#X connect 42 0 45 0;
#X connect 43 0 9 0;
#X connect 43 1 10 0;
#X connect 43 2 11 0;
#X connect 43 3 12 0;
#X connect 43 4 13 0;
#X connect 43 6 15 0;
#X connect 43 7 16 0;
#X connect 43 8 17 0;
#X connect 43 10 18 0;
#X connect 43 11 19 0;
#X connect 43 12 20 0;
#X connect 43 14 21 0;
#X connect 43 15 22 0;
#X connect 43 16 23 0;
#X connect 43 17 24 0;
#X connect 43 18 25 0;
#X connect 43 19 26 0;
#X connect 43 20 27 0;
#X connect 43 21 44 0;
#X connect 51 0 1 0;
